<svg version="1.1" viewBox="0.0 0.0 828.0 512.0" fill="none" stroke="none" stroke-linecap="square" stroke-miterlimit="10" width="828" height="512" xmlns:xlink="http://www.w3.org/1999/xlink" xmlns="http://www.w3.org/2000/svg"><path fill="#ffffff" d="M0 0L828.0 0L828.0 512.0L0 512.0L0 0Z" fill-rule="nonzero"/><path fill="#4285f4" d="M414.0 90.166664C451.86636 90.166664 488.93954 101.01845 520.82916 121.43688L414.0 288.28333Z" fill-rule="nonzero"/><path fill="#71c287" d="M409.02078 90.22925C410.6802 90.18753 412.34006 90.166664 414.0 90.166664L414.0 288.28333Z" fill-rule="nonzero"/><path fill="#fcd04f" d="M393.85382 91.19364C398.8953 90.678314 403.95465 90.35661 409.02078 90.22925L414.0 288.28333Z" fill-rule="nonzero"/><path fill="#f07b72" d="M385.6606 92.20403C388.38437 91.81036 391.11603 91.473495 393.85382 91.19364L414.0 288.28333Z" fill-rule="nonzero"/><path fill="#7baaf7" d="M345.9597 102.216866C358.812 97.51707 372.11667 94.16154 385.6606 92.20403L414.0 288.28333Z" fill-rule="nonzero"/><path fill="#46bdc6" d="M339.47986 104.71601C341.62503 103.84516 343.7853 103.011986 345.9597 102.216866L414.0 288.28333Z" fill-rule="nonzero"/><path fill="#ff6d01" d="M232.19391 209.56383C252.8304 161.90297 291.3573 124.251625 339.47986 104.71601L414.0 288.28333Z" fill-rule="nonzero"/><path fill="#34a853" d="M216.79701 307.28845C213.58269 273.9357 218.88014 240.31255 232.19391 209.56383L414.0 288.28333Z" fill-rule="nonzero"/><path fill="#fbbc04" d="M354.95743 477.39755C278.88034 453.64584 224.44241 386.6195 216.79701 307.28845L414.0 288.28333Z" fill-rule="nonzero"/><path fill="#ea4335" d="M520.82916 121.43688C604.3961 174.94348 635.489 282.02008 593.57697 371.96323C551.665 461.90634 449.67743 506.9697 354.95743 477.39755L414.0 288.28333Z" fill-rule="nonzero"/><path fill="#1a1a1a" d="M36.178123 102.65104L37.88125 103.072914Q37.35 105.18229 35.959373 106.291664Q34.56875 107.385414 32.553123 107.385414Q30.475 107.385414 29.1625 106.541664Q27.865625 105.68229 27.178125 104.08854Q26.490625 102.479164 26.490625 100.61979Q26.490625 98.61979 27.25625 97.11979Q28.0375 95.61979 29.459375 94.83854Q30.88125 94.05729 32.584373 94.05729Q34.50625 94.05729 35.81875 95.041664Q37.146873 96.02604 37.6625 97.80729L35.990623 98.21354Q35.5375 96.80729 34.678123 96.166664Q33.834373 95.52604 32.5375 95.52604Q31.053125 95.52604 30.053125 96.24479Q29.06875 96.947914 28.6625 98.15104Q28.25625 99.33854 28.25625 100.61979Q28.25625 102.260414 28.725 103.49479Q29.209375 104.71354 30.225 105.322914Q31.240625 105.93229 32.4125 105.93229Q33.85 105.93229 34.834373 105.104164Q35.834373 104.27604 36.178123 102.65104ZM39.771873 107.166664L39.771873 97.83854L41.19375 97.83854L41.19375 99.24479Q41.740623 98.260414 42.19375 97.947914Q42.6625 97.61979 43.209373 97.61979Q44.021873 97.61979 44.834373 98.135414L44.303123 99.604164Q43.709373 99.260414 43.13125 99.260414Q42.615623 99.260414 42.19375 99.572914Q41.7875 99.885414 41.615623 100.43229Q41.35 101.27604 41.35 102.27604L41.35 107.166664L39.771873 107.166664ZM45.803123 96.104164L45.803123 94.27604L47.38125 94.27604L47.38125 96.104164L45.803123 96.104164ZM45.803123 107.166664L45.803123 97.83854L47.38125 97.83854L47.38125 107.166664L45.803123 107.166664ZM53.240623 105.74479L53.475 107.15104Q52.803123 107.291664 52.271873 107.291664Q51.4125 107.291664 50.928123 107.02604Q50.459373 106.74479 50.271873 106.30729Q50.084373 105.854164 50.084373 104.43229L50.084373 99.05729L48.9125 99.05729L48.9125 97.83854L50.084373 97.83854L50.084373 95.52604L51.646873 94.572914L51.646873 97.83854L53.240623 97.83854L53.240623 99.05729L51.646873 99.05729L51.646873 104.52604Q51.646873 105.197914 51.725 105.40104Q51.81875 105.58854 52.00625 105.697914Q52.19375 105.80729 52.553123 105.80729Q52.803123 105.80729 53.240623 105.74479ZM54.803123 96.104164L54.803123 94.27604L56.38125 94.27604L56.38125 96.104164L54.803123 96.104164ZM54.803123 107.166664L54.803123 97.83854L56.38125 97.83854L56.38125 107.166664L54.803123 107.166664ZM64.88125 103.74479L66.42812 103.947914Q66.17812 105.55729 65.13125 106.479164Q64.08437 107.385414 62.553123 107.385414Q60.63125 107.385414 59.459373 106.135414Q58.303123 104.86979 58.303123 102.541664Q58.303123 101.02604 58.803123 99.90104Q59.303123 98.760414 60.31875 98.197914Q61.35 97.61979 62.553123 97.61979Q64.08437 97.61979 65.0375 98.40104Q66.00625 99.166664 66.2875 100.572914L64.74062 100.80729Q64.52187 99.86979 63.959373 99.40104Q63.4125 98.916664 62.615623 98.916664Q61.428123 98.916664 60.678123 99.77604Q59.928123 100.635414 59.928123 102.49479Q59.928123 104.36979 60.646873 105.229164Q61.365623 106.072914 62.5375 106.072914Q63.459373 106.072914 64.08437 105.510414Q64.70937 104.93229 64.88125 103.74479ZM73.88125 106.010414Q73.00625 106.760414 72.17812 107.072914Q71.36562 107.385414 70.44375 107.385414Q68.89687 107.385414 68.06875 106.635414Q67.25625 105.86979 67.25625 104.697914Q67.25625 104.02604 67.56875 103.46354Q67.88125 102.885414 68.38125 102.541664Q68.88125 102.197914 69.52187 102.02604Q69.99062 101.90104 70.92812 101.791664Q72.83437 101.55729 73.74062 101.24479Q73.75625 100.916664 73.75625 100.822914Q73.75625 99.86979 73.30312 99.46354Q72.69375 98.93229 71.50625 98.93229Q70.38125 98.93229 69.85 99.322914Q69.31875 99.71354 69.06875 100.71354L67.52187 100.49479Q67.74062 99.49479 68.20937 98.885414Q68.69375 98.27604 69.6 97.947914Q70.52187 97.61979 71.74062 97.61979Q72.92812 97.61979 73.67812 97.90104Q74.42812 98.18229 74.77187 98.61979Q75.13125 99.041664 75.27187 99.68229Q75.35 100.08854 75.35 101.15104L75.35 103.260414Q75.35 105.46354 75.44375 106.05729Q75.55312 106.635414 75.85 107.166664L74.19375 107.166664Q73.94375 106.666664 73.88125 106.010414ZM73.74062 102.479164Q72.88125 102.83854 71.1625 103.072914Q70.19375 103.21354 69.7875 103.40104Q69.38125 103.572914 69.1625 103.916664Q68.94375 104.24479 68.94375 104.666664Q68.94375 105.291664 69.4125 105.71354Q69.89687 106.135414 70.81875 106.135414Q71.74062 106.135414 72.44375 105.74479Q73.1625 105.33854 73.49062 104.65104Q73.74062 104.104164 73.74062 103.05729L73.74062 102.479164ZM77.75625 107.166664L77.75625 94.27604L79.33437 94.27604L79.33437 107.166664L77.75625 107.166664ZM86.17812 103.291664L86.17812 101.71354L91.0375 101.71354L91.0375 103.291664L86.17812 103.291664ZM98.08437 107.166664L98.08437 94.27604L106.77187 94.27604L106.77187 95.80729L99.7875 95.80729L99.7875 99.791664L105.83437 99.791664L105.83437 101.30729L99.7875 101.30729L99.7875 107.166664L98.08437 107.166664ZM108.80312 96.104164L108.80312 94.27604L110.38125 94.27604L110.38125 96.104164L108.80312 96.104164ZM108.80312 107.166664L108.80312 97.83854L110.38125 97.83854L110.38125 107.166664L108.80312 107.166664ZM111.725 107.166664L115.14687 102.30729L111.99062 97.83854L113.95937 97.83854L115.39687 100.02604Q115.80312 100.65104 116.05312 101.072914Q116.42812 100.479164 116.75625 100.041664L118.33437 97.83854L120.225 97.83854L116.99062 102.229164L120.475 107.166664L118.52187 107.166664L116.61562 104.260414L116.1 103.479164L113.64687 107.166664L111.725 107.166664ZM126.88125 106.010414Q126.00625 106.760414 125.17812 107.072914Q124.36562 107.385414 123.44375 107.385414Q121.89687 107.385414 121.06875 106.635414Q120.25625 105.86979 120.25625 104.697914Q120.25625 104.02604 120.56875 103.46354Q120.88125 102.885414 121.38125 102.541664Q121.88125 102.197914 122.52187 102.02604Q122.99062 101.90104 123.92812 101.791664Q125.83437 101.55729 126.74062 101.24479Q126.75625 100.916664 126.75625 100.822914Q126.75625 99.86979 126.30312 99.46354Q125.69375 98.93229 124.50625 98.93229Q123.38125 98.93229 122.85 99.322914Q122.31875 99.71354 122.06875 100.71354L120.52187 100.49479Q120.74062 99.49479 121.20937 98.885414Q121.69375 98.27604 122.6 97.947914Q123.52187 97.61979 124.74062 97.61979Q125.92812 97.61979 126.67812 97.90104Q127.42812 98.18229 127.77187 98.61979Q128.13126 99.041664 128.27188 99.68229Q128.35 100.08854 128.35 101.15104L128.35 103.260414Q128.35 105.46354 128.44376 106.05729Q128.55313 106.635414 128.85 107.166664L127.19375 107.166664Q126.94375 106.666664 126.88125 106.010414ZM126.74062 102.479164Q125.88125 102.83854 124.1625 103.072914Q123.19375 103.21354 122.7875 103.40104Q122.38125 103.572914 122.1625 103.916664Q121.94375 104.24479 121.94375 104.666664Q121.94375 105.291664 122.4125 105.71354Q122.89687 106.135414 123.81875 106.135414Q124.74062 106.135414 125.44375 105.74479Q126.1625 105.33854 126.49062 104.65104Q126.74062 104.104164 126.74062 103.05729L126.74062 102.479164ZM132.24063 107.166664L130.77188 107.166664L130.77188 94.27604L132.36563 94.27604L132.36563 98.885414Q133.36563 97.61979 134.9125 97.61979Q135.77188 97.61979 136.5375 97.979164Q137.31876 98.322914 137.80313 98.947914Q138.30313 99.572914 138.58438 100.46354Q138.86563 101.354164 138.86563 102.354164Q138.86563 104.760414 137.67813 106.072914Q136.50626 107.385414 134.83438 107.385414Q133.19376 107.385414 132.24063 105.99479L132.24063 107.166664ZM132.225 102.43229Q132.225 104.104164 132.67813 104.854164Q133.42813 106.072914 134.70938 106.072914Q135.74063 106.072914 136.49063 105.18229Q137.25626 104.27604 137.25626 102.49479Q137.25626 100.666664 136.52188 99.791664Q135.80313 98.916664 134.77188 98.916664Q133.74063 98.916664 132.975 99.822914Q132.225 100.729164 132.225 102.43229ZM140.75626 107.166664L140.75626 94.27604L142.33438 94.27604L142.33438 107.166664L140.75626 107.166664ZM151.17813 104.166664L152.81876 104.36979Q152.42813 105.791664 151.38126 106.58854Q150.33438 107.385414 148.70938 107.385414Q146.6625 107.385414 145.45938 106.11979Q144.25626 104.854164 144.25626 102.572914Q144.25626 100.229164 145.45938 98.93229Q146.67813 97.61979 148.61563 97.61979Q150.49063 97.61979 151.67813 98.90104Q152.86563 100.166664 152.86563 102.479164Q152.86563 102.61979 152.85 102.90104L145.89688 102.90104Q145.975 104.447914 146.75626 105.260414Q147.55313 106.072914 148.70938 106.072914Q149.58438 106.072914 150.19376 105.61979Q150.81876 105.166664 151.17813 104.166664ZM145.975 101.604164L151.19376 101.604164Q151.08438 100.43229 150.6 99.83854Q149.83438 98.916664 148.63126 98.916664Q147.55313 98.916664 146.80313 99.65104Q146.06876 100.385414 145.975 101.604164Z" fill-rule="nonzero"/><path fill="#9e9e9e" d="M26.35 128.76042L27.94375 128.5573Q28.209375 129.90105 28.865625 130.4948Q29.521875 131.08855 30.459375 131.08855Q31.584375 131.08855 32.35 130.32292Q33.115623 129.54167 33.115623 128.40105Q33.115623 127.3073 32.396873 126.60417Q31.69375 125.88542 30.6 125.88542Q30.146875 125.88542 29.475 126.07292L29.646875 124.6823Q29.803125 124.69792 29.9125 124.69792Q30.9125 124.69792 31.725 124.16667Q32.5375 123.63542 32.5375 122.54167Q32.5375 121.66667 31.94375 121.10417Q31.35 120.52605 30.428125 120.52605Q29.50625 120.52605 28.88125 121.10417Q28.271875 121.6823 28.1 122.85417L26.521875 122.57292Q26.803125 120.97917 27.834375 120.10417Q28.865625 119.22917 30.396875 119.22917Q31.44375 119.22917 32.334373 119.6823Q33.225 120.13542 33.69375 120.91667Q34.1625 121.69792 34.1625 122.57292Q34.1625 123.41667 33.709373 124.10417Q33.271873 124.77605 32.38125 125.1823Q33.521873 125.44792 34.146873 126.29167Q34.7875 127.1198 34.7875 128.35417Q34.7875 130.04167 33.553123 131.22917Q32.334373 132.40105 30.459375 132.40105Q28.75625 132.40105 27.63125 131.38542Q26.521875 130.3698 26.35 128.76042ZM37.240623 132.16667L37.240623 130.3698L39.0375 130.3698L39.0375 132.16667L37.240623 132.16667ZM41.35 128.76042L42.94375 128.5573Q43.209373 129.90105 43.865623 130.4948Q44.521873 131.08855 45.459373 131.08855Q46.584373 131.08855 47.35 130.32292Q48.115623 129.54167 48.115623 128.40105Q48.115623 127.3073 47.396873 126.60417Q46.69375 125.88542 45.6 125.88542Q45.146873 125.88542 44.475 126.07292L44.646873 124.6823Q44.803123 124.69792 44.9125 124.69792Q45.9125 124.69792 46.725 124.16667Q47.5375 123.63542 47.5375 122.54167Q47.5375 121.66667 46.94375 121.10417Q46.35 120.52605 45.428123 120.52605Q44.50625 120.52605 43.88125 121.10417Q43.271873 121.6823 43.1 122.85417L41.521873 122.57292Q41.803123 120.97917 42.834373 120.10417Q43.865623 119.22917 45.396873 119.22917Q46.44375 119.22917 47.334373 119.6823Q48.225 120.13542 48.69375 120.91667Q49.1625 121.69792 49.1625 122.57292Q49.1625 123.41667 48.709373 124.10417Q48.271873 124.77605 47.38125 125.1823Q48.521873 125.44792 49.146873 126.29167Q49.7875 127.1198 49.7875 128.35417Q49.7875 130.04167 48.553123 131.22917Q47.334373 132.40105 45.459373 132.40105Q43.75625 132.40105 42.63125 131.38542Q41.521873 130.3698 41.35 128.76042ZM51.646873 122.3698Q51.646873 120.9948 52.334373 120.02605Q53.0375 119.0573 54.35 119.0573Q55.56875 119.0573 56.365623 119.9323Q57.1625 120.79167 57.1625 122.47917Q57.1625 124.10417 56.35 124.9948Q55.553123 125.8698 54.365623 125.8698Q53.209373 125.8698 52.428123 125.01042Q51.646873 124.13542 51.646873 122.3698ZM54.396873 120.15105Q53.803123 120.15105 53.4125 120.66667Q53.021873 121.16667 53.021873 122.52605Q53.021873 123.77605 53.4125 124.27605Q53.81875 124.77605 54.396873 124.77605Q54.990623 124.77605 55.38125 124.27605Q55.771873 123.76042 55.771873 122.41667Q55.771873 121.16667 55.38125 120.66667Q54.990623 120.15105 54.396873 120.15105ZM54.4125 132.63542L61.459373 119.0573L62.740623 119.0573L55.709373 132.63542L54.4125 132.63542ZM59.975 129.13542Q59.975 127.76042 60.6625 126.79167Q61.365623 125.82292 62.69375 125.82292Q63.9125 125.82292 64.69375 126.69792Q65.49062 127.5573 65.49062 129.2448Q65.49062 130.8698 64.69375 131.76042Q63.896873 132.63542 62.709373 132.63542Q61.5375 132.63542 60.75625 131.76042Q59.975 130.88542 59.975 129.13542ZM62.740623 126.91667Q62.146873 126.91667 61.75625 127.4323Q61.365623 127.9323 61.365623 129.3073Q61.365623 130.52605 61.75625 131.04167Q62.146873 131.5573 62.725 131.5573Q63.334373 131.5573 63.725 131.04167Q64.11562 130.52605 64.11562 129.1823Q64.11562 127.9323 63.725 127.4323Q63.334373 126.91667 62.740623 126.91667Z" fill-rule="nonzero"/><path stroke="#757575" stroke-width="1.0" stroke-linecap="butt" d="M25.6 113.666664L209.88333 113.666664L367.97327 105.78715" fill-rule="nonzero"/><path fill="#9e9e9e" d="M369.97327 105.78715C369.97327 104.68258 369.07782 103.78715 367.97327 103.78715C366.86868 103.78715 365.97327 104.68258 365.97327 105.78715C365.97327 106.89172 366.86868 107.78715 367.97327 107.78715C369.07782 107.78715 369.97327 106.89172 369.97327 105.78715" fill-rule="nonzero"/><path fill="#1a1a1a" d="M27.0375 154.16667L27.0375 141.27605L28.740625 141.27605L28.740625 146.57292L35.44375 146.57292L35.44375 141.27605L37.146873 141.27605L37.146873 154.16667L35.44375 154.16667L35.44375 148.08855L28.740625 148.08855L28.740625 154.16667L27.0375 154.16667ZM39.803123 143.10417L39.803123 141.27605L41.38125 141.27605L41.38125 143.10417L39.803123 143.10417ZM39.803123 154.16667L39.803123 144.83855L41.38125 144.83855L41.38125 154.16667L39.803123 154.16667ZM43.490623 154.94792L45.0375 155.16667Q45.13125 155.88542 45.56875 156.21355Q46.1625 156.65105 47.178123 156.65105Q48.271873 156.65105 48.865623 156.19792Q49.475 155.76042 49.678123 154.97917Q49.803123 154.4948 49.803123 152.94792Q48.75625 154.16667 47.209373 154.16667Q45.2875 154.16667 44.225 152.77605Q43.178123 151.38542 43.178123 149.44792Q43.178123 148.10417 43.6625 146.97917Q44.146873 145.85417 45.06875 145.2448Q45.990623 144.6198 47.225 144.6198Q48.88125 144.6198 49.94375 145.96355L49.94375 144.83855L51.4125 144.83855L51.4125 152.90105Q51.4125 155.08855 50.959373 155.9948Q50.521873 156.90105 49.553123 157.41667Q48.6 157.94792 47.19375 157.94792Q45.521873 157.94792 44.490623 157.19792Q43.459373 156.44792 43.490623 154.94792ZM44.803123 149.33855Q44.803123 151.16667 45.5375 152.01042Q46.271873 152.85417 47.365623 152.85417Q48.459373 152.85417 49.19375 152.02605Q49.928123 151.1823 49.928123 149.38542Q49.928123 147.66667 49.1625 146.8073Q48.4125 145.9323 47.334373 145.9323Q46.2875 145.9323 45.5375 146.79167Q44.803123 147.65105 44.803123 149.33855ZM53.7875 154.16667L53.7875 141.27605L55.365623 141.27605L55.365623 145.90105Q56.475 144.6198 58.1625 144.6198Q59.19375 144.6198 59.959373 145.02605Q60.725 145.4323 61.053123 146.16667Q61.396873 146.88542 61.396873 148.2448L61.396873 154.16667L59.803123 154.16667L59.803123 148.2448Q59.803123 147.0573 59.2875 146.52605Q58.771873 145.97917 57.834373 145.97917Q57.13125 145.97917 56.50625 146.35417Q55.896873 146.71355 55.63125 147.33855Q55.365623 147.96355 55.365623 149.0573L55.365623 154.16667L53.7875 154.16667ZM68.17812 150.29167L68.17812 148.71355L73.0375 148.71355L73.0375 150.29167L68.17812 150.29167ZM80.08437 154.16667L80.08437 141.27605L88.77187 141.27605L88.77187 142.8073L81.7875 142.8073L81.7875 146.79167L87.83437 146.79167L87.83437 148.3073L81.7875 148.3073L81.7875 154.16667L80.08437 154.16667ZM90.80312 143.10417L90.80312 141.27605L92.38125 141.27605L92.38125 143.10417L90.80312 143.10417ZM90.80312 154.16667L90.80312 144.83855L92.38125 144.83855L92.38125 154.16667L90.80312 154.16667ZM93.725 154.16667L97.14687 149.3073L93.99062 144.83855L95.95937 144.83855L97.39687 147.02605Q97.80312 147.65105 98.05312 148.07292Q98.42812 147.47917 98.75625 147.04167L100.33437 144.83855L102.225 144.83855L98.99062 149.22917L102.475 154.16667L100.52187 154.16667L98.61562 151.26042L98.1 150.47917L95.64687 154.16667L93.725 154.16667ZM108.88125 153.01042Q108.00625 153.76042 107.17812 154.07292Q106.36562 154.38542 105.44375 154.38542Q103.89687 154.38542 103.06875 153.63542Q102.25625 152.8698 102.25625 151.69792Q102.25625 151.02605 102.56875 150.46355Q102.88125 149.88542 103.38125 149.54167Q103.88125 149.19792 104.52187 149.02605Q104.99062 148.90105 105.92812 148.79167Q107.83437 148.5573 108.74062 148.2448Q108.75625 147.91667 108.75625 147.82292Q108.75625 146.8698 108.30312 146.46355Q107.69375 145.9323 106.50625 145.9323Q105.38125 145.9323 104.85 146.32292Q104.31875 146.71355 104.06875 147.71355L102.52187 147.4948Q102.74062 146.4948 103.20937 145.88542Q103.69375 145.27605 104.6 144.94792Q105.52187 144.6198 106.74062 144.6198Q107.92812 144.6198 108.67812 144.90105Q109.42812 145.1823 109.77187 145.6198Q110.13125 146.04167 110.27187 146.6823Q110.35 147.08855 110.35 148.15105L110.35 150.26042Q110.35 152.46355 110.44375 153.0573Q110.55312 153.63542 110.85 154.16667L109.19375 154.16667Q108.94375 153.66667 108.88125 153.01042ZM108.74062 149.47917Q107.88125 149.83855 106.1625 150.07292Q105.19375 150.21355 104.7875 150.40105Q104.38125 150.57292 104.1625 150.91667Q103.94375 151.2448 103.94375 151.66667Q103.94375 152.29167 104.4125 152.71355Q104.89687 153.13542 105.81875 153.13542Q106.74062 153.13542 107.44375 152.7448Q108.1625 152.33855 108.49062 151.65105Q108.74062 151.10417 108.74062 150.0573L108.74062 149.47917ZM114.24062 154.16667L112.77187 154.16667L112.77187 141.27605L114.36562 141.27605L114.36562 145.88542Q115.36562 144.6198 116.9125 144.6198Q117.77187 144.6198 118.5375 144.97917Q119.31875 145.32292 119.80312 145.94792Q120.30312 146.57292 120.58437 147.46355Q120.86562 148.35417 120.86562 149.35417Q120.86562 151.76042 119.67812 153.07292Q118.50625 154.38542 116.83437 154.38542Q115.19375 154.38542 114.24062 152.9948L114.24062 154.16667ZM114.225 149.4323Q114.225 151.10417 114.67812 151.85417Q115.42812 153.07292 116.70937 153.07292Q117.74062 153.07292 118.49062 152.1823Q119.25625 151.27605 119.25625 149.4948Q119.25625 147.66667 118.52187 146.79167Q117.80312 145.91667 116.77187 145.91667Q115.74062 145.91667 114.975 146.82292Q114.225 147.72917 114.225 149.4323ZM122.75625 154.16667L122.75625 141.27605L124.33437 141.27605L124.33437 154.16667L122.75625 154.16667ZM133.17813 151.16667L134.81876 151.3698Q134.42813 152.79167 133.38126 153.58855Q132.33438 154.38542 130.70938 154.38542Q128.6625 154.38542 127.45937 153.1198Q126.25625 151.85417 126.25625 149.57292Q126.25625 147.22917 127.45937 145.9323Q128.67813 144.6198 130.61563 144.6198Q132.49063 144.6198 133.67813 145.90105Q134.86563 147.16667 134.86563 149.47917Q134.86563 149.6198 134.85 149.90105L127.89687 149.90105Q127.975 151.44792 128.75626 152.26042Q129.55313 153.07292 130.70938 153.07292Q131.58438 153.07292 132.19376 152.6198Q132.81876 152.16667 133.17813 151.16667ZM127.975 148.60417L133.19376 148.60417Q133.08438 147.4323 132.6 146.83855Q131.83438 145.91667 130.63126 145.91667Q129.55313 145.91667 128.80313 146.65105Q128.06876 147.38542 127.975 148.60417Z" fill-rule="nonzero"/><path fill="#9e9e9e" d="M32.303123 179.16667L30.725 179.16667L30.725 169.08855Q30.146875 169.63542 29.225 170.1823Q28.303125 170.71355 27.553125 170.9948L27.553125 169.46355Q28.88125 168.83855 29.88125 167.94792Q30.88125 167.0573 31.2875 166.22917L32.303123 166.22917L32.303123 179.16667ZM44.6625 177.65105L44.6625 179.16667L36.146873 179.16667Q36.13125 178.58855 36.334373 178.07292Q36.6625 177.19792 37.365623 176.35417Q38.084373 175.51042 39.44375 174.40105Q41.5375 172.6823 42.271873 171.6823Q43.021873 170.66667 43.021873 169.77605Q43.021873 168.82292 42.35 168.1823Q41.678123 167.54167 40.6 167.54167Q39.44375 167.54167 38.75625 168.22917Q38.084373 168.91667 38.06875 170.1198L36.44375 169.94792Q36.615623 168.13542 37.69375 167.1823Q38.7875 166.22917 40.63125 166.22917Q42.475 166.22917 43.553123 167.26042Q44.646873 168.29167 44.646873 169.8073Q44.646873 170.57292 44.31875 171.32292Q44.00625 172.07292 43.271873 172.90105Q42.5375 173.72917 40.834373 175.16667Q39.4125 176.3698 39.00625 176.79167Q38.6 177.21355 38.35 177.65105L44.6625 177.65105ZM47.240623 179.16667L47.240623 177.3698L49.0375 177.3698L49.0375 179.16667L47.240623 179.16667ZM56.4125 179.16667L56.4125 176.08855L50.834373 176.08855L50.834373 174.63542L56.709373 166.27605L58.00625 166.27605L58.00625 174.63542L59.740623 174.63542L59.740623 176.08855L58.00625 176.08855L58.00625 179.16667L56.4125 179.16667ZM56.4125 174.63542L56.4125 168.82292L52.38125 174.63542L56.4125 174.63542ZM61.646873 169.3698Q61.646873 167.9948 62.334373 167.02605Q63.0375 166.0573 64.35 166.0573Q65.56875 166.0573 66.36562 166.9323Q67.1625 167.79167 67.1625 169.47917Q67.1625 171.10417 66.35 171.9948Q65.55312 172.8698 64.36562 172.8698Q63.209373 172.8698 62.428123 172.01042Q61.646873 171.13542 61.646873 169.3698ZM64.39687 167.15105Q63.803123 167.15105 63.4125 167.66667Q63.021873 168.16667 63.021873 169.52605Q63.021873 170.77605 63.4125 171.27605Q63.81875 171.77605 64.39687 171.77605Q64.99062 171.77605 65.38125 171.27605Q65.77187 170.76042 65.77187 169.41667Q65.77187 168.16667 65.38125 167.66667Q64.99062 167.15105 64.39687 167.15105ZM64.4125 179.63542L71.45937 166.0573L72.74062 166.0573L65.70937 179.63542L64.4125 179.63542ZM69.975 176.13542Q69.975 174.76042 70.6625 173.79167Q71.36562 172.82292 72.69375 172.82292Q73.9125 172.82292 74.69375 173.69792Q75.49062 174.5573 75.49062 176.2448Q75.49062 177.8698 74.69375 178.76042Q73.89687 179.63542 72.70937 179.63542Q71.5375 179.63542 70.75625 178.76042Q69.975 177.88542 69.975 176.13542ZM72.74062 173.91667Q72.14687 173.91667 71.75625 174.4323Q71.36562 174.9323 71.36562 176.3073Q71.36562 177.52605 71.75625 178.04167Q72.14687 178.5573 72.725 178.5573Q73.33437 178.5573 73.725 178.04167Q74.11562 177.52605 74.11562 176.1823Q74.11562 174.9323 73.725 174.4323Q73.33437 173.91667 72.74062 173.91667Z" fill-rule="nonzero"/><path stroke="#757575" stroke-width="1.0" stroke-linecap="butt" d="M25.6 160.66667L209.88333 160.66667L282.45312 153.67747" fill-rule="nonzero"/><path fill="#9e9e9e" d="M284.45312 153.67747C284.45312 152.5729 283.55768 151.67747 282.45312 151.67747C281.34854 151.67747 280.45312 152.5729 280.45312 153.67747C280.45312 154.78204 281.34854 155.67747 282.45312 155.67747C283.55768 155.67747 284.45312 154.78204 284.45312 153.67747" fill-rule="nonzero"/><path fill="#1a1a1a" d="M26.94375 252.4913L26.94375 239.60068L29.50625 239.60068L32.553123 248.72568Q32.975 250.00693 33.1625 250.63193Q33.38125 249.9288 33.85 248.56943L36.94375 239.60068L39.225 239.60068L39.225 252.4913L37.584373 252.4913L37.584373 241.71005L33.85 252.4913L32.303123 252.4913L28.584375 241.52255L28.584375 252.4913L26.94375 252.4913ZM48.178123 249.4913L49.81875 249.69443Q49.428123 251.1163 48.38125 251.91318Q47.334373 252.71005 45.709373 252.71005Q43.6625 252.71005 42.459373 251.44443Q41.25625 250.1788 41.25625 247.89755Q41.25625 245.5538 42.459373 244.25693Q43.678123 242.94443 45.615623 242.94443Q47.490623 242.94443 48.678123 244.22568Q49.865623 245.4913 49.865623 247.8038Q49.865623 247.94443 49.85 248.22568L42.896873 248.22568Q42.975 249.77255 43.75625 250.58505Q44.553123 251.39755 45.709373 251.39755Q46.584373 251.39755 47.19375 250.94443Q47.81875 250.4913 48.178123 249.4913ZM42.975 246.9288L48.19375 246.9288Q48.084373 245.75693 47.6 245.16318Q46.834373 244.2413 45.63125 244.2413Q44.553123 244.2413 43.803123 244.97568Q43.06875 245.71005 42.975 246.9288ZM57.85 252.4913L57.85 251.31943Q56.959373 252.71005 55.225 252.71005Q54.115623 252.71005 53.178123 252.10068Q52.240623 251.47568 51.725 250.38193Q51.209373 249.27255 51.209373 247.83505Q51.209373 246.4288 51.678123 245.3038Q52.146873 244.16318 53.06875 243.5538Q54.00625 242.94443 55.1625 242.94443Q56.00625 242.94443 56.6625 243.3038Q57.31875 243.66318 57.740623 244.22568L57.740623 239.60068L59.303123 239.60068L59.303123 252.4913L57.85 252.4913ZM52.834373 247.83505Q52.834373 249.63193 53.584373 250.52255Q54.35 251.39755 55.38125 251.39755Q56.4125 251.39755 57.13125 250.5538Q57.865623 249.71005 57.865623 247.96005Q57.865623 246.0538 57.13125 245.16318Q56.396873 244.25693 55.31875 244.25693Q54.25625 244.25693 53.5375 245.1163Q52.834373 245.97568 52.834373 247.83505ZM61.803123 241.4288L61.803123 239.60068L63.38125 239.60068L63.38125 241.4288L61.803123 241.4288ZM61.803123 252.4913L61.803123 243.16318L63.38125 243.16318L63.38125 252.4913L61.803123 252.4913ZM71.89687 252.4913L71.89687 251.1163Q70.81875 252.71005 68.94375 252.71005Q68.11562 252.71005 67.39687 252.39755Q66.67812 252.06943 66.33437 251.60068Q65.99062 251.1163 65.85 250.41318Q65.75625 249.94443 65.75625 248.94443L65.75625 243.16318L67.33437 243.16318L67.33437 248.33505Q67.33437 249.56943 67.42812 250.00693Q67.58437 250.63193 68.06875 250.9913Q68.55312 251.33505 69.25625 251.33505Q69.975 251.33505 70.6 250.97568Q71.225 250.6163 71.475 249.9913Q71.74062 249.35068 71.74062 248.16318L71.74062 243.16318L73.31875 243.16318L73.31875 252.4913L71.89687 252.4913ZM75.7875 252.4913L75.7875 243.16318L77.20937 243.16318L77.20937 244.46005Q77.64687 243.78818 78.36562 243.3663Q79.1 242.94443 80.0375 242.94443Q81.06875 242.94443 81.725 243.38193Q82.39687 243.8038 82.6625 244.58505Q83.77187 242.94443 85.55312 242.94443Q86.94375 242.94443 87.67812 243.72568Q88.42812 244.4913 88.42812 246.08505L88.42812 252.4913L86.86562 252.4913L86.86562 246.6163Q86.86562 245.66318 86.70937 245.2413Q86.55312 244.81943 86.14687 244.56943Q85.74062 244.31943 85.19375 244.31943Q84.20937 244.31943 83.55312 244.97568Q82.9125 245.63193 82.9125 247.06943L82.9125 252.4913L81.33437 252.4913L81.33437 246.4288Q81.33437 245.3663 80.94375 244.85068Q80.55312 244.31943 79.67812 244.31943Q79.00625 244.31943 78.44375 244.6788Q77.88125 245.02255 77.61562 245.69443Q77.36562 246.3663 77.36562 247.64755L77.36562 252.4913L75.7875 252.4913ZM94.17812 248.6163L94.17812 247.03818L99.0375 247.03818L99.0375 248.6163L94.17812 248.6163ZM105.975 252.4913L105.975 239.60068L107.725 239.60068L114.49062 249.72568L114.49062 239.60068L116.11562 239.60068L116.11562 252.4913L114.38125 252.4913L107.6 242.3663L107.6 252.4913L105.975 252.4913ZM118.19375 247.81943Q118.19375 245.22568 119.64687 243.97568Q120.85 242.94443 122.56875 242.94443Q124.50625 242.94443 125.725 244.21005Q126.94375 245.47568 126.94375 247.69443Q126.94375 249.4913 126.39687 250.52255Q125.86562 251.5538 124.83437 252.13193Q123.80312 252.71005 122.56875 252.71005Q120.61562 252.71005 119.39687 251.46005Q118.19375 250.19443 118.19375 247.81943ZM119.81875 247.81943Q119.81875 249.6163 120.6 250.50693Q121.38125 251.39755 122.56875 251.39755Q123.75625 251.39755 124.5375 250.50693Q125.31875 249.60068 125.31875 247.77255Q125.31875 246.03818 124.52187 245.14755Q123.74062 244.25693 122.56875 244.25693Q121.38125 244.25693 120.6 245.14755Q119.81875 246.03818 119.81875 247.81943ZM134.08438 252.4913L134.08438 239.60068L142.77188 239.60068L142.77188 241.13193L135.7875 241.13193L135.7875 245.1163L141.83438 245.1163L141.83438 246.63193L135.7875 246.63193L135.7875 252.4913L134.08438 252.4913ZM144.80313 241.4288L144.80313 239.60068L146.38126 239.60068L146.38126 241.4288L144.80313 241.4288ZM144.80313 252.4913L144.80313 243.16318L146.38126 243.16318L146.38126 252.4913L144.80313 252.4913ZM147.725 252.4913L151.14688 247.63193L147.99063 243.16318L149.95938 243.16318L151.39688 245.35068Q151.80313 245.97568 152.05313 246.39755Q152.42813 245.8038 152.75626 245.3663L154.33438 243.16318L156.225 243.16318L152.99063 247.5538L156.475 252.4913L154.52188 252.4913L152.61563 249.58505L152.1 248.8038L149.64688 252.4913L147.725 252.4913Z" fill-rule="nonzero"/><path fill="#9e9e9e" d="M28.7875 270.50693Q27.803125 270.14755 27.31875 269.47568Q26.85 268.8038 26.85 267.88193Q26.85 266.47568 27.85 265.52255Q28.865625 264.5538 30.553125 264.5538Q32.240623 264.5538 33.25625 265.53818Q34.2875 266.50693 34.2875 267.91318Q34.2875 268.81943 33.81875 269.4913Q33.35 270.14755 32.396873 270.50693Q33.584373 270.89755 34.19375 271.75693Q34.81875 272.6163 34.81875 273.8038Q34.81875 275.46005 33.646873 276.58505Q32.475 277.71005 30.56875 277.71005Q28.6625 277.71005 27.490625 276.58505Q26.334375 275.44443 26.334375 273.75693Q26.334375 272.50693 26.959375 271.66318Q27.6 270.8038 28.7875 270.50693ZM28.459375 267.81943Q28.459375 268.7413 29.053125 269.31943Q29.646875 269.89755 30.584375 269.89755Q31.490625 269.89755 32.06875 269.31943Q32.6625 268.7413 32.6625 267.91318Q32.6625 267.03818 32.053123 266.44443Q31.459375 265.85068 30.56875 265.85068Q29.6625 265.85068 29.053125 266.4288Q28.459375 267.00693 28.459375 267.81943ZM27.959375 273.77255Q27.959375 274.44443 28.271875 275.08505Q28.6 275.71005 29.225 276.06943Q29.865625 276.41318 30.6 276.41318Q31.725 276.41318 32.459373 275.6788Q33.209373 274.94443 33.209373 273.81943Q33.209373 272.6788 32.44375 271.94443Q31.678125 271.19443 30.5375 271.19443Q29.428125 271.19443 28.69375 271.9288Q27.959375 272.66318 27.959375 273.77255ZM37.240623 277.4913L37.240623 275.69443L39.0375 275.69443L39.0375 277.4913L37.240623 277.4913ZM41.35 271.13193Q41.35 268.85068 41.81875 267.46005Q42.2875 266.06943 43.209373 265.31943Q44.146873 264.5538 45.553123 264.5538Q46.584373 264.5538 47.365623 264.97568Q48.146873 265.38193 48.646873 266.1788Q49.1625 266.96005 49.459373 268.10068Q49.75625 269.22568 49.75625 271.13193Q49.75625 273.39755 49.2875 274.8038Q48.81875 276.19443 47.88125 276.96005Q46.959373 277.71005 45.553123 277.71005Q43.678123 277.71005 42.615623 276.38193Q41.35 274.77255 41.35 271.13193ZM42.975 271.13193Q42.975 274.3038 43.709373 275.3663Q44.459373 276.41318 45.553123 276.41318Q46.63125 276.41318 47.38125 275.3663Q48.13125 274.3038 48.13125 271.13193Q48.13125 267.96005 47.38125 266.91318Q46.63125 265.8663 45.5375 265.8663Q44.44375 265.8663 43.7875 266.78818Q42.975 267.96005 42.975 271.13193ZM51.646873 267.69443Q51.646873 266.31943 52.334373 265.35068Q53.0375 264.38193 54.35 264.38193Q55.56875 264.38193 56.365623 265.25693Q57.1625 266.1163 57.1625 267.8038Q57.1625 269.4288 56.35 270.31943Q55.553123 271.19443 54.365623 271.19443Q53.209373 271.19443 52.428123 270.33505Q51.646873 269.46005 51.646873 267.69443ZM54.396873 265.47568Q53.803123 265.47568 53.4125 265.9913Q53.021873 266.4913 53.021873 267.85068Q53.021873 269.10068 53.4125 269.60068Q53.81875 270.10068 54.396873 270.10068Q54.990623 270.10068 55.38125 269.60068Q55.771873 269.08505 55.771873 267.7413Q55.771873 266.4913 55.38125 265.9913Q54.990623 265.47568 54.396873 265.47568ZM54.4125 277.96005L61.459373 264.38193L62.740623 264.38193L55.709373 277.96005L54.4125 277.96005ZM59.975 274.46005Q59.975 273.08505 60.6625 272.1163Q61.365623 271.14755 62.69375 271.14755Q63.9125 271.14755 64.69375 272.02255Q65.49062 272.88193 65.49062 274.56943Q65.49062 276.19443 64.69375 277.08505Q63.896873 277.96005 62.709373 277.96005Q61.5375 277.96005 60.75625 277.08505Q59.975 276.21005 59.975 274.46005ZM62.740623 272.2413Q62.146873 272.2413 61.75625 272.75693Q61.365623 273.25693 61.365623 274.63193Q61.365623 275.85068 61.75625 276.3663Q62.146873 276.88193 62.725 276.88193Q63.334373 276.88193 63.725 276.3663Q64.11562 275.85068 64.11562 274.50693Q64.11562 273.25693 63.725 272.75693Q63.334373 272.2413 62.740623 272.2413Z" fill-rule="nonzero"/><path stroke="#757575" stroke-width="1.0" stroke-linecap="butt" d="M25.6 258.9913L209.88333 258.9913L228.08257 258.9913" fill-rule="nonzero"/><path fill="#9e9e9e" d="M230.08257 258.9913C230.08257 257.88675 229.18713 256.9913 228.08257 256.9913C226.97798 256.9913 226.08257 257.88675 226.08257 258.9913C226.08257 260.0959 226.97798 260.9913 228.08257 260.9913C229.18713 260.9913 230.08257 260.0959 230.08257 258.9913" fill-rule="nonzero"/><path fill="#1a1a1a" d="M26.94375 400.44016L26.94375 387.54953L29.50625 387.54953L32.553123 396.67453Q32.975 397.95578 33.1625 398.58078Q33.38125 397.87766 33.85 396.51828L36.94375 387.54953L39.225 387.54953L39.225 400.44016L37.584373 400.44016L37.584373 389.6589L33.85 400.44016L32.303123 400.44016L28.584375 389.4714L28.584375 400.44016L26.94375 400.44016ZM48.178123 397.44016L49.81875 397.64328Q49.428123 399.06516 48.38125 399.86203Q47.334373 400.6589 45.709373 400.6589Q43.6625 400.6589 42.459373 399.39328Q41.25625 398.12766 41.25625 395.8464Q41.25625 393.50266 42.459373 392.20578Q43.678123 390.89328 45.615623 390.89328Q47.490623 390.89328 48.678123 392.17453Q49.865623 393.44016 49.865623 395.75266Q49.865623 395.89328 49.85 396.17453L42.896873 396.17453Q42.975 397.7214 43.75625 398.5339Q44.553123 399.3464 45.709373 399.3464Q46.584373 399.3464 47.19375 398.89328Q47.81875 398.44016 48.178123 397.44016ZM42.975 394.87766L48.19375 394.87766Q48.084373 393.70578 47.6 393.11203Q46.834373 392.19016 45.63125 392.19016Q44.553123 392.19016 43.803123 392.92453Q43.06875 393.6589 42.975 394.87766ZM57.85 400.44016L57.85 399.26828Q56.959373 400.6589 55.225 400.6589Q54.115623 400.6589 53.178123 400.04953Q52.240623 399.42453 51.725 398.33078Q51.209373 397.2214 51.209373 395.7839Q51.209373 394.37766 51.678123 393.25266Q52.146873 392.11203 53.06875 391.50266Q54.00625 390.89328 55.1625 390.89328Q56.00625 390.89328 56.6625 391.25266Q57.31875 391.61203 57.740623 392.17453L57.740623 387.54953L59.303123 387.54953L59.303123 400.44016L57.85 400.44016ZM52.834373 395.7839Q52.834373 397.58078 53.584373 398.4714Q54.35 399.3464 55.38125 399.3464Q56.4125 399.3464 57.13125 398.50266Q57.865623 397.6589 57.865623 395.9089Q57.865623 394.00266 57.13125 393.11203Q56.396873 392.20578 55.31875 392.20578Q54.25625 392.20578 53.5375 393.06516Q52.834373 393.92453 52.834373 395.7839ZM61.803123 389.37766L61.803123 387.54953L63.38125 387.54953L63.38125 389.37766L61.803123 389.37766ZM61.803123 400.44016L61.803123 391.11203L63.38125 391.11203L63.38125 400.44016L61.803123 400.44016ZM71.89687 400.44016L71.89687 399.06516Q70.81875 400.6589 68.94375 400.6589Q68.11562 400.6589 67.39687 400.3464Q66.67812 400.01828 66.33437 399.54953Q65.99062 399.06516 65.85 398.36203Q65.75625 397.89328 65.75625 396.89328L65.75625 391.11203L67.33437 391.11203L67.33437 396.2839Q67.33437 397.51828 67.42812 397.95578Q67.58437 398.58078 68.06875 398.94016Q68.55312 399.2839 69.25625 399.2839Q69.975 399.2839 70.6 398.92453Q71.225 398.56516 71.475 397.94016Q71.74062 397.29953 71.74062 396.11203L71.74062 391.11203L73.31875 391.11203L73.31875 400.44016L71.89687 400.44016ZM75.7875 400.44016L75.7875 391.11203L77.20937 391.11203L77.20937 392.4089Q77.64687 391.73703 78.36562 391.31516Q79.1 390.89328 80.0375 390.89328Q81.06875 390.89328 81.725 391.33078Q82.39687 391.75266 82.6625 392.5339Q83.77187 390.89328 85.55312 390.89328Q86.94375 390.89328 87.67812 391.67453Q88.42812 392.44016 88.42812 394.0339L88.42812 400.44016L86.86562 400.44016L86.86562 394.56516Q86.86562 393.61203 86.70937 393.19016Q86.55312 392.76828 86.14687 392.51828Q85.74062 392.26828 85.19375 392.26828Q84.20937 392.26828 83.55312 392.92453Q82.9125 393.58078 82.9125 395.01828L82.9125 400.44016L81.33437 400.44016L81.33437 394.37766Q81.33437 393.31516 80.94375 392.79953Q80.55312 392.26828 79.67812 392.26828Q79.00625 392.26828 78.44375 392.62766Q77.88125 392.9714 77.61562 393.64328Q77.36562 394.31516 77.36562 395.5964L77.36562 400.44016L75.7875 400.44016ZM94.17812 396.56516L94.17812 394.98703L99.0375 394.98703L99.0375 396.56516L94.17812 396.56516ZM106.08437 400.44016L106.08437 387.54953L114.77187 387.54953L114.77187 389.08078L107.7875 389.08078L107.7875 393.06516L113.83437 393.06516L113.83437 394.58078L107.7875 394.58078L107.7875 400.44016L106.08437 400.44016ZM116.80312 389.37766L116.80312 387.54953L118.38125 387.54953L118.38125 389.37766L116.80312 389.37766ZM116.80312 400.44016L116.80312 391.11203L118.38125 391.11203L118.38125 400.44016L116.80312 400.44016ZM119.725 400.44016L123.14687 395.58078L119.99062 391.11203L121.95937 391.11203L123.39687 393.29953Q123.80312 393.92453 124.05312 394.3464Q124.42812 393.75266 124.75625 393.31516L126.33437 391.11203L128.225 391.11203L124.99062 395.50266L128.475 400.44016L126.52187 400.44016L124.61562 397.5339L124.1 396.75266L121.64687 400.44016L119.725 400.44016ZM134.88126 399.2839Q134.00626 400.0339 133.17813 400.3464Q132.36563 400.6589 131.44376 400.6589Q129.89688 400.6589 129.06876 399.9089Q128.25626 399.14328 128.25626 397.9714Q128.25626 397.29953 128.56876 396.73703Q128.88126 396.1589 129.38126 395.81516Q129.88126 395.4714 130.52188 395.29953Q130.99063 395.17453 131.92813 395.06516Q133.83438 394.83078 134.74063 394.51828Q134.75626 394.19016 134.75626 394.0964Q134.75626 393.14328 134.30313 392.73703Q133.69376 392.20578 132.50626 392.20578Q131.38126 392.20578 130.85 392.5964Q130.31876 392.98703 130.06876 393.98703L128.52188 393.76828Q128.74063 392.76828 129.20938 392.1589Q129.69376 391.54953 130.6 391.2214Q131.52188 390.89328 132.74063 390.89328Q133.92813 390.89328 134.67813 391.17453Q135.42813 391.45578 135.77188 391.89328Q136.13126 392.31516 136.27188 392.95578Q136.35 393.36203 136.35 394.42453L136.35 396.5339Q136.35 398.73703 136.44376 399.33078Q136.55313 399.9089 136.85 400.44016L135.19376 400.44016Q134.94376 399.94016 134.88126 399.2839ZM134.74063 395.75266Q133.88126 396.11203 132.1625 396.3464Q131.19376 396.48703 130.7875 396.67453Q130.38126 396.8464 130.1625 397.19016Q129.94376 397.51828 129.94376 397.94016Q129.94376 398.56516 130.4125 398.98703Q130.89688 399.4089 131.81876 399.4089Q132.74063 399.4089 133.44376 399.01828Q134.1625 398.61203 134.49063 397.92453Q134.74063 397.37766 134.74063 396.33078L134.74063 395.75266ZM140.24063 400.44016L138.77188 400.44016L138.77188 387.54953L140.36563 387.54953L140.36563 392.1589Q141.36563 390.89328 142.9125 390.89328Q143.77188 390.89328 144.5375 391.25266Q145.31876 391.5964 145.80313 392.2214Q146.30313 392.8464 146.58438 393.73703Q146.86563 394.62766 146.86563 395.62766Q146.86563 398.0339 145.67813 399.3464Q144.50626 400.6589 142.83438 400.6589Q141.19376 400.6589 140.24063 399.26828L140.24063 400.44016ZM140.225 395.70578Q140.225 397.37766 140.67813 398.12766Q141.42813 399.3464 142.70938 399.3464Q143.74063 399.3464 144.49063 398.45578Q145.25626 397.54953 145.25626 395.76828Q145.25626 393.94016 144.52188 393.06516Q143.80313 392.19016 142.77188 392.19016Q141.74063 392.19016 140.975 393.0964Q140.225 394.00266 140.225 395.70578ZM148.75626 400.44016L148.75626 387.54953L150.33438 387.54953L150.33438 400.44016L148.75626 400.44016ZM159.17813 397.44016L160.81876 397.64328Q160.42813 399.06516 159.38126 399.86203Q158.33438 400.6589 156.70938 400.6589Q154.6625 400.6589 153.45938 399.39328Q152.25626 398.12766 152.25626 395.8464Q152.25626 393.50266 153.45938 392.20578Q154.67813 390.89328 156.61563 390.89328Q158.49063 390.89328 159.67813 392.17453Q160.86563 393.44016 160.86563 395.75266Q160.86563 395.89328 160.85 396.17453L153.89688 396.17453Q153.975 397.7214 154.75626 398.5339Q155.55313 399.3464 156.70938 399.3464Q157.58438 399.3464 158.19376 398.89328Q158.81876 398.44016 159.17813 397.44016ZM153.975 394.87766L159.19376 394.87766Q159.08438 393.70578 158.6 393.11203Q157.83438 392.19016 156.63126 392.19016Q155.55313 392.19016 154.80313 392.92453Q154.06876 393.6589 153.975 394.87766Z" fill-rule="nonzero"/><path fill="#9e9e9e" d="M32.303123 425.44016L30.725 425.44016L30.725 415.36203Q30.146875 415.9089 29.225 416.45578Q28.303125 416.98703 27.553125 417.26828L27.553125 415.73703Q28.88125 415.11203 29.88125 414.2214Q30.88125 413.33078 31.2875 412.50266L32.303123 412.50266L32.303123 425.44016ZM38.7875 418.45578Q37.803123 418.0964 37.31875 417.42453Q36.85 416.75266 36.85 415.83078Q36.85 414.42453 37.85 413.4714Q38.865623 412.50266 40.553123 412.50266Q42.240623 412.50266 43.25625 413.48703Q44.2875 414.45578 44.2875 415.86203Q44.2875 416.76828 43.81875 417.44016Q43.35 418.0964 42.396873 418.45578Q43.584373 418.8464 44.19375 419.70578Q44.81875 420.56516 44.81875 421.75266Q44.81875 423.4089 43.646873 424.5339Q42.475 425.6589 40.56875 425.6589Q38.6625 425.6589 37.490623 424.5339Q36.334373 423.39328 36.334373 421.70578Q36.334373 420.45578 36.959373 419.61203Q37.6 418.75266 38.7875 418.45578ZM38.459373 415.76828Q38.459373 416.69016 39.053123 417.26828Q39.646873 417.8464 40.584373 417.8464Q41.490623 417.8464 42.06875 417.26828Q42.6625 416.69016 42.6625 415.86203Q42.6625 414.98703 42.053123 414.39328Q41.459373 413.79953 40.56875 413.79953Q39.6625 413.79953 39.053123 414.37766Q38.459373 414.95578 38.459373 415.76828ZM37.959373 421.7214Q37.959373 422.39328 38.271873 423.0339Q38.6 423.6589 39.225 424.01828Q39.865623 424.36203 40.6 424.36203Q41.725 424.36203 42.459373 423.62766Q43.209373 422.89328 43.209373 421.76828Q43.209373 420.62766 42.44375 419.89328Q41.678123 419.14328 40.5375 419.14328Q39.428123 419.14328 38.69375 419.87766Q37.959373 420.61203 37.959373 421.7214ZM47.240623 425.44016L47.240623 423.64328L49.0375 423.64328L49.0375 425.44016L47.240623 425.44016ZM51.459373 414.23703L51.459373 412.7214L59.7875 412.7214L59.7875 413.95578Q58.56875 415.26828 57.35 417.44016Q56.146873 419.5964 55.490623 421.89328Q55.00625 423.51828 54.88125 425.44016L53.25625 425.44016Q53.2875 423.92453 53.85 421.76828Q54.428123 419.61203 55.490623 417.61203Q56.553123 415.61203 57.75625 414.23703L51.459373 414.23703ZM61.646873 415.64328Q61.646873 414.26828 62.334373 413.29953Q63.0375 412.33078 64.35 412.33078Q65.56875 412.33078 66.36562 413.20578Q67.1625 414.06516 67.1625 415.75266Q67.1625 417.37766 66.35 418.26828Q65.55312 419.14328 64.36562 419.14328Q63.209373 419.14328 62.428123 418.2839Q61.646873 417.4089 61.646873 415.64328ZM64.39687 413.42453Q63.803123 413.42453 63.4125 413.94016Q63.021873 414.44016 63.021873 415.79953Q63.021873 417.04953 63.4125 417.54953Q63.81875 418.04953 64.39687 418.04953Q64.99062 418.04953 65.38125 417.54953Q65.77187 417.0339 65.77187 415.69016Q65.77187 414.44016 65.38125 413.94016Q64.99062 413.42453 64.39687 413.42453ZM64.4125 425.9089L71.45937 412.33078L72.74062 412.33078L65.70937 425.9089L64.4125 425.9089ZM69.975 422.4089Q69.975 421.0339 70.6625 420.06516Q71.36562 419.0964 72.69375 419.0964Q73.9125 419.0964 74.69375 419.9714Q75.49062 420.83078 75.49062 422.51828Q75.49062 424.14328 74.69375 425.0339Q73.89687 425.9089 72.70937 425.9089Q71.5375 425.9089 70.75625 425.0339Q69.975 424.1589 69.975 422.4089ZM72.74062 420.19016Q72.14687 420.19016 71.75625 420.70578Q71.36562 421.20578 71.36562 422.58078Q71.36562 423.79953 71.75625 424.31516Q72.14687 424.83078 72.725 424.83078Q73.33437 424.83078 73.725 424.31516Q74.11562 423.79953 74.11562 422.45578Q74.11562 421.20578 73.725 420.70578Q73.33437 420.19016 72.74062 420.19016Z" fill-rule="nonzero"/><path stroke="#757575" stroke-width="1.0" stroke-linecap="butt" d="M25.6 406.94016L209.88333 406.94016L267.90457 406.94016" fill-rule="nonzero"/><path fill="#9e9e9e" d="M269.90457 406.94016C269.90457 405.8356 269.00916 404.94016 267.90457 404.94016C266.80002 404.94016 265.90457 405.8356 265.90457 406.94016C265.90457 408.04474 266.80002 408.94016 267.90457 408.94016C269.00916 408.94016 269.90457 408.04474 269.90457 406.94016" fill-rule="nonzero"/><path fill="#1a1a1a" d="M697.7125 107.166664L697.7125 94.27604L699.4313 94.27604L699.4313 105.65104L705.775 105.65104L705.775 107.166664L697.7125 107.166664ZM706.9938 102.49479Q706.9938 99.90104 708.4469 98.65104Q709.65 97.61979 711.3688 97.61979Q713.3063 97.61979 714.525 98.885414Q715.7438 100.15104 715.7438 102.36979Q715.7438 104.166664 715.1969 105.197914Q714.66565 106.229164 713.6344 106.80729Q712.60315 107.385414 711.3688 107.385414Q709.41565 107.385414 708.1969 106.135414Q706.9938 104.86979 706.9938 102.49479ZM708.6188 102.49479Q708.6188 104.291664 709.4 105.18229Q710.1813 106.072914 711.3688 106.072914Q712.5563 106.072914 713.3375 105.18229Q714.1188 104.27604 714.1188 102.447914Q714.1188 100.71354 713.3219 99.822914Q712.54065 98.93229 711.3688 98.93229Q710.1813 98.93229 709.4 99.822914Q708.6188 100.71354 708.6188 102.49479ZM719.3063 107.166664L716.4469 97.83854L718.0875 97.83854L719.5719 103.21354L720.1344 105.229164Q720.16565 105.072914 720.60315 103.291664L722.10315 97.83854L723.72815 97.83854L725.1188 103.24479L725.5875 105.02604L726.1188 103.229164L727.72815 97.83854L729.2594 97.83854L726.3375 107.166664L724.6969 107.166664L723.2125 101.572914L722.85315 99.979164L720.9625 107.166664L719.3063 107.166664ZM734.97815 103.291664L734.97815 101.71354L739.8375 101.71354L739.8375 103.291664L734.97815 103.291664ZM746.8844 107.166664L746.8844 94.27604L755.5719 94.27604L755.5719 95.80729L748.5875 95.80729L748.5875 99.791664L754.6344 99.791664L754.6344 101.30729L748.5875 101.30729L748.5875 107.166664L746.8844 107.166664ZM757.60315 96.104164L757.60315 94.27604L759.1813 94.27604L759.1813 96.104164L757.60315 96.104164ZM757.60315 107.166664L757.60315 97.83854L759.1813 97.83854L759.1813 107.166664L757.60315 107.166664ZM760.525 107.166664L763.9469 102.30729L760.79065 97.83854L762.7594 97.83854L764.1969 100.02604Q764.60315 100.65104 764.85315 101.072914Q765.22815 100.479164 765.5563 100.041664L767.1344 97.83854L769.025 97.83854L765.79065 102.229164L769.275 107.166664L767.3219 107.166664L765.41565 104.260414L764.9 103.479164L762.4469 107.166664L760.525 107.166664ZM775.6813 106.010414Q774.8063 106.760414 773.97815 107.072914Q773.16565 107.385414 772.2438 107.385414Q770.6969 107.385414 769.8688 106.635414Q769.0563 105.86979 769.0563 104.697914Q769.0563 104.02604 769.3688 103.46354Q769.6813 102.885414 770.1813 102.541664Q770.6813 102.197914 771.3219 102.02604Q771.79065 101.90104 772.72815 101.791664Q774.6344 101.55729 775.54065 101.24479Q775.5563 100.916664 775.5563 100.822914Q775.5563 99.86979 775.10315 99.46354Q774.4938 98.93229 773.3063 98.93229Q772.1813 98.93229 771.65 99.322914Q771.1188 99.71354 770.8688 100.71354L769.3219 100.49479Q769.54065 99.49479 770.0094 98.885414Q770.4938 98.27604 771.4 97.947914Q772.3219 97.61979 773.54065 97.61979Q774.72815 97.61979 775.47815 97.90104Q776.22815 98.18229 776.5719 98.61979Q776.9313 99.041664 777.0719 99.68229Q777.15 100.08854 777.15 101.15104L777.15 103.260414Q777.15 105.46354 777.2438 106.05729Q777.35315 106.635414 777.65 107.166664L775.9938 107.166664Q775.7438 106.666664 775.6813 106.010414ZM775.54065 102.479164Q774.6813 102.83854 772.9625 103.072914Q771.9938 103.21354 771.5875 103.40104Q771.1813 103.572914 770.9625 103.916664Q770.7438 104.24479 770.7438 104.666664Q770.7438 105.291664 771.2125 105.71354Q771.6969 106.135414 772.6188 106.135414Q773.54065 106.135414 774.2438 105.74479Q774.9625 105.33854 775.29065 104.65104Q775.54065 104.104164 775.54065 103.05729L775.54065 102.479164ZM781.04065 107.166664L779.5719 107.166664L779.5719 94.27604L781.16565 94.27604L781.16565 98.885414Q782.16565 97.61979 783.7125 97.61979Q784.5719 97.61979 785.3375 97.979164Q786.1188 98.322914 786.60315 98.947914Q787.10315 99.572914 787.3844 100.46354Q787.66565 101.354164 787.66565 102.354164Q787.66565 104.760414 786.47815 106.072914Q785.3063 107.385414 783.6344 107.385414Q781.9938 107.385414 781.04065 105.99479L781.04065 107.166664ZM781.025 102.43229Q781.025 104.104164 781.47815 104.854164Q782.22815 106.072914 783.5094 106.072914Q784.54065 106.072914 785.29065 105.18229Q786.0563 104.27604 786.0563 102.49479Q786.0563 100.666664 785.3219 99.791664Q784.60315 98.916664 783.5719 98.916664Q782.54065 98.916664 781.775 99.822914Q781.025 100.729164 781.025 102.43229ZM789.5563 107.166664L789.5563 94.27604L791.1344 94.27604L791.1344 107.166664L789.5563 107.166664ZM799.97815 104.166664L801.6188 104.36979Q801.22815 105.791664 800.1813 106.58854Q799.1344 107.385414 797.5094 107.385414Q795.4625 107.385414 794.2594 106.11979Q793.0563 104.854164 793.0563 102.572914Q793.0563 100.229164 794.2594 98.93229Q795.47815 97.61979 797.41565 97.61979Q799.29065 97.61979 800.47815 98.90104Q801.66565 100.166664 801.66565 102.479164Q801.66565 102.61979 801.65 102.90104L794.6969 102.90104Q794.775 104.447914 795.5563 105.260414Q796.35315 106.072914 797.5094 106.072914Q798.3844 106.072914 798.9938 105.61979Q799.6188 105.166664 799.97815 104.166664ZM794.775 101.604164L799.9938 101.604164Q799.8844 100.43229 799.4 99.83854Q798.6344 98.916664 797.4313 98.916664Q796.35315 98.916664 795.60315 99.65104Q794.8688 100.385414 794.775 101.604164Z" fill-rule="nonzero"/><path fill="#9e9e9e" d="M762.3844 129.1823L763.9 129.04167Q764.10315 130.1198 764.6344 130.60417Q765.1813 131.08855 766.04065 131.08855Q766.775 131.08855 767.3219 130.76042Q767.8688 130.41667 768.2125 129.8698Q768.5719 129.3073 768.8063 128.35417Q769.04065 127.40105 769.04065 126.41667Q769.04065 126.3073 769.04065 126.10417Q768.5563 126.85417 767.72815 127.32292Q766.91565 127.79167 765.9625 127.79167Q764.3688 127.79167 763.2594 126.63542Q762.15 125.47917 762.15 123.57292Q762.15 121.6198 763.3063 120.4323Q764.4625 119.22917 766.1969 119.22917Q767.4625 119.22917 768.4938 119.91667Q769.54065 120.58855 770.0719 121.83855Q770.6188 123.08855 770.6188 125.46355Q770.6188 127.9323 770.0719 129.40105Q769.54065 130.85417 768.47815 131.6198Q767.4313 132.38542 766.0094 132.38542Q764.4938 132.38542 763.525 131.5573Q762.5719 130.71355 762.3844 129.1823ZM768.8688 123.4948Q768.8688 122.13542 768.1344 121.33855Q767.41565 120.54167 766.4 120.54167Q765.3375 120.54167 764.5563 121.40105Q763.775 122.26042 763.775 123.63542Q763.775 124.8698 764.5094 125.63542Q765.2594 126.40105 766.35315 126.40105Q767.4469 126.40105 768.15 125.63542Q768.8688 124.8698 768.8688 123.4948ZM773.04065 132.16667L773.04065 130.3698L774.8375 130.3698L774.8375 132.16667L773.04065 132.16667ZM783.10315 132.16667L781.525 132.16667L781.525 122.08855Q780.9469 122.63542 780.025 123.1823Q779.10315 123.71355 778.35315 123.9948L778.35315 122.46355Q779.6813 121.83855 780.6813 120.94792Q781.6813 120.0573 782.0875 119.22917L783.10315 119.22917L783.10315 132.16667ZM787.4469 122.3698Q787.4469 120.9948 788.1344 120.02605Q788.8375 119.0573 790.15 119.0573Q791.3688 119.0573 792.16565 119.9323Q792.9625 120.79167 792.9625 122.47917Q792.9625 124.10417 792.15 124.9948Q791.35315 125.8698 790.16565 125.8698Q789.0094 125.8698 788.22815 125.01042Q787.4469 124.13542 787.4469 122.3698ZM790.1969 120.15105Q789.60315 120.15105 789.2125 120.66667Q788.8219 121.16667 788.8219 122.52605Q788.8219 123.77605 789.2125 124.27605Q789.6188 124.77605 790.1969 124.77605Q790.79065 124.77605 791.1813 124.27605Q791.5719 123.76042 791.5719 122.41667Q791.5719 121.16667 791.1813 120.66667Q790.79065 120.15105 790.1969 120.15105ZM790.2125 132.63542L797.2594 119.0573L798.54065 119.0573L791.5094 132.63542L790.2125 132.63542ZM795.775 129.13542Q795.775 127.76042 796.4625 126.79167Q797.16565 125.82292 798.4938 125.82292Q799.7125 125.82292 800.4938 126.69792Q801.29065 127.5573 801.29065 129.2448Q801.29065 130.8698 800.4938 131.76042Q799.6969 132.63542 798.5094 132.63542Q797.3375 132.63542 796.5563 131.76042Q795.775 130.88542 795.775 129.13542ZM798.54065 126.91667Q797.9469 126.91667 797.5563 127.4323Q797.16565 127.9323 797.16565 129.3073Q797.16565 130.52605 797.5563 131.04167Q797.9469 131.5573 798.525 131.5573Q799.1344 131.5573 799.525 131.04167Q799.91565 130.52605 799.91565 129.1823Q799.91565 127.9323 799.525 127.4323Q799.1344 126.91667 798.54065 126.91667Z" fill-rule="nonzero"/><path stroke="#757575" stroke-width="1.0" stroke-linecap="butt" d="M802.4 113.666664L618.11664 113.666664L466.87308 107.65179" fill-rule="nonzero"/><path fill="#9e9e9e" d="M468.87308 107.65179C468.87308 106.54722 467.97763 105.65179 466.87308 105.65179C465.7685 105.65179 464.87308 106.54722 464.87308 107.65179C464.87308 108.756355 465.7685 109.65179 466.87308 109.65179C467.97763 109.65179 468.87308 108.756355 468.87308 107.65179" fill-rule="nonzero"/><path fill="#1a1a1a" d="M703.7125 361.2792L703.7125 348.38858L705.4313 348.38858L705.4313 359.76358L711.775 359.76358L711.775 361.2792L703.7125 361.2792ZM712.9938 356.60733Q712.9938 354.01358 714.4469 352.76358Q715.65 351.73233 717.3688 351.73233Q719.3063 351.73233 720.525 352.99796Q721.7438 354.26358 721.7438 356.48233Q721.7438 358.2792 721.1969 359.31046Q720.66565 360.3417 719.6344 360.91983Q718.60315 361.49796 717.3688 361.49796Q715.41565 361.49796 714.1969 360.24796Q712.9938 358.98233 712.9938 356.60733ZM714.6188 356.60733Q714.6188 358.4042 715.4 359.29483Q716.1813 360.18546 717.3688 360.18546Q718.5563 360.18546 719.3375 359.29483Q720.1188 358.38858 720.1188 356.56046Q720.1188 354.82608 719.3219 353.93546Q718.54065 353.04483 717.3688 353.04483Q716.1813 353.04483 715.4 353.93546Q714.6188 354.82608 714.6188 356.60733ZM725.3063 361.2792L722.4469 351.95108L724.0875 351.95108L725.5719 357.32608L726.1344 359.3417Q726.16565 359.18546 726.60315 357.4042L728.10315 351.95108L729.72815 351.95108L731.1188 357.35733L731.5875 359.13858L732.1188 357.3417L733.72815 351.95108L735.2594 351.95108L732.3375 361.2792L730.6969 361.2792L729.2125 355.68546L728.85315 354.0917L726.9625 361.2792L725.3063 361.2792ZM740.97815 357.4042L740.97815 355.82608L745.8375 355.82608L745.8375 357.4042L740.97815 357.4042ZM752.775 361.2792L752.775 348.38858L754.525 348.38858L761.29065 358.51358L761.29065 348.38858L762.91565 348.38858L762.91565 361.2792L761.1813 361.2792L754.4 351.1542L754.4 361.2792L752.775 361.2792ZM764.9938 356.60733Q764.9938 354.01358 766.4469 352.76358Q767.65 351.73233 769.3688 351.73233Q771.3063 351.73233 772.525 352.99796Q773.7438 354.26358 773.7438 356.48233Q773.7438 358.2792 773.1969 359.31046Q772.66565 360.3417 771.6344 360.91983Q770.60315 361.49796 769.3688 361.49796Q767.41565 361.49796 766.1969 360.24796Q764.9938 358.98233 764.9938 356.60733ZM766.6188 356.60733Q766.6188 358.4042 767.4 359.29483Q768.1813 360.18546 769.3688 360.18546Q770.5563 360.18546 771.3375 359.29483Q772.1188 358.38858 772.1188 356.56046Q772.1188 354.82608 771.3219 353.93546Q770.54065 353.04483 769.3688 353.04483Q768.1813 353.04483 767.4 353.93546Q766.6188 354.82608 766.6188 356.60733ZM780.8844 361.2792L780.8844 348.38858L789.5719 348.38858L789.5719 349.91983L782.5875 349.91983L782.5875 353.9042L788.6344 353.9042L788.6344 355.41983L782.5875 355.41983L782.5875 361.2792L780.8844 361.2792ZM791.60315 350.2167L791.60315 348.38858L793.1813 348.38858L793.1813 350.2167L791.60315 350.2167ZM791.60315 361.2792L791.60315 351.95108L793.1813 351.95108L793.1813 361.2792L791.60315 361.2792ZM794.525 361.2792L797.9469 356.41983L794.79065 351.95108L796.7594 351.95108L798.1969 354.13858Q798.60315 354.76358 798.85315 355.18546Q799.22815 354.5917 799.5563 354.1542L801.1344 351.95108L803.025 351.95108L799.79065 356.3417L803.275 361.2792L801.3219 361.2792L799.41565 358.37296L798.9 357.5917L796.4469 361.2792L794.525 361.2792Z" fill-rule="nonzero"/><path fill="#9e9e9e" d="M757.2125 386.2792L757.2125 383.20108L751.6344 383.20108L751.6344 381.74796L757.5094 373.38858L758.8063 373.38858L758.8063 381.74796L760.54065 381.74796L760.54065 383.20108L758.8063 383.20108L758.8063 386.2792L757.2125 386.2792ZM757.2125 381.74796L757.2125 375.93546L753.1813 381.74796L757.2125 381.74796ZM762.15 382.9042L763.8063 382.76358Q763.9938 383.98233 764.66565 384.5917Q765.3375 385.20108 766.29065 385.20108Q767.4313 385.20108 768.2125 384.3417Q769.0094 383.48233 769.0094 382.04483Q769.0094 380.70108 768.2438 379.91983Q767.4938 379.13858 766.2594 379.13858Q765.4938 379.13858 764.8688 379.48233Q764.2594 379.82608 763.91565 380.38858L762.4313 380.18546L763.6813 373.57608L770.0875 373.57608L770.0875 375.07608L764.9469 375.07608L764.2438 378.54483Q765.41565 377.73233 766.6813 377.73233Q768.3688 377.73233 769.525 378.9042Q770.6969 380.07608 770.6969 381.9042Q770.6969 383.6542 769.66565 384.93546Q768.4313 386.49796 766.29065 386.49796Q764.525 386.49796 763.41565 385.51358Q762.3063 384.5292 762.15 382.9042ZM773.04065 386.2792L773.04065 384.48233L774.8375 384.48233L774.8375 386.2792L773.04065 386.2792ZM779.5875 379.29483Q778.60315 378.93546 778.1188 378.26358Q777.65 377.5917 777.65 376.66983Q777.65 375.26358 778.65 374.31046Q779.66565 373.3417 781.35315 373.3417Q783.04065 373.3417 784.0563 374.32608Q785.0875 375.29483 785.0875 376.70108Q785.0875 377.60733 784.6188 378.2792Q784.15 378.93546 783.1969 379.29483Q784.3844 379.68546 784.9938 380.54483Q785.6188 381.4042 785.6188 382.5917Q785.6188 384.24796 784.4469 385.37296Q783.275 386.49796 781.3688 386.49796Q779.4625 386.49796 778.29065 385.37296Q777.1344 384.23233 777.1344 382.54483Q777.1344 381.29483 777.7594 380.45108Q778.4 379.5917 779.5875 379.29483ZM779.2594 376.60733Q779.2594 377.5292 779.85315 378.10733Q780.4469 378.68546 781.3844 378.68546Q782.29065 378.68546 782.8688 378.10733Q783.4625 377.5292 783.4625 376.70108Q783.4625 375.82608 782.85315 375.23233Q782.2594 374.63858 781.3688 374.63858Q780.4625 374.63858 779.85315 375.2167Q779.2594 375.79483 779.2594 376.60733ZM778.7594 382.56046Q778.7594 383.23233 779.0719 383.87296Q779.4 384.49796 780.025 384.85733Q780.66565 385.20108 781.4 385.20108Q782.525 385.20108 783.2594 384.4667Q784.0094 383.73233 784.0094 382.60733Q784.0094 381.4667 783.2438 380.73233Q782.47815 379.98233 781.3375 379.98233Q780.22815 379.98233 779.4938 380.7167Q778.7594 381.45108 778.7594 382.56046ZM787.4469 376.48233Q787.4469 375.10733 788.1344 374.13858Q788.8375 373.16983 790.15 373.16983Q791.3688 373.16983 792.16565 374.04483Q792.9625 374.9042 792.9625 376.5917Q792.9625 378.2167 792.15 379.10733Q791.35315 379.98233 790.16565 379.98233Q789.0094 379.98233 788.22815 379.12296Q787.4469 378.24796 787.4469 376.48233ZM790.1969 374.26358Q789.60315 374.26358 789.2125 374.7792Q788.8219 375.2792 788.8219 376.63858Q788.8219 377.88858 789.2125 378.38858Q789.6188 378.88858 790.1969 378.88858Q790.79065 378.88858 791.1813 378.38858Q791.5719 377.87296 791.5719 376.5292Q791.5719 375.2792 791.1813 374.7792Q790.79065 374.26358 790.1969 374.26358ZM790.2125 386.74796L797.2594 373.16983L798.54065 373.16983L791.5094 386.74796L790.2125 386.74796ZM795.775 383.24796Q795.775 381.87296 796.4625 380.9042Q797.16565 379.93546 798.4938 379.93546Q799.7125 379.93546 800.4938 380.81046Q801.29065 381.66983 801.29065 383.35733Q801.29065 384.98233 800.4938 385.87296Q799.6969 386.74796 798.5094 386.74796Q797.3375 386.74796 796.5563 385.87296Q795.775 384.99796 795.775 383.24796ZM798.54065 381.0292Q797.9469 381.0292 797.5563 381.54483Q797.16565 382.04483 797.16565 383.41983Q797.16565 384.63858 797.5563 385.1542Q797.9469 385.66983 798.525 385.66983Q799.1344 385.66983 799.525 385.1542Q799.91565 384.63858 799.91565 383.29483Q799.91565 382.04483 799.525 381.54483Q799.1344 381.0292 798.54065 381.0292Z" fill-rule="nonzero"/><path stroke="#757575" stroke-width="1.0" stroke-linecap="butt" d="M802.4 367.7792L618.11664 367.7792L584.59814 367.7792" fill-rule="nonzero"/><path fill="#9e9e9e" d="M586.59814 367.7792C586.59814 366.67465 585.7027 365.7792 584.59814 365.7792C583.4935 365.7792 582.59814 366.67465 582.59814 367.7792C582.59814 368.8838 583.4935 369.7792 584.59814 369.7792C585.7027 369.7792 586.59814 368.8838 586.59814 367.7792" fill-rule="nonzero"/><path fill="#999999" d="M25.584375 70.1L29.428125 60.084373L30.85 60.084373L34.959373 70.1L33.44375 70.1L32.271873 67.06875L28.084375 67.06875L26.990625 70.1L25.584375 70.1ZM28.475 65.99062L31.865625 65.99062L30.81875 63.209373Q30.35 61.94375 30.115625 61.13125Q29.928125 62.1 29.56875 63.0375L28.475 65.99062ZM40.25625 67.44375L41.475 67.6Q41.271873 68.85 40.44375 69.56875Q39.63125 70.27187 38.44375 70.27187Q36.959373 70.27187 36.053123 69.30312Q35.146873 68.31875 35.146873 66.49062Q35.146873 65.31875 35.5375 64.44375Q35.928123 63.553123 36.725 63.115623Q37.521873 62.678123 38.459373 62.678123Q39.63125 62.678123 40.38125 63.271873Q41.146873 63.865623 41.35 64.975L40.1625 65.1625Q39.990623 64.42812 39.553123 64.06875Q39.115623 63.69375 38.50625 63.69375Q37.56875 63.69375 36.990623 64.36562Q36.4125 65.02187 36.4125 66.45937Q36.4125 67.92812 36.975 68.6Q37.5375 69.25625 38.428123 69.25625Q39.1625 69.25625 39.646873 68.81875Q40.13125 68.36562 40.25625 67.44375ZM42.50625 70.1L42.50625 62.834373L43.615623 62.834373L43.615623 63.94375Q44.0375 63.1625 44.396873 62.928123Q44.75625 62.678123 45.19375 62.678123Q45.81875 62.678123 46.459373 63.06875L46.0375 64.20937Q45.584373 63.94375 45.13125 63.94375Q44.725 63.94375 44.396873 64.19375Q44.084373 64.42812 43.94375 64.86562Q43.740623 65.52187 43.740623 66.30312L43.740623 70.1L42.50625 70.1ZM47.06875 66.475Q47.06875 64.45937 48.19375 63.475Q49.115623 62.678123 50.475 62.678123Q51.959373 62.678123 52.9125 63.6625Q53.865623 64.63125 53.865623 66.36562Q53.865623 67.77187 53.44375 68.58437Q53.021873 69.38125 52.209373 69.83437Q51.4125 70.27187 50.475 70.27187Q48.94375 70.27187 48.00625 69.2875Q47.06875 68.30312 47.06875 66.475ZM48.334373 66.475Q48.334373 67.86562 48.94375 68.56875Q49.553123 69.25625 50.475 69.25625Q51.38125 69.25625 51.990623 68.55312Q52.6 67.85 52.6 66.42812Q52.6 65.08437 51.990623 64.39687Q51.38125 63.69375 50.475 63.69375Q49.553123 63.69375 48.94375 64.38125Q48.334373 65.06875 48.334373 66.475ZM55.0375 67.92812L56.240623 67.74062Q56.35 68.475 56.81875 68.86562Q57.2875 69.25625 58.13125 69.25625Q58.975 69.25625 59.38125 68.9125Q59.803123 68.56875 59.803123 68.1Q59.803123 67.67812 59.428123 67.44375Q59.178123 67.27187 58.178123 67.02187Q56.81875 66.67812 56.2875 66.42812Q55.771873 66.17812 55.50625 65.74062Q55.240623 65.30312 55.240623 64.77187Q55.240623 64.2875 55.459373 63.88125Q55.678123 63.459373 56.06875 63.178123Q56.35 62.975 56.834373 62.834373Q57.334373 62.678123 57.9125 62.678123Q58.75625 62.678123 59.396873 62.928123Q60.053123 63.1625 60.365623 63.584373Q60.678123 64.00625 60.7875 64.70937L59.584373 64.88125Q59.50625 64.31875 59.1 64.00625Q58.709373 63.69375 57.990623 63.69375Q57.146873 63.69375 56.7875 63.975Q56.428123 64.24062 56.428123 64.63125Q56.428123 64.86562 56.56875 65.05312Q56.725 65.25625 57.053123 65.38125Q57.225 65.44375 58.13125 65.69375Q59.44375 66.05312 59.959373 66.27187Q60.475 66.49062 60.75625 66.9125Q61.053123 67.33437 61.053123 67.95937Q61.053123 68.58437 60.69375 69.13125Q60.35 69.6625 59.6625 69.975Q58.990623 70.27187 58.13125 70.27187Q56.725 70.27187 55.975 69.67812Q55.240623 69.08437 55.0375 67.92812ZM62.0375 67.92812L63.240623 67.74062Q63.35 68.475 63.81875 68.86562Q64.2875 69.25625 65.13125 69.25625Q65.975 69.25625 66.38125 68.9125Q66.80312 68.56875 66.80312 68.1Q66.80312 67.67812 66.42812 67.44375Q66.17812 67.27187 65.17812 67.02187Q63.81875 66.67812 63.2875 66.42812Q62.771873 66.17812 62.50625 65.74062Q62.240623 65.30312 62.240623 64.77187Q62.240623 64.2875 62.459373 63.88125Q62.678123 63.459373 63.06875 63.178123Q63.35 62.975 63.834373 62.834373Q64.33437 62.678123 64.9125 62.678123Q65.75625 62.678123 66.39687 62.928123Q67.05312 63.1625 67.36562 63.584373Q67.67812 64.00625 67.7875 64.70937L66.58437 64.88125Q66.50625 64.31875 66.1 64.00625Q65.70937 63.69375 64.99062 63.69375Q64.14687 63.69375 63.7875 63.975Q63.428123 64.24062 63.428123 64.63125Q63.428123 64.86562 63.56875 65.05312Q63.725 65.25625 64.05312 65.38125Q64.225 65.44375 65.13125 65.69375Q66.44375 66.05312 66.95937 66.27187Q67.475 66.49062 67.75625 66.9125Q68.05312 67.33437 68.05312 67.95937Q68.05312 68.58437 67.69375 69.13125Q67.35 69.6625 66.6625 69.975Q65.99062 70.27187 65.13125 70.27187Q63.725 70.27187 62.975 69.67812Q62.240623 69.08437 62.0375 67.92812ZM78.25625 69.20937Q77.58437 69.7875 76.94375 70.0375Q76.31875 70.27187 75.58437 70.27187Q74.39687 70.27187 73.74062 69.69375Q73.1 69.1 73.1 68.17812Q73.1 67.64687 73.33437 67.20937Q73.58437 66.77187 73.975 66.50625Q74.38125 66.24062 74.86562 66.1Q75.225 66.00625 75.95937 65.9125Q77.45937 65.74062 78.1625 65.49062Q78.1625 65.24062 78.1625 65.17812Q78.1625 64.4125 77.81875 64.11562Q77.35 63.69375 76.4125 63.69375Q75.55312 63.69375 75.13125 64.00625Q74.725 64.30312 74.52187 65.06875L73.31875 64.9125Q73.475 64.13125 73.85 63.6625Q74.24062 63.19375 74.94375 62.94375Q75.6625 62.678123 76.6 62.678123Q77.52187 62.678123 78.1 62.896873Q78.67812 63.115623 78.94375 63.44375Q79.225 63.771873 79.33437 64.2875Q79.39687 64.6 79.39687 65.4125L79.39687 67.05312Q79.39687 68.77187 79.475 69.225Q79.55312 69.67812 79.7875 70.1L78.50625 70.1Q78.31875 69.70937 78.25625 69.20937ZM78.1625 66.45937Q77.49062 66.725 76.14687 66.92812Q75.39687 67.0375 75.06875 67.17812Q74.75625 67.30312 74.58437 67.56875Q74.4125 67.83437 74.4125 68.14687Q74.4125 68.64687 74.7875 68.975Q75.1625 69.30312 75.88125 69.30312Q76.6 69.30312 77.14687 68.99062Q77.69375 68.67812 77.95937 68.13125Q78.1625 67.725 78.1625 66.9125L78.1625 66.45937ZM81.49062 70.1L81.49062 60.084373L82.725 60.084373L82.725 70.1L81.49062 70.1ZM84.49062 70.1L84.49062 60.084373L85.725 60.084373L85.725 70.1L84.49062 70.1ZM91.9125 70.1L91.9125 60.084373L93.225 60.084373L93.225 70.1L91.9125 70.1ZM94.52187 70.1L94.52187 62.834373L95.63125 62.834373L95.63125 63.865623Q95.95937 63.31875 96.52187 63.00625Q97.1 62.678123 97.81875 62.678123Q98.63125 62.678123 99.14687 63.021873Q99.6625 63.35 99.88125 63.94375Q100.74062 62.678123 102.11562 62.678123Q103.19375 62.678123 103.77187 63.271873Q104.36562 63.865623 104.36562 65.11562L104.36562 70.1L103.13125 70.1L103.13125 65.52187Q103.13125 64.7875 103.00625 64.45937Q102.89687 64.13125 102.58437 63.94375Q102.27187 63.740623 101.85 63.740623Q101.08437 63.740623 100.56875 64.25625Q100.06875 64.75625 100.06875 65.88125L100.06875 70.1L98.83437 70.1L98.83437 65.38125Q98.83437 64.56875 98.5375 64.1625Q98.24062 63.740623 97.55312 63.740623Q97.0375 63.740623 96.58437 64.02187Q96.14687 64.2875 95.94375 64.81875Q95.75625 65.33437 95.75625 66.33437L95.75625 70.1L94.52187 70.1ZM110.25625 69.20937Q109.58437 69.7875 108.94375 70.0375Q108.31875 70.27187 107.58437 70.27187Q106.39687 70.27187 105.74062 69.69375Q105.1 69.1 105.1 68.17812Q105.1 67.64687 105.33437 67.20937Q105.58437 66.77187 105.975 66.50625Q106.38125 66.24062 106.86562 66.1Q107.225 66.00625 107.95937 65.9125Q109.45937 65.74062 110.1625 65.49062Q110.1625 65.24062 110.1625 65.17812Q110.1625 64.4125 109.81875 64.11562Q109.35 63.69375 108.4125 63.69375Q107.55312 63.69375 107.13125 64.00625Q106.725 64.30312 106.52187 65.06875L105.31875 64.9125Q105.475 64.13125 105.85 63.6625Q106.24062 63.19375 106.94375 62.94375Q107.6625 62.678123 108.6 62.678123Q109.52187 62.678123 110.1 62.896873Q110.67812 63.115623 110.94375 63.44375Q111.225 63.771873 111.33437 64.2875Q111.39687 64.6 111.39687 65.4125L111.39687 67.05312Q111.39687 68.77187 111.475 69.225Q111.55312 69.67812 111.7875 70.1L110.50625 70.1Q110.31875 69.70937 110.25625 69.20937ZM110.1625 66.45937Q109.49062 66.725 108.14687 66.92812Q107.39687 67.0375 107.06875 67.17812Q106.75625 67.30312 106.58437 67.56875Q106.4125 67.83437 106.4125 68.14687Q106.4125 68.64687 106.7875 68.975Q107.1625 69.30312 107.88125 69.30312Q108.6 69.30312 109.14687 68.99062Q109.69375 68.67812 109.95937 68.13125Q110.1625 67.725 110.1625 66.9125L110.1625 66.45937ZM113.30312 70.70937L114.49062 70.88125Q114.56875 71.42812 114.9125 71.69375Q115.36562 72.02187 116.1625 72.02187Q117.02187 72.02187 117.475 71.67812Q117.94375 71.35 118.11562 70.725Q118.20937 70.35 118.19375 69.14687Q117.39687 70.1 116.19375 70.1Q114.69375 70.1 113.86562 69.02187Q113.05312 67.94375 113.05312 66.42812Q113.05312 65.39687 113.42812 64.52187Q113.80312 63.63125 114.50625 63.1625Q115.225 62.678123 116.19375 62.678123Q117.475 62.678123 118.31875 63.709373L118.31875 62.834373L119.44375 62.834373L119.44375 69.11562Q119.44375 70.81875 119.1 71.52187Q118.75625 72.225 118.00625 72.63125Q117.25625 73.05312 116.1625 73.05312Q114.86562 73.05312 114.06875 72.45937Q113.27187 71.88125 113.30312 70.70937ZM114.31875 66.33437Q114.31875 67.77187 114.88125 68.42812Q115.44375 69.08437 116.30312 69.08437Q117.14687 69.08437 117.725 68.42812Q118.30312 67.77187 118.30312 66.38125Q118.30312 65.05312 117.70937 64.38125Q117.11562 63.69375 116.2875 63.69375Q115.45937 63.69375 114.88125 64.36562Q114.31875 65.02187 114.31875 66.33437ZM126.49062 67.75625L127.77187 67.9125Q127.45937 69.0375 126.64687 69.6625Q125.83437 70.27187 124.56875 70.27187Q122.975 70.27187 122.0375 69.2875Q121.11562 68.30312 121.11562 66.5375Q121.11562 64.69375 122.05312 63.69375Q123.00625 62.678123 124.50625 62.678123Q125.95937 62.678123 126.88125 63.678123Q127.80312 64.6625 127.80312 66.45937Q127.80312 66.56875 127.80312 66.7875L122.38125 66.7875Q122.45937 67.975 123.05312 68.61562Q123.6625 69.25625 124.58437 69.25625Q125.25625 69.25625 125.725 68.89687Q126.20937 68.5375 126.49062 67.75625ZM122.45937 65.77187L126.50625 65.77187Q126.42812 64.85 126.0375 64.39687Q125.45937 63.69375 124.52187 63.69375Q123.6625 63.69375 123.08437 64.25625Q122.52187 64.81875 122.45937 65.77187ZM129.0375 67.92812L130.24063 67.74062Q130.35 68.475 130.81876 68.86562Q131.2875 69.25625 132.13126 69.25625Q132.975 69.25625 133.38126 68.9125Q133.80313 68.56875 133.80313 68.1Q133.80313 67.67812 133.42813 67.44375Q133.17813 67.27187 132.17813 67.02187Q130.81876 66.67812 130.2875 66.42812Q129.77188 66.17812 129.50626 65.74062Q129.24063 65.30312 129.24063 64.77187Q129.24063 64.2875 129.45938 63.88125Q129.67813 63.459373 130.06876 63.178123Q130.35 62.975 130.83438 62.834373Q131.33438 62.678123 131.9125 62.678123Q132.75626 62.678123 133.39688 62.928123Q134.05313 63.1625 134.36563 63.584373Q134.67813 64.00625 134.7875 64.70937L133.58438 64.88125Q133.50626 64.31875 133.1 64.00625Q132.70938 63.69375 131.99063 63.69375Q131.14688 63.69375 130.7875 63.975Q130.42813 64.24062 130.42813 64.63125Q130.42813 64.86562 130.56876 65.05312Q130.725 65.25625 131.05313 65.38125Q131.225 65.44375 132.13126 65.69375Q133.44376 66.05312 133.95938 66.27187Q134.475 66.49062 134.75626 66.9125Q135.05313 67.33437 135.05313 67.95937Q135.05313 68.58437 134.69376 69.13125Q134.35 69.6625 133.6625 69.975Q132.99063 70.27187 132.13126 70.27187Q130.725 70.27187 129.975 69.67812Q129.24063 69.08437 129.0375 67.92812Z" fill-rule="nonzero"/><path fill="#757575" d="M27.146875 44.6L27.146875 30.287498L32.06875 30.287498Q33.740623 30.287498 34.63125 30.490623Q35.85 30.771873 36.725 31.506248Q37.85 32.475 38.4125 33.959373Q38.975 35.44375 38.975 37.365623Q38.975 38.990623 38.6 40.25625Q38.225 41.50625 37.615623 42.334373Q37.021873 43.1625 36.31875 43.646873Q35.615623 44.115623 34.615623 44.365623Q33.615623 44.6 32.303123 44.6L27.146875 44.6ZM29.0375 42.9125L32.1 42.9125Q33.50625 42.9125 34.303123 42.646873Q35.115623 42.38125 35.6 41.896873Q36.271873 41.225 36.646873 40.1Q37.021873 38.959373 37.021873 37.334373Q37.021873 35.084373 36.2875 33.88125Q35.553123 32.678123 34.490623 32.271873Q33.740623 31.974998 32.053123 31.974998L29.0375 31.974998L29.0375 42.9125ZM40.928123 32.303123L40.928123 30.287498L42.69375 30.287498L42.69375 32.303123L40.928123 32.303123ZM40.928123 44.6L40.928123 34.225L42.69375 34.225L42.69375 44.6L40.928123 44.6ZM44.209373 41.50625L45.959373 41.225Q46.1 42.271873 46.771873 42.834373Q47.44375 43.38125 48.646873 43.38125Q49.85 43.38125 50.428123 42.896873Q51.021873 42.396873 51.021873 41.740623Q51.021873 41.146873 50.50625 40.803123Q50.146873 40.56875 48.709373 40.209373Q46.771873 39.709373 46.021873 39.365623Q45.2875 39.00625 44.896873 38.38125Q44.50625 37.740623 44.50625 36.975Q44.50625 36.2875 44.81875 35.69375Q45.146873 35.1 45.69375 34.709373Q46.1 34.4125 46.803123 34.209373Q47.521873 33.990623 48.334373 33.990623Q49.553123 33.990623 50.475 34.35Q51.396873 34.69375 51.834373 35.303123Q52.271873 35.896873 52.44375 36.896873L50.725 37.13125Q50.6 36.334373 50.0375 35.896873Q49.475 35.44375 48.459373 35.44375Q47.240623 35.44375 46.725 35.85Q46.209373 36.240623 46.209373 36.771873Q46.209373 37.115623 46.428123 37.396873Q46.63125 37.678123 47.1 37.865623Q47.365623 37.959373 48.646873 38.303123Q50.521873 38.803123 51.25625 39.13125Q51.990623 39.44375 52.4125 40.053123Q52.834373 40.646873 52.834373 41.553123Q52.834373 42.428123 52.31875 43.209373Q51.803123 43.990623 50.834373 44.4125Q49.865623 44.834373 48.646873 44.834373Q46.63125 44.834373 45.56875 43.990623Q44.50625 43.146873 44.209373 41.50625ZM58.75625 43.021873L59.00625 44.584373Q58.271873 44.740623 57.678123 44.740623Q56.725 44.740623 56.19375 44.44375Q55.678123 44.13125 55.459373 43.646873Q55.240623 43.146873 55.240623 41.56875L55.240623 35.6L53.959373 35.6L53.959373 34.225L55.240623 34.225L55.240623 31.662498L56.990623 30.599998L56.990623 34.225L58.75625 34.225L58.75625 35.6L56.990623 35.6L56.990623 41.6625Q56.990623 42.4125 57.084373 42.63125Q57.178123 42.834373 57.38125 42.975Q57.6 43.1 57.990623 43.1Q58.271873 43.1 58.75625 43.021873ZM60.896873 44.6L60.896873 34.225L62.475 34.225L62.475 35.803123Q63.084373 34.69375 63.6 34.35Q64.11562 33.990623 64.725 33.990623Q65.61562 33.990623 66.5375 34.553123L65.92812 36.19375Q65.2875 35.803123 64.64687 35.803123Q64.06875 35.803123 63.6 36.1625Q63.146873 36.50625 62.94375 37.115623Q62.6625 38.053123 62.6625 39.1625L62.6625 44.6L60.896873 44.6ZM67.92812 32.303123L67.92812 30.287498L69.69375 30.287498L69.69375 32.303123L67.92812 32.303123ZM67.92812 44.6L67.92812 34.225L69.69375 34.225L69.69375 44.6L67.92812 44.6ZM73.5375 44.6L71.9125 44.6L71.9125 30.287498L73.6625 30.287498L73.6625 35.396873Q74.7875 33.990623 76.50625 33.990623Q77.45937 33.990623 78.31875 34.38125Q79.17812 34.771873 79.725 35.475Q80.27187 36.1625 80.58437 37.146873Q80.89687 38.13125 80.89687 39.25625Q80.89687 41.928123 79.58437 43.38125Q78.27187 44.834373 76.42812 44.834373Q74.58437 44.834373 73.5375 43.303123L73.5375 44.6ZM73.52187 39.334373Q73.52187 41.19375 74.02187 42.0375Q74.86562 43.38125 76.27187 43.38125Q77.42812 43.38125 78.25625 42.38125Q79.1 41.38125 79.1 39.396873Q79.1 37.365623 78.2875 36.4125Q77.49062 35.44375 76.35 35.44375Q75.19375 35.44375 74.35 36.44375Q73.52187 37.44375 73.52187 39.334373ZM89.70937 44.6L89.70937 43.06875Q88.50625 44.834373 86.42812 44.834373Q85.50625 44.834373 84.70937 44.490623Q83.9125 44.13125 83.52187 43.6Q83.14687 43.06875 82.99062 42.2875Q82.88125 41.771873 82.88125 40.646873L82.88125 34.225L84.63125 34.225L84.63125 39.975Q84.63125 41.35 84.74062 41.834373Q84.9125 42.521873 85.44375 42.928123Q85.99062 43.31875 86.77187 43.31875Q87.56875 43.31875 88.25625 42.9125Q88.95937 42.50625 89.24062 41.81875Q89.5375 41.115623 89.5375 39.7875L89.5375 34.225L91.2875 34.225L91.2875 44.6L89.70937 44.6ZM96.75625 43.021873L97.00625 44.584373Q96.27187 44.740623 95.67812 44.740623Q94.725 44.740623 94.19375 44.44375Q93.67812 44.13125 93.45937 43.646873Q93.24062 43.146873 93.24062 41.56875L93.24062 35.6L91.95937 35.6L91.95937 34.225L93.24062 34.225L93.24062 31.662498L94.99062 30.599998L94.99062 34.225L96.75625 34.225L96.75625 35.6L94.99062 35.6L94.99062 41.6625Q94.99062 42.4125 95.08437 42.63125Q95.17812 42.834373 95.38125 42.975Q95.6 43.1 95.99062 43.1Q96.27187 43.1 96.75625 43.021873ZM98.92812 32.303123L98.92812 30.287498L100.69375 30.287498L100.69375 32.303123L98.92812 32.303123ZM98.92812 44.6L98.92812 34.225L100.69375 34.225L100.69375 44.6L98.92812 44.6ZM102.27187 39.4125Q102.27187 36.5375 103.86562 35.146873Q105.20937 33.990623 107.13125 33.990623Q109.27187 33.990623 110.61562 35.396873Q111.975 36.803123 111.975 39.271873Q111.975 41.271873 111.38125 42.428123Q110.7875 43.56875 109.63125 44.209373Q108.49062 44.834373 107.13125 44.834373Q104.94375 44.834373 103.6 43.44375Q102.27187 42.0375 102.27187 39.4125ZM104.06875 39.4125Q104.06875 41.4125 104.92812 42.396873Q105.80312 43.38125 107.13125 43.38125Q108.44375 43.38125 109.30312 42.396873Q110.17812 41.396873 110.17812 39.35Q110.17812 37.428123 109.30312 36.44375Q108.42812 35.44375 107.13125 35.44375Q105.80312 35.44375 104.92812 36.44375Q104.06875 37.428123 104.06875 39.4125ZM113.9125 44.6L113.9125 34.225L115.50625 34.225L115.50625 35.709373Q116.64687 33.990623 118.80312 33.990623Q119.74062 33.990623 120.52187 34.334373Q121.31875 34.6625 121.70937 35.209373Q122.1 35.75625 122.25625 36.50625Q122.35 37.00625 122.35 38.225L122.35 44.6L120.58437 44.6L120.58437 38.2875Q120.58437 37.209373 120.38125 36.678123Q120.17812 36.146873 119.64687 35.834373Q119.13125 35.521873 118.42812 35.521873Q117.30312 35.521873 116.49062 36.240623Q115.67812 36.94375 115.67812 38.928123L115.67812 44.6L113.9125 44.6ZM129.27188 39.4125Q129.27188 36.5375 130.86563 35.146873Q132.20938 33.990623 134.13126 33.990623Q136.27188 33.990623 137.61563 35.396873Q138.975 36.803123 138.975 39.271873Q138.975 41.271873 138.38126 42.428123Q137.7875 43.56875 136.63126 44.209373Q135.49063 44.834373 134.13126 44.834373Q131.94376 44.834373 130.6 43.44375Q129.27188 42.0375 129.27188 39.4125ZM131.06876 39.4125Q131.06876 41.4125 131.92813 42.396873Q132.80313 43.38125 134.13126 43.38125Q135.44376 43.38125 136.30313 42.396873Q137.17813 41.396873 137.17813 39.35Q137.17813 37.428123 136.30313 36.44375Q135.42813 35.44375 134.13126 35.44375Q132.80313 35.44375 131.92813 36.44375Q131.06876 37.428123 131.06876 39.4125ZM141.33438 44.6L141.33438 35.6L139.7875 35.6L139.7875 34.225L141.33438 34.225L141.33438 33.13125Q141.33438 32.084373 141.52188 31.568748Q141.77188 30.881248 142.4125 30.459373Q143.05313 30.037498 144.20938 30.037498Q144.95938 30.037498 145.85 30.209373L145.58438 31.740623Q145.0375 31.646873 144.55313 31.646873Q143.75626 31.646873 143.4125 31.990623Q143.08438 32.334373 143.08438 33.271873L143.08438 34.225L145.11563 34.225L145.11563 35.6L143.08438 35.6L143.08438 44.6L141.33438 44.6ZM157.24063 44.6L151.69376 30.287498L153.74063 30.287498L157.45938 40.678123Q157.9125 41.928123 158.20938 43.021873Q158.5375 41.85 158.99063 40.678123L162.85 30.287498L164.7875 30.287498L159.17813 44.6L157.24063 44.6ZM172.70938 44.6L172.70938 43.06875Q171.50626 44.834373 169.42813 44.834373Q168.50626 44.834373 167.70938 44.490623Q166.9125 44.13125 166.52188 43.6Q166.14688 43.06875 165.99063 42.2875Q165.88126 41.771873 165.88126 40.646873L165.88126 34.225L167.63126 34.225L167.63126 39.975Q167.63126 41.35 167.74063 41.834373Q167.9125 42.521873 168.44376 42.928123Q168.99063 43.31875 169.77188 43.31875Q170.56876 43.31875 171.25626 42.9125Q171.95938 42.50625 172.24063 41.81875Q172.5375 41.115623 172.5375 39.7875L172.5375 34.225L174.2875 34.225L174.2875 44.6L172.70938 44.6ZM175.88126 44.6L175.88126 30.287498L177.63126 30.287498L177.63126 44.6L175.88126 44.6ZM179.9125 44.6L179.9125 34.225L181.50626 34.225L181.50626 35.709373Q182.64688 33.990623 184.80313 33.990623Q185.74063 33.990623 186.52188 34.334373Q187.31876 34.6625 187.70938 35.209373Q188.1 35.75625 188.25626 36.50625Q188.35 37.00625 188.35 38.225L188.35 44.6L186.58438 44.6L186.58438 38.2875Q186.58438 37.209373 186.38126 36.678123Q186.17813 36.146873 185.64688 35.834373Q185.13126 35.521873 184.42813 35.521873Q183.30313 35.521873 182.49063 36.240623Q181.67813 36.94375 181.67813 38.928123L181.67813 44.6L179.9125 44.6ZM197.02188 41.25625L198.83438 41.490623Q198.4125 43.06875 197.24063 43.959373Q196.08438 44.834373 194.27188 44.834373Q192.00626 44.834373 190.6625 43.44375Q189.33438 42.0375 189.33438 39.50625Q189.33438 36.88125 190.67813 35.44375Q192.02188 33.990623 194.17813 33.990623Q196.25626 33.990623 197.56876 35.4125Q198.89688 36.81875 198.89688 39.396873Q198.89688 39.553123 198.88126 39.865623L191.14688 39.865623Q191.24063 41.56875 192.11563 42.475Q192.99063 43.38125 194.2875 43.38125Q195.25626 43.38125 195.92813 42.88125Q196.61563 42.365623 197.02188 41.25625ZM191.24063 38.4125L197.0375 38.4125Q196.92813 37.115623 196.38126 36.459373Q195.5375 35.44375 194.19376 35.44375Q192.99063 35.44375 192.1625 36.25625Q191.33438 37.053123 191.24063 38.4125ZM200.89688 44.6L200.89688 34.225L202.475 34.225L202.475 35.803123Q203.08438 34.69375 203.6 34.35Q204.11563 33.990623 204.725 33.990623Q205.61563 33.990623 206.5375 34.553123L205.92813 36.19375Q205.2875 35.803123 204.64688 35.803123Q204.06876 35.803123 203.6 36.1625Q203.14688 36.50625 202.94376 37.115623Q202.6625 38.053123 202.6625 39.1625L202.6625 44.6L200.89688 44.6ZM214.69376 43.31875Q213.70938 44.146873 212.80313 44.490623Q211.89688 44.834373 210.86563 44.834373Q209.1625 44.834373 208.24063 44.00625Q207.31876 43.1625 207.31876 41.865623Q207.31876 41.1 207.6625 40.475Q208.02188 39.85 208.58438 39.475Q209.14688 39.084373 209.85 38.88125Q210.36563 38.75625 211.4125 38.615623Q213.5375 38.365623 214.5375 38.021873Q214.55313 37.6625 214.55313 37.553123Q214.55313 36.490623 214.05313 36.0375Q213.38126 35.44375 212.05313 35.44375Q210.80313 35.44375 210.20938 35.88125Q209.63126 36.31875 209.35 37.428123L207.63126 37.19375Q207.86563 36.084373 208.39688 35.4125Q208.92813 34.725 209.94376 34.365623Q210.95938 33.990623 212.30313 33.990623Q213.63126 33.990623 214.45938 34.303123Q215.2875 34.615623 215.67813 35.1Q216.06876 35.56875 216.225 36.2875Q216.31876 36.740623 216.31876 37.9125L216.31876 40.25625Q216.31876 42.709373 216.42813 43.365623Q216.5375 44.00625 216.88126 44.6L215.0375 44.6Q214.77188 44.053123 214.69376 43.31875ZM214.5375 39.396873Q213.58438 39.7875 211.6625 40.053123Q210.58438 40.209373 210.13126 40.4125Q209.69376 40.6 209.44376 40.975Q209.19376 41.35 209.19376 41.81875Q209.19376 42.521873 209.725 42.990623Q210.25626 43.459373 211.2875 43.459373Q212.30313 43.459373 213.08438 43.021873Q213.88126 42.56875 214.25626 41.803123Q214.5375 41.19375 214.5375 40.0375L214.5375 39.396873ZM220.5375 44.6L218.9125 44.6L218.9125 30.287498L220.6625 30.287498L220.6625 35.396873Q221.7875 33.990623 223.50626 33.990623Q224.45938 33.990623 225.31876 34.38125Q226.17813 34.771873 226.725 35.475Q227.27188 36.1625 227.58438 37.146873Q227.89688 38.13125 227.89688 39.25625Q227.89688 41.928123 226.58438 43.38125Q225.27188 44.834373 223.42813 44.834373Q221.58438 44.834373 220.5375 43.303123L220.5375 44.6ZM220.52188 39.334373Q220.52188 41.19375 221.02188 42.0375Q221.86563 43.38125 223.27188 43.38125Q224.42813 43.38125 225.25626 42.38125Q226.1 41.38125 226.1 39.396873Q226.1 37.365623 225.2875 36.4125Q224.49063 35.44375 223.35 35.44375Q222.19376 35.44375 221.35 36.44375Q220.52188 37.44375 220.52188 39.334373ZM229.92813 32.303123L229.92813 30.287498L231.69376 30.287498L231.69376 32.303123L229.92813 32.303123ZM229.92813 44.6L229.92813 34.225L231.69376 34.225L231.69376 44.6L229.92813 44.6ZM233.88126 44.6L233.88126 30.287498L235.63126 30.287498L235.63126 44.6L233.88126 44.6ZM237.92813 32.303123L237.92813 30.287498L239.69376 30.287498L239.69376 32.303123L237.92813 32.303123ZM237.92813 44.6L237.92813 34.225L239.69376 34.225L239.69376 44.6L237.92813 44.6ZM245.75626 43.021873L246.00626 44.584373Q245.27188 44.740623 244.67813 44.740623Q243.725 44.740623 243.19376 44.44375Q242.67813 44.13125 242.45938 43.646873Q242.24063 43.146873 242.24063 41.56875L242.24063 35.6L240.95938 35.6L240.95938 34.225L242.24063 34.225L242.24063 31.662498L243.99063 30.599998L243.99063 34.225L245.75626 34.225L245.75626 35.6L243.99063 35.6L243.99063 41.6625Q243.99063 42.4125 244.08438 42.63125Q244.17813 42.834373 244.38126 42.975Q244.6 43.1 244.99063 43.1Q245.27188 43.1 245.75626 43.021873ZM247.92813 32.303123L247.92813 30.287498L249.69376 30.287498L249.69376 32.303123L247.92813 32.303123ZM247.92813 44.6L247.92813 34.225L249.69376 34.225L249.69376 44.6L247.92813 44.6ZM259.02188 41.25625L260.83438 41.490623Q260.4125 43.06875 259.24063 43.959373Q258.08438 44.834373 256.27188 44.834373Q254.00626 44.834373 252.6625 43.44375Q251.33438 42.0375 251.33438 39.50625Q251.33438 36.88125 252.67813 35.44375Q254.02188 33.990623 256.17813 33.990623Q258.25626 33.990623 259.56876 35.4125Q260.89688 36.81875 260.89688 39.396873Q260.89688 39.553123 260.88126 39.865623L253.14688 39.865623Q253.24063 41.56875 254.11563 42.475Q254.99063 43.38125 256.2875 43.38125Q257.25626 43.38125 257.92813 42.88125Q258.61563 42.365623 259.02188 41.25625ZM253.24063 38.4125L259.0375 38.4125Q258.92813 37.115623 258.38126 36.459373Q257.5375 35.44375 256.19376 35.44375Q254.99063 35.44375 254.1625 36.25625Q253.33438 37.053123 253.24063 38.4125ZM262.20938 41.50625L263.95938 41.225Q264.1 42.271873 264.77188 42.834373Q265.44376 43.38125 266.64688 43.38125Q267.85 43.38125 268.42813 42.896873Q269.02188 42.396873 269.02188 41.740623Q269.02188 41.146873 268.50626 40.803123Q268.14688 40.56875 266.70938 40.209373Q264.77188 39.709373 264.02188 39.365623Q263.2875 39.00625 262.89688 38.38125Q262.50626 37.740623 262.50626 36.975Q262.50626 36.2875 262.81876 35.69375Q263.14688 35.1 263.69376 34.709373Q264.1 34.4125 264.80313 34.209373Q265.52188 33.990623 266.33438 33.990623Q267.55313 33.990623 268.475 34.35Q269.39688 34.69375 269.83438 35.303123Q270.27188 35.896873 270.44376 36.896873L268.725 37.13125Q268.6 36.334373 268.0375 35.896873Q267.475 35.44375 266.45938 35.44375Q265.24063 35.44375 264.725 35.85Q264.20938 36.240623 264.20938 36.771873Q264.20938 37.115623 264.42813 37.396873Q264.63126 37.678123 265.1 37.865623Q265.36563 37.959373 266.64688 38.303123Q268.52188 38.803123 269.25626 39.13125Q269.99063 39.44375 270.4125 40.053123Q270.83438 40.646873 270.83438 41.553123Q270.83438 42.428123 270.31876 43.209373Q269.80313 43.990623 268.83438 44.4125Q267.86563 44.834373 266.64688 44.834373Q264.63126 44.834373 263.56876 43.990623Q262.50626 43.146873 262.20938 41.50625Z" fill-rule="nonzero"/></svg>