<svg version="1.1" viewBox="0.0 0.0 1005.0 622.0" fill="none" stroke="none" stroke-linecap="square" stroke-miterlimit="10" width="1005" height="622" xmlns:xlink="http://www.w3.org/1999/xlink" xmlns="http://www.w3.org/2000/svg"><path fill="#ffffff" d="M0 0L1005.0 0L1005.0 622.0L0 622.0L0 0Z" fill-rule="nonzero"/><path fill="#4285f4" d="M502.5 99.333336C518.2182 99.333336 533.90015 100.841125 549.3304 103.83599L502.5 345.11667Z" fill-rule="nonzero"/><path fill="#71c287" d="M492.10034 99.55345C495.56494 99.40672 499.0323 99.333336 502.5 99.333336L502.5 345.11667Z" fill-rule="nonzero"/><path fill="#fcd04f" d="M475.2235 100.85156C480.83255 100.22522 486.4615 99.79226 492.10034 99.55345L502.5 345.11667Z" fill-rule="nonzero"/><path fill="#f07b72" d="M454.86893 103.99278C461.60693 102.66177 468.39774 101.61378 475.2235 100.85156L502.5 345.11667Z" fill-rule="nonzero"/><path fill="#7baaf7" d="M427.43198 111.0777C436.43378 108.19038 445.59464 105.82481 454.86893 103.99278L502.5 345.11667Z" fill-rule="nonzero"/><path fill="#46bdc6" d="M401.92258 120.85426C410.23788 117.125 418.75418 113.86111 427.43198 111.0777L502.5 345.11667Z" fill-rule="nonzero"/><path fill="#ff6d01" d="M290.96628 219.96503C316.82462 176.25874 355.58633 141.63518 401.92258 120.85426L502.5 345.11667Z" fill-rule="nonzero"/><path fill="#34a853" d="M259.77386 383.76205C250.7678 327.1964 261.80054 269.2615 290.96628 219.96503L502.5 345.11667Z" fill-rule="nonzero"/><path fill="#fbbc04" d="M434.55472 581.32184C342.89877 554.95667 274.76962 477.94836 259.77386 383.76205L502.5 345.11667Z" fill-rule="nonzero"/><path fill="#ea4335" d="M549.3304 103.83599C638.07635 121.060776 710.2032 185.61311 737.1286 271.91235C764.054 358.2116 741.43134 452.3259 678.22534 516.9598C615.01935 581.5937 521.43384 606.3129 434.55472 581.32184L502.5 345.11667Z" fill-rule="nonzero"/><path fill="#1a1a1a" d="M42.865623 113.31771L44.75625 113.78646Q44.1625 116.13021 42.615623 117.364586Q41.06875 118.583336 38.81875 118.583336Q36.50625 118.583336 35.053123 117.645836Q33.615623 116.69271 32.85 114.91146Q32.1 113.114586 32.1 111.06771Q32.1 108.833336 32.94375 107.177086Q33.803123 105.50521 35.38125 104.645836Q36.959373 103.770836 38.85 103.770836Q41.00625 103.770836 42.459373 104.864586Q43.928123 105.958336 44.50625 107.94271L42.646873 108.38021Q42.146873 106.81771 41.19375 106.114586Q40.25625 105.395836 38.81875 105.395836Q37.1625 105.395836 36.053123 106.19271Q34.94375 106.97396 34.490623 108.31771Q34.053123 109.645836 34.053123 111.052086Q34.053123 112.88021 34.584373 114.25521Q35.115623 115.614586 36.240623 116.28646Q37.365623 116.958336 38.6625 116.958336Q40.25625 116.958336 41.365623 116.03646Q42.475 115.114586 42.865623 113.31771ZM46.396873 118.333336L46.396873 107.958336L47.975 107.958336L47.975 109.53646Q48.584373 108.427086 49.1 108.083336Q49.615623 107.72396 50.225 107.72396Q51.115623 107.72396 52.0375 108.28646L51.428123 109.927086Q50.7875 109.53646 50.146873 109.53646Q49.56875 109.53646 49.1 109.895836Q48.646873 110.239586 48.44375 110.84896Q48.1625 111.78646 48.1625 112.895836L48.1625 118.333336L46.396873 118.333336ZM53.428123 106.03646L53.428123 104.020836L55.19375 104.020836L55.19375 106.03646L53.428123 106.03646ZM53.428123 118.333336L53.428123 107.958336L55.19375 107.958336L55.19375 118.333336L53.428123 118.333336ZM61.25625 116.75521L61.50625 118.31771Q60.771873 118.47396 60.178123 118.47396Q59.225 118.47396 58.69375 118.177086Q58.178123 117.864586 57.959373 117.38021Q57.740623 116.88021 57.740623 115.302086L57.740623 109.333336L56.459373 109.333336L56.459373 107.958336L57.740623 107.958336L57.740623 105.395836L59.490623 104.333336L59.490623 107.958336L61.25625 107.958336L61.25625 109.333336L59.490623 109.333336L59.490623 115.395836Q59.490623 116.145836 59.584373 116.364586Q59.678123 116.56771 59.88125 116.708336Q60.1 116.833336 60.490623 116.833336Q60.771873 116.833336 61.25625 116.75521ZM63.428123 106.03646L63.428123 104.020836L65.19375 104.020836L65.19375 106.03646L63.428123 106.03646ZM63.428123 118.333336L63.428123 107.958336L65.19375 107.958336L65.19375 118.333336L63.428123 118.333336ZM74.19375 114.53646L75.9125 114.75521Q75.63125 116.552086 74.45937 117.56771Q73.30312 118.56771 71.6 118.56771Q69.475 118.56771 68.17812 117.177086Q66.88125 115.78646 66.88125 113.19271Q66.88125 111.50521 67.42812 110.25521Q67.99062 108.989586 69.13125 108.364586Q70.27187 107.72396 71.61562 107.72396Q73.30312 107.72396 74.36562 108.583336Q75.44375 109.44271 75.75625 111.00521L74.0375 111.270836Q73.80312 110.22396 73.17812 109.708336Q72.55312 109.177086 71.67812 109.177086Q70.35 109.177086 69.52187 110.13021Q68.69375 111.083336 68.69375 113.13021Q68.69375 115.22396 69.49062 116.177086Q70.2875 117.114586 71.58437 117.114586Q72.61562 117.114586 73.30312 116.489586Q74.00625 115.84896 74.19375 114.53646ZM84.19375 117.052086Q83.20937 117.88021 82.30312 118.22396Q81.39687 118.56771 80.36562 118.56771Q78.6625 118.56771 77.74062 117.739586Q76.81875 116.895836 76.81875 115.59896Q76.81875 114.833336 77.1625 114.208336Q77.52187 113.583336 78.08437 113.208336Q78.64687 112.81771 79.35 112.614586Q79.86562 112.489586 80.9125 112.34896Q83.0375 112.09896 84.0375 111.75521Q84.05312 111.395836 84.05312 111.28646Q84.05312 110.22396 83.55312 109.770836Q82.88125 109.177086 81.55312 109.177086Q80.30312 109.177086 79.70937 109.614586Q79.13125 110.052086 78.85 111.16146L77.13125 110.927086Q77.36562 109.81771 77.89687 109.145836Q78.42812 108.458336 79.44375 108.09896Q80.45937 107.72396 81.80312 107.72396Q83.13125 107.72396 83.95937 108.03646Q84.7875 108.34896 85.17812 108.833336Q85.56875 109.302086 85.725 110.020836Q85.81875 110.47396 85.81875 111.645836L85.81875 113.989586Q85.81875 116.44271 85.92812 117.09896Q86.0375 117.739586 86.38125 118.333336L84.5375 118.333336Q84.27187 117.78646 84.19375 117.052086ZM84.0375 113.13021Q83.08437 113.520836 81.1625 113.78646Q80.08437 113.94271 79.63125 114.145836Q79.19375 114.333336 78.94375 114.708336Q78.69375 115.083336 78.69375 115.552086Q78.69375 116.25521 79.225 116.72396Q79.75625 117.19271 80.7875 117.19271Q81.80312 117.19271 82.58437 116.75521Q83.38125 116.302086 83.75625 115.53646Q84.0375 114.927086 84.0375 113.770836L84.0375 113.13021ZM88.38125 118.333336L88.38125 104.020836L90.13125 104.020836L90.13125 118.333336L88.38125 118.333336ZM97.74062 114.03646L97.74062 112.270836L103.13125 112.270836L103.13125 114.03646L97.74062 114.03646ZM111.74062 118.333336L111.74062 104.020836L121.39687 104.020836L121.39687 105.708336L113.63125 105.708336L113.63125 110.145836L120.35 110.145836L120.35 111.833336L113.63125 111.833336L113.63125 118.333336L111.74062 118.333336ZM123.42812 106.03646L123.42812 104.020836L125.19375 104.020836L125.19375 106.03646L123.42812 106.03646ZM123.42812 118.333336L123.42812 107.958336L125.19375 107.958336L125.19375 118.333336L123.42812 118.333336ZM126.24062 118.333336L130.0375 112.94271L126.5375 107.958336L128.725 107.958336L130.31876 110.395836Q130.77188 111.083336 131.0375 111.552086Q131.475 110.91146 131.83438 110.41146L133.58438 107.958336L135.67813 107.958336L132.1 112.84896L135.95938 118.333336L133.80313 118.333336L131.6625 115.114586L131.1 114.239586L128.38126 118.333336L126.24062 118.333336ZM143.19376 117.052086Q142.20938 117.88021 141.30313 118.22396Q140.39688 118.56771 139.36563 118.56771Q137.6625 118.56771 136.74063 117.739586Q135.81876 116.895836 135.81876 115.59896Q135.81876 114.833336 136.1625 114.208336Q136.52188 113.583336 137.08438 113.208336Q137.64688 112.81771 138.35 112.614586Q138.86563 112.489586 139.9125 112.34896Q142.0375 112.09896 143.0375 111.75521Q143.05313 111.395836 143.05313 111.28646Q143.05313 110.22396 142.55313 109.770836Q141.88126 109.177086 140.55313 109.177086Q139.30313 109.177086 138.70938 109.614586Q138.13126 110.052086 137.85 111.16146L136.13126 110.927086Q136.36563 109.81771 136.89688 109.145836Q137.42813 108.458336 138.44376 108.09896Q139.45938 107.72396 140.80313 107.72396Q142.13126 107.72396 142.95938 108.03646Q143.7875 108.34896 144.17813 108.833336Q144.56876 109.302086 144.725 110.020836Q144.81876 110.47396 144.81876 111.645836L144.81876 113.989586Q144.81876 116.44271 144.92813 117.09896Q145.0375 117.739586 145.38126 118.333336L143.5375 118.333336Q143.27188 117.78646 143.19376 117.052086ZM143.0375 113.13021Q142.08438 113.520836 140.1625 113.78646Q139.08438 113.94271 138.63126 114.145836Q138.19376 114.333336 137.94376 114.708336Q137.69376 115.083336 137.69376 115.552086Q137.69376 116.25521 138.225 116.72396Q138.75626 117.19271 139.7875 117.19271Q140.80313 117.19271 141.58438 116.75521Q142.38126 116.302086 142.75626 115.53646Q143.0375 114.927086 143.0375 113.770836L143.0375 113.13021ZM149.0375 118.333336L147.4125 118.333336L147.4125 104.020836L149.1625 104.020836L149.1625 109.13021Q150.2875 107.72396 152.00626 107.72396Q152.95938 107.72396 153.81876 108.114586Q154.67813 108.50521 155.225 109.208336Q155.77188 109.895836 156.08438 110.88021Q156.39688 111.864586 156.39688 112.989586Q156.39688 115.66146 155.08438 117.114586Q153.77188 118.56771 151.92813 118.56771Q150.08438 118.56771 149.0375 117.03646L149.0375 118.333336ZM149.02188 113.06771Q149.02188 114.927086 149.52188 115.770836Q150.36563 117.114586 151.77188 117.114586Q152.92813 117.114586 153.75626 116.114586Q154.6 115.114586 154.6 113.13021Q154.6 111.09896 153.7875 110.145836Q152.99063 109.177086 151.85 109.177086Q150.69376 109.177086 149.85 110.177086Q149.02188 111.177086 149.02188 113.06771ZM158.38126 118.333336L158.38126 104.020836L160.13126 104.020836L160.13126 118.333336L158.38126 118.333336ZM169.52188 114.989586L171.33438 115.22396Q170.9125 116.802086 169.74063 117.69271Q168.58438 118.56771 166.77188 118.56771Q164.50626 118.56771 163.1625 117.177086Q161.83438 115.770836 161.83438 113.239586Q161.83438 110.614586 163.17813 109.177086Q164.52188 107.72396 166.67813 107.72396Q168.75626 107.72396 170.06876 109.145836Q171.39688 110.552086 171.39688 113.13021Q171.39688 113.28646 171.38126 113.59896L163.64688 113.59896Q163.74063 115.302086 164.61563 116.208336Q165.49063 117.114586 166.7875 117.114586Q167.75626 117.114586 168.42813 116.614586Q169.11563 116.09896 169.52188 114.989586ZM163.74063 112.145836L169.5375 112.145836Q169.42813 110.84896 168.88126 110.19271Q168.0375 109.177086 166.69376 109.177086Q165.49063 109.177086 164.6625 109.989586Q163.83438 110.78646 163.74063 112.145836Z" fill-rule="nonzero"/><path fill="#9e9e9e" d="M38.553123 145.33333L36.7875 145.33333L36.7875 134.1302Q36.1625 134.73958 35.13125 135.34895Q34.1 135.9427 33.271873 136.2552L33.271873 134.55208Q34.75625 133.86458 35.85 132.8802Q36.959373 131.8802 37.4125 130.95833L38.553123 130.95833L38.553123 145.33333ZM43.9125 145.33333L43.9125 143.33333L45.9125 143.33333L45.9125 145.33333L43.9125 145.33333ZM51.63125 137.5677Q50.5375 137.16145 50.00625 136.42708Q49.490623 135.67708 49.490623 134.64583Q49.490623 133.08333 50.615623 132.02083Q51.740623 130.95833 53.6 130.95833Q55.475 130.95833 56.615623 132.05208Q57.75625 133.1302 57.75625 134.6927Q57.75625 135.6927 57.225 136.42708Q56.709373 137.16145 55.646873 137.5677Q56.975 138.0052 57.6625 138.95833Q58.35 139.91145 58.35 141.23958Q58.35 143.08333 57.0375 144.33333Q55.740623 145.58333 53.63125 145.58333Q51.50625 145.58333 50.209373 144.33333Q48.9125 143.0677 48.9125 141.1927Q48.9125 139.80208 49.615623 138.86458Q50.334373 137.91145 51.63125 137.5677ZM51.2875 134.58333Q51.2875 135.59895 51.94375 136.2552Q52.6 136.89583 53.63125 136.89583Q54.646873 136.89583 55.303123 136.2552Q55.959373 135.61458 55.959373 134.6927Q55.959373 133.72395 55.2875 133.0677Q54.615623 132.39583 53.615623 132.39583Q52.615623 132.39583 51.94375 133.05208Q51.2875 133.6927 51.2875 134.58333ZM50.725 141.20833Q50.725 141.95833 51.06875 142.66145Q51.428123 143.36458 52.13125 143.7552Q52.834373 144.1302 53.646873 144.1302Q54.9125 144.1302 55.725 143.3177Q56.553123 142.5052 56.553123 141.2552Q56.553123 139.98958 55.709373 139.16145Q54.865623 138.33333 53.584373 138.33333Q52.35 138.33333 51.5375 139.16145Q50.725 139.97395 50.725 141.20833ZM60.25625 134.45833Q60.25625 132.92708 61.021873 131.84895Q61.803123 130.77083 63.271873 130.77083Q64.61562 130.77083 65.49062 131.73958Q66.38125 132.6927 66.38125 134.5677Q66.38125 136.3802 65.49062 137.36458Q64.6 138.33333 63.2875 138.33333Q61.990623 138.33333 61.115623 137.3802Q60.25625 136.41145 60.25625 134.45833ZM63.31875 131.98958Q62.6625 131.98958 62.225 132.55208Q61.803123 133.11458 61.803123 134.6302Q61.803123 136.0052 62.240623 136.5677Q62.678123 137.1302 63.31875 137.1302Q63.990623 137.1302 64.4125 136.5677Q64.85 135.98958 64.85 134.48958Q64.85 133.09895 64.4125 132.55208Q63.975 131.98958 63.31875 131.98958ZM63.334373 145.86458L71.1625 130.77083L72.58437 130.77083L64.7875 145.86458L63.334373 145.86458ZM69.52187 141.97395Q69.52187 140.42708 70.2875 139.36458Q71.06875 138.28645 72.5375 138.28645Q73.88125 138.28645 74.75625 139.2552Q75.64687 140.20833 75.64687 142.08333Q75.64687 143.89583 74.75625 144.8802Q73.86562 145.86458 72.55312 145.86458Q71.25625 145.86458 70.38125 144.89583Q69.52187 143.91145 69.52187 141.97395ZM72.58437 139.5052Q71.92812 139.5052 71.49062 140.0677Q71.05312 140.6302 71.05312 142.14583Q71.05312 143.52083 71.49062 144.08333Q71.92812 144.64583 72.58437 144.64583Q73.25625 144.64583 73.67812 144.08333Q74.11562 143.52083 74.11562 142.0052Q74.11562 140.6302 73.67812 140.0677Q73.24062 139.5052 72.58437 139.5052Z" fill-rule="nonzero"/><path stroke="#757575" stroke-width="1.0" stroke-linecap="butt" d="M31.1 124.833336L250.71666 124.833336L444.12085 119.03836" fill-rule="nonzero"/><path fill="#9e9e9e" d="M446.12085 119.03836C446.12085 117.93379 445.22543 117.03836 444.12085 117.03836C443.0163 117.03836 442.12085 117.93379 442.12085 119.03836C442.12085 120.14293 443.0163 121.03836 444.12085 121.03836C445.22543 121.03836 446.12085 120.14293 446.12085 119.03836" fill-rule="nonzero"/><path fill="#1a1a1a" d="M32.709373 169.33333L32.709373 155.02083L34.6 155.02083L34.6 160.89583L42.0375 160.89583L42.0375 155.02083L43.928123 155.02083L43.928123 169.33333L42.0375 169.33333L42.0375 162.58333L34.6 162.58333L34.6 169.33333L32.709373 169.33333ZM45.428123 157.03645L45.428123 155.02083L47.19375 155.02083L47.19375 157.03645L45.428123 157.03645ZM45.428123 169.33333L45.428123 158.95833L47.19375 158.95833L47.19375 169.33333L45.428123 169.33333ZM49.1 170.1927L50.803123 170.4427Q50.9125 171.23958 51.396873 171.59895Q52.053123 172.08333 53.19375 172.08333Q54.4125 172.08333 55.06875 171.59895Q55.740623 171.11458 55.975 170.23958Q56.115623 169.6927 56.1 167.97395Q54.94375 169.33333 53.225 169.33333Q51.084373 169.33333 49.9125 167.78645Q48.740623 166.23958 48.740623 164.08333Q48.740623 162.59895 49.271873 161.34895Q49.81875 160.09895 50.834373 159.41145Q51.865623 158.72395 53.240623 158.72395Q55.06875 158.72395 56.271873 160.20833L56.271873 158.95833L57.88125 158.95833L57.88125 167.92708Q57.88125 170.34895 57.38125 171.34895Q56.896873 172.36458 55.81875 172.9427Q54.75625 173.53645 53.19375 173.53645Q51.35 173.53645 50.19375 172.70833Q49.053123 171.8802 49.1 170.1927ZM50.553123 163.95833Q50.553123 166.0052 51.365623 166.9427Q52.178123 167.8802 53.396873 167.8802Q54.6 167.8802 55.4125 166.9427Q56.240623 166.0052 56.240623 164.02083Q56.240623 162.11458 55.396873 161.14583Q54.553123 160.17708 53.365623 160.17708Q52.19375 160.17708 51.365623 161.1302Q50.553123 162.08333 50.553123 163.95833ZM60.4125 169.33333L60.4125 155.02083L62.178123 155.02083L62.178123 160.14583Q63.4125 158.72395 65.2875 158.72395Q66.42812 158.72395 67.27187 159.17708Q68.13125 159.6302 68.49062 160.4427Q68.86562 161.23958 68.86562 162.7552L68.86562 169.33333L67.11562 169.33333L67.11562 162.7552Q67.11562 161.4427 66.5375 160.84895Q65.95937 160.23958 64.92812 160.23958Q64.14687 160.23958 63.44375 160.64583Q62.75625 161.05208 62.459373 161.7552Q62.178123 162.4427 62.178123 163.66145L62.178123 169.33333L60.4125 169.33333ZM75.74062 165.03645L75.74062 163.27083L81.13125 163.27083L81.13125 165.03645L75.74062 165.03645ZM89.63125 169.33333L89.63125 155.02083L91.56875 155.02083L99.08437 166.2552L99.08437 155.02083L100.89687 155.02083L100.89687 169.33333L98.95937 169.33333L91.44375 158.08333L91.44375 169.33333L89.63125 169.33333ZM101.77187 164.14583Q101.77187 161.27083 103.36562 159.8802Q104.70937 158.72395 106.63125 158.72395Q108.77187 158.72395 110.11562 160.1302Q111.475 161.53645 111.475 164.0052Q111.475 166.0052 110.88125 167.16145Q110.2875 168.30208 109.13125 168.9427Q107.99062 169.5677 106.63125 169.5677Q104.44375 169.5677 103.1 168.17708Q101.77187 166.77083 101.77187 164.14583ZM103.56875 164.14583Q103.56875 166.14583 104.42812 167.1302Q105.30312 168.11458 106.63125 168.11458Q107.94375 168.11458 108.80312 167.1302Q109.67812 166.1302 109.67812 164.08333Q109.67812 162.16145 108.80312 161.17708Q107.92812 160.17708 106.63125 160.17708Q105.30312 160.17708 104.42812 161.17708Q103.56875 162.16145 103.56875 164.14583ZM119.74062 169.33333L119.74062 155.02083L129.39688 155.02083L129.39688 156.70833L121.63125 156.70833L121.63125 161.14583L128.35 161.14583L128.35 162.83333L121.63125 162.83333L121.63125 169.33333L119.74062 169.33333ZM131.42813 157.03645L131.42813 155.02083L133.19376 155.02083L133.19376 157.03645L131.42813 157.03645ZM131.42813 169.33333L131.42813 158.95833L133.19376 158.95833L133.19376 169.33333L131.42813 169.33333ZM134.24063 169.33333L138.0375 163.9427L134.5375 158.95833L136.725 158.95833L138.31876 161.39583Q138.77188 162.08333 139.0375 162.55208Q139.475 161.91145 139.83438 161.41145L141.58438 158.95833L143.67813 158.95833L140.1 163.84895L143.95938 169.33333L141.80313 169.33333L139.6625 166.11458L139.1 165.23958L136.38126 169.33333L134.24063 169.33333Z" fill-rule="nonzero"/><path fill="#9e9e9e" d="M38.553123 196.33333L36.7875 196.33333L36.7875 185.1302Q36.1625 185.73958 35.13125 186.34895Q34.1 186.9427 33.271873 187.2552L33.271873 185.55208Q34.75625 184.86458 35.85 183.8802Q36.959373 182.8802 37.4125 181.95833L38.553123 181.95833L38.553123 196.33333ZM43.9125 196.33333L43.9125 194.33333L45.9125 194.33333L45.9125 196.33333L43.9125 196.33333ZM51.63125 188.5677Q50.5375 188.16145 50.00625 187.42708Q49.490623 186.67708 49.490623 185.64583Q49.490623 184.08333 50.615623 183.02083Q51.740623 181.95833 53.6 181.95833Q55.475 181.95833 56.615623 183.05208Q57.75625 184.1302 57.75625 185.6927Q57.75625 186.6927 57.225 187.42708Q56.709373 188.16145 55.646873 188.5677Q56.975 189.0052 57.6625 189.95833Q58.35 190.91145 58.35 192.23958Q58.35 194.08333 57.0375 195.33333Q55.740623 196.58333 53.63125 196.58333Q51.50625 196.58333 50.209373 195.33333Q48.9125 194.0677 48.9125 192.1927Q48.9125 190.80208 49.615623 189.86458Q50.334373 188.91145 51.63125 188.5677ZM51.2875 185.58333Q51.2875 186.59895 51.94375 187.2552Q52.6 187.89583 53.63125 187.89583Q54.646873 187.89583 55.303123 187.2552Q55.959373 186.61458 55.959373 185.6927Q55.959373 184.72395 55.2875 184.0677Q54.615623 183.39583 53.615623 183.39583Q52.615623 183.39583 51.94375 184.05208Q51.2875 184.6927 51.2875 185.58333ZM50.725 192.20833Q50.725 192.95833 51.06875 193.66145Q51.428123 194.36458 52.13125 194.7552Q52.834373 195.1302 53.646873 195.1302Q54.9125 195.1302 55.725 194.3177Q56.553123 193.5052 56.553123 192.2552Q56.553123 190.98958 55.709373 190.16145Q54.865623 189.33333 53.584373 189.33333Q52.35 189.33333 51.5375 190.16145Q50.725 190.97395 50.725 192.20833ZM60.25625 185.45833Q60.25625 183.92708 61.021873 182.84895Q61.803123 181.77083 63.271873 181.77083Q64.61562 181.77083 65.49062 182.73958Q66.38125 183.6927 66.38125 185.5677Q66.38125 187.3802 65.49062 188.36458Q64.6 189.33333 63.2875 189.33333Q61.990623 189.33333 61.115623 188.3802Q60.25625 187.41145 60.25625 185.45833ZM63.31875 182.98958Q62.6625 182.98958 62.225 183.55208Q61.803123 184.11458 61.803123 185.6302Q61.803123 187.0052 62.240623 187.5677Q62.678123 188.1302 63.31875 188.1302Q63.990623 188.1302 64.4125 187.5677Q64.85 186.98958 64.85 185.48958Q64.85 184.09895 64.4125 183.55208Q63.975 182.98958 63.31875 182.98958ZM63.334373 196.86458L71.1625 181.77083L72.58437 181.77083L64.7875 196.86458L63.334373 196.86458ZM69.52187 192.97395Q69.52187 191.42708 70.2875 190.36458Q71.06875 189.28645 72.5375 189.28645Q73.88125 189.28645 74.75625 190.2552Q75.64687 191.20833 75.64687 193.08333Q75.64687 194.89583 74.75625 195.8802Q73.86562 196.86458 72.55312 196.86458Q71.25625 196.86458 70.38125 195.89583Q69.52187 194.91145 69.52187 192.97395ZM72.58437 190.5052Q71.92812 190.5052 71.49062 191.0677Q71.05312 191.6302 71.05312 193.14583Q71.05312 194.52083 71.49062 195.08333Q71.92812 195.64583 72.58437 195.64583Q73.25625 195.64583 73.67812 195.08333Q74.11562 194.52083 74.11562 193.0052Q74.11562 191.6302 73.67812 191.0677Q73.24062 190.5052 72.58437 190.5052Z" fill-rule="nonzero"/><path stroke="#757575" stroke-width="1.0" stroke-linecap="butt" d="M31.1 175.83333L250.71666 175.83333L418.93927 127.086555" fill-rule="nonzero"/><path fill="#9e9e9e" d="M420.93927 127.086555C420.93927 125.98199 420.04382 125.086555 418.93927 125.086555C417.8347 125.086555 416.93927 125.98199 416.93927 127.086555C416.93927 128.19112 417.8347 129.08655 418.93927 129.08655C420.04382 129.08655 420.93927 128.19112 420.93927 127.086555" fill-rule="nonzero"/><path fill="#1a1a1a" d="M32.709373 220.33333L32.709373 206.02083L34.6 206.02083L34.6 211.89583L42.0375 211.89583L42.0375 206.02083L43.928123 206.02083L43.928123 220.33333L42.0375 220.33333L42.0375 213.58333L34.6 213.58333L34.6 220.33333L32.709373 220.33333ZM45.428123 208.03645L45.428123 206.02083L47.19375 206.02083L47.19375 208.03645L45.428123 208.03645ZM45.428123 220.33333L45.428123 209.95833L47.19375 209.95833L47.19375 220.33333L45.428123 220.33333ZM49.1 221.1927L50.803123 221.4427Q50.9125 222.23958 51.396873 222.59895Q52.053123 223.08333 53.19375 223.08333Q54.4125 223.08333 55.06875 222.59895Q55.740623 222.11458 55.975 221.23958Q56.115623 220.6927 56.1 218.97395Q54.94375 220.33333 53.225 220.33333Q51.084373 220.33333 49.9125 218.78645Q48.740623 217.23958 48.740623 215.08333Q48.740623 213.59895 49.271873 212.34895Q49.81875 211.09895 50.834373 210.41145Q51.865623 209.72395 53.240623 209.72395Q55.06875 209.72395 56.271873 211.20833L56.271873 209.95833L57.88125 209.95833L57.88125 218.92708Q57.88125 221.34895 57.38125 222.34895Q56.896873 223.36458 55.81875 223.9427Q54.75625 224.53645 53.19375 224.53645Q51.35 224.53645 50.19375 223.70833Q49.053123 222.8802 49.1 221.1927ZM50.553123 214.95833Q50.553123 217.0052 51.365623 217.9427Q52.178123 218.8802 53.396873 218.8802Q54.6 218.8802 55.4125 217.9427Q56.240623 217.0052 56.240623 215.02083Q56.240623 213.11458 55.396873 212.14583Q54.553123 211.17708 53.365623 211.17708Q52.19375 211.17708 51.365623 212.1302Q50.553123 213.08333 50.553123 214.95833ZM60.4125 220.33333L60.4125 206.02083L62.178123 206.02083L62.178123 211.14583Q63.4125 209.72395 65.2875 209.72395Q66.42812 209.72395 67.27187 210.17708Q68.13125 210.6302 68.49062 211.4427Q68.86562 212.23958 68.86562 213.7552L68.86562 220.33333L67.11562 220.33333L67.11562 213.7552Q67.11562 212.4427 66.5375 211.84895Q65.95937 211.23958 64.92812 211.23958Q64.14687 211.23958 63.44375 211.64583Q62.75625 212.05208 62.459373 212.7552Q62.178123 213.4427 62.178123 214.66145L62.178123 220.33333L60.4125 220.33333ZM75.74062 216.03645L75.74062 214.27083L81.13125 214.27083L81.13125 216.03645L75.74062 216.03645ZM89.74062 220.33333L89.74062 206.02083L99.39687 206.02083L99.39687 207.70833L91.63125 207.70833L91.63125 212.14583L98.35 212.14583L98.35 213.83333L91.63125 213.83333L91.63125 220.33333L89.74062 220.33333ZM101.42812 208.03645L101.42812 206.02083L103.19375 206.02083L103.19375 208.03645L101.42812 208.03645ZM101.42812 220.33333L101.42812 209.95833L103.19375 209.95833L103.19375 220.33333L101.42812 220.33333ZM104.24062 220.33333L108.0375 214.9427L104.5375 209.95833L106.725 209.95833L108.31875 212.39583Q108.77187 213.08333 109.0375 213.55208Q109.475 212.91145 109.83437 212.41145L111.58437 209.95833L113.67812 209.95833L110.1 214.84895L113.95937 220.33333L111.80312 220.33333L109.6625 217.11458L109.1 216.23958L106.38125 220.33333L104.24062 220.33333ZM121.19375 219.05208Q120.20937 219.8802 119.30312 220.22395Q118.39687 220.5677 117.36562 220.5677Q115.6625 220.5677 114.74062 219.73958Q113.81875 218.89583 113.81875 217.59895Q113.81875 216.83333 114.1625 216.20833Q114.52187 215.58333 115.08437 215.20833Q115.64687 214.8177 116.35 214.61458Q116.86562 214.48958 117.9125 214.34895Q120.0375 214.09895 121.0375 213.7552Q121.05312 213.39583 121.05312 213.28645Q121.05312 212.22395 120.55312 211.77083Q119.88125 211.17708 118.55312 211.17708Q117.30312 211.17708 116.70937 211.61458Q116.13125 212.05208 115.85 213.16145L114.13125 212.92708Q114.36562 211.8177 114.89687 211.14583Q115.42812 210.45833 116.44375 210.09895Q117.45937 209.72395 118.80312 209.72395Q120.13125 209.72395 120.95937 210.03645Q121.7875 210.34895 122.17812 210.83333Q122.56875 211.30208 122.725 212.02083Q122.81875 212.47395 122.81875 213.64583L122.81875 215.98958Q122.81875 218.4427 122.92812 219.09895Q123.0375 219.73958 123.38125 220.33333L121.5375 220.33333Q121.27187 219.78645 121.19375 219.05208ZM121.0375 215.1302Q120.08437 215.52083 118.1625 215.78645Q117.08437 215.9427 116.63125 216.14583Q116.19375 216.33333 115.94375 216.70833Q115.69375 217.08333 115.69375 217.55208Q115.69375 218.2552 116.225 218.72395Q116.75625 219.1927 117.7875 219.1927Q118.80312 219.1927 119.58437 218.7552Q120.38125 218.30208 120.75625 217.53645Q121.0375 216.92708 121.0375 215.77083L121.0375 215.1302ZM127.0375 220.33333L125.4125 220.33333L125.4125 206.02083L127.1625 206.02083L127.1625 211.1302Q128.2875 209.72395 130.00626 209.72395Q130.95938 209.72395 131.81876 210.11458Q132.67813 210.5052 133.225 211.20833Q133.77188 211.89583 134.08438 212.8802Q134.39688 213.86458 134.39688 214.98958Q134.39688 217.66145 133.08438 219.11458Q131.77188 220.5677 129.92813 220.5677Q128.08438 220.5677 127.0375 219.03645L127.0375 220.33333ZM127.02187 215.0677Q127.02187 216.92708 127.52187 217.77083Q128.36563 219.11458 129.77188 219.11458Q130.92813 219.11458 131.75626 218.11458Q132.6 217.11458 132.6 215.1302Q132.6 213.09895 131.7875 212.14583Q130.99063 211.17708 129.85 211.17708Q128.69376 211.17708 127.85 212.17708Q127.02187 213.17708 127.02187 215.0677ZM136.38126 220.33333L136.38126 206.02083L138.13126 206.02083L138.13126 220.33333L136.38126 220.33333ZM147.52188 216.98958L149.33438 217.22395Q148.9125 218.80208 147.74063 219.6927Q146.58438 220.5677 144.77188 220.5677Q142.50626 220.5677 141.1625 219.17708Q139.83438 217.77083 139.83438 215.23958Q139.83438 212.61458 141.17813 211.17708Q142.52188 209.72395 144.67813 209.72395Q146.75626 209.72395 148.06876 211.14583Q149.39688 212.55208 149.39688 215.1302Q149.39688 215.28645 149.38126 215.59895L141.64688 215.59895Q141.74063 217.30208 142.61563 218.20833Q143.49063 219.11458 144.7875 219.11458Q145.75626 219.11458 146.42813 218.61458Q147.11563 218.09895 147.52188 216.98958ZM141.74063 214.14583L147.5375 214.14583Q147.42813 212.84895 146.88126 212.1927Q146.0375 211.17708 144.69376 211.17708Q143.49063 211.17708 142.6625 211.98958Q141.83438 212.78645 141.74063 214.14583Z" fill-rule="nonzero"/><path fill="#9e9e9e" d="M32.19375 244.02083L33.88125 243.86458Q34.1 245.05208 34.69375 245.59895Q35.303123 246.1302 36.25625 246.1302Q37.06875 246.1302 37.678123 245.77083Q38.2875 245.39583 38.678123 244.77083Q39.06875 244.14583 39.334373 243.09895Q39.6 242.03645 39.6 240.9427Q39.6 240.83333 39.584373 240.59895Q39.053123 241.42708 38.146873 241.95833Q37.240623 242.47395 36.1625 242.47395Q34.396873 242.47395 33.1625 241.1927Q31.928125 239.89583 31.928125 237.78645Q31.928125 235.61458 33.209373 234.28645Q34.50625 232.95833 36.428123 232.95833Q37.834373 232.95833 38.990623 233.70833Q40.146873 234.45833 40.740623 235.84895Q41.35 237.23958 41.35 239.8802Q41.35 242.6302 40.740623 244.2552Q40.146873 245.8802 38.975 246.73958Q37.803123 247.58333 36.225 247.58333Q34.5375 247.58333 33.475 246.64583Q32.4125 245.70833 32.19375 244.02083ZM39.396873 237.70833Q39.396873 236.1927 38.584373 235.30208Q37.7875 234.41145 36.646873 234.41145Q35.475 234.41145 34.6 235.3802Q33.740623 236.33333 33.740623 237.84895Q33.740623 239.22395 34.553123 240.08333Q35.38125 240.92708 36.6 240.92708Q37.81875 240.92708 38.6 240.08333Q39.396873 239.22395 39.396873 237.70833ZM43.9125 247.33333L43.9125 245.33333L45.9125 245.33333L45.9125 247.33333L43.9125 247.33333ZM51.63125 239.5677Q50.5375 239.16145 50.00625 238.42708Q49.490623 237.67708 49.490623 236.64583Q49.490623 235.08333 50.615623 234.02083Q51.740623 232.95833 53.6 232.95833Q55.475 232.95833 56.615623 234.05208Q57.75625 235.1302 57.75625 236.6927Q57.75625 237.6927 57.225 238.42708Q56.709373 239.16145 55.646873 239.5677Q56.975 240.0052 57.6625 240.95833Q58.35 241.91145 58.35 243.23958Q58.35 245.08333 57.0375 246.33333Q55.740623 247.58333 53.63125 247.58333Q51.50625 247.58333 50.209373 246.33333Q48.9125 245.0677 48.9125 243.1927Q48.9125 241.80208 49.615623 240.86458Q50.334373 239.91145 51.63125 239.5677ZM51.2875 236.58333Q51.2875 237.59895 51.94375 238.2552Q52.6 238.89583 53.63125 238.89583Q54.646873 238.89583 55.303123 238.2552Q55.959373 237.61458 55.959373 236.6927Q55.959373 235.72395 55.2875 235.0677Q54.615623 234.39583 53.615623 234.39583Q52.615623 234.39583 51.94375 235.05208Q51.2875 235.6927 51.2875 236.58333ZM50.725 243.20833Q50.725 243.95833 51.06875 244.66145Q51.428123 245.36458 52.13125 245.7552Q52.834373 246.1302 53.646873 246.1302Q54.9125 246.1302 55.725 245.3177Q56.553123 244.5052 56.553123 243.2552Q56.553123 241.98958 55.709373 241.16145Q54.865623 240.33333 53.584373 240.33333Q52.35 240.33333 51.5375 241.16145Q50.725 241.97395 50.725 243.20833ZM60.25625 236.45833Q60.25625 234.92708 61.021873 233.84895Q61.803123 232.77083 63.271873 232.77083Q64.61562 232.77083 65.49062 233.73958Q66.38125 234.6927 66.38125 236.5677Q66.38125 238.3802 65.49062 239.36458Q64.6 240.33333 63.2875 240.33333Q61.990623 240.33333 61.115623 239.3802Q60.25625 238.41145 60.25625 236.45833ZM63.31875 233.98958Q62.6625 233.98958 62.225 234.55208Q61.803123 235.11458 61.803123 236.6302Q61.803123 238.0052 62.240623 238.5677Q62.678123 239.1302 63.31875 239.1302Q63.990623 239.1302 64.4125 238.5677Q64.85 237.98958 64.85 236.48958Q64.85 235.09895 64.4125 234.55208Q63.975 233.98958 63.31875 233.98958ZM63.334373 247.86458L71.1625 232.77083L72.58437 232.77083L64.7875 247.86458L63.334373 247.86458ZM69.52187 243.97395Q69.52187 242.42708 70.2875 241.36458Q71.06875 240.28645 72.5375 240.28645Q73.88125 240.28645 74.75625 241.2552Q75.64687 242.20833 75.64687 244.08333Q75.64687 245.89583 74.75625 246.8802Q73.86562 247.86458 72.55312 247.86458Q71.25625 247.86458 70.38125 246.89583Q69.52187 245.91145 69.52187 243.97395ZM72.58437 241.5052Q71.92812 241.5052 71.49062 242.0677Q71.05312 242.6302 71.05312 244.14583Q71.05312 245.52083 71.49062 246.08333Q71.92812 246.64583 72.58437 246.64583Q73.25625 246.64583 73.67812 246.08333Q74.11562 245.52083 74.11562 244.0052Q74.11562 242.6302 73.67812 242.0677Q73.24062 241.5052 72.58437 241.5052Z" fill-rule="nonzero"/><path stroke="#757575" stroke-width="1.0" stroke-linecap="butt" d="M31.1 226.83333L250.71666 226.83333L346.95197 170.97783" fill-rule="nonzero"/><path fill="#9e9e9e" d="M348.95197 170.97783C348.95197 169.87326 348.05652 168.97783 346.95197 168.97783C345.84738 168.97783 344.95197 169.87326 344.95197 170.97783C344.95197 172.08241 345.84738 172.97783 346.95197 172.97783C348.05652 172.97783 348.95197 172.08241 348.95197 170.97783" fill-rule="nonzero"/><path fill="#1a1a1a" d="M32.584373 294.93655L32.584373 280.62405L35.44375 280.62405L38.81875 290.74905Q39.2875 292.17093 39.50625 292.87405Q39.75625 292.0928 40.271873 290.57718L43.69375 280.62405L46.240623 280.62405L46.240623 294.93655L44.428123 294.93655L44.428123 282.95218L40.25625 294.93655L38.553123 294.93655L34.4125 282.74905L34.4125 294.93655L32.584373 294.93655ZM56.521873 291.5928L58.334373 291.82718Q57.9125 293.4053 56.740623 294.29593Q55.584373 295.17093 53.771873 295.17093Q51.50625 295.17093 50.1625 293.7803Q48.834373 292.37405 48.834373 289.8428Q48.834373 287.2178 50.178123 285.7803Q51.521873 284.32718 53.678123 284.32718Q55.75625 284.32718 57.06875 285.74905Q58.396873 287.1553 58.396873 289.73343Q58.396873 289.88968 58.38125 290.20218L50.646873 290.20218Q50.740623 291.9053 51.615623 292.81155Q52.490623 293.7178 53.7875 293.7178Q54.75625 293.7178 55.428123 293.2178Q56.115623 292.70218 56.521873 291.5928ZM50.740623 288.74905L56.5375 288.74905Q56.428123 287.45218 55.88125 286.79593Q55.0375 285.7803 53.69375 285.7803Q52.490623 285.7803 51.6625 286.5928Q50.834373 287.38968 50.740623 288.74905ZM67.14687 294.93655L67.14687 293.62405Q66.1625 295.17093 64.24062 295.17093Q63.00625 295.17093 61.959373 294.48343Q60.928123 293.79593 60.35 292.57718Q59.7875 291.35843 59.7875 289.76468Q59.7875 288.20218 60.303123 286.93655Q60.81875 285.67093 61.85 284.99905Q62.896873 284.32718 64.1625 284.32718Q65.1 284.32718 65.83437 284.73343Q66.56875 285.12405 67.0375 285.74905L67.0375 280.62405L68.77187 280.62405L68.77187 294.93655L67.14687 294.93655ZM61.584373 289.76468Q61.584373 291.74905 62.428123 292.73343Q63.271873 293.7178 64.4125 293.7178Q65.56875 293.7178 66.36562 292.7803Q67.17812 291.8428 67.17812 289.9053Q67.17812 287.7803 66.35 286.7803Q65.5375 285.7803 64.33437 285.7803Q63.1625 285.7803 62.365623 286.74905Q61.584373 287.70218 61.584373 289.76468ZM71.42812 282.63968L71.42812 280.62405L73.19375 280.62405L73.19375 282.63968L71.42812 282.63968ZM71.42812 294.93655L71.42812 284.56155L73.19375 284.56155L73.19375 294.93655L71.42812 294.93655ZM82.20937 294.93655L82.20937 293.4053Q81.00625 295.17093 78.92812 295.17093Q78.00625 295.17093 77.20937 294.82718Q76.4125 294.4678 76.02187 293.93655Q75.64687 293.4053 75.49062 292.62405Q75.38125 292.10843 75.38125 290.98343L75.38125 284.56155L77.13125 284.56155L77.13125 290.31155Q77.13125 291.68655 77.24062 292.17093Q77.4125 292.85843 77.94375 293.26468Q78.49062 293.6553 79.27187 293.6553Q80.06875 293.6553 80.75625 293.24905Q81.45937 292.8428 81.74062 292.1553Q82.0375 291.45218 82.0375 290.12405L82.0375 284.56155L83.7875 284.56155L83.7875 294.93655L82.20937 294.93655ZM85.4125 294.93655L85.4125 284.56155L86.99062 284.56155L86.99062 286.01468Q87.475 285.26468 88.2875 284.79593Q89.1 284.32718 90.13125 284.32718Q91.2875 284.32718 92.02187 284.81155Q92.75625 285.2803 93.06875 286.13968Q94.30312 284.32718 96.27187 284.32718Q97.81875 284.32718 98.64687 285.18655Q99.475 286.04593 99.475 287.81155L99.475 294.93655L97.725 294.93655L97.725 288.4053Q97.725 287.3428 97.55312 286.88968Q97.38125 286.42093 96.92812 286.13968Q96.49062 285.85843 95.88125 285.85843Q94.7875 285.85843 94.05312 286.5928Q93.33437 287.31155 93.33437 288.9053L93.33437 294.93655L91.58437 294.93655L91.58437 288.20218Q91.58437 287.0303 91.14687 286.45218Q90.725 285.85843 89.74062 285.85843Q89.00625 285.85843 88.36562 286.24905Q87.74062 286.63968 87.45937 287.38968Q87.17812 288.13968 87.17812 289.56155L87.17812 294.93655L85.4125 294.93655ZM106.74062 290.63968L106.74062 288.87405L112.13125 288.87405L112.13125 290.63968L106.74062 290.63968ZM120.63125 294.93655L120.63125 280.62405L122.56875 280.62405L130.08438 291.85843L130.08438 280.62405L131.89688 280.62405L131.89688 294.93655L129.95938 294.93655L122.44375 283.68655L122.44375 294.93655L120.63125 294.93655ZM132.77188 289.74905Q132.77188 286.87405 134.36563 285.48343Q135.70938 284.32718 137.63126 284.32718Q139.77188 284.32718 141.11563 285.73343Q142.475 287.13968 142.475 289.60843Q142.475 291.60843 141.88126 292.76468Q141.2875 293.9053 140.13126 294.54593Q138.99063 295.17093 137.63126 295.17093Q135.44376 295.17093 134.1 293.7803Q132.77188 292.37405 132.77188 289.74905ZM134.56876 289.74905Q134.56876 291.74905 135.42813 292.73343Q136.30313 293.7178 137.63126 293.7178Q138.94376 293.7178 139.80313 292.73343Q140.67813 291.73343 140.67813 289.68655Q140.67813 287.76468 139.80313 286.7803Q138.92813 285.7803 137.63126 285.7803Q136.30313 285.7803 135.42813 286.7803Q134.56876 287.76468 134.56876 289.74905ZM150.74063 294.93655L150.74063 280.62405L160.39688 280.62405L160.39688 282.31155L152.63126 282.31155L152.63126 286.74905L159.35 286.74905L159.35 288.43655L152.63126 288.43655L152.63126 294.93655L150.74063 294.93655ZM162.42813 282.63968L162.42813 280.62405L164.19376 280.62405L164.19376 282.63968L162.42813 282.63968ZM162.42813 294.93655L162.42813 284.56155L164.19376 284.56155L164.19376 294.93655L162.42813 294.93655ZM165.24063 294.93655L169.0375 289.54593L165.5375 284.56155L167.725 284.56155L169.31876 286.99905Q169.77188 287.68655 170.0375 288.1553Q170.475 287.51468 170.83438 287.01468L172.58438 284.56155L174.67813 284.56155L171.1 289.45218L174.95938 294.93655L172.80313 294.93655L170.6625 291.7178L170.1 290.8428L167.38126 294.93655L165.24063 294.93655Z" fill-rule="nonzero"/><path fill="#9e9e9e" d="M38.553123 321.93655L36.7875 321.93655L36.7875 310.73343Q36.1625 311.3428 35.13125 311.95218Q34.1 312.54593 33.271873 312.85843L33.271873 311.1553Q34.75625 310.4678 35.85 309.48343Q36.959373 308.48343 37.4125 307.56155L38.553123 307.56155L38.553123 321.93655ZM49.553123 321.93655L47.7875 321.93655L47.7875 310.73343Q47.1625 311.3428 46.13125 311.95218Q45.1 312.54593 44.271873 312.85843L44.271873 311.1553Q45.75625 310.4678 46.85 309.48343Q47.959373 308.48343 48.4125 307.56155L49.553123 307.56155L49.553123 321.93655ZM54.9125 321.93655L54.9125 319.93655L56.9125 319.93655L56.9125 321.93655L54.9125 321.93655ZM59.928123 314.87405Q59.928123 312.3428 60.44375 310.79593Q60.975 309.23343 62.00625 308.4053Q63.0375 307.56155 64.6 307.56155Q65.75625 307.56155 66.61562 308.0303Q67.49062 308.48343 68.05312 309.35843Q68.61562 310.23343 68.94375 311.49905Q69.27187 312.74905 69.27187 314.87405Q69.27187 317.38968 68.74062 318.93655Q68.225 320.48343 67.19375 321.3428Q66.17812 322.18655 64.6 322.18655Q62.521873 322.18655 61.35 320.70218Q59.928123 318.9053 59.928123 314.87405ZM61.740623 314.87405Q61.740623 318.4053 62.553123 319.57718Q63.38125 320.73343 64.6 320.73343Q65.80312 320.73343 66.63125 319.56155Q67.45937 318.38968 67.45937 314.87405Q67.45937 311.3428 66.63125 310.18655Q65.80312 309.01468 64.58437 309.01468Q63.365623 309.01468 62.646873 310.04593Q61.740623 311.3428 61.740623 314.87405ZM71.25625 311.06155Q71.25625 309.5303 72.02187 308.45218Q72.80312 307.37405 74.27187 307.37405Q75.61562 307.37405 76.49062 308.3428Q77.38125 309.29593 77.38125 311.17093Q77.38125 312.98343 76.49062 313.9678Q75.6 314.93655 74.2875 314.93655Q72.99062 314.93655 72.11562 313.98343Q71.25625 313.01468 71.25625 311.06155ZM74.31875 308.5928Q73.6625 308.5928 73.225 309.1553Q72.80312 309.7178 72.80312 311.23343Q72.80312 312.60843 73.24062 313.17093Q73.67812 313.73343 74.31875 313.73343Q74.99062 313.73343 75.4125 313.17093Q75.85 312.5928 75.85 311.0928Q75.85 309.70218 75.4125 309.1553Q74.975 308.5928 74.31875 308.5928ZM74.33437 322.4678L82.1625 307.37405L83.58437 307.37405L75.7875 322.4678L74.33437 322.4678ZM80.52187 318.57718Q80.52187 317.0303 81.2875 315.9678Q82.06875 314.88968 83.5375 314.88968Q84.88125 314.88968 85.75625 315.85843Q86.64687 316.81155 86.64687 318.68655Q86.64687 320.49905 85.75625 321.48343Q84.86562 322.4678 83.55312 322.4678Q82.25625 322.4678 81.38125 321.49905Q80.52187 320.51468 80.52187 318.57718ZM83.58437 316.10843Q82.92812 316.10843 82.49062 316.67093Q82.05312 317.23343 82.05312 318.74905Q82.05312 320.12405 82.49062 320.68655Q82.92812 321.24905 83.58437 321.24905Q84.25625 321.24905 84.67812 320.68655Q85.11562 320.12405 85.11562 318.60843Q85.11562 317.23343 84.67812 316.67093Q84.24062 316.10843 83.58437 316.10843Z" fill-rule="nonzero"/><path stroke="#757575" stroke-width="1.0" stroke-linecap="butt" d="M31.1 301.43655L250.71666 301.43655L273.12787 301.43655" fill-rule="nonzero"/><path fill="#9e9e9e" d="M275.12787 301.43655C275.12787 300.332 274.23245 299.43655 273.12787 299.43655C272.02332 299.43655 271.12787 300.332 271.12787 301.43655C271.12787 302.54114 272.02332 303.43655 273.12787 303.43655C274.23245 303.43655 275.12787 302.54114 275.12787 301.43655" fill-rule="nonzero"/><path fill="#1a1a1a" d="M32.584373 493.33197L32.584373 479.01947L35.44375 479.01947L38.81875 489.14447Q39.2875 490.56635 39.50625 491.26947Q39.75625 490.48822 40.271873 488.9726L43.69375 479.01947L46.240623 479.01947L46.240623 493.33197L44.428123 493.33197L44.428123 481.3476L40.25625 493.33197L38.553123 493.33197L34.4125 481.14447L34.4125 493.33197L32.584373 493.33197ZM56.521873 489.98822L58.334373 490.2226Q57.9125 491.80072 56.740623 492.69135Q55.584373 493.56635 53.771873 493.56635Q51.50625 493.56635 50.1625 492.17572Q48.834373 490.76947 48.834373 488.23822Q48.834373 485.61322 50.178123 484.17572Q51.521873 482.7226 53.678123 482.7226Q55.75625 482.7226 57.06875 484.14447Q58.396873 485.55072 58.396873 488.12885Q58.396873 488.2851 58.38125 488.5976L50.646873 488.5976Q50.740623 490.30072 51.615623 491.20697Q52.490623 492.11322 53.7875 492.11322Q54.75625 492.11322 55.428123 491.61322Q56.115623 491.0976 56.521873 489.98822ZM50.740623 487.14447L56.5375 487.14447Q56.428123 485.8476 55.88125 485.19135Q55.0375 484.17572 53.69375 484.17572Q52.490623 484.17572 51.6625 484.98822Q50.834373 485.7851 50.740623 487.14447ZM67.14687 493.33197L67.14687 492.01947Q66.1625 493.56635 64.24062 493.56635Q63.00625 493.56635 61.959373 492.87885Q60.928123 492.19135 60.35 490.9726Q59.7875 489.75385 59.7875 488.1601Q59.7875 486.5976 60.303123 485.33197Q60.81875 484.06635 61.85 483.39447Q62.896873 482.7226 64.1625 482.7226Q65.1 482.7226 65.83437 483.12885Q66.56875 483.51947 67.0375 484.14447L67.0375 479.01947L68.77187 479.01947L68.77187 493.33197L67.14687 493.33197ZM61.584373 488.1601Q61.584373 490.14447 62.428123 491.12885Q63.271873 492.11322 64.4125 492.11322Q65.56875 492.11322 66.36562 491.17572Q67.17812 490.23822 67.17812 488.30072Q67.17812 486.17572 66.35 485.17572Q65.5375 484.17572 64.33437 484.17572Q63.1625 484.17572 62.365623 485.14447Q61.584373 486.0976 61.584373 488.1601ZM71.42812 481.0351L71.42812 479.01947L73.19375 479.01947L73.19375 481.0351L71.42812 481.0351ZM71.42812 493.33197L71.42812 482.95697L73.19375 482.95697L73.19375 493.33197L71.42812 493.33197ZM82.20937 493.33197L82.20937 491.80072Q81.00625 493.56635 78.92812 493.56635Q78.00625 493.56635 77.20937 493.2226Q76.4125 492.86322 76.02187 492.33197Q75.64687 491.80072 75.49062 491.01947Q75.38125 490.50385 75.38125 489.37885L75.38125 482.95697L77.13125 482.95697L77.13125 488.70697Q77.13125 490.08197 77.24062 490.56635Q77.4125 491.25385 77.94375 491.6601Q78.49062 492.05072 79.27187 492.05072Q80.06875 492.05072 80.75625 491.64447Q81.45937 491.23822 81.74062 490.55072Q82.0375 489.8476 82.0375 488.51947L82.0375 482.95697L83.7875 482.95697L83.7875 493.33197L82.20937 493.33197ZM85.4125 493.33197L85.4125 482.95697L86.99062 482.95697L86.99062 484.4101Q87.475 483.6601 88.2875 483.19135Q89.1 482.7226 90.13125 482.7226Q91.2875 482.7226 92.02187 483.20697Q92.75625 483.67572 93.06875 484.5351Q94.30312 482.7226 96.27187 482.7226Q97.81875 482.7226 98.64687 483.58197Q99.475 484.44135 99.475 486.20697L99.475 493.33197L97.725 493.33197L97.725 486.80072Q97.725 485.73822 97.55312 485.2851Q97.38125 484.81635 96.92812 484.5351Q96.49062 484.25385 95.88125 484.25385Q94.7875 484.25385 94.05312 484.98822Q93.33437 485.70697 93.33437 487.30072L93.33437 493.33197L91.58437 493.33197L91.58437 486.5976Q91.58437 485.42572 91.14687 484.8476Q90.725 484.25385 89.74062 484.25385Q89.00625 484.25385 88.36562 484.64447Q87.74062 485.0351 87.45937 485.7851Q87.17812 486.5351 87.17812 487.95697L87.17812 493.33197L85.4125 493.33197ZM106.74062 489.0351L106.74062 487.26947L112.13125 487.26947L112.13125 489.0351L106.74062 489.0351ZM120.74062 493.33197L120.74062 479.01947L130.39688 479.01947L130.39688 480.70697L122.63125 480.70697L122.63125 485.14447L129.35 485.14447L129.35 486.83197L122.63125 486.83197L122.63125 493.33197L120.74062 493.33197ZM132.42813 481.0351L132.42813 479.01947L134.19376 479.01947L134.19376 481.0351L132.42813 481.0351ZM132.42813 493.33197L132.42813 482.95697L134.19376 482.95697L134.19376 493.33197L132.42813 493.33197ZM135.24063 493.33197L139.0375 487.94135L135.5375 482.95697L137.725 482.95697L139.31876 485.39447Q139.77188 486.08197 140.0375 486.55072Q140.475 485.9101 140.83438 485.4101L142.58438 482.95697L144.67813 482.95697L141.1 487.8476L144.95938 493.33197L142.80313 493.33197L140.6625 490.11322L140.1 489.23822L137.38126 493.33197L135.24063 493.33197ZM152.19376 492.05072Q151.20938 492.87885 150.30313 493.2226Q149.39688 493.56635 148.36563 493.56635Q146.6625 493.56635 145.74063 492.73822Q144.81876 491.89447 144.81876 490.5976Q144.81876 489.83197 145.1625 489.20697Q145.52188 488.58197 146.08438 488.20697Q146.64688 487.81635 147.35 487.61322Q147.86563 487.48822 148.9125 487.3476Q151.0375 487.0976 152.0375 486.75385Q152.05313 486.39447 152.05313 486.2851Q152.05313 485.2226 151.55313 484.76947Q150.88126 484.17572 149.55313 484.17572Q148.30313 484.17572 147.70938 484.61322Q147.13126 485.05072 146.85 486.1601L145.13126 485.92572Q145.36563 484.81635 145.89688 484.14447Q146.42813 483.45697 147.44376 483.0976Q148.45938 482.7226 149.80313 482.7226Q151.13126 482.7226 151.95938 483.0351Q152.7875 483.3476 153.17813 483.83197Q153.56876 484.30072 153.725 485.01947Q153.81876 485.4726 153.81876 486.64447L153.81876 488.98822Q153.81876 491.44135 153.92813 492.0976Q154.0375 492.73822 154.38126 493.33197L152.5375 493.33197Q152.27188 492.7851 152.19376 492.05072ZM152.0375 488.12885Q151.08438 488.51947 149.1625 488.7851Q148.08438 488.94135 147.63126 489.14447Q147.19376 489.33197 146.94376 489.70697Q146.69376 490.08197 146.69376 490.55072Q146.69376 491.25385 147.225 491.7226Q147.75626 492.19135 148.7875 492.19135Q149.80313 492.19135 150.58438 491.75385Q151.38126 491.30072 151.75626 490.5351Q152.0375 489.92572 152.0375 488.76947L152.0375 488.12885ZM158.0375 493.33197L156.4125 493.33197L156.4125 479.01947L158.1625 479.01947L158.1625 484.12885Q159.2875 482.7226 161.00626 482.7226Q161.95938 482.7226 162.81876 483.11322Q163.67813 483.50385 164.225 484.20697Q164.77188 484.89447 165.08438 485.87885Q165.39688 486.86322 165.39688 487.98822Q165.39688 490.6601 164.08438 492.11322Q162.77188 493.56635 160.92813 493.56635Q159.08438 493.56635 158.0375 492.0351L158.0375 493.33197ZM158.02188 488.06635Q158.02188 489.92572 158.52188 490.76947Q159.36563 492.11322 160.77188 492.11322Q161.92813 492.11322 162.75626 491.11322Q163.6 490.11322 163.6 488.12885Q163.6 486.0976 162.7875 485.14447Q161.99063 484.17572 160.85 484.17572Q159.69376 484.17572 158.85 485.17572Q158.02188 486.17572 158.02188 488.06635ZM167.38126 493.33197L167.38126 479.01947L169.13126 479.01947L169.13126 493.33197L167.38126 493.33197ZM178.52188 489.98822L180.33438 490.2226Q179.9125 491.80072 178.74063 492.69135Q177.58438 493.56635 175.77188 493.56635Q173.50626 493.56635 172.1625 492.17572Q170.83438 490.76947 170.83438 488.23822Q170.83438 485.61322 172.17813 484.17572Q173.52188 482.7226 175.67813 482.7226Q177.75626 482.7226 179.06876 484.14447Q180.39688 485.55072 180.39688 488.12885Q180.39688 488.2851 180.38126 488.5976L172.64688 488.5976Q172.74063 490.30072 173.61563 491.20697Q174.49063 492.11322 175.7875 492.11322Q176.75626 492.11322 177.42813 491.61322Q178.11563 491.0976 178.52188 489.98822ZM172.74063 487.14447L178.5375 487.14447Q178.42813 485.8476 177.88126 485.19135Q177.0375 484.17572 175.69376 484.17572Q174.49063 484.17572 173.6625 484.98822Q172.83438 485.7851 172.74063 487.14447Z" fill-rule="nonzero"/><path fill="#9e9e9e" d="M38.553123 520.332L36.7875 520.332L36.7875 509.12885Q36.1625 509.73822 35.13125 510.3476Q34.1 510.94135 33.271873 511.25385L33.271873 509.55072Q34.75625 508.86322 35.85 507.87885Q36.959373 506.87885 37.4125 505.95697L38.553123 505.95697L38.553123 520.332ZM45.63125 512.56635Q44.5375 512.1601 44.00625 511.42572Q43.490623 510.67572 43.490623 509.64447Q43.490623 508.08197 44.615623 507.01947Q45.740623 505.95697 47.6 505.95697Q49.475 505.95697 50.615623 507.05072Q51.75625 508.12885 51.75625 509.69135Q51.75625 510.69135 51.225 511.42572Q50.709373 512.1601 49.646873 512.56635Q50.975 513.00385 51.6625 513.957Q52.35 514.9101 52.35 516.2382Q52.35 518.082 51.0375 519.332Q49.740623 520.582 47.63125 520.582Q45.50625 520.582 44.209373 519.332Q42.9125 518.06635 42.9125 516.19135Q42.9125 514.8007 43.615623 513.8632Q44.334373 512.9101 45.63125 512.56635ZM45.2875 509.58197Q45.2875 510.5976 45.94375 511.25385Q46.6 511.89447 47.63125 511.89447Q48.646873 511.89447 49.303123 511.25385Q49.959373 510.61322 49.959373 509.69135Q49.959373 508.7226 49.2875 508.06635Q48.615623 507.39447 47.615623 507.39447Q46.615623 507.39447 45.94375 508.05072Q45.2875 508.69135 45.2875 509.58197ZM44.725 516.207Q44.725 516.957 45.06875 517.6601Q45.428123 518.3632 46.13125 518.75385Q46.834373 519.12885 47.646873 519.12885Q48.9125 519.12885 49.725 518.31635Q50.553123 517.50385 50.553123 516.25385Q50.553123 514.9882 49.709373 514.1601Q48.865623 513.332 47.584373 513.332Q46.35 513.332 45.5375 514.1601Q44.725 514.9726 44.725 516.207ZM54.9125 520.332L54.9125 518.332L56.9125 518.332L56.9125 520.332L54.9125 520.332ZM59.928123 513.2695Q59.928123 510.73822 60.44375 509.19135Q60.975 507.62885 62.00625 506.80072Q63.0375 505.95697 64.6 505.95697Q65.75625 505.95697 66.61562 506.42572Q67.49062 506.87885 68.05312 507.75385Q68.61562 508.62885 68.94375 509.89447Q69.27187 511.14447 69.27187 513.2695Q69.27187 515.7851 68.74062 517.332Q68.225 518.87885 67.19375 519.7382Q66.17812 520.582 64.6 520.582Q62.521873 520.582 61.35 519.0976Q59.928123 517.3007 59.928123 513.2695ZM61.740623 513.2695Q61.740623 516.8007 62.553123 517.9726Q63.38125 519.12885 64.6 519.12885Q65.80312 519.12885 66.63125 517.957Q67.45937 516.7851 67.45937 513.2695Q67.45937 509.73822 66.63125 508.58197Q65.80312 507.4101 64.58437 507.4101Q63.365623 507.4101 62.646873 508.44135Q61.740623 509.73822 61.740623 513.2695ZM71.25625 509.45697Q71.25625 507.92572 72.02187 506.8476Q72.80312 505.76947 74.27187 505.76947Q75.61562 505.76947 76.49062 506.73822Q77.38125 507.69135 77.38125 509.56635Q77.38125 511.37885 76.49062 512.3632Q75.6 513.332 74.2875 513.332Q72.99062 513.332 72.11562 512.37885Q71.25625 511.4101 71.25625 509.45697ZM74.31875 506.98822Q73.6625 506.98822 73.225 507.55072Q72.80312 508.11322 72.80312 509.62885Q72.80312 511.00385 73.24062 511.56635Q73.67812 512.12885 74.31875 512.12885Q74.99062 512.12885 75.4125 511.56635Q75.85 510.98822 75.85 509.48822Q75.85 508.0976 75.4125 507.55072Q74.975 506.98822 74.31875 506.98822ZM74.33437 520.8632L82.1625 505.76947L83.58437 505.76947L75.7875 520.8632L74.33437 520.8632ZM80.52187 516.9726Q80.52187 515.4257 81.2875 514.3632Q82.06875 513.2851 83.5375 513.2851Q84.88125 513.2851 85.75625 514.25385Q86.64687 515.207 86.64687 517.082Q86.64687 518.8945 85.75625 519.87885Q84.86562 520.8632 83.55312 520.8632Q82.25625 520.8632 81.38125 519.8945Q80.52187 518.9101 80.52187 516.9726ZM83.58437 514.50385Q82.92812 514.50385 82.49062 515.06635Q82.05312 515.62885 82.05312 517.1445Q82.05312 518.5195 82.49062 519.082Q82.92812 519.6445 83.58437 519.6445Q84.25625 519.6445 84.67812 519.082Q85.11562 518.5195 85.11562 517.00385Q85.11562 515.62885 84.67812 515.06635Q84.24062 514.50385 83.58437 514.50385Z" fill-rule="nonzero"/><path stroke="#757575" stroke-width="1.0" stroke-linecap="butt" d="M31.1 499.83197L250.71666 499.83197L327.62088 499.83197" fill-rule="nonzero"/><path fill="#9e9e9e" d="M329.62088 499.83197C329.62088 498.7274 328.72546 497.83197 327.62088 497.83197C326.51633 497.83197 325.62088 498.7274 325.62088 499.83197C325.62088 500.93652 326.51633 501.83197 327.62088 501.83197C328.72546 501.83197 329.62088 500.93652 329.62088 499.83197" fill-rule="nonzero"/><path fill="#1a1a1a" d="M857.3688 118.333336L857.3688 104.020836L859.2594 104.020836L859.2594 116.645836L866.3063 116.645836L866.3063 118.333336L857.3688 118.333336ZM867.5719 113.145836Q867.5719 110.270836 869.16565 108.88021Q870.5094 107.72396 872.4313 107.72396Q874.5719 107.72396 875.91565 109.13021Q877.275 110.53646 877.275 113.00521Q877.275 115.00521 876.6813 116.16146Q876.0875 117.302086 874.9313 117.94271Q873.79065 118.56771 872.4313 118.56771Q870.2438 118.56771 868.9 117.177086Q867.5719 115.770836 867.5719 113.145836ZM869.3688 113.145836Q869.3688 115.145836 870.22815 116.13021Q871.10315 117.114586 872.4313 117.114586Q873.7438 117.114586 874.60315 116.13021Q875.47815 115.13021 875.47815 113.083336Q875.47815 111.16146 874.60315 110.177086Q873.72815 109.177086 872.4313 109.177086Q871.10315 109.177086 870.22815 110.177086Q869.3688 111.16146 869.3688 113.145836ZM881.1344 118.333336L877.9625 107.958336L879.775 107.958336L881.4313 113.94271L882.04065 116.177086Q882.0875 116.00521 882.5719 114.03646L884.22815 107.958336L886.04065 107.958336L887.5875 113.97396L888.10315 115.958336L888.6969 113.958336L890.47815 107.958336L892.1813 107.958336L888.9469 118.333336L887.1188 118.333336L885.4625 112.114586L885.0719 110.34896L882.9625 118.333336L881.1344 118.333336ZM899.54065 114.03646L899.54065 112.270836L904.9313 112.270836L904.9313 114.03646L899.54065 114.03646ZM913.54065 118.333336L913.54065 104.020836L923.1969 104.020836L923.1969 105.708336L915.4313 105.708336L915.4313 110.145836L922.15 110.145836L922.15 111.833336L915.4313 111.833336L915.4313 118.333336L913.54065 118.333336ZM925.22815 106.03646L925.22815 104.020836L926.9938 104.020836L926.9938 106.03646L925.22815 106.03646ZM925.22815 118.333336L925.22815 107.958336L926.9938 107.958336L926.9938 118.333336L925.22815 118.333336ZM928.04065 118.333336L931.8375 112.94271L928.3375 107.958336L930.525 107.958336L932.1188 110.395836Q932.5719 111.083336 932.8375 111.552086Q933.275 110.91146 933.6344 110.41146L935.3844 107.958336L937.47815 107.958336L933.9 112.84896L937.7594 118.333336L935.60315 118.333336L933.4625 115.114586L932.9 114.239586L930.1813 118.333336L928.04065 118.333336ZM944.9938 117.052086Q944.0094 117.88021 943.10315 118.22396Q942.1969 118.56771 941.16565 118.56771Q939.4625 118.56771 938.54065 117.739586Q937.6188 116.895836 937.6188 115.59896Q937.6188 114.833336 937.9625 114.208336Q938.3219 113.583336 938.8844 113.208336Q939.4469 112.81771 940.15 112.614586Q940.66565 112.489586 941.7125 112.34896Q943.8375 112.09896 944.8375 111.75521Q944.85315 111.395836 944.85315 111.28646Q944.85315 110.22396 944.35315 109.770836Q943.6813 109.177086 942.35315 109.177086Q941.10315 109.177086 940.5094 109.614586Q939.9313 110.052086 939.65 111.16146L937.9313 110.927086Q938.16565 109.81771 938.6969 109.145836Q939.22815 108.458336 940.2438 108.09896Q941.2594 107.72396 942.60315 107.72396Q943.9313 107.72396 944.7594 108.03646Q945.5875 108.34896 945.97815 108.833336Q946.3688 109.302086 946.525 110.020836Q946.6188 110.47396 946.6188 111.645836L946.6188 113.989586Q946.6188 116.44271 946.72815 117.09896Q946.8375 117.739586 947.1813 118.333336L945.3375 118.333336Q945.0719 117.78646 944.9938 117.052086ZM944.8375 113.13021Q943.8844 113.520836 941.9625 113.78646Q940.8844 113.94271 940.4313 114.145836Q939.9938 114.333336 939.7438 114.708336Q939.4938 115.083336 939.4938 115.552086Q939.4938 116.25521 940.025 116.72396Q940.5563 117.19271 941.5875 117.19271Q942.60315 117.19271 943.3844 116.75521Q944.1813 116.302086 944.5563 115.53646Q944.8375 114.927086 944.8375 113.770836L944.8375 113.13021ZM950.8375 118.333336L949.2125 118.333336L949.2125 104.020836L950.9625 104.020836L950.9625 109.13021Q952.0875 107.72396 953.8063 107.72396Q954.7594 107.72396 955.6188 108.114586Q956.47815 108.50521 957.025 109.208336Q957.5719 109.895836 957.8844 110.88021Q958.1969 111.864586 958.1969 112.989586Q958.1969 115.66146 956.8844 117.114586Q955.5719 118.56771 953.72815 118.56771Q951.8844 118.56771 950.8375 117.03646L950.8375 118.333336ZM950.8219 113.06771Q950.8219 114.927086 951.3219 115.770836Q952.16565 117.114586 953.5719 117.114586Q954.72815 117.114586 955.5563 116.114586Q956.4 115.114586 956.4 113.13021Q956.4 111.09896 955.5875 110.145836Q954.79065 109.177086 953.65 109.177086Q952.4938 109.177086 951.65 110.177086Q950.8219 111.177086 950.8219 113.06771ZM960.1813 118.333336L960.1813 104.020836L961.9313 104.020836L961.9313 118.333336L960.1813 118.333336ZM971.3219 114.989586L973.1344 115.22396Q972.7125 116.802086 971.54065 117.69271Q970.3844 118.56771 968.5719 118.56771Q966.3063 118.56771 964.9625 117.177086Q963.6344 115.770836 963.6344 113.239586Q963.6344 110.614586 964.97815 109.177086Q966.3219 107.72396 968.47815 107.72396Q970.5563 107.72396 971.8688 109.145836Q973.1969 110.552086 973.1969 113.13021Q973.1969 113.28646 973.1813 113.59896L965.4469 113.59896Q965.54065 115.302086 966.41565 116.208336Q967.29065 117.114586 968.5875 117.114586Q969.5563 117.114586 970.22815 116.614586Q970.91565 116.09896 971.3219 114.989586ZM965.54065 112.145836L971.3375 112.145836Q971.22815 110.84896 970.6813 110.19271Q969.8375 109.177086 968.4938 109.177086Q967.29065 109.177086 966.4625 109.989586Q965.6344 110.78646 965.54065 112.145836Z" fill-rule="nonzero"/><path fill="#9e9e9e" d="M928.7438 141.55208L930.4938 141.3177Q930.8063 142.8177 931.525 143.47395Q932.2594 144.1302 933.3063 144.1302Q934.54065 144.1302 935.3844 143.27083Q936.2438 142.41145 936.2438 141.14583Q936.2438 139.92708 935.4469 139.14583Q934.66565 138.36458 933.4469 138.36458Q932.9469 138.36458 932.2125 138.55208L932.4 137.0052Q932.5719 137.03645 932.6813 137.03645Q933.8063 137.03645 934.6969 136.45833Q935.60315 135.86458 935.60315 134.64583Q935.60315 133.67708 934.9469 133.03645Q934.29065 132.39583 933.2594 132.39583Q932.2438 132.39583 931.5563 133.05208Q930.8688 133.6927 930.6813 134.97395L928.91565 134.66145Q929.2438 132.89583 930.3844 131.92708Q931.525 130.95833 933.22815 130.95833Q934.4 130.95833 935.3844 131.45833Q936.3688 131.95833 936.8844 132.83333Q937.41565 133.70833 937.41565 134.67708Q937.41565 135.59895 936.91565 136.36458Q936.41565 137.1302 935.4469 137.58333Q936.7125 137.86458 937.41565 138.80208Q938.1188 139.72395 938.1188 141.09895Q938.1188 142.97395 936.7438 144.28645Q935.3844 145.58333 933.29065 145.58333Q931.4 145.58333 930.15 144.45833Q928.91565 143.33333 928.7438 141.55208ZM940.7125 145.33333L940.7125 143.33333L942.7125 143.33333L942.7125 145.33333L940.7125 145.33333ZM952.35315 145.33333L950.5875 145.33333L950.5875 134.1302Q949.9625 134.73958 948.9313 135.34895Q947.9 135.9427 947.0719 136.2552L947.0719 134.55208Q948.5563 133.86458 949.65 132.8802Q950.7594 131.8802 951.2125 130.95833L952.35315 130.95833L952.35315 145.33333ZM957.0563 134.45833Q957.0563 132.92708 957.8219 131.84895Q958.60315 130.77083 960.0719 130.77083Q961.41565 130.77083 962.29065 131.73958Q963.1813 132.6927 963.1813 134.5677Q963.1813 136.3802 962.29065 137.36458Q961.4 138.33333 960.0875 138.33333Q958.79065 138.33333 957.91565 137.3802Q957.0563 136.41145 957.0563 134.45833ZM960.1188 131.98958Q959.4625 131.98958 959.025 132.55208Q958.60315 133.11458 958.60315 134.6302Q958.60315 136.0052 959.04065 136.5677Q959.47815 137.1302 960.1188 137.1302Q960.79065 137.1302 961.2125 136.5677Q961.65 135.98958 961.65 134.48958Q961.65 133.09895 961.2125 132.55208Q960.775 131.98958 960.1188 131.98958ZM960.1344 145.86458L967.9625 130.77083L969.3844 130.77083L961.5875 145.86458L960.1344 145.86458ZM966.3219 141.97395Q966.3219 140.42708 967.0875 139.36458Q967.8688 138.28645 969.3375 138.28645Q970.6813 138.28645 971.5563 139.2552Q972.4469 140.20833 972.4469 142.08333Q972.4469 143.89583 971.5563 144.8802Q970.66565 145.86458 969.35315 145.86458Q968.0563 145.86458 967.1813 144.89583Q966.3219 143.91145 966.3219 141.97395ZM969.3844 139.5052Q968.72815 139.5052 968.29065 140.0677Q967.85315 140.6302 967.85315 142.14583Q967.85315 143.52083 968.29065 144.08333Q968.72815 144.64583 969.3844 144.64583Q970.0563 144.64583 970.47815 144.08333Q970.91565 143.52083 970.91565 142.0052Q970.91565 140.6302 970.47815 140.0677Q970.04065 139.5052 969.3844 139.5052Z" fill-rule="nonzero"/><path stroke="#757575" stroke-width="1.0" stroke-linecap="butt" d="M973.9 124.833336L754.2833 124.833336L524.847 112.69434" fill-rule="nonzero"/><path fill="#9e9e9e" d="M526.847 112.69434C526.847 111.589775 525.9516 110.69434 524.847 110.69434C523.74243 110.69434 522.847 111.589775 522.847 112.69434C522.847 113.79891 523.74243 114.69434 524.847 114.69434C525.9516 114.69434 526.847 113.79891 526.847 112.69434" fill-rule="nonzero"/><path fill="#1a1a1a" d="M864.3688 393.1884L864.3688 378.8759L866.2594 378.8759L866.2594 391.5009L873.3063 391.5009L873.3063 393.1884L864.3688 393.1884ZM874.5719 388.0009Q874.5719 385.1259 876.16565 383.73526Q877.5094 382.579 879.4313 382.579Q881.5719 382.579 882.91565 383.98526Q884.275 385.3915 884.275 387.86026Q884.275 389.86026 883.6813 391.0165Q883.0875 392.15714 881.9313 392.79776Q880.79065 393.42276 879.4313 393.42276Q877.2438 393.42276 875.9 392.03214Q874.5719 390.6259 874.5719 388.0009ZM876.3688 388.0009Q876.3688 390.0009 877.22815 390.98526Q878.10315 391.96964 879.4313 391.96964Q880.7438 391.96964 881.60315 390.98526Q882.47815 389.98526 882.47815 387.9384Q882.47815 386.0165 881.60315 385.03214Q880.72815 384.03214 879.4313 384.03214Q878.10315 384.03214 877.22815 385.03214Q876.3688 386.0165 876.3688 388.0009ZM888.1344 393.1884L884.9625 382.8134L886.775 382.8134L888.4313 388.79776L889.04065 391.03214Q889.0875 390.86026 889.5719 388.8915L891.22815 382.8134L893.04065 382.8134L894.5875 388.829L895.10315 390.8134L895.6969 388.8134L897.47815 382.8134L899.1813 382.8134L895.9469 393.1884L894.1188 393.1884L892.4625 386.96964L892.0719 385.204L889.9625 393.1884L888.1344 393.1884ZM906.54065 388.8915L906.54065 387.1259L911.9313 387.1259L911.9313 388.8915L906.54065 388.8915ZM920.4313 393.1884L920.4313 378.8759L922.3688 378.8759L929.8844 390.11026L929.8844 378.8759L931.6969 378.8759L931.6969 393.1884L929.7594 393.1884L922.2438 381.9384L922.2438 393.1884L920.4313 393.1884ZM932.5719 388.0009Q932.5719 385.1259 934.16565 383.73526Q935.5094 382.579 937.4313 382.579Q939.5719 382.579 940.91565 383.98526Q942.275 385.3915 942.275 387.86026Q942.275 389.86026 941.6813 391.0165Q941.0875 392.15714 939.9313 392.79776Q938.79065 393.42276 937.4313 393.42276Q935.2438 393.42276 933.9 392.03214Q932.5719 390.6259 932.5719 388.0009ZM934.3688 388.0009Q934.3688 390.0009 935.22815 390.98526Q936.10315 391.96964 937.4313 391.96964Q938.7438 391.96964 939.60315 390.98526Q940.47815 389.98526 940.47815 387.9384Q940.47815 386.0165 939.60315 385.03214Q938.72815 384.03214 937.4313 384.03214Q936.10315 384.03214 935.22815 385.03214Q934.3688 386.0165 934.3688 388.0009ZM950.54065 393.1884L950.54065 378.8759L960.1969 378.8759L960.1969 380.5634L952.4313 380.5634L952.4313 385.0009L959.15 385.0009L959.15 386.6884L952.4313 386.6884L952.4313 393.1884L950.54065 393.1884ZM962.22815 380.8915L962.22815 378.8759L963.9938 378.8759L963.9938 380.8915L962.22815 380.8915ZM962.22815 393.1884L962.22815 382.8134L963.9938 382.8134L963.9938 393.1884L962.22815 393.1884ZM965.04065 393.1884L968.8375 387.79776L965.3375 382.8134L967.525 382.8134L969.1188 385.2509Q969.5719 385.9384 969.8375 386.40714Q970.275 385.7665 970.6344 385.2665L972.3844 382.8134L974.47815 382.8134L970.9 387.704L974.7594 393.1884L972.60315 393.1884L970.4625 389.96964L969.9 389.09464L967.1813 393.1884L965.04065 393.1884Z" fill-rule="nonzero"/><path fill="#9e9e9e" d="M917.72815 416.4384L919.5719 416.28214Q919.775 417.6259 920.525 418.3134Q921.275 418.98526 922.3375 418.98526Q923.60315 418.98526 924.47815 418.03214Q925.35315 417.079 925.35315 415.48526Q925.35315 413.98526 924.5094 413.1259Q923.66565 412.2509 922.3063 412.2509Q921.4469 412.2509 920.7594 412.6415Q920.0875 413.0165 919.6969 413.6415L918.04065 413.42276L919.4313 406.0634L926.5563 406.0634L926.5563 407.7509L920.8375 407.7509L920.0719 411.59464Q921.35315 410.6884 922.775 410.6884Q924.65 410.6884 925.9313 412.0009Q927.22815 413.29776 927.22815 415.329Q927.22815 417.28214 926.0875 418.6884Q924.7125 420.4384 922.3375 420.4384Q920.3844 420.4384 919.1344 419.34464Q917.9 418.2509 917.72815 416.4384ZM935.35315 420.1884L933.5875 420.1884L933.5875 408.98526Q932.9625 409.59464 931.9313 410.204Q930.9 410.79776 930.0719 411.11026L930.0719 409.40714Q931.5563 408.71964 932.65 407.73526Q933.7594 406.73526 934.2125 405.8134L935.35315 405.8134L935.35315 420.1884ZM940.7125 420.1884L940.7125 418.1884L942.7125 418.1884L942.7125 420.1884L940.7125 420.1884ZM951.3688 420.1884L951.3688 416.7665L945.15 416.7665L945.15 415.1415L951.6813 405.8759L953.1188 405.8759L953.1188 415.1415L955.0563 415.1415L955.0563 416.7665L953.1188 416.7665L953.1188 420.1884L951.3688 420.1884ZM951.3688 415.1415L951.3688 408.6884L946.8844 415.1415L951.3688 415.1415ZM957.0563 409.3134Q957.0563 407.78214 957.8219 406.704Q958.60315 405.6259 960.0719 405.6259Q961.41565 405.6259 962.29065 406.59464Q963.1813 407.54776 963.1813 409.42276Q963.1813 411.23526 962.29065 412.21964Q961.4 413.1884 960.0875 413.1884Q958.79065 413.1884 957.91565 412.23526Q957.0563 411.2665 957.0563 409.3134ZM960.1188 406.84464Q959.4625 406.84464 959.025 407.40714Q958.60315 407.96964 958.60315 409.48526Q958.60315 410.86026 959.04065 411.42276Q959.47815 411.98526 960.1188 411.98526Q960.79065 411.98526 961.2125 411.42276Q961.65 410.84464 961.65 409.34464Q961.65 407.954 961.2125 407.40714Q960.775 406.84464 960.1188 406.84464ZM960.1344 420.71964L967.9625 405.6259L969.3844 405.6259L961.5875 420.71964L960.1344 420.71964ZM966.3219 416.829Q966.3219 415.28214 967.0875 414.21964Q967.8688 413.1415 969.3375 413.1415Q970.6813 413.1415 971.5563 414.11026Q972.4469 415.0634 972.4469 416.9384Q972.4469 418.7509 971.5563 419.73526Q970.66565 420.71964 969.35315 420.71964Q968.0563 420.71964 967.1813 419.7509Q966.3219 418.7665 966.3219 416.829ZM969.3844 414.36026Q968.72815 414.36026 968.29065 414.92276Q967.85315 415.48526 967.85315 417.0009Q967.85315 418.3759 968.29065 418.9384Q968.72815 419.5009 969.3844 419.5009Q970.0563 419.5009 970.47815 418.9384Q970.91565 418.3759 970.91565 416.86026Q970.91565 415.48526 970.47815 414.92276Q970.04065 414.36026 969.3844 414.36026Z" fill-rule="nonzero"/><path stroke="#757575" stroke-width="1.0" stroke-linecap="butt" d="M973.9 399.6884L754.2833 399.6884L729.5274 399.6884" fill-rule="nonzero"/><path fill="#9e9e9e" d="M731.5274 399.6884C731.5274 398.58383 730.632 397.6884 729.5274 397.6884C728.42285 397.6884 727.5274 398.58383 727.5274 399.6884C727.5274 400.79297 728.42285 401.6884 729.5274 401.6884C730.632 401.6884 731.5274 400.79297 731.5274 399.6884" fill-rule="nonzero"/><path fill="#999999" d="M32.13125 75.6L32.13125 65.58437L33.459373 65.58437L33.459373 74.4125L38.38125 74.4125L38.38125 75.6L32.13125 75.6ZM44.75625 74.70937Q44.084373 75.2875 43.44375 75.5375Q42.81875 75.77187 42.084373 75.77187Q40.896873 75.77187 40.240623 75.19375Q39.6 74.6 39.6 73.67812Q39.6 73.14687 39.834373 72.70937Q40.084373 72.27187 40.475 72.00625Q40.88125 71.74062 41.365623 71.6Q41.725 71.50625 42.459373 71.4125Q43.959373 71.24062 44.6625 70.99062Q44.6625 70.74062 44.6625 70.67812Q44.6625 69.9125 44.31875 69.61562Q43.85 69.19375 42.9125 69.19375Q42.053123 69.19375 41.63125 69.50625Q41.225 69.80312 41.021873 70.56875L39.81875 70.4125Q39.975 69.63125 40.35 69.1625Q40.740623 68.69375 41.44375 68.44375Q42.1625 68.17812 43.1 68.17812Q44.021873 68.17812 44.6 68.39687Q45.178123 68.61562 45.44375 68.94375Q45.725 69.27187 45.834373 69.7875Q45.896873 70.1 45.896873 70.9125L45.896873 72.55312Q45.896873 74.27187 45.975 74.725Q46.053123 75.17812 46.2875 75.6L45.00625 75.6Q44.81875 75.20937 44.75625 74.70937ZM44.6625 71.95937Q43.990623 72.225 42.646873 72.42812Q41.896873 72.5375 41.56875 72.67812Q41.25625 72.80312 41.084373 73.06875Q40.9125 73.33437 40.9125 73.64687Q40.9125 74.14687 41.2875 74.475Q41.6625 74.80312 42.38125 74.80312Q43.1 74.80312 43.646873 74.49062Q44.19375 74.17812 44.459373 73.63125Q44.6625 73.225 44.6625 72.4125L44.6625 71.95937ZM47.5375 73.42812L48.740623 73.24062Q48.85 73.975 49.31875 74.36562Q49.7875 74.75625 50.63125 74.75625Q51.475 74.75625 51.88125 74.4125Q52.303123 74.06875 52.303123 73.6Q52.303123 73.17812 51.928123 72.94375Q51.678123 72.77187 50.678123 72.52187Q49.31875 72.17812 48.7875 71.92812Q48.271873 71.67812 48.00625 71.24062Q47.740623 70.80312 47.740623 70.27187Q47.740623 69.7875 47.959373 69.38125Q48.178123 68.95937 48.56875 68.67812Q48.85 68.475 49.334373 68.33437Q49.834373 68.17812 50.4125 68.17812Q51.25625 68.17812 51.896873 68.42812Q52.553123 68.6625 52.865623 69.08437Q53.178123 69.50625 53.2875 70.20937L52.084373 70.38125Q52.00625 69.81875 51.6 69.50625Q51.209373 69.19375 50.490623 69.19375Q49.646873 69.19375 49.2875 69.475Q48.928123 69.74062 48.928123 70.13125Q48.928123 70.36562 49.06875 70.55312Q49.225 70.75625 49.553123 70.88125Q49.725 70.94375 50.63125 71.19375Q51.94375 71.55312 52.459373 71.77187Q52.975 71.99062 53.25625 72.4125Q53.553123 72.83437 53.553123 73.45937Q53.553123 74.08437 53.19375 74.63125Q52.85 75.1625 52.1625 75.475Q51.490623 75.77187 50.63125 75.77187Q49.225 75.77187 48.475 75.17812Q47.740623 74.58437 47.5375 73.42812ZM57.709373 74.50625L57.88125 75.58437Q57.365623 75.69375 56.959373 75.69375Q56.2875 75.69375 55.9125 75.49062Q55.553123 75.27187 55.396873 74.92812Q55.25625 74.58437 55.25625 73.475L55.25625 69.30312L54.35 69.30312L54.35 68.33437L55.25625 68.33437L55.25625 66.5375L56.475 65.80312L56.475 68.33437L57.709373 68.33437L57.709373 69.30312L56.475 69.30312L56.475 73.5375Q56.475 74.06875 56.5375 74.225Q56.6 74.36562 56.740623 74.45937Q56.896873 74.55312 57.1625 74.55312Q57.38125 74.55312 57.709373 74.50625ZM67.31875 75.6L66.08437 75.6L66.08437 67.75625Q65.64687 68.17812 64.9125 68.61562Q64.19375 69.0375 63.63125 69.24062L63.63125 68.05312Q64.6625 67.56875 65.42812 66.88125Q66.20937 66.19375 66.52187 65.5375L67.31875 65.5375L67.31875 75.6ZM77.14687 74.4125L77.14687 75.6L70.52187 75.6Q70.50625 75.1625 70.6625 74.74062Q70.92812 74.06875 71.475 73.4125Q72.0375 72.75625 73.08437 71.89687Q74.725 70.55312 75.2875 69.77187Q75.86562 68.99062 75.86562 68.2875Q75.86562 67.55312 75.33437 67.05312Q74.81875 66.55312 73.99062 66.55312Q73.1 66.55312 72.55312 67.08437Q72.02187 67.61562 72.02187 68.56875L70.75625 68.42812Q70.88125 67.02187 71.725 66.2875Q72.58437 65.5375 74.00625 65.5375Q75.45937 65.5375 76.2875 66.33437Q77.13125 67.13125 77.13125 68.31875Q77.13125 68.92812 76.88125 69.50625Q76.64687 70.08437 76.06875 70.725Q75.50625 71.36562 74.17812 72.49062Q73.06875 73.4125 72.75625 73.75625Q72.44375 74.08437 72.24062 74.4125L77.14687 74.4125ZM83.14687 75.6L83.14687 65.58437L85.13125 65.58437L87.50625 72.67812Q87.83437 73.6625 87.99062 74.1625Q88.1625 73.61562 88.52187 72.55312L90.9125 65.58437L92.70937 65.58437L92.70937 75.6L91.42812 75.6L91.42812 67.20937L88.50625 75.6L87.31875 75.6L84.4125 67.06875L84.4125 75.6L83.14687 75.6ZM93.56875 71.975Q93.56875 69.95937 94.69375 68.975Q95.61562 68.17812 96.975 68.17812Q98.45937 68.17812 99.4125 69.1625Q100.36562 70.13125 100.36562 71.86562Q100.36562 73.27187 99.94375 74.08437Q99.52187 74.88125 98.70937 75.33437Q97.9125 75.77187 96.975 75.77187Q95.44375 75.77187 94.50625 74.7875Q93.56875 73.80312 93.56875 71.975ZM94.83437 71.975Q94.83437 73.36562 95.44375 74.06875Q96.05312 74.75625 96.975 74.75625Q97.88125 74.75625 98.49062 74.05312Q99.1 73.35 99.1 71.92812Q99.1 70.58437 98.49062 69.89687Q97.88125 69.19375 96.975 69.19375Q96.05312 69.19375 95.44375 69.88125Q94.83437 70.56875 94.83437 71.975ZM102.02187 75.6L102.02187 68.33437L103.13125 68.33437L103.13125 69.36562Q103.92812 68.17812 105.44375 68.17812Q106.1 68.17812 106.64687 68.4125Q107.19375 68.64687 107.45937 69.0375Q107.74062 69.4125 107.85 69.94375Q107.92812 70.2875 107.92812 71.13125L107.92812 75.6L106.69375 75.6L106.69375 71.17812Q106.69375 70.42812 106.55312 70.06875Q106.4125 69.69375 106.0375 69.475Q105.67812 69.24062 105.17812 69.24062Q104.39687 69.24062 103.81875 69.74062Q103.25625 70.24062 103.25625 71.63125L103.25625 75.6L102.02187 75.6ZM112.70937 74.50625L112.88125 75.58437Q112.36562 75.69375 111.95937 75.69375Q111.2875 75.69375 110.9125 75.49062Q110.55312 75.27187 110.39687 74.92812Q110.25625 74.58437 110.25625 73.475L110.25625 69.30312L109.35 69.30312L109.35 68.33437L110.25625 68.33437L110.25625 66.5375L111.475 65.80312L111.475 68.33437L112.70937 68.33437L112.70937 69.30312L111.475 69.30312L111.475 73.5375Q111.475 74.06875 111.5375 74.225Q111.6 74.36562 111.74062 74.45937Q111.89687 74.55312 112.1625 74.55312Q112.38125 74.55312 112.70937 74.50625ZM114.02187 75.6L114.02187 65.58437L115.25625 65.58437L115.25625 69.17812Q116.11562 68.17812 117.42812 68.17812Q118.24062 68.17812 118.83437 68.50625Q119.42812 68.81875 119.67812 69.38125Q119.94375 69.92812 119.94375 71.00625L119.94375 75.6L118.70937 75.6L118.70937 71.00625Q118.70937 70.06875 118.30312 69.6625Q117.9125 69.24062 117.17812 69.24062Q116.63125 69.24062 116.14687 69.52187Q115.6625 69.80312 115.45937 70.2875Q115.25625 70.77187 115.25625 71.63125L115.25625 75.6L114.02187 75.6ZM121.5375 73.42812L122.74062 73.24062Q122.85 73.975 123.31875 74.36562Q123.7875 74.75625 124.63125 74.75625Q125.475 74.75625 125.88125 74.4125Q126.30312 74.06875 126.30312 73.6Q126.30312 73.17812 125.92812 72.94375Q125.67812 72.77187 124.67812 72.52187Q123.31875 72.17812 122.7875 71.92812Q122.27187 71.67812 122.00625 71.24062Q121.74062 70.80312 121.74062 70.27187Q121.74062 69.7875 121.95937 69.38125Q122.17812 68.95937 122.56875 68.67812Q122.85 68.475 123.33437 68.33437Q123.83437 68.17812 124.4125 68.17812Q125.25625 68.17812 125.89687 68.42812Q126.55312 68.6625 126.86562 69.08437Q127.17812 69.50625 127.2875 70.20937L126.08437 70.38125Q126.00625 69.81875 125.6 69.50625Q125.20937 69.19375 124.49062 69.19375Q123.64687 69.19375 123.2875 69.475Q122.92812 69.74062 122.92812 70.13125Q122.92812 70.36562 123.06875 70.55312Q123.225 70.75625 123.55312 70.88125Q123.725 70.94375 124.63125 71.19375Q125.94375 71.55312 126.45937 71.77187Q126.975 71.99062 127.25625 72.4125Q127.55312 72.83437 127.55312 73.45937Q127.55312 74.08437 127.19375 74.63125Q126.85 75.1625 126.1625 75.475Q125.49062 75.77187 124.63125 75.77187Q123.225 75.77187 122.475 75.17812Q121.74062 74.58437 121.5375 73.42812Z" fill-rule="nonzero"/><path fill="#757575" d="M32.646873 50.1L32.646873 35.7875L37.56875 35.7875Q39.240623 35.7875 40.13125 35.990623Q41.35 36.271873 42.225 37.00625Q43.35 37.975 43.9125 39.459373Q44.475 40.94375 44.475 42.865623Q44.475 44.490623 44.1 45.75625Q43.725 47.00625 43.115623 47.834373Q42.521873 48.6625 41.81875 49.146873Q41.115623 49.615623 40.115623 49.865623Q39.115623 50.1 37.803123 50.1L32.646873 50.1ZM34.5375 48.4125L37.6 48.4125Q39.00625 48.4125 39.803123 48.146873Q40.615623 47.88125 41.1 47.396873Q41.771873 46.725 42.146873 45.6Q42.521873 44.459373 42.521873 42.834373Q42.521873 40.584373 41.7875 39.38125Q41.053123 38.178123 39.990623 37.771873Q39.240623 37.475 37.553123 37.475L34.5375 37.475L34.5375 48.4125ZM46.428123 37.803123L46.428123 35.7875L48.19375 35.7875L48.19375 37.803123L46.428123 37.803123ZM46.428123 50.1L46.428123 39.725L48.19375 39.725L48.19375 50.1L46.428123 50.1ZM49.709373 47.00625L51.459373 46.725Q51.6 47.771873 52.271873 48.334373Q52.94375 48.88125 54.146873 48.88125Q55.35 48.88125 55.928123 48.396873Q56.521873 47.896873 56.521873 47.240623Q56.521873 46.646873 56.00625 46.303123Q55.646873 46.06875 54.209373 45.709373Q52.271873 45.209373 51.521873 44.865623Q50.7875 44.50625 50.396873 43.88125Q50.00625 43.240623 50.00625 42.475Q50.00625 41.7875 50.31875 41.19375Q50.646873 40.6 51.19375 40.209373Q51.6 39.9125 52.303123 39.709373Q53.021873 39.490623 53.834373 39.490623Q55.053123 39.490623 55.975 39.85Q56.896873 40.19375 57.334373 40.803123Q57.771873 41.396873 57.94375 42.396873L56.225 42.63125Q56.1 41.834373 55.5375 41.396873Q54.975 40.94375 53.959373 40.94375Q52.740623 40.94375 52.225 41.35Q51.709373 41.740623 51.709373 42.271873Q51.709373 42.615623 51.928123 42.896873Q52.13125 43.178123 52.6 43.365623Q52.865623 43.459373 54.146873 43.803123Q56.021873 44.303123 56.75625 44.63125Q57.490623 44.94375 57.9125 45.553123Q58.334373 46.146873 58.334373 47.053123Q58.334373 47.928123 57.81875 48.709373Q57.303123 49.490623 56.334373 49.9125Q55.365623 50.334373 54.146873 50.334373Q52.13125 50.334373 51.06875 49.490623Q50.00625 48.646873 49.709373 47.00625ZM64.25625 48.521873L64.50625 50.084373Q63.771873 50.240623 63.178123 50.240623Q62.225 50.240623 61.69375 49.94375Q61.178123 49.63125 60.959373 49.146873Q60.740623 48.646873 60.740623 47.06875L60.740623 41.1L59.459373 41.1L59.459373 39.725L60.740623 39.725L60.740623 37.1625L62.490623 36.1L62.490623 39.725L64.25625 39.725L64.25625 41.1L62.490623 41.1L62.490623 47.1625Q62.490623 47.9125 62.584373 48.13125Q62.678123 48.334373 62.88125 48.475Q63.1 48.6 63.490623 48.6Q63.771873 48.6 64.25625 48.521873ZM66.39687 50.1L66.39687 39.725L67.975 39.725L67.975 41.303123Q68.58437 40.19375 69.1 39.85Q69.61562 39.490623 70.225 39.490623Q71.11562 39.490623 72.0375 40.053123L71.42812 41.69375Q70.7875 41.303123 70.14687 41.303123Q69.56875 41.303123 69.1 41.6625Q68.64687 42.00625 68.44375 42.615623Q68.1625 43.553123 68.1625 44.6625L68.1625 50.1L66.39687 50.1ZM73.42812 37.803123L73.42812 35.7875L75.19375 35.7875L75.19375 37.803123L73.42812 37.803123ZM73.42812 50.1L73.42812 39.725L75.19375 39.725L75.19375 50.1L73.42812 50.1ZM79.0375 50.1L77.4125 50.1L77.4125 35.7875L79.1625 35.7875L79.1625 40.896873Q80.2875 39.490623 82.00625 39.490623Q82.95937 39.490623 83.81875 39.88125Q84.67812 40.271873 85.225 40.975Q85.77187 41.6625 86.08437 42.646873Q86.39687 43.63125 86.39687 44.75625Q86.39687 47.428123 85.08437 48.88125Q83.77187 50.334373 81.92812 50.334373Q80.08437 50.334373 79.0375 48.803123L79.0375 50.1ZM79.02187 44.834373Q79.02187 46.69375 79.52187 47.5375Q80.36562 48.88125 81.77187 48.88125Q82.92812 48.88125 83.75625 47.88125Q84.6 46.88125 84.6 44.896873Q84.6 42.865623 83.7875 41.9125Q82.99062 40.94375 81.85 40.94375Q80.69375 40.94375 79.85 41.94375Q79.02187 42.94375 79.02187 44.834373ZM95.20937 50.1L95.20937 48.56875Q94.00625 50.334373 91.92812 50.334373Q91.00625 50.334373 90.20937 49.990623Q89.4125 49.63125 89.02187 49.1Q88.64687 48.56875 88.49062 47.7875Q88.38125 47.271873 88.38125 46.146873L88.38125 39.725L90.13125 39.725L90.13125 45.475Q90.13125 46.85 90.24062 47.334373Q90.4125 48.021873 90.94375 48.428123Q91.49062 48.81875 92.27187 48.81875Q93.06875 48.81875 93.75625 48.4125Q94.45937 48.00625 94.74062 47.31875Q95.0375 46.615623 95.0375 45.2875L95.0375 39.725L96.7875 39.725L96.7875 50.1L95.20937 50.1ZM102.25625 48.521873L102.50625 50.084373Q101.77187 50.240623 101.17812 50.240623Q100.225 50.240623 99.69375 49.94375Q99.17812 49.63125 98.95937 49.146873Q98.74062 48.646873 98.74062 47.06875L98.74062 41.1L97.45937 41.1L97.45937 39.725L98.74062 39.725L98.74062 37.1625L100.49062 36.1L100.49062 39.725L102.25625 39.725L102.25625 41.1L100.49062 41.1L100.49062 47.1625Q100.49062 47.9125 100.58437 48.13125Q100.67812 48.334373 100.88125 48.475Q101.1 48.6 101.49062 48.6Q101.77187 48.6 102.25625 48.521873ZM104.42812 37.803123L104.42812 35.7875L106.19375 35.7875L106.19375 37.803123L104.42812 37.803123ZM104.42812 50.1L104.42812 39.725L106.19375 39.725L106.19375 50.1L104.42812 50.1ZM107.77187 44.9125Q107.77187 42.0375 109.36562 40.646873Q110.70937 39.490623 112.63125 39.490623Q114.77187 39.490623 116.11562 40.896873Q117.475 42.303123 117.475 44.771873Q117.475 46.771873 116.88125 47.928123Q116.2875 49.06875 115.13125 49.709373Q113.99062 50.334373 112.63125 50.334373Q110.44375 50.334373 109.1 48.94375Q107.77187 47.5375 107.77187 44.9125ZM109.56875 44.9125Q109.56875 46.9125 110.42812 47.896873Q111.30312 48.88125 112.63125 48.88125Q113.94375 48.88125 114.80312 47.896873Q115.67812 46.896873 115.67812 44.85Q115.67812 42.928123 114.80312 41.94375Q113.92812 40.94375 112.63125 40.94375Q111.30312 40.94375 110.42812 41.94375Q109.56875 42.928123 109.56875 44.9125ZM119.4125 50.1L119.4125 39.725L121.00625 39.725L121.00625 41.209373Q122.14687 39.490623 124.30312 39.490623Q125.24062 39.490623 126.02187 39.834373Q126.81875 40.1625 127.20937 40.709373Q127.6 41.25625 127.75625 42.00625Q127.85 42.50625 127.85 43.725L127.85 50.1L126.08437 50.1L126.08437 43.7875Q126.08437 42.709373 125.88125 42.178123Q125.67812 41.646873 125.14687 41.334373Q124.63125 41.021873 123.92812 41.021873Q122.80312 41.021873 121.99062 41.740623Q121.17812 42.44375 121.17812 44.428123L121.17812 50.1L119.4125 50.1ZM134.77188 44.9125Q134.77188 42.0375 136.36563 40.646873Q137.70938 39.490623 139.63126 39.490623Q141.77188 39.490623 143.11563 40.896873Q144.475 42.303123 144.475 44.771873Q144.475 46.771873 143.88126 47.928123Q143.2875 49.06875 142.13126 49.709373Q140.99063 50.334373 139.63126 50.334373Q137.44376 50.334373 136.1 48.94375Q134.77188 47.5375 134.77188 44.9125ZM136.56876 44.9125Q136.56876 46.9125 137.42813 47.896873Q138.30313 48.88125 139.63126 48.88125Q140.94376 48.88125 141.80313 47.896873Q142.67813 46.896873 142.67813 44.85Q142.67813 42.928123 141.80313 41.94375Q140.92813 40.94375 139.63126 40.94375Q138.30313 40.94375 137.42813 41.94375Q136.56876 42.928123 136.56876 44.9125ZM146.83438 50.1L146.83438 41.1L145.2875 41.1L145.2875 39.725L146.83438 39.725L146.83438 38.63125Q146.83438 37.584373 147.02188 37.06875Q147.27188 36.38125 147.9125 35.959373Q148.55313 35.5375 149.70938 35.5375Q150.45938 35.5375 151.35 35.709373L151.08438 37.240623Q150.5375 37.146873 150.05313 37.146873Q149.25626 37.146873 148.9125 37.490623Q148.58438 37.834373 148.58438 38.771873L148.58438 39.725L150.61563 39.725L150.61563 41.1L148.58438 41.1L148.58438 50.1L146.83438 50.1ZM158.00626 45.50625L159.7875 45.35Q159.9125 46.4125 160.36563 47.1Q160.83438 47.7875 161.80313 48.225Q162.7875 48.646873 164.02188 48.646873Q165.1 48.646873 165.92813 48.334373Q166.75626 48.00625 167.1625 47.44375Q167.56876 46.88125 167.56876 46.209373Q167.56876 45.5375 167.17813 45.0375Q166.7875 44.5375 165.89688 44.19375Q165.31876 43.959373 163.33438 43.490623Q161.36563 43.021873 160.58438 42.6Q159.55313 42.06875 159.05313 41.271873Q158.55313 40.475 158.55313 39.490623Q158.55313 38.396873 159.1625 37.459373Q159.77188 36.521873 160.95938 36.0375Q162.14688 35.5375 163.58438 35.5375Q165.17813 35.5375 166.39688 36.053123Q167.61563 36.56875 168.25626 37.56875Q168.9125 38.553123 168.95938 39.81875L167.14688 39.959373Q167.00626 38.6 166.1625 37.9125Q165.31876 37.209373 163.6625 37.209373Q161.94376 37.209373 161.14688 37.85Q160.36563 38.475 160.36563 39.35Q160.36563 40.13125 160.92813 40.63125Q161.475 41.13125 163.7875 41.646873Q166.1 42.1625 166.95938 42.553123Q168.20938 43.13125 168.80313 44.021873Q169.39688 44.896873 169.39688 46.053123Q169.39688 47.19375 168.74063 48.209373Q168.08438 49.225 166.85 49.7875Q165.63126 50.35 164.1 50.35Q162.1625 50.35 160.85 49.7875Q159.5375 49.209373 158.7875 48.06875Q158.0375 46.928123 158.00626 45.50625ZM178.52188 46.75625L180.33438 46.990623Q179.9125 48.56875 178.74063 49.459373Q177.58438 50.334373 175.77188 50.334373Q173.50626 50.334373 172.1625 48.94375Q170.83438 47.5375 170.83438 45.00625Q170.83438 42.38125 172.17813 40.94375Q173.52188 39.490623 175.67813 39.490623Q177.75626 39.490623 179.06876 40.9125Q180.39688 42.31875 180.39688 44.896873Q180.39688 45.053123 180.38126 45.365623L172.64688 45.365623Q172.74063 47.06875 173.61563 47.975Q174.49063 48.88125 175.7875 48.88125Q176.75626 48.88125 177.42813 48.38125Q178.11563 47.865623 178.52188 46.75625ZM172.74063 43.9125L178.5375 43.9125Q178.42813 42.615623 177.88126 41.959373Q177.0375 40.94375 175.69376 40.94375Q174.49063 40.94375 173.6625 41.75625Q172.83438 42.553123 172.74063 43.9125ZM185.30313 50.1L181.35 39.725L183.20938 39.725L185.44376 45.94375Q185.80313 46.94375 186.1 48.021873Q186.33438 47.209373 186.75626 46.053123L189.05313 39.725L190.86563 39.725L186.94376 50.1L185.30313 50.1ZM198.52188 46.75625L200.33438 46.990623Q199.9125 48.56875 198.74063 49.459373Q197.58438 50.334373 195.77188 50.334373Q193.50626 50.334373 192.1625 48.94375Q190.83438 47.5375 190.83438 45.00625Q190.83438 42.38125 192.17813 40.94375Q193.52188 39.490623 195.67813 39.490623Q197.75626 39.490623 199.06876 40.9125Q200.39688 42.31875 200.39688 44.896873Q200.39688 45.053123 200.38126 45.365623L192.64688 45.365623Q192.74063 47.06875 193.61563 47.975Q194.49063 48.88125 195.7875 48.88125Q196.75626 48.88125 197.42813 48.38125Q198.11563 47.865623 198.52188 46.75625ZM192.74063 43.9125L198.5375 43.9125Q198.42813 42.615623 197.88126 41.959373Q197.0375 40.94375 195.69376 40.94375Q194.49063 40.94375 193.6625 41.75625Q192.83438 42.553123 192.74063 43.9125ZM202.39688 50.1L202.39688 39.725L203.975 39.725L203.975 41.303123Q204.58438 40.19375 205.1 39.85Q205.61563 39.490623 206.225 39.490623Q207.11563 39.490623 208.0375 40.053123L207.42813 41.69375Q206.7875 41.303123 206.14688 41.303123Q205.56876 41.303123 205.1 41.6625Q204.64688 42.00625 204.44376 42.615623Q204.1625 43.553123 204.1625 44.6625L204.1625 50.1L202.39688 50.1ZM209.42813 37.803123L209.42813 35.7875L211.19376 35.7875L211.19376 37.803123L209.42813 37.803123ZM209.42813 50.1L209.42813 39.725L211.19376 39.725L211.19376 50.1L209.42813 50.1ZM217.25626 48.521873L217.50626 50.084373Q216.77188 50.240623 216.17813 50.240623Q215.225 50.240623 214.69376 49.94375Q214.17813 49.63125 213.95938 49.146873Q213.74063 48.646873 213.74063 47.06875L213.74063 41.1L212.45938 41.1L212.45938 39.725L213.74063 39.725L213.74063 37.1625L215.49063 36.1L215.49063 39.725L217.25626 39.725L217.25626 41.1L215.49063 41.1L215.49063 47.1625Q215.49063 47.9125 215.58438 48.13125Q215.67813 48.334373 215.88126 48.475Q216.1 48.6 216.49063 48.6Q216.77188 48.6 217.25626 48.521873ZM219.42813 37.803123L219.42813 35.7875L221.19376 35.7875L221.19376 37.803123L219.42813 37.803123ZM219.42813 50.1L219.42813 39.725L221.19376 39.725L221.19376 50.1L219.42813 50.1ZM230.52188 46.75625L232.33438 46.990623Q231.9125 48.56875 230.74063 49.459373Q229.58438 50.334373 227.77188 50.334373Q225.50626 50.334373 224.1625 48.94375Q222.83438 47.5375 222.83438 45.00625Q222.83438 42.38125 224.17813 40.94375Q225.52188 39.490623 227.67813 39.490623Q229.75626 39.490623 231.06876 40.9125Q232.39688 42.31875 232.39688 44.896873Q232.39688 45.053123 232.38126 45.365623L224.64688 45.365623Q224.74063 47.06875 225.61563 47.975Q226.49063 48.88125 227.7875 48.88125Q228.75626 48.88125 229.42813 48.38125Q230.11563 47.865623 230.52188 46.75625ZM224.74063 43.9125L230.5375 43.9125Q230.42813 42.615623 229.88126 41.959373Q229.0375 40.94375 227.69376 40.94375Q226.49063 40.94375 225.6625 41.75625Q224.83438 42.553123 224.74063 43.9125ZM233.70938 47.00625L235.45938 46.725Q235.6 47.771873 236.27188 48.334373Q236.94376 48.88125 238.14688 48.88125Q239.35 48.88125 239.92813 48.396873Q240.52188 47.896873 240.52188 47.240623Q240.52188 46.646873 240.00626 46.303123Q239.64688 46.06875 238.20938 45.709373Q236.27188 45.209373 235.52188 44.865623Q234.7875 44.50625 234.39688 43.88125Q234.00626 43.240623 234.00626 42.475Q234.00626 41.7875 234.31876 41.19375Q234.64688 40.6 235.19376 40.209373Q235.6 39.9125 236.30313 39.709373Q237.02188 39.490623 237.83438 39.490623Q239.05313 39.490623 239.975 39.85Q240.89688 40.19375 241.33438 40.803123Q241.77188 41.396873 241.94376 42.396873L240.225 42.63125Q240.1 41.834373 239.5375 41.396873Q238.975 40.94375 237.95938 40.94375Q236.74063 40.94375 236.225 41.35Q235.70938 41.740623 235.70938 42.271873Q235.70938 42.615623 235.92813 42.896873Q236.13126 43.178123 236.6 43.365623Q236.86563 43.459373 238.14688 43.803123Q240.02188 44.303123 240.75626 44.63125Q241.49063 44.94375 241.9125 45.553123Q242.33438 46.146873 242.33438 47.053123Q242.33438 47.928123 241.81876 48.709373Q241.30313 49.490623 240.33438 49.9125Q239.36563 50.334373 238.14688 50.334373Q236.13126 50.334373 235.06876 49.490623Q234.00626 48.646873 233.70938 47.00625Z" fill-rule="nonzero"/></svg>