<svg version="1.1" viewBox="0.0 0.0 973.0 602.0" fill="none" stroke="none" stroke-linecap="square" stroke-miterlimit="10" width="973" height="602" xmlns:xlink="http://www.w3.org/1999/xlink" xmlns="http://www.w3.org/2000/svg"><path fill="#ffffff" d="M0 0L973.0 0L973.0 602.0L0 602.0L0 0Z" fill-rule="nonzero"/><path fill="#4285f4" d="M486.5 97.666664C501.94485 97.666664 517.3528 99.17568 532.50415 102.17222L486.5 334.78333Z" fill-rule="nonzero"/><path fill="#71c287" d="M473.84647 98.00453C478.06055 97.77933 482.2799 97.666664 486.5 97.666664L486.5 334.78333Z" fill-rule="nonzero"/><path fill="#fcd04f" d="M455.12427 99.75168C461.33945 98.92198 467.58508 98.33914 473.84647 98.00453L486.5 334.78333Z" fill-rule="nonzero"/><path fill="#f07b72" d="M440.14105 102.24267C445.10757 101.25255 450.10455 100.42179 455.12427 99.75168L486.5 334.78333Z" fill-rule="nonzero"/><path fill="#7baaf7" d="M414.9318 108.72514C423.20984 106.10438 431.6256 103.94029 440.14105 102.24267L486.5 334.78333Z" fill-rule="nonzero"/><path fill="#46bdc6" d="M411.83514 109.72896C412.86505 109.387276 413.89728 109.05266 414.9318 108.72514L486.5 334.78333Z" fill-rule="nonzero"/><path fill="#ff6d01" d="M296.13538 193.41283C325.18723 154.2926 365.5861 125.07271 411.83514 109.72896L486.5 334.78333Z" fill-rule="nonzero"/><path fill="#34a853" d="M249.52611 326.55627C251.19537 278.47437 267.45135 232.03773 296.13538 193.41283L486.5 334.78333Z" fill-rule="nonzero"/><path fill="#fbbc04" d="M282.24463 455.21613C259.31052 416.31964 247.95941 371.68338 249.52611 326.55627L486.5 334.78333Z" fill-rule="nonzero"/><path fill="#ea4335" d="M532.50415 102.17222C639.44226 123.32168 718.1834 214.65771 723.35016 323.54465C728.5169 432.4316 658.77795 530.8131 554.32294 561.9933C449.86786 593.17346 337.6111 549.1183 282.24463 455.21613L486.5 334.78333Z" fill-rule="nonzero"/><path fill="#1a1a1a" d="M39.94375 101.77604L41.646873 101.77604L41.646873 109.229164Q41.646873 111.166664 41.209373 112.30729Q40.771873 113.447914 39.615623 114.166664Q38.475 114.885414 36.615623 114.885414Q34.803123 114.885414 33.646873 114.260414Q32.50625 113.635414 32.00625 112.46354Q31.521875 111.27604 31.521875 109.229164L31.521875 101.77604L33.225 101.77604L33.225 109.21354Q33.225 110.90104 33.5375 111.697914Q33.85 112.479164 34.6 112.916664Q35.365623 113.354164 36.459373 113.354164Q38.35 113.354164 39.146873 112.49479Q39.94375 111.635414 39.94375 109.21354L39.94375 101.77604ZM44.2875 114.666664L44.2875 105.33854L45.709373 105.33854L45.709373 106.666664Q46.740623 105.11979 48.678123 105.11979Q49.521873 105.11979 50.225 105.43229Q50.94375 105.729164 51.2875 106.229164Q51.646873 106.71354 51.7875 107.385414Q51.865623 107.822914 51.865623 108.93229L51.865623 114.666664L50.2875 114.666664L50.2875 108.99479Q50.2875 108.02604 50.1 107.541664Q49.928123 107.05729 49.44375 106.77604Q48.975 106.49479 48.35 106.49479Q47.334373 106.49479 46.6 107.135414Q45.865623 107.77604 45.865623 109.572914L45.865623 114.666664L44.2875 114.666664ZM53.646873 111.885414L55.225 111.635414Q55.35 112.572914 55.94375 113.072914Q56.553123 113.572914 57.63125 113.572914Q58.725 113.572914 59.25625 113.135414Q59.7875 112.68229 59.7875 112.08854Q59.7875 111.55729 59.31875 111.24479Q58.990623 111.041664 57.69375 110.71354Q55.959373 110.27604 55.2875 109.96354Q54.615623 109.635414 54.25625 109.072914Q53.9125 108.49479 53.9125 107.80729Q53.9125 107.18229 54.19375 106.65104Q54.490623 106.11979 54.975 105.77604Q55.35 105.49479 55.990623 105.30729Q56.63125 105.11979 57.35 105.11979Q58.459373 105.11979 59.2875 105.447914Q60.115623 105.760414 60.50625 106.30729Q60.9125 106.83854 61.053123 107.74479L59.50625 107.947914Q59.396873 107.229164 58.896873 106.822914Q58.396873 106.416664 57.475 106.416664Q56.38125 106.416664 55.9125 106.77604Q55.44375 107.135414 55.44375 107.61979Q55.44375 107.93229 55.646873 108.18229Q55.834373 108.43229 56.240623 108.604164Q56.490623 108.68229 57.646873 109.010414Q59.31875 109.447914 59.975 109.74479Q60.646873 110.02604 61.021873 110.572914Q61.4125 111.11979 61.4125 111.916664Q61.4125 112.71354 60.94375 113.416664Q60.490623 114.11979 59.615623 114.510414Q58.740623 114.885414 57.646873 114.885414Q55.81875 114.885414 54.865623 114.135414Q53.9125 113.36979 53.646873 111.885414ZM63.2875 118.24479L63.2875 105.33854L64.725 105.33854L64.725 106.541664Q65.24062 105.83854 65.88125 105.479164Q66.52187 105.11979 67.42812 105.11979Q68.63125 105.11979 69.5375 105.74479Q70.45937 106.354164 70.92812 107.479164Q71.39687 108.58854 71.39687 109.93229Q71.39687 111.354164 70.88125 112.510414Q70.36562 113.65104 69.38125 114.27604Q68.39687 114.885414 67.31875 114.885414Q66.5375 114.885414 65.89687 114.55729Q65.27187 114.21354 64.86562 113.697914L64.86562 118.24479L63.2875 118.24479ZM64.725 110.05729Q64.725 111.854164 65.44375 112.71354Q66.17812 113.572914 67.20937 113.572914Q68.27187 113.572914 69.02187 112.68229Q69.77187 111.791664 69.77187 109.916664Q69.77187 108.135414 69.0375 107.24479Q68.30312 106.354164 67.2875 106.354164Q66.27187 106.354164 65.49062 107.30729Q64.725 108.24479 64.725 110.05729ZM79.67812 111.666664L81.31875 111.86979Q80.92812 113.291664 79.88125 114.08854Q78.83437 114.885414 77.20937 114.885414Q75.1625 114.885414 73.95937 113.61979Q72.75625 112.354164 72.75625 110.072914Q72.75625 107.729164 73.95937 106.43229Q75.17812 105.11979 77.11562 105.11979Q78.99062 105.11979 80.17812 106.40104Q81.36562 107.666664 81.36562 109.979164Q81.36562 110.11979 81.35 110.40104L74.39687 110.40104Q74.475 111.947914 75.25625 112.760414Q76.05312 113.572914 77.20937 113.572914Q78.08437 113.572914 78.69375 113.11979Q79.31875 112.666664 79.67812 111.666664ZM74.475 109.104164L79.69375 109.104164Q79.58437 107.93229 79.1 107.33854Q78.33437 106.416664 77.13125 106.416664Q76.05312 106.416664 75.30312 107.15104Q74.56875 107.885414 74.475 109.104164ZM89.38125 111.24479L90.92812 111.447914Q90.67812 113.05729 89.63125 113.979164Q88.58437 114.885414 87.05312 114.885414Q85.13125 114.885414 83.95937 113.635414Q82.80312 112.36979 82.80312 110.041664Q82.80312 108.52604 83.30312 107.40104Q83.80312 106.260414 84.81875 105.697914Q85.85 105.11979 87.05312 105.11979Q88.58437 105.11979 89.5375 105.90104Q90.50625 106.666664 90.7875 108.072914L89.24062 108.30729Q89.02187 107.36979 88.45937 106.90104Q87.9125 106.416664 87.11562 106.416664Q85.92812 106.416664 85.17812 107.27604Q84.42812 108.135414 84.42812 109.99479Q84.42812 111.86979 85.14687 112.729164Q85.86562 113.572914 87.0375 113.572914Q87.95937 113.572914 88.58437 113.010414Q89.20937 112.43229 89.38125 111.24479ZM92.30312 103.604164L92.30312 101.77604L93.88125 101.77604L93.88125 103.604164L92.30312 103.604164ZM92.30312 114.666664L92.30312 105.33854L93.88125 105.33854L93.88125 114.666664L92.30312 114.666664ZM96.6625 114.666664L96.6625 106.55729L95.27187 106.55729L95.27187 105.33854L96.6625 105.33854L96.6625 104.33854Q96.6625 103.40104 96.83437 102.947914Q97.05312 102.322914 97.63125 101.947914Q98.20937 101.55729 99.25625 101.55729Q99.9125 101.55729 100.725 101.71354L100.49062 103.104164Q99.99062 103.010414 99.55312 103.010414Q98.83437 103.010414 98.5375 103.322914Q98.24062 103.61979 98.24062 104.46354L98.24062 105.33854L100.05312 105.33854L100.05312 106.55729L98.24062 106.55729L98.24062 114.666664L96.6625 114.666664ZM101.30312 103.604164L101.30312 101.77604L102.88125 101.77604L102.88125 103.604164L101.30312 103.604164ZM101.30312 114.666664L101.30312 105.33854L102.88125 105.33854L102.88125 114.666664L101.30312 114.666664ZM111.67812 111.666664L113.31875 111.86979Q112.92812 113.291664 111.88125 114.08854Q110.83437 114.885414 109.20937 114.885414Q107.1625 114.885414 105.95937 113.61979Q104.75625 112.354164 104.75625 110.072914Q104.75625 107.729164 105.95937 106.43229Q107.17812 105.11979 109.11562 105.11979Q110.99062 105.11979 112.17812 106.40104Q113.36562 107.666664 113.36562 109.979164Q113.36562 110.11979 113.35 110.40104L106.39687 110.40104Q106.475 111.947914 107.25625 112.760414Q108.05312 113.572914 109.20937 113.572914Q110.08437 113.572914 110.69375 113.11979Q111.31875 112.666664 111.67812 111.666664ZM106.475 109.104164L111.69375 109.104164Q111.58437 107.93229 111.1 107.33854Q110.33437 106.416664 109.13125 106.416664Q108.05312 106.416664 107.30312 107.15104Q106.56875 107.885414 106.475 109.104164ZM121.35 114.666664L121.35 113.49479Q120.45937 114.885414 118.725 114.885414Q117.61562 114.885414 116.67812 114.27604Q115.74062 113.65104 115.225 112.55729Q114.70937 111.447914 114.70937 110.010414Q114.70937 108.604164 115.17812 107.479164Q115.64687 106.33854 116.56875 105.729164Q117.50625 105.11979 118.6625 105.11979Q119.50625 105.11979 120.1625 105.479164Q120.81875 105.83854 121.24062 106.40104L121.24062 101.77604L122.80312 101.77604L122.80312 114.666664L121.35 114.666664ZM116.33437 110.010414Q116.33437 111.80729 117.08437 112.697914Q117.85 113.572914 118.88125 113.572914Q119.9125 113.572914 120.63125 112.729164Q121.36562 111.885414 121.36562 110.135414Q121.36562 108.229164 120.63125 107.33854Q119.89687 106.43229 118.81875 106.43229Q117.75625 106.43229 117.0375 107.291664Q116.33437 108.15104 116.33437 110.010414ZM129.67813 110.791664L129.67813 109.21354L134.5375 109.21354L134.5375 110.791664L129.67813 110.791664ZM141.58438 114.666664L141.58438 101.77604L150.27188 101.77604L150.27188 103.30729L143.2875 103.30729L143.2875 107.291664L149.33438 107.291664L149.33438 108.80729L143.2875 108.80729L143.2875 114.666664L141.58438 114.666664ZM152.30313 103.604164L152.30313 101.77604L153.88126 101.77604L153.88126 103.604164L152.30313 103.604164ZM152.30313 114.666664L152.30313 105.33854L153.88126 105.33854L153.88126 114.666664L152.30313 114.666664ZM155.225 114.666664L158.64688 109.80729L155.49063 105.33854L157.45938 105.33854L158.89688 107.52604Q159.30313 108.15104 159.55313 108.572914Q159.92813 107.979164 160.25626 107.541664L161.83438 105.33854L163.725 105.33854L160.49063 109.729164L163.975 114.666664L162.02188 114.666664L160.11563 111.760414L159.6 110.979164L157.14688 114.666664L155.225 114.666664ZM170.38126 113.510414Q169.50626 114.260414 168.67813 114.572914Q167.86563 114.885414 166.94376 114.885414Q165.39688 114.885414 164.56876 114.135414Q163.75626 113.36979 163.75626 112.197914Q163.75626 111.52604 164.06876 110.96354Q164.38126 110.385414 164.88126 110.041664Q165.38126 109.697914 166.02188 109.52604Q166.49063 109.40104 167.42813 109.291664Q169.33438 109.05729 170.24063 108.74479Q170.25626 108.416664 170.25626 108.322914Q170.25626 107.36979 169.80313 106.96354Q169.19376 106.43229 168.00626 106.43229Q166.88126 106.43229 166.35 106.822914Q165.81876 107.21354 165.56876 108.21354L164.02188 107.99479Q164.24063 106.99479 164.70938 106.385414Q165.19376 105.77604 166.1 105.447914Q167.02188 105.11979 168.24063 105.11979Q169.42813 105.11979 170.17813 105.40104Q170.92813 105.68229 171.27188 106.11979Q171.63126 106.541664 171.77188 107.18229Q171.85 107.58854 171.85 108.65104L171.85 110.760414Q171.85 112.96354 171.94376 113.55729Q172.05313 114.135414 172.35 114.666664L170.69376 114.666664Q170.44376 114.166664 170.38126 113.510414ZM170.24063 109.979164Q169.38126 110.33854 167.6625 110.572914Q166.69376 110.71354 166.2875 110.90104Q165.88126 111.072914 165.6625 111.416664Q165.44376 111.74479 165.44376 112.166664Q165.44376 112.791664 165.9125 113.21354Q166.39688 113.635414 167.31876 113.635414Q168.24063 113.635414 168.94376 113.24479Q169.6625 112.83854 169.99063 112.15104Q170.24063 111.604164 170.24063 110.55729L170.24063 109.979164ZM175.74063 114.666664L174.27188 114.666664L174.27188 101.77604L175.86563 101.77604L175.86563 106.385414Q176.86563 105.11979 178.4125 105.11979Q179.27188 105.11979 180.0375 105.479164Q180.81876 105.822914 181.30313 106.447914Q181.80313 107.072914 182.08438 107.96354Q182.36563 108.854164 182.36563 109.854164Q182.36563 112.260414 181.17813 113.572914Q180.00626 114.885414 178.33438 114.885414Q176.69376 114.885414 175.74063 113.49479L175.74063 114.666664ZM175.725 109.93229Q175.725 111.604164 176.17813 112.354164Q176.92813 113.572914 178.20938 113.572914Q179.24063 113.572914 179.99063 112.68229Q180.75626 111.77604 180.75626 109.99479Q180.75626 108.166664 180.02188 107.291664Q179.30313 106.416664 178.27188 106.416664Q177.24063 106.416664 176.475 107.322914Q175.725 108.229164 175.725 109.93229ZM184.25626 114.666664L184.25626 101.77604L185.83438 101.77604L185.83438 114.666664L184.25626 114.666664ZM194.67813 111.666664L196.31876 111.86979Q195.92813 113.291664 194.88126 114.08854Q193.83438 114.885414 192.20938 114.885414Q190.1625 114.885414 188.95938 113.61979Q187.75626 112.354164 187.75626 110.072914Q187.75626 107.729164 188.95938 106.43229Q190.17813 105.11979 192.11563 105.11979Q193.99063 105.11979 195.17813 106.40104Q196.36563 107.666664 196.36563 109.979164Q196.36563 110.11979 196.35 110.40104L189.39688 110.40104Q189.475 111.947914 190.25626 112.760414Q191.05313 113.572914 192.20938 113.572914Q193.08438 113.572914 193.69376 113.11979Q194.31876 112.666664 194.67813 111.666664ZM189.475 109.104164L194.69376 109.104164Q194.58438 107.93229 194.1 107.33854Q193.33438 106.416664 192.13126 106.416664Q191.05313 106.416664 190.30313 107.15104Q189.56876 107.885414 189.475 109.104164Z" fill-rule="nonzero"/><path fill="#9e9e9e" d="M36.803123 139.66667L35.225 139.66667L35.225 129.58855Q34.646873 130.13542 33.725 130.6823Q32.803123 131.21355 32.053123 131.4948L32.053123 129.96355Q33.38125 129.33855 34.38125 128.44792Q35.38125 127.5573 35.7875 126.72917L36.803123 126.72917L36.803123 139.66667ZM41.740623 139.66667L41.740623 137.8698L43.5375 137.8698L43.5375 139.66667L41.740623 139.66667ZM45.85 136.26042L47.44375 136.0573Q47.709373 137.40105 48.365623 137.9948Q49.021873 138.58855 49.959373 138.58855Q51.084373 138.58855 51.85 137.82292Q52.615623 137.04167 52.615623 135.90105Q52.615623 134.8073 51.896873 134.10417Q51.19375 133.38542 50.1 133.38542Q49.646873 133.38542 48.975 133.57292L49.146873 132.1823Q49.303123 132.19792 49.4125 132.19792Q50.4125 132.19792 51.225 131.66667Q52.0375 131.13542 52.0375 130.04167Q52.0375 129.16667 51.44375 128.60417Q50.85 128.02605 49.928123 128.02605Q49.00625 128.02605 48.38125 128.60417Q47.771873 129.1823 47.6 130.35417L46.021873 130.07292Q46.303123 128.47917 47.334373 127.60417Q48.365623 126.72917 49.896873 126.72917Q50.94375 126.72917 51.834373 127.1823Q52.725 127.63542 53.19375 128.41667Q53.6625 129.19792 53.6625 130.07292Q53.6625 130.91667 53.209373 131.60417Q52.771873 132.27605 51.88125 132.6823Q53.021873 132.94792 53.646873 133.79167Q54.2875 134.6198 54.2875 135.85417Q54.2875 137.54167 53.053123 138.72917Q51.834373 139.90105 49.959373 139.90105Q48.25625 139.90105 47.13125 138.88542Q46.021873 137.8698 45.85 136.26042ZM56.146873 129.8698Q56.146873 128.4948 56.834373 127.52605Q57.5375 126.5573 58.85 126.5573Q60.06875 126.5573 60.865623 127.4323Q61.6625 128.29167 61.6625 129.97917Q61.6625 131.60417 60.85 132.4948Q60.053123 133.3698 58.865623 133.3698Q57.709373 133.3698 56.928123 132.51042Q56.146873 131.63542 56.146873 129.8698ZM58.896873 127.65105Q58.303123 127.65105 57.9125 128.16667Q57.521873 128.66667 57.521873 130.02605Q57.521873 131.27605 57.9125 131.77605Q58.31875 132.27605 58.896873 132.27605Q59.490623 132.27605 59.88125 131.77605Q60.271873 131.26042 60.271873 129.91667Q60.271873 128.66667 59.88125 128.16667Q59.490623 127.65105 58.896873 127.65105ZM58.9125 140.13542L65.95937 126.5573L67.24062 126.5573L60.209373 140.13542L58.9125 140.13542ZM64.475 136.63542Q64.475 135.26042 65.1625 134.29167Q65.86562 133.32292 67.19375 133.32292Q68.4125 133.32292 69.19375 134.19792Q69.99062 135.0573 69.99062 136.7448Q69.99062 138.3698 69.19375 139.26042Q68.39687 140.13542 67.20937 140.13542Q66.0375 140.13542 65.25625 139.26042Q64.475 138.38542 64.475 136.63542ZM67.24062 134.41667Q66.64687 134.41667 66.25625 134.9323Q65.86562 135.4323 65.86562 136.8073Q65.86562 138.02605 66.25625 138.54167Q66.64687 139.0573 67.225 139.0573Q67.83437 139.0573 68.225 138.54167Q68.61562 138.02605 68.61562 136.6823Q68.61562 135.4323 68.225 134.9323Q67.83437 134.41667 67.24062 134.41667Z" fill-rule="nonzero"/><path stroke="#757575" stroke-width="1.0" stroke-linecap="butt" d="M30.1 121.166664L243.38333 121.166664L465.56964 110.496994" fill-rule="nonzero"/><path fill="#9e9e9e" d="M467.56964 110.496994C467.56964 109.392426 466.6742 108.496994 465.56964 108.496994C464.46506 108.496994 463.56964 109.392426 463.56964 110.496994C463.56964 111.60156 464.46506 112.496994 465.56964 112.496994C466.6742 112.496994 467.56964 111.60156 467.56964 110.496994" fill-rule="nonzero"/><path fill="#1a1a1a" d="M40.678123 157.15105L42.38125 157.57292Q41.85 159.6823 40.459373 160.79167Q39.06875 161.88542 37.053123 161.88542Q34.975 161.88542 33.6625 161.04167Q32.365623 160.1823 31.678125 158.58855Q30.990625 156.97917 30.990625 155.1198Q30.990625 153.1198 31.75625 151.6198Q32.5375 150.1198 33.959373 149.33855Q35.38125 148.5573 37.084373 148.5573Q39.00625 148.5573 40.31875 149.54167Q41.646873 150.52605 42.1625 152.3073L40.490623 152.71355Q40.0375 151.3073 39.178123 150.66667Q38.334373 150.02605 37.0375 150.02605Q35.553123 150.02605 34.553123 150.7448Q33.56875 151.44792 33.1625 152.65105Q32.75625 153.83855 32.75625 155.1198Q32.75625 156.76042 33.225 157.9948Q33.709373 159.21355 34.725 159.82292Q35.740623 160.4323 36.9125 160.4323Q38.35 160.4323 39.334373 159.60417Q40.334373 158.77605 40.678123 157.15105ZM44.271873 161.66667L44.271873 152.33855L45.69375 152.33855L45.69375 153.7448Q46.240623 152.76042 46.69375 152.44792Q47.1625 152.1198 47.709373 152.1198Q48.521873 152.1198 49.334373 152.63542L48.803123 154.10417Q48.209373 153.76042 47.63125 153.76042Q47.115623 153.76042 46.69375 154.07292Q46.2875 154.38542 46.115623 154.9323Q45.85 155.77605 45.85 156.77605L45.85 161.66667L44.271873 161.66667ZM50.303123 150.60417L50.303123 148.77605L51.88125 148.77605L51.88125 150.60417L50.303123 150.60417ZM50.303123 161.66667L50.303123 152.33855L51.88125 152.33855L51.88125 161.66667L50.303123 161.66667ZM57.740623 160.2448L57.975 161.65105Q57.303123 161.79167 56.771873 161.79167Q55.9125 161.79167 55.428123 161.52605Q54.959373 161.2448 54.771873 160.8073Q54.584373 160.35417 54.584373 158.9323L54.584373 153.5573L53.4125 153.5573L53.4125 152.33855L54.584373 152.33855L54.584373 150.02605L56.146873 149.07292L56.146873 152.33855L57.740623 152.33855L57.740623 153.5573L56.146873 153.5573L56.146873 159.02605Q56.146873 159.69792 56.225 159.90105Q56.31875 160.08855 56.50625 160.19792Q56.69375 160.3073 57.053123 160.3073Q57.303123 160.3073 57.740623 160.2448ZM59.303123 150.60417L59.303123 148.77605L60.88125 148.77605L60.88125 150.60417L59.303123 150.60417ZM59.303123 161.66667L59.303123 152.33855L60.88125 152.33855L60.88125 161.66667L59.303123 161.66667ZM69.38125 158.2448L70.92812 158.44792Q70.67812 160.0573 69.63125 160.97917Q68.58437 161.88542 67.05312 161.88542Q65.13125 161.88542 63.959373 160.63542Q62.803123 159.3698 62.803123 157.04167Q62.803123 155.52605 63.303123 154.40105Q63.803123 153.26042 64.81875 152.69792Q65.85 152.1198 67.05312 152.1198Q68.58437 152.1198 69.5375 152.90105Q70.50625 153.66667 70.7875 155.07292L69.24062 155.3073Q69.02187 154.3698 68.45937 153.90105Q67.9125 153.41667 67.11562 153.41667Q65.92812 153.41667 65.17812 154.27605Q64.42812 155.13542 64.42812 156.9948Q64.42812 158.8698 65.14687 159.72917Q65.86562 160.57292 67.0375 160.57292Q67.95937 160.57292 68.58437 160.01042Q69.20937 159.4323 69.38125 158.2448ZM78.38125 160.51042Q77.50625 161.26042 76.67812 161.57292Q75.86562 161.88542 74.94375 161.88542Q73.39687 161.88542 72.56875 161.13542Q71.75625 160.3698 71.75625 159.19792Q71.75625 158.52605 72.06875 157.96355Q72.38125 157.38542 72.88125 157.04167Q73.38125 156.69792 74.02187 156.52605Q74.49062 156.40105 75.42812 156.29167Q77.33437 156.0573 78.24062 155.7448Q78.25625 155.41667 78.25625 155.32292Q78.25625 154.3698 77.80312 153.96355Q77.19375 153.4323 76.00625 153.4323Q74.88125 153.4323 74.35 153.82292Q73.81875 154.21355 73.56875 155.21355L72.02187 154.9948Q72.24062 153.9948 72.70937 153.38542Q73.19375 152.77605 74.1 152.44792Q75.02187 152.1198 76.24062 152.1198Q77.42812 152.1198 78.17812 152.40105Q78.92812 152.6823 79.27187 153.1198Q79.63125 153.54167 79.77187 154.1823Q79.85 154.58855 79.85 155.65105L79.85 157.76042Q79.85 159.96355 79.94375 160.5573Q80.05312 161.13542 80.35 161.66667L78.69375 161.66667Q78.44375 161.16667 78.38125 160.51042ZM78.24062 156.97917Q77.38125 157.33855 75.6625 157.57292Q74.69375 157.71355 74.2875 157.90105Q73.88125 158.07292 73.6625 158.41667Q73.44375 158.7448 73.44375 159.16667Q73.44375 159.79167 73.9125 160.21355Q74.39687 160.63542 75.31875 160.63542Q76.24062 160.63542 76.94375 160.2448Q77.6625 159.83855 77.99062 159.15105Q78.24062 158.60417 78.24062 157.5573L78.24062 156.97917ZM82.25625 161.66667L82.25625 148.77605L83.83437 148.77605L83.83437 161.66667L82.25625 161.66667ZM90.67812 157.79167L90.67812 156.21355L95.5375 156.21355L95.5375 157.79167L90.67812 157.79167ZM102.58437 161.66667L102.58437 148.77605L111.27187 148.77605L111.27187 150.3073L104.2875 150.3073L104.2875 154.29167L110.33437 154.29167L110.33437 155.8073L104.2875 155.8073L104.2875 161.66667L102.58437 161.66667ZM113.30312 150.60417L113.30312 148.77605L114.88125 148.77605L114.88125 150.60417L113.30312 150.60417ZM113.30312 161.66667L113.30312 152.33855L114.88125 152.33855L114.88125 161.66667L113.30312 161.66667ZM116.225 161.66667L119.64687 156.8073L116.49062 152.33855L118.45937 152.33855L119.89687 154.52605Q120.30312 155.15105 120.55312 155.57292Q120.92812 154.97917 121.25625 154.54167L122.83437 152.33855L124.725 152.33855L121.49062 156.72917L124.975 161.66667L123.02187 161.66667L121.11562 158.76042L120.6 157.97917L118.14687 161.66667L116.225 161.66667ZM131.38126 160.51042Q130.50626 161.26042 129.67813 161.57292Q128.86563 161.88542 127.94375 161.88542Q126.39687 161.88542 125.56875 161.13542Q124.75625 160.3698 124.75625 159.19792Q124.75625 158.52605 125.06875 157.96355Q125.38125 157.38542 125.88125 157.04167Q126.38125 156.69792 127.02187 156.52605Q127.49062 156.40105 128.42813 156.29167Q130.33438 156.0573 131.24063 155.7448Q131.25626 155.41667 131.25626 155.32292Q131.25626 154.3698 130.80313 153.96355Q130.19376 153.4323 129.00626 153.4323Q127.88125 153.4323 127.35 153.82292Q126.81875 154.21355 126.56875 155.21355L125.02187 154.9948Q125.24062 153.9948 125.70937 153.38542Q126.19375 152.77605 127.1 152.44792Q128.02188 152.1198 129.24063 152.1198Q130.42813 152.1198 131.17813 152.40105Q131.92813 152.6823 132.27188 153.1198Q132.63126 153.54167 132.77188 154.1823Q132.85 154.58855 132.85 155.65105L132.85 157.76042Q132.85 159.96355 132.94376 160.5573Q133.05313 161.13542 133.35 161.66667L131.69376 161.66667Q131.44376 161.16667 131.38126 160.51042ZM131.24063 156.97917Q130.38126 157.33855 128.6625 157.57292Q127.69375 157.71355 127.2875 157.90105Q126.88125 158.07292 126.6625 158.41667Q126.44375 158.7448 126.44375 159.16667Q126.44375 159.79167 126.9125 160.21355Q127.39687 160.63542 128.31876 160.63542Q129.24063 160.63542 129.94376 160.2448Q130.6625 159.83855 130.99063 159.15105Q131.24063 158.60417 131.24063 157.5573L131.24063 156.97917ZM136.74063 161.66667L135.27188 161.66667L135.27188 148.77605L136.86563 148.77605L136.86563 153.38542Q137.86563 152.1198 139.4125 152.1198Q140.27188 152.1198 141.0375 152.47917Q141.81876 152.82292 142.30313 153.44792Q142.80313 154.07292 143.08438 154.96355Q143.36563 155.85417 143.36563 156.85417Q143.36563 159.26042 142.17813 160.57292Q141.00626 161.88542 139.33438 161.88542Q137.69376 161.88542 136.74063 160.4948L136.74063 161.66667ZM136.725 156.9323Q136.725 158.60417 137.17813 159.35417Q137.92813 160.57292 139.20938 160.57292Q140.24063 160.57292 140.99063 159.6823Q141.75626 158.77605 141.75626 156.9948Q141.75626 155.16667 141.02188 154.29167Q140.30313 153.41667 139.27188 153.41667Q138.24063 153.41667 137.475 154.32292Q136.725 155.22917 136.725 156.9323ZM145.25626 161.66667L145.25626 148.77605L146.83438 148.77605L146.83438 161.66667L145.25626 161.66667ZM155.67813 158.66667L157.31876 158.8698Q156.92813 160.29167 155.88126 161.08855Q154.83438 161.88542 153.20938 161.88542Q151.1625 161.88542 149.95938 160.6198Q148.75626 159.35417 148.75626 157.07292Q148.75626 154.72917 149.95938 153.4323Q151.17813 152.1198 153.11563 152.1198Q154.99063 152.1198 156.17813 153.40105Q157.36563 154.66667 157.36563 156.97917Q157.36563 157.1198 157.35 157.40105L150.39688 157.40105Q150.475 158.94792 151.25626 159.76042Q152.05313 160.57292 153.20938 160.57292Q154.08438 160.57292 154.69376 160.1198Q155.31876 159.66667 155.67813 158.66667ZM150.475 156.10417L155.69376 156.10417Q155.58438 154.9323 155.1 154.33855Q154.33438 153.41667 153.13126 153.41667Q152.05313 153.41667 151.30313 154.15105Q150.56876 154.88542 150.475 156.10417Z" fill-rule="nonzero"/><path fill="#9e9e9e" d="M36.803123 186.66667L35.225 186.66667L35.225 176.58855Q34.646873 177.13542 33.725 177.6823Q32.803123 178.21355 32.053123 178.4948L32.053123 176.96355Q33.38125 176.33855 34.38125 175.44792Q35.38125 174.5573 35.7875 173.72917L36.803123 173.72917L36.803123 186.66667ZM41.740623 186.66667L41.740623 184.8698L43.5375 184.8698L43.5375 186.66667L41.740623 186.66667ZM45.959373 175.46355L45.959373 173.94792L54.2875 173.94792L54.2875 175.1823Q53.06875 176.4948 51.85 178.66667Q50.646873 180.82292 49.990623 183.1198Q49.50625 184.7448 49.38125 186.66667L47.75625 186.66667Q47.7875 185.15105 48.35 182.9948Q48.928123 180.83855 49.990623 178.83855Q51.053123 176.83855 52.25625 175.46355L45.959373 175.46355ZM56.146873 176.8698Q56.146873 175.4948 56.834373 174.52605Q57.5375 173.5573 58.85 173.5573Q60.06875 173.5573 60.865623 174.4323Q61.6625 175.29167 61.6625 176.97917Q61.6625 178.60417 60.85 179.4948Q60.053123 180.3698 58.865623 180.3698Q57.709373 180.3698 56.928123 179.51042Q56.146873 178.63542 56.146873 176.8698ZM58.896873 174.65105Q58.303123 174.65105 57.9125 175.16667Q57.521873 175.66667 57.521873 177.02605Q57.521873 178.27605 57.9125 178.77605Q58.31875 179.27605 58.896873 179.27605Q59.490623 179.27605 59.88125 178.77605Q60.271873 178.26042 60.271873 176.91667Q60.271873 175.66667 59.88125 175.16667Q59.490623 174.65105 58.896873 174.65105ZM58.9125 187.13542L65.95937 173.5573L67.24062 173.5573L60.209373 187.13542L58.9125 187.13542ZM64.475 183.63542Q64.475 182.26042 65.1625 181.29167Q65.86562 180.32292 67.19375 180.32292Q68.4125 180.32292 69.19375 181.19792Q69.99062 182.0573 69.99062 183.7448Q69.99062 185.3698 69.19375 186.26042Q68.39687 187.13542 67.20937 187.13542Q66.0375 187.13542 65.25625 186.26042Q64.475 185.38542 64.475 183.63542ZM67.24062 181.41667Q66.64687 181.41667 66.25625 181.9323Q65.86562 182.4323 65.86562 183.8073Q65.86562 185.02605 66.25625 185.54167Q66.64687 186.0573 67.225 186.0573Q67.83437 186.0573 68.225 185.54167Q68.61562 185.02605 68.61562 183.6823Q68.61562 182.4323 68.225 181.9323Q67.83437 181.41667 67.24062 181.41667Z" fill-rule="nonzero"/><path stroke="#757575" stroke-width="1.0" stroke-linecap="butt" d="M30.1 168.16667L243.38333 168.16667L430.40002 116.62001" fill-rule="nonzero"/><path fill="#9e9e9e" d="M432.40002 116.62001C432.40002 115.515434 431.5046 114.62001 430.40002 114.62001C429.29547 114.62001 428.40002 115.515434 428.40002 116.62001C428.40002 117.72458 429.29547 118.62001 430.40002 118.62001C431.5046 118.62001 432.40002 117.72458 432.40002 116.62001" fill-rule="nonzero"/><path fill="#1a1a1a" d="M31.5375 208.66667L31.5375 195.77605L33.240623 195.77605L33.240623 201.07292L39.94375 201.07292L39.94375 195.77605L41.646873 195.77605L41.646873 208.66667L39.94375 208.66667L39.94375 202.58855L33.240623 202.58855L33.240623 208.66667L31.5375 208.66667ZM44.303123 197.60417L44.303123 195.77605L45.88125 195.77605L45.88125 197.60417L44.303123 197.60417ZM44.303123 208.66667L44.303123 199.33855L45.88125 199.33855L45.88125 208.66667L44.303123 208.66667ZM47.990623 209.44792L49.5375 209.66667Q49.63125 210.38542 50.06875 210.71355Q50.6625 211.15105 51.678123 211.15105Q52.771873 211.15105 53.365623 210.69792Q53.975 210.26042 54.178123 209.47917Q54.303123 208.9948 54.303123 207.44792Q53.25625 208.66667 51.709373 208.66667Q49.7875 208.66667 48.725 207.27605Q47.678123 205.88542 47.678123 203.94792Q47.678123 202.60417 48.1625 201.47917Q48.646873 200.35417 49.56875 199.7448Q50.490623 199.1198 51.725 199.1198Q53.38125 199.1198 54.44375 200.46355L54.44375 199.33855L55.9125 199.33855L55.9125 207.40105Q55.9125 209.58855 55.459373 210.4948Q55.021873 211.40105 54.053123 211.91667Q53.1 212.44792 51.69375 212.44792Q50.021873 212.44792 48.990623 211.69792Q47.959373 210.94792 47.990623 209.44792ZM49.303123 203.83855Q49.303123 205.66667 50.0375 206.51042Q50.771873 207.35417 51.865623 207.35417Q52.959373 207.35417 53.69375 206.52605Q54.428123 205.6823 54.428123 203.88542Q54.428123 202.16667 53.6625 201.3073Q52.9125 200.4323 51.834373 200.4323Q50.7875 200.4323 50.0375 201.29167Q49.303123 202.15105 49.303123 203.83855ZM58.2875 208.66667L58.2875 195.77605L59.865623 195.77605L59.865623 200.40105Q60.975 199.1198 62.6625 199.1198Q63.69375 199.1198 64.45937 199.52605Q65.225 199.9323 65.55312 200.66667Q65.89687 201.38542 65.89687 202.7448L65.89687 208.66667L64.30312 208.66667L64.30312 202.7448Q64.30312 201.5573 63.7875 201.02605Q63.271873 200.47917 62.334373 200.47917Q61.63125 200.47917 61.00625 200.85417Q60.396873 201.21355 60.13125 201.83855Q59.865623 202.46355 59.865623 203.5573L59.865623 208.66667L58.2875 208.66667ZM72.67812 204.79167L72.67812 203.21355L77.5375 203.21355L77.5375 204.79167L72.67812 204.79167ZM84.58437 208.66667L84.58437 195.77605L93.27187 195.77605L93.27187 197.3073L86.2875 197.3073L86.2875 201.29167L92.33437 201.29167L92.33437 202.8073L86.2875 202.8073L86.2875 208.66667L84.58437 208.66667ZM95.30312 197.60417L95.30312 195.77605L96.88125 195.77605L96.88125 197.60417L95.30312 197.60417ZM95.30312 208.66667L95.30312 199.33855L96.88125 199.33855L96.88125 208.66667L95.30312 208.66667ZM98.225 208.66667L101.64687 203.8073L98.49062 199.33855L100.45937 199.33855L101.89687 201.52605Q102.30312 202.15105 102.55312 202.57292Q102.92812 201.97917 103.25625 201.54167L104.83437 199.33855L106.725 199.33855L103.49062 203.72917L106.975 208.66667L105.02187 208.66667L103.11562 205.76042L102.6 204.97917L100.14687 208.66667L98.225 208.66667ZM113.38125 207.51042Q112.50625 208.26042 111.67812 208.57292Q110.86562 208.88542 109.94375 208.88542Q108.39687 208.88542 107.56875 208.13542Q106.75625 207.3698 106.75625 206.19792Q106.75625 205.52605 107.06875 204.96355Q107.38125 204.38542 107.88125 204.04167Q108.38125 203.69792 109.02187 203.52605Q109.49062 203.40105 110.42812 203.29167Q112.33437 203.0573 113.24062 202.7448Q113.25625 202.41667 113.25625 202.32292Q113.25625 201.3698 112.80312 200.96355Q112.19375 200.4323 111.00625 200.4323Q109.88125 200.4323 109.35 200.82292Q108.81875 201.21355 108.56875 202.21355L107.02187 201.9948Q107.24062 200.9948 107.70937 200.38542Q108.19375 199.77605 109.1 199.44792Q110.02187 199.1198 111.24062 199.1198Q112.42812 199.1198 113.17812 199.40105Q113.92812 199.6823 114.27187 200.1198Q114.63125 200.54167 114.77187 201.1823Q114.85 201.58855 114.85 202.65105L114.85 204.76042Q114.85 206.96355 114.94375 207.5573Q115.05312 208.13542 115.35 208.66667L113.69375 208.66667Q113.44375 208.16667 113.38125 207.51042ZM113.24062 203.97917Q112.38125 204.33855 110.6625 204.57292Q109.69375 204.71355 109.2875 204.90105Q108.88125 205.07292 108.6625 205.41667Q108.44375 205.7448 108.44375 206.16667Q108.44375 206.79167 108.9125 207.21355Q109.39687 207.63542 110.31875 207.63542Q111.24062 207.63542 111.94375 207.2448Q112.6625 206.83855 112.99062 206.15105Q113.24062 205.60417 113.24062 204.5573L113.24062 203.97917ZM118.74062 208.66667L117.27187 208.66667L117.27187 195.77605L118.86562 195.77605L118.86562 200.38542Q119.86562 199.1198 121.4125 199.1198Q122.27187 199.1198 123.0375 199.47917Q123.81875 199.82292 124.30312 200.44792Q124.80312 201.07292 125.08437 201.96355Q125.36562 202.85417 125.36562 203.85417Q125.36562 206.26042 124.17812 207.57292Q123.00625 208.88542 121.33437 208.88542Q119.69375 208.88542 118.74062 207.4948L118.74062 208.66667ZM118.725 203.9323Q118.725 205.60417 119.17812 206.35417Q119.92812 207.57292 121.20937 207.57292Q122.24062 207.57292 122.99062 206.6823Q123.75625 205.77605 123.75625 203.9948Q123.75625 202.16667 123.02187 201.29167Q122.30312 200.41667 121.27187 200.41667Q120.24062 200.41667 119.475 201.32292Q118.725 202.22917 118.725 203.9323ZM127.25625 208.66667L127.25625 195.77605L128.83438 195.77605L128.83438 208.66667L127.25625 208.66667ZM137.67813 205.66667L139.31876 205.8698Q138.92813 207.29167 137.88126 208.08855Q136.83438 208.88542 135.20938 208.88542Q133.1625 208.88542 131.95938 207.6198Q130.75626 206.35417 130.75626 204.07292Q130.75626 201.72917 131.95938 200.4323Q133.17813 199.1198 135.11563 199.1198Q136.99063 199.1198 138.17813 200.40105Q139.36563 201.66667 139.36563 203.97917Q139.36563 204.1198 139.35 204.40105L132.39688 204.40105Q132.475 205.94792 133.25626 206.76042Q134.05313 207.57292 135.20938 207.57292Q136.08438 207.57292 136.69376 207.1198Q137.31876 206.66667 137.67813 205.66667ZM132.475 203.10417L137.69376 203.10417Q137.58438 201.9323 137.1 201.33855Q136.33438 200.41667 135.13126 200.41667Q134.05313 200.41667 133.30313 201.15105Q132.56876 201.88542 132.475 203.10417Z" fill-rule="nonzero"/><path fill="#9e9e9e" d="M31.084375 230.6823L32.6 230.54167Q32.803123 231.6198 33.334373 232.10417Q33.88125 232.58855 34.740623 232.58855Q35.475 232.58855 36.021873 232.26042Q36.56875 231.91667 36.9125 231.3698Q37.271873 230.8073 37.50625 229.85417Q37.740623 228.90105 37.740623 227.91667Q37.740623 227.8073 37.740623 227.60417Q37.25625 228.35417 36.428123 228.82292Q35.615623 229.29167 34.6625 229.29167Q33.06875 229.29167 31.959375 228.13542Q30.85 226.97917 30.85 225.07292Q30.85 223.1198 32.00625 221.9323Q33.1625 220.72917 34.896873 220.72917Q36.1625 220.72917 37.19375 221.41667Q38.240623 222.08855 38.771873 223.33855Q39.31875 224.58855 39.31875 226.96355Q39.31875 229.4323 38.771873 230.90105Q38.240623 232.35417 37.178123 233.1198Q36.13125 233.88542 34.709373 233.88542Q33.19375 233.88542 32.225 233.0573Q31.271875 232.21355 31.084375 230.6823ZM37.56875 224.9948Q37.56875 223.63542 36.834373 222.83855Q36.115623 222.04167 35.1 222.04167Q34.0375 222.04167 33.25625 222.90105Q32.475 223.76042 32.475 225.13542Q32.475 226.3698 33.209373 227.13542Q33.959373 227.90105 35.053123 227.90105Q36.146873 227.90105 36.85 227.13542Q37.56875 226.3698 37.56875 224.9948ZM41.740623 233.66667L41.740623 231.8698L43.5375 231.8698L43.5375 233.66667L41.740623 233.66667ZM45.959373 222.46355L45.959373 220.94792L54.2875 220.94792L54.2875 222.1823Q53.06875 223.4948 51.85 225.66667Q50.646873 227.82292 49.990623 230.1198Q49.50625 231.7448 49.38125 233.66667L47.75625 233.66667Q47.7875 232.15105 48.35 229.9948Q48.928123 227.83855 49.990623 225.83855Q51.053123 223.83855 52.25625 222.46355L45.959373 222.46355ZM56.146873 223.8698Q56.146873 222.4948 56.834373 221.52605Q57.5375 220.5573 58.85 220.5573Q60.06875 220.5573 60.865623 221.4323Q61.6625 222.29167 61.6625 223.97917Q61.6625 225.60417 60.85 226.4948Q60.053123 227.3698 58.865623 227.3698Q57.709373 227.3698 56.928123 226.51042Q56.146873 225.63542 56.146873 223.8698ZM58.896873 221.65105Q58.303123 221.65105 57.9125 222.16667Q57.521873 222.66667 57.521873 224.02605Q57.521873 225.27605 57.9125 225.77605Q58.31875 226.27605 58.896873 226.27605Q59.490623 226.27605 59.88125 225.77605Q60.271873 225.26042 60.271873 223.91667Q60.271873 222.66667 59.88125 222.16667Q59.490623 221.65105 58.896873 221.65105ZM58.9125 234.13542L65.95937 220.5573L67.24062 220.5573L60.209373 234.13542L58.9125 234.13542ZM64.475 230.63542Q64.475 229.26042 65.1625 228.29167Q65.86562 227.32292 67.19375 227.32292Q68.4125 227.32292 69.19375 228.19792Q69.99062 229.0573 69.99062 230.7448Q69.99062 232.3698 69.19375 233.26042Q68.39687 234.13542 67.20937 234.13542Q66.0375 234.13542 65.25625 233.26042Q64.475 232.38542 64.475 230.63542ZM67.24062 228.41667Q66.64687 228.41667 66.25625 228.9323Q65.86562 229.4323 65.86562 230.8073Q65.86562 232.02605 66.25625 232.54167Q66.64687 233.0573 67.225 233.0573Q67.83437 233.0573 68.225 232.54167Q68.61562 232.02605 68.61562 230.6823Q68.61562 229.4323 68.225 228.9323Q67.83437 228.41667 67.24062 228.41667Z" fill-rule="nonzero"/><path stroke="#757575" stroke-width="1.0" stroke-linecap="butt" d="M30.1 215.16667L243.38333 215.16667L354.4845 152.26114" fill-rule="nonzero"/><path fill="#9e9e9e" d="M356.4845 152.26114C356.4845 151.15657 355.58905 150.26114 354.4845 150.26114C353.3799 150.26114 352.4845 151.15657 352.4845 152.26114C352.4845 153.3657 353.3799 154.26114 354.4845 154.26114C355.58905 154.26114 356.4845 153.3657 356.4845 152.26114" fill-rule="nonzero"/><path fill="#1a1a1a" d="M31.44375 255.66667L31.44375 242.77605L34.00625 242.77605L37.053123 251.90105Q37.475 253.1823 37.6625 253.8073Q37.88125 253.10417 38.35 251.7448L41.44375 242.77605L43.725 242.77605L43.725 255.66667L42.084373 255.66667L42.084373 244.88542L38.35 255.66667L36.803123 255.66667L33.084373 244.69792L33.084373 255.66667L31.44375 255.66667ZM52.678123 252.66667L54.31875 252.8698Q53.928123 254.29167 52.88125 255.08855Q51.834373 255.88542 50.209373 255.88542Q48.1625 255.88542 46.959373 254.6198Q45.75625 253.35417 45.75625 251.07292Q45.75625 248.72917 46.959373 247.4323Q48.178123 246.1198 50.115623 246.1198Q51.990623 246.1198 53.178123 247.40105Q54.365623 248.66667 54.365623 250.97917Q54.365623 251.1198 54.35 251.40105L47.396873 251.40105Q47.475 252.94792 48.25625 253.76042Q49.053123 254.57292 50.209373 254.57292Q51.084373 254.57292 51.69375 254.1198Q52.31875 253.66667 52.678123 252.66667ZM47.475 250.10417L52.69375 250.10417Q52.584373 248.9323 52.1 248.33855Q51.334373 247.41667 50.13125 247.41667Q49.053123 247.41667 48.303123 248.15105Q47.56875 248.88542 47.475 250.10417ZM62.35 255.66667L62.35 254.4948Q61.459373 255.88542 59.725 255.88542Q58.615623 255.88542 57.678123 255.27605Q56.740623 254.65105 56.225 253.5573Q55.709373 252.44792 55.709373 251.01042Q55.709373 249.60417 56.178123 248.47917Q56.646873 247.33855 57.56875 246.72917Q58.50625 246.1198 59.6625 246.1198Q60.50625 246.1198 61.1625 246.47917Q61.81875 246.83855 62.240623 247.40105L62.240623 242.77605L63.803123 242.77605L63.803123 255.66667L62.35 255.66667ZM57.334373 251.01042Q57.334373 252.8073 58.084373 253.69792Q58.85 254.57292 59.88125 254.57292Q60.9125 254.57292 61.63125 253.72917Q62.365623 252.88542 62.365623 251.13542Q62.365623 249.22917 61.63125 248.33855Q60.896873 247.4323 59.81875 247.4323Q58.75625 247.4323 58.0375 248.29167Q57.334373 249.15105 57.334373 251.01042ZM66.30312 244.60417L66.30312 242.77605L67.88125 242.77605L67.88125 244.60417L66.30312 244.60417ZM66.30312 255.66667L66.30312 246.33855L67.88125 246.33855L67.88125 255.66667L66.30312 255.66667ZM76.39687 255.66667L76.39687 254.29167Q75.31875 255.88542 73.44375 255.88542Q72.61562 255.88542 71.89687 255.57292Q71.17812 255.2448 70.83437 254.77605Q70.49062 254.29167 70.35 253.58855Q70.25625 253.1198 70.25625 252.1198L70.25625 246.33855L71.83437 246.33855L71.83437 251.51042Q71.83437 252.7448 71.92812 253.1823Q72.08437 253.8073 72.56875 254.16667Q73.05312 254.51042 73.75625 254.51042Q74.475 254.51042 75.1 254.15105Q75.725 253.79167 75.975 253.16667Q76.24062 252.52605 76.24062 251.33855L76.24062 246.33855L77.81875 246.33855L77.81875 255.66667L76.39687 255.66667ZM80.2875 255.66667L80.2875 246.33855L81.70937 246.33855L81.70937 247.63542Q82.14687 246.96355 82.86562 246.54167Q83.6 246.1198 84.5375 246.1198Q85.56875 246.1198 86.225 246.5573Q86.89687 246.97917 87.1625 247.76042Q88.27187 246.1198 90.05312 246.1198Q91.44375 246.1198 92.17812 246.90105Q92.92812 247.66667 92.92812 249.26042L92.92812 255.66667L91.36562 255.66667L91.36562 249.79167Q91.36562 248.83855 91.20937 248.41667Q91.05312 247.9948 90.64687 247.7448Q90.24062 247.4948 89.69375 247.4948Q88.70937 247.4948 88.05312 248.15105Q87.4125 248.8073 87.4125 250.2448L87.4125 255.66667L85.83437 255.66667L85.83437 249.60417Q85.83437 248.54167 85.44375 248.02605Q85.05312 247.4948 84.17812 247.4948Q83.50625 247.4948 82.94375 247.85417Q82.38125 248.19792 82.11562 248.8698Q81.86562 249.54167 81.86562 250.82292L81.86562 255.66667L80.2875 255.66667ZM98.67812 251.79167L98.67812 250.21355L103.5375 250.21355L103.5375 251.79167L98.67812 251.79167ZM110.475 255.66667L110.475 242.77605L112.225 242.77605L118.99062 252.90105L118.99062 242.77605L120.61562 242.77605L120.61562 255.66667L118.88125 255.66667L112.1 245.54167L112.1 255.66667L110.475 255.66667ZM122.69375 250.9948Q122.69375 248.40105 124.14687 247.15105Q125.35 246.1198 127.06875 246.1198Q129.00626 246.1198 130.225 247.38542Q131.44376 248.65105 131.44376 250.8698Q131.44376 252.66667 130.89688 253.69792Q130.36563 254.72917 129.33438 255.3073Q128.30313 255.88542 127.06875 255.88542Q125.11562 255.88542 123.89687 254.63542Q122.69375 253.3698 122.69375 250.9948ZM124.31875 250.9948Q124.31875 252.79167 125.1 253.6823Q125.88125 254.57292 127.06875 254.57292Q128.25626 254.57292 129.0375 253.6823Q129.81876 252.77605 129.81876 250.94792Q129.81876 249.21355 129.02188 248.32292Q128.24063 247.4323 127.06875 247.4323Q125.88125 247.4323 125.1 248.32292Q124.31875 249.21355 124.31875 250.9948ZM138.58438 255.66667L138.58438 242.77605L147.27188 242.77605L147.27188 244.3073L140.2875 244.3073L140.2875 248.29167L146.33438 248.29167L146.33438 249.8073L140.2875 249.8073L140.2875 255.66667L138.58438 255.66667ZM149.30313 244.60417L149.30313 242.77605L150.88126 242.77605L150.88126 244.60417L149.30313 244.60417ZM149.30313 255.66667L149.30313 246.33855L150.88126 246.33855L150.88126 255.66667L149.30313 255.66667ZM152.225 255.66667L155.64688 250.8073L152.49063 246.33855L154.45938 246.33855L155.89688 248.52605Q156.30313 249.15105 156.55313 249.57292Q156.92813 248.97917 157.25626 248.54167L158.83438 246.33855L160.725 246.33855L157.49063 250.72917L160.975 255.66667L159.02188 255.66667L157.11563 252.76042L156.6 251.97917L154.14688 255.66667L152.225 255.66667Z" fill-rule="nonzero"/><path fill="#9e9e9e" d="M31.084375 277.68228L32.6 277.54166Q32.803123 278.61978 33.334373 279.10416Q33.88125 279.58853 34.740623 279.58853Q35.475 279.58853 36.021873 279.2604Q36.56875 278.91666 36.9125 278.36978Q37.271873 277.80728 37.50625 276.85416Q37.740623 275.90103 37.740623 274.91666Q37.740623 274.80728 37.740623 274.60416Q37.25625 275.35416 36.428123 275.8229Q35.615623 276.29166 34.6625 276.29166Q33.06875 276.29166 31.959375 275.1354Q30.85 273.97916 30.85 272.0729Q30.85 270.11978 32.00625 268.93228Q33.1625 267.72916 34.896873 267.72916Q36.1625 267.72916 37.19375 268.41666Q38.240623 269.08853 38.771873 270.33853Q39.31875 271.58853 39.31875 273.96353Q39.31875 276.43228 38.771873 277.90103Q38.240623 279.35416 37.178123 280.11978Q36.13125 280.8854 34.709373 280.8854Q33.19375 280.8854 32.225 280.05728Q31.271875 279.21353 31.084375 277.68228ZM37.56875 271.99478Q37.56875 270.6354 36.834373 269.83853Q36.115623 269.04166 35.1 269.04166Q34.0375 269.04166 33.25625 269.90103Q32.475 270.7604 32.475 272.1354Q32.475 273.36978 33.209373 274.1354Q33.959373 274.90103 35.053123 274.90103Q36.146873 274.90103 36.85 274.1354Q37.56875 273.36978 37.56875 271.99478ZM41.740623 280.66666L41.740623 278.86978L43.5375 278.86978L43.5375 280.66666L41.740623 280.66666ZM54.053123 270.93228L52.490623 271.05728Q52.271873 270.1354 51.88125 269.71353Q51.240623 269.02603 50.303123 269.02603Q49.553123 269.02603 48.975 269.4479Q48.225 269.99478 47.7875 271.04166Q47.365623 272.08853 47.35 274.02603Q47.928123 273.15103 48.740623 272.72916Q49.56875 272.30728 50.475 272.30728Q52.06875 272.30728 53.178123 273.47916Q54.2875 274.6354 54.2875 276.47916Q54.2875 277.6979 53.75625 278.74478Q53.240623 279.77603 52.31875 280.33853Q51.4125 280.8854 50.25625 280.8854Q48.271873 280.8854 47.021873 279.43228Q45.771873 277.97916 45.771873 274.6354Q45.771873 270.90103 47.1625 269.1979Q48.365623 267.72916 50.396873 267.72916Q51.928123 267.72916 52.896873 268.58853Q53.865623 269.43228 54.053123 270.93228ZM47.6 276.49478Q47.6 277.30728 47.94375 278.05728Q48.2875 278.80728 48.9125 279.1979Q49.5375 279.58853 50.225 279.58853Q51.225 279.58853 51.94375 278.77603Q52.6625 277.96353 52.6625 276.5729Q52.6625 275.24478 51.94375 274.47916Q51.240623 273.6979 50.1625 273.6979Q49.084373 273.6979 48.334373 274.47916Q47.6 275.24478 47.6 276.49478ZM56.146873 270.86978Q56.146873 269.49478 56.834373 268.52603Q57.5375 267.55728 58.85 267.55728Q60.06875 267.55728 60.865623 268.43228Q61.6625 269.29166 61.6625 270.97916Q61.6625 272.60416 60.85 273.49478Q60.053123 274.36978 58.865623 274.36978Q57.709373 274.36978 56.928123 273.5104Q56.146873 272.6354 56.146873 270.86978ZM58.896873 268.65103Q58.303123 268.65103 57.9125 269.16666Q57.521873 269.66666 57.521873 271.02603Q57.521873 272.27603 57.9125 272.77603Q58.31875 273.27603 58.896873 273.27603Q59.490623 273.27603 59.88125 272.77603Q60.271873 272.2604 60.271873 270.91666Q60.271873 269.66666 59.88125 269.16666Q59.490623 268.65103 58.896873 268.65103ZM58.9125 281.1354L65.95937 267.55728L67.24062 267.55728L60.209373 281.1354L58.9125 281.1354ZM64.475 277.6354Q64.475 276.2604 65.1625 275.29166Q65.86562 274.3229 67.19375 274.3229Q68.4125 274.3229 69.19375 275.1979Q69.99062 276.05728 69.99062 277.74478Q69.99062 279.36978 69.19375 280.2604Q68.39687 281.1354 67.20937 281.1354Q66.0375 281.1354 65.25625 280.2604Q64.475 279.3854 64.475 277.6354ZM67.24062 275.41666Q66.64687 275.41666 66.25625 275.93228Q65.86562 276.43228 65.86562 277.80728Q65.86562 279.02603 66.25625 279.54166Q66.64687 280.05728 67.225 280.05728Q67.83437 280.05728 68.225 279.54166Q68.61562 279.02603 68.61562 277.68228Q68.61562 276.43228 68.225 275.93228Q67.83437 275.41666 67.24062 275.41666Z" fill-rule="nonzero"/><path stroke="#757575" stroke-width="1.0" stroke-linecap="butt" d="M30.1 262.16666L243.38333 262.16666L273.8902 260.35544" fill-rule="nonzero"/><path fill="#9e9e9e" d="M275.8902 260.35544C275.8902 259.25085 274.99475 258.35544 273.8902 258.35544C272.7856 258.35544 271.8902 259.25085 271.8902 260.35544C271.8902 261.46002 272.7856 262.35544 273.8902 262.35544C274.99475 262.35544 275.8902 261.46002 275.8902 260.35544" fill-rule="nonzero"/><path fill="#1a1a1a" d="M31.44375 383.80072L31.44375 370.9101L34.00625 370.9101L37.053123 380.0351Q37.475 381.31635 37.6625 381.94135Q37.88125 381.23822 38.35 379.87885L41.44375 370.9101L43.725 370.9101L43.725 383.80072L42.084373 383.80072L42.084373 373.01947L38.35 383.80072L36.803123 383.80072L33.084373 372.83197L33.084373 383.80072L31.44375 383.80072ZM52.678123 380.80072L54.31875 381.00385Q53.928123 382.42572 52.88125 383.2226Q51.834373 384.01947 50.209373 384.01947Q48.1625 384.01947 46.959373 382.75385Q45.75625 381.48822 45.75625 379.20697Q45.75625 376.86322 46.959373 375.56635Q48.178123 374.25385 50.115623 374.25385Q51.990623 374.25385 53.178123 375.5351Q54.365623 376.80072 54.365623 379.11322Q54.365623 379.25385 54.35 379.5351L47.396873 379.5351Q47.475 381.08197 48.25625 381.89447Q49.053123 382.70697 50.209373 382.70697Q51.084373 382.70697 51.69375 382.25385Q52.31875 381.80072 52.678123 380.80072ZM47.475 378.23822L52.69375 378.23822Q52.584373 377.06635 52.1 376.4726Q51.334373 375.55072 50.13125 375.55072Q49.053123 375.55072 48.303123 376.2851Q47.56875 377.01947 47.475 378.23822ZM62.35 383.80072L62.35 382.62885Q61.459373 384.01947 59.725 384.01947Q58.615623 384.01947 57.678123 383.4101Q56.740623 382.7851 56.225 381.69135Q55.709373 380.58197 55.709373 379.14447Q55.709373 377.73822 56.178123 376.61322Q56.646873 375.4726 57.56875 374.86322Q58.50625 374.25385 59.6625 374.25385Q60.50625 374.25385 61.1625 374.61322Q61.81875 374.9726 62.240623 375.5351L62.240623 370.9101L63.803123 370.9101L63.803123 383.80072L62.35 383.80072ZM57.334373 379.14447Q57.334373 380.94135 58.084373 381.83197Q58.85 382.70697 59.88125 382.70697Q60.9125 382.70697 61.63125 381.86322Q62.365623 381.01947 62.365623 379.26947Q62.365623 377.36322 61.63125 376.4726Q60.896873 375.56635 59.81875 375.56635Q58.75625 375.56635 58.0375 376.42572Q57.334373 377.2851 57.334373 379.14447ZM66.30312 372.73822L66.30312 370.9101L67.88125 370.9101L67.88125 372.73822L66.30312 372.73822ZM66.30312 383.80072L66.30312 374.4726L67.88125 374.4726L67.88125 383.80072L66.30312 383.80072ZM76.39687 383.80072L76.39687 382.42572Q75.31875 384.01947 73.44375 384.01947Q72.61562 384.01947 71.89687 383.70697Q71.17812 383.37885 70.83437 382.9101Q70.49062 382.42572 70.35 381.7226Q70.25625 381.25385 70.25625 380.25385L70.25625 374.4726L71.83437 374.4726L71.83437 379.64447Q71.83437 380.87885 71.92812 381.31635Q72.08437 381.94135 72.56875 382.30072Q73.05312 382.64447 73.75625 382.64447Q74.475 382.64447 75.1 382.2851Q75.725 381.92572 75.975 381.30072Q76.24062 380.6601 76.24062 379.4726L76.24062 374.4726L77.81875 374.4726L77.81875 383.80072L76.39687 383.80072ZM80.2875 383.80072L80.2875 374.4726L81.70937 374.4726L81.70937 375.76947Q82.14687 375.0976 82.86562 374.67572Q83.6 374.25385 84.5375 374.25385Q85.56875 374.25385 86.225 374.69135Q86.89687 375.11322 87.1625 375.89447Q88.27187 374.25385 90.05312 374.25385Q91.44375 374.25385 92.17812 375.0351Q92.92812 375.80072 92.92812 377.39447L92.92812 383.80072L91.36562 383.80072L91.36562 377.92572Q91.36562 376.9726 91.20937 376.55072Q91.05312 376.12885 90.64687 375.87885Q90.24062 375.62885 89.69375 375.62885Q88.70937 375.62885 88.05312 376.2851Q87.4125 376.94135 87.4125 378.37885L87.4125 383.80072L85.83437 383.80072L85.83437 377.73822Q85.83437 376.67572 85.44375 376.1601Q85.05312 375.62885 84.17812 375.62885Q83.50625 375.62885 82.94375 375.98822Q82.38125 376.33197 82.11562 377.00385Q81.86562 377.67572 81.86562 378.95697L81.86562 383.80072L80.2875 383.80072ZM98.67812 379.92572L98.67812 378.3476L103.5375 378.3476L103.5375 379.92572L98.67812 379.92572ZM110.58437 383.80072L110.58437 370.9101L119.27187 370.9101L119.27187 372.44135L112.2875 372.44135L112.2875 376.42572L118.33437 376.42572L118.33437 377.94135L112.2875 377.94135L112.2875 383.80072L110.58437 383.80072ZM121.30312 372.73822L121.30312 370.9101L122.88125 370.9101L122.88125 372.73822L121.30312 372.73822ZM121.30312 383.80072L121.30312 374.4726L122.88125 374.4726L122.88125 383.80072L121.30312 383.80072ZM124.225 383.80072L127.64687 378.94135L124.49062 374.4726L126.45937 374.4726L127.89687 376.6601Q128.30313 377.2851 128.55313 377.70697Q128.92813 377.11322 129.25626 376.67572L130.83438 374.4726L132.725 374.4726L129.49063 378.86322L132.975 383.80072L131.02188 383.80072L129.11563 380.89447L128.6 380.11322L126.14687 383.80072L124.225 383.80072ZM139.38126 382.64447Q138.50626 383.39447 137.67813 383.70697Q136.86563 384.01947 135.94376 384.01947Q134.39688 384.01947 133.56876 383.26947Q132.75626 382.50385 132.75626 381.33197Q132.75626 380.6601 133.06876 380.0976Q133.38126 379.51947 133.88126 379.17572Q134.38126 378.83197 135.02188 378.6601Q135.49063 378.5351 136.42813 378.42572Q138.33438 378.19135 139.24063 377.87885Q139.25626 377.55072 139.25626 377.45697Q139.25626 376.50385 138.80313 376.0976Q138.19376 375.56635 137.00626 375.56635Q135.88126 375.56635 135.35 375.95697Q134.81876 376.3476 134.56876 377.3476L133.02188 377.12885Q133.24063 376.12885 133.70938 375.51947Q134.19376 374.9101 135.1 374.58197Q136.02188 374.25385 137.24063 374.25385Q138.42813 374.25385 139.17813 374.5351Q139.92813 374.81635 140.27188 375.25385Q140.63126 375.67572 140.77188 376.31635Q140.85 376.7226 140.85 377.7851L140.85 379.89447Q140.85 382.0976 140.94376 382.69135Q141.05313 383.26947 141.35 383.80072L139.69376 383.80072Q139.44376 383.30072 139.38126 382.64447ZM139.24063 379.11322Q138.38126 379.4726 136.6625 379.70697Q135.69376 379.8476 135.2875 380.0351Q134.88126 380.20697 134.6625 380.55072Q134.44376 380.87885 134.44376 381.30072Q134.44376 381.92572 134.9125 382.3476Q135.39688 382.76947 136.31876 382.76947Q137.24063 382.76947 137.94376 382.37885Q138.6625 381.9726 138.99063 381.2851Q139.24063 380.73822 139.24063 379.69135L139.24063 379.11322ZM144.74063 383.80072L143.27188 383.80072L143.27188 370.9101L144.86563 370.9101L144.86563 375.51947Q145.86563 374.25385 147.4125 374.25385Q148.27188 374.25385 149.0375 374.61322Q149.81876 374.95697 150.30313 375.58197Q150.80313 376.20697 151.08438 377.0976Q151.36563 377.98822 151.36563 378.98822Q151.36563 381.39447 150.17813 382.70697Q149.00626 384.01947 147.33438 384.01947Q145.69376 384.01947 144.74063 382.62885L144.74063 383.80072ZM144.725 379.06635Q144.725 380.73822 145.17813 381.48822Q145.92813 382.70697 147.20938 382.70697Q148.24063 382.70697 148.99063 381.81635Q149.75626 380.9101 149.75626 379.12885Q149.75626 377.30072 149.02188 376.42572Q148.30313 375.55072 147.27188 375.55072Q146.24063 375.55072 145.475 376.45697Q144.725 377.36322 144.725 379.06635ZM153.25626 383.80072L153.25626 370.9101L154.83438 370.9101L154.83438 383.80072L153.25626 383.80072ZM163.67813 380.80072L165.31876 381.00385Q164.92813 382.42572 163.88126 383.2226Q162.83438 384.01947 161.20938 384.01947Q159.1625 384.01947 157.95938 382.75385Q156.75626 381.48822 156.75626 379.20697Q156.75626 376.86322 157.95938 375.56635Q159.17813 374.25385 161.11563 374.25385Q162.99063 374.25385 164.17813 375.5351Q165.36563 376.80072 165.36563 379.11322Q165.36563 379.25385 165.35 379.5351L158.39688 379.5351Q158.475 381.08197 159.25626 381.89447Q160.05313 382.70697 161.20938 382.70697Q162.08438 382.70697 162.69376 382.25385Q163.31876 381.80072 163.67813 380.80072ZM158.475 378.23822L163.69376 378.23822Q163.58438 377.06635 163.1 376.4726Q162.33438 375.55072 161.13126 375.55072Q160.05313 375.55072 159.30313 376.2851Q158.56876 377.01947 158.475 378.23822Z" fill-rule="nonzero"/><path fill="#9e9e9e" d="M31.084375 405.81635L32.6 405.67572Q32.803123 406.75385 33.334373 407.23822Q33.88125 407.7226 34.740623 407.7226Q35.475 407.7226 36.021873 407.39447Q36.56875 407.05072 36.9125 406.50385Q37.271873 405.94135 37.50625 404.98822Q37.740623 404.0351 37.740623 403.05072Q37.740623 402.94135 37.740623 402.73822Q37.25625 403.48822 36.428123 403.95697Q35.615623 404.42572 34.6625 404.42572Q33.06875 404.42572 31.959375 403.26947Q30.85 402.11322 30.85 400.20697Q30.85 398.25385 32.00625 397.06635Q33.1625 395.86322 34.896873 395.86322Q36.1625 395.86322 37.19375 396.55072Q38.240623 397.2226 38.771873 398.4726Q39.31875 399.7226 39.31875 402.0976Q39.31875 404.56635 38.771873 406.0351Q38.240623 407.48822 37.178123 408.25385Q36.13125 409.01947 34.709373 409.01947Q33.19375 409.01947 32.225 408.19135Q31.271875 407.3476 31.084375 405.81635ZM37.56875 400.12885Q37.56875 398.76947 36.834373 397.9726Q36.115623 397.17572 35.1 397.17572Q34.0375 397.17572 33.25625 398.0351Q32.475 398.89447 32.475 400.26947Q32.475 401.50385 33.209373 402.26947Q33.959373 403.0351 35.053123 403.0351Q36.146873 403.0351 36.85 402.26947Q37.56875 401.50385 37.56875 400.12885ZM41.740623 408.80072L41.740623 407.00385L43.5375 407.00385L43.5375 408.80072L41.740623 408.80072ZM45.85 402.44135Q45.85 400.1601 46.31875 398.76947Q46.7875 397.37885 47.709373 396.62885Q48.646873 395.86322 50.053123 395.86322Q51.084373 395.86322 51.865623 396.2851Q52.646873 396.69135 53.146873 397.48822Q53.6625 398.26947 53.959373 399.4101Q54.25625 400.5351 54.25625 402.44135Q54.25625 404.70697 53.7875 406.11322Q53.31875 407.50385 52.38125 408.26947Q51.459373 409.01947 50.053123 409.01947Q48.178123 409.01947 47.115623 407.69135Q45.85 406.08197 45.85 402.44135ZM47.475 402.44135Q47.475 405.61322 48.209373 406.67572Q48.959373 407.7226 50.053123 407.7226Q51.13125 407.7226 51.88125 406.67572Q52.63125 405.61322 52.63125 402.44135Q52.63125 399.26947 51.88125 398.2226Q51.13125 397.17572 50.0375 397.17572Q48.94375 397.17572 48.2875 398.0976Q47.475 399.26947 47.475 402.44135ZM56.146873 399.00385Q56.146873 397.62885 56.834373 396.6601Q57.5375 395.69135 58.85 395.69135Q60.06875 395.69135 60.865623 396.56635Q61.6625 397.42572 61.6625 399.11322Q61.6625 400.73822 60.85 401.62885Q60.053123 402.50385 58.865623 402.50385Q57.709373 402.50385 56.928123 401.64447Q56.146873 400.76947 56.146873 399.00385ZM58.896873 396.7851Q58.303123 396.7851 57.9125 397.30072Q57.521873 397.80072 57.521873 399.1601Q57.521873 400.4101 57.9125 400.9101Q58.31875 401.4101 58.896873 401.4101Q59.490623 401.4101 59.88125 400.9101Q60.271873 400.39447 60.271873 399.05072Q60.271873 397.80072 59.88125 397.30072Q59.490623 396.7851 58.896873 396.7851ZM58.9125 409.26947L65.95937 395.69135L67.24062 395.69135L60.209373 409.26947L58.9125 409.26947ZM64.475 405.76947Q64.475 404.39447 65.1625 403.42572Q65.86562 402.45697 67.19375 402.45697Q68.4125 402.45697 69.19375 403.33197Q69.99062 404.19135 69.99062 405.87885Q69.99062 407.50385 69.19375 408.39447Q68.39687 409.26947 67.20937 409.26947Q66.0375 409.26947 65.25625 408.39447Q64.475 407.51947 64.475 405.76947ZM67.24062 403.55072Q66.64687 403.55072 66.25625 404.06635Q65.86562 404.56635 65.86562 405.94135Q65.86562 407.1601 66.25625 407.67572Q66.64687 408.19135 67.225 408.19135Q67.83437 408.19135 68.225 407.67572Q68.61562 407.1601 68.61562 405.81635Q68.61562 404.56635 68.225 404.06635Q67.83437 403.55072 67.24062 403.55072Z" fill-rule="nonzero"/><path stroke="#757575" stroke-width="1.0" stroke-linecap="butt" d="M30.1 390.30072L243.38333 390.30072L268.18768 390.30072" fill-rule="nonzero"/><path fill="#9e9e9e" d="M270.18768 390.30072C270.18768 389.19614 269.29227 388.30072 268.18768 388.30072C267.08313 388.30072 266.18768 389.19614 266.18768 390.30072C266.18768 391.40527 267.08313 392.30072 268.18768 392.30072C269.29227 392.30072 270.18768 391.40527 270.18768 390.30072" fill-rule="nonzero"/><path fill="#1a1a1a" d="M838.2125 114.666664L838.2125 101.77604L839.9313 101.77604L839.9313 113.15104L846.275 113.15104L846.275 114.666664L838.2125 114.666664ZM847.4938 109.99479Q847.4938 107.40104 848.9469 106.15104Q850.15 105.11979 851.8688 105.11979Q853.8063 105.11979 855.025 106.385414Q856.2438 107.65104 856.2438 109.86979Q856.2438 111.666664 855.6969 112.697914Q855.16565 113.729164 854.1344 114.30729Q853.10315 114.885414 851.8688 114.885414Q849.91565 114.885414 848.6969 113.635414Q847.4938 112.36979 847.4938 109.99479ZM849.1188 109.99479Q849.1188 111.791664 849.9 112.68229Q850.6813 113.572914 851.8688 113.572914Q853.0563 113.572914 853.8375 112.68229Q854.6188 111.77604 854.6188 109.947914Q854.6188 108.21354 853.8219 107.322914Q853.04065 106.43229 851.8688 106.43229Q850.6813 106.43229 849.9 107.322914Q849.1188 108.21354 849.1188 109.99479ZM859.8063 114.666664L856.9469 105.33854L858.5875 105.33854L860.0719 110.71354L860.6344 112.729164Q860.66565 112.572914 861.10315 110.791664L862.60315 105.33854L864.22815 105.33854L865.6188 110.74479L866.0875 112.52604L866.6188 110.729164L868.22815 105.33854L869.7594 105.33854L866.8375 114.666664L865.1969 114.666664L863.7125 109.072914L863.35315 107.479164L861.4625 114.666664L859.8063 114.666664ZM875.47815 110.791664L875.47815 109.21354L880.3375 109.21354L880.3375 110.791664L875.47815 110.791664ZM887.3844 114.666664L887.3844 101.77604L896.0719 101.77604L896.0719 103.30729L889.0875 103.30729L889.0875 107.291664L895.1344 107.291664L895.1344 108.80729L889.0875 108.80729L889.0875 114.666664L887.3844 114.666664ZM898.10315 103.604164L898.10315 101.77604L899.6813 101.77604L899.6813 103.604164L898.10315 103.604164ZM898.10315 114.666664L898.10315 105.33854L899.6813 105.33854L899.6813 114.666664L898.10315 114.666664ZM901.025 114.666664L904.4469 109.80729L901.29065 105.33854L903.2594 105.33854L904.6969 107.52604Q905.10315 108.15104 905.35315 108.572914Q905.72815 107.979164 906.0563 107.541664L907.6344 105.33854L909.525 105.33854L906.29065 109.729164L909.775 114.666664L907.8219 114.666664L905.91565 111.760414L905.4 110.979164L902.9469 114.666664L901.025 114.666664ZM916.1813 113.510414Q915.3063 114.260414 914.47815 114.572914Q913.66565 114.885414 912.7438 114.885414Q911.1969 114.885414 910.3688 114.135414Q909.5563 113.36979 909.5563 112.197914Q909.5563 111.52604 909.8688 110.96354Q910.1813 110.385414 910.6813 110.041664Q911.1813 109.697914 911.8219 109.52604Q912.29065 109.40104 913.22815 109.291664Q915.1344 109.05729 916.04065 108.74479Q916.0563 108.416664 916.0563 108.322914Q916.0563 107.36979 915.60315 106.96354Q914.9938 106.43229 913.8063 106.43229Q912.6813 106.43229 912.15 106.822914Q911.6188 107.21354 911.3688 108.21354L909.8219 107.99479Q910.04065 106.99479 910.5094 106.385414Q910.9938 105.77604 911.9 105.447914Q912.8219 105.11979 914.04065 105.11979Q915.22815 105.11979 915.97815 105.40104Q916.72815 105.68229 917.0719 106.11979Q917.4313 106.541664 917.5719 107.18229Q917.65 107.58854 917.65 108.65104L917.65 110.760414Q917.65 112.96354 917.7438 113.55729Q917.85315 114.135414 918.15 114.666664L916.4938 114.666664Q916.2438 114.166664 916.1813 113.510414ZM916.04065 109.979164Q915.1813 110.33854 913.4625 110.572914Q912.4938 110.71354 912.0875 110.90104Q911.6813 111.072914 911.4625 111.416664Q911.2438 111.74479 911.2438 112.166664Q911.2438 112.791664 911.7125 113.21354Q912.1969 113.635414 913.1188 113.635414Q914.04065 113.635414 914.7438 113.24479Q915.4625 112.83854 915.79065 112.15104Q916.04065 111.604164 916.04065 110.55729L916.04065 109.979164ZM921.54065 114.666664L920.0719 114.666664L920.0719 101.77604L921.66565 101.77604L921.66565 106.385414Q922.66565 105.11979 924.2125 105.11979Q925.0719 105.11979 925.8375 105.479164Q926.6188 105.822914 927.10315 106.447914Q927.60315 107.072914 927.8844 107.96354Q928.16565 108.854164 928.16565 109.854164Q928.16565 112.260414 926.97815 113.572914Q925.8063 114.885414 924.1344 114.885414Q922.4938 114.885414 921.54065 113.49479L921.54065 114.666664ZM921.525 109.93229Q921.525 111.604164 921.97815 112.354164Q922.72815 113.572914 924.0094 113.572914Q925.04065 113.572914 925.79065 112.68229Q926.5563 111.77604 926.5563 109.99479Q926.5563 108.166664 925.8219 107.291664Q925.10315 106.416664 924.0719 106.416664Q923.04065 106.416664 922.275 107.322914Q921.525 108.229164 921.525 109.93229ZM930.0563 114.666664L930.0563 101.77604L931.6344 101.77604L931.6344 114.666664L930.0563 114.666664ZM940.47815 111.666664L942.1188 111.86979Q941.72815 113.291664 940.6813 114.08854Q939.6344 114.885414 938.0094 114.885414Q935.9625 114.885414 934.7594 113.61979Q933.5563 112.354164 933.5563 110.072914Q933.5563 107.729164 934.7594 106.43229Q935.97815 105.11979 937.91565 105.11979Q939.79065 105.11979 940.97815 106.40104Q942.16565 107.666664 942.16565 109.979164Q942.16565 110.11979 942.15 110.40104L935.1969 110.40104Q935.275 111.947914 936.0563 112.760414Q936.85315 113.572914 938.0094 113.572914Q938.8844 113.572914 939.4938 113.11979Q940.1188 112.666664 940.47815 111.666664ZM935.275 109.104164L940.4938 109.104164Q940.3844 107.93229 939.9 107.33854Q939.1344 106.416664 937.9313 106.416664Q936.85315 106.416664 936.10315 107.15104Q935.3688 107.885414 935.275 109.104164Z" fill-rule="nonzero"/><path fill="#9e9e9e" d="M902.65 136.26042L904.2438 136.0573Q904.5094 137.40105 905.16565 137.9948Q905.8219 138.58855 906.7594 138.58855Q907.8844 138.58855 908.65 137.82292Q909.41565 137.04167 909.41565 135.90105Q909.41565 134.8073 908.6969 134.10417Q907.9938 133.38542 906.9 133.38542Q906.4469 133.38542 905.775 133.57292L905.9469 132.1823Q906.10315 132.19792 906.2125 132.19792Q907.2125 132.19792 908.025 131.66667Q908.8375 131.13542 908.8375 130.04167Q908.8375 129.16667 908.2438 128.60417Q907.65 128.02605 906.72815 128.02605Q905.8063 128.02605 905.1813 128.60417Q904.5719 129.1823 904.4 130.35417L902.8219 130.07292Q903.10315 128.47917 904.1344 127.60417Q905.16565 126.72917 906.6969 126.72917Q907.7438 126.72917 908.6344 127.1823Q909.525 127.63542 909.9938 128.41667Q910.4625 129.19792 910.4625 130.07292Q910.4625 130.91667 910.0094 131.60417Q909.5719 132.27605 908.6813 132.6823Q909.8219 132.94792 910.4469 133.79167Q911.0875 134.6198 911.0875 135.85417Q911.0875 137.54167 909.85315 138.72917Q908.6344 139.90105 906.7594 139.90105Q905.0563 139.90105 903.9313 138.88542Q902.8219 137.8698 902.65 136.26042ZM913.54065 139.66667L913.54065 137.8698L915.3375 137.8698L915.3375 139.66667L913.54065 139.66667ZM923.60315 139.66667L922.025 139.66667L922.025 129.58855Q921.4469 130.13542 920.525 130.6823Q919.60315 131.21355 918.85315 131.4948L918.85315 129.96355Q920.1813 129.33855 921.1813 128.44792Q922.1813 127.5573 922.5875 126.72917L923.60315 126.72917L923.60315 139.66667ZM927.9469 129.8698Q927.9469 128.4948 928.6344 127.52605Q929.3375 126.5573 930.65 126.5573Q931.8688 126.5573 932.66565 127.4323Q933.4625 128.29167 933.4625 129.97917Q933.4625 131.60417 932.65 132.4948Q931.85315 133.3698 930.66565 133.3698Q929.5094 133.3698 928.72815 132.51042Q927.9469 131.63542 927.9469 129.8698ZM930.6969 127.65105Q930.10315 127.65105 929.7125 128.16667Q929.3219 128.66667 929.3219 130.02605Q929.3219 131.27605 929.7125 131.77605Q930.1188 132.27605 930.6969 132.27605Q931.29065 132.27605 931.6813 131.77605Q932.0719 131.26042 932.0719 129.91667Q932.0719 128.66667 931.6813 128.16667Q931.29065 127.65105 930.6969 127.65105ZM930.7125 140.13542L937.7594 126.5573L939.04065 126.5573L932.0094 140.13542L930.7125 140.13542ZM936.275 136.63542Q936.275 135.26042 936.9625 134.29167Q937.66565 133.32292 938.9938 133.32292Q940.2125 133.32292 940.9938 134.19792Q941.79065 135.0573 941.79065 136.7448Q941.79065 138.3698 940.9938 139.26042Q940.1969 140.13542 939.0094 140.13542Q937.8375 140.13542 937.0563 139.26042Q936.275 138.38542 936.275 136.63542ZM939.04065 134.41667Q938.4469 134.41667 938.0563 134.9323Q937.66565 135.4323 937.66565 136.8073Q937.66565 138.02605 938.0563 138.54167Q938.4469 139.0573 939.025 139.0573Q939.6344 139.0573 940.025 138.54167Q940.41565 138.02605 940.41565 136.6823Q940.41565 135.4323 940.025 134.9323Q939.6344 134.41667 939.04065 134.41667Z" fill-rule="nonzero"/><path stroke="#757575" stroke-width="1.0" stroke-linecap="butt" d="M942.9 121.166664L729.61664 121.166664L508.4565 110.59512" fill-rule="nonzero"/><path fill="#9e9e9e" d="M510.4565 110.59512C510.4565 109.490555 509.5611 108.59512 508.4565 108.59512C507.35196 108.59512 506.4565 109.490555 506.4565 110.59512C506.4565 111.69969 507.35196 112.59512 508.4565 112.59512C509.5611 112.59512 510.4565 111.69969 510.4565 110.59512" fill-rule="nonzero"/><path fill="#1a1a1a" d="M844.2125 458.55273L844.2125 445.6621L845.9313 445.6621L845.9313 457.0371L852.275 457.0371L852.275 458.55273L844.2125 458.55273ZM853.4938 453.88086Q853.4938 451.2871 854.9469 450.0371Q856.15 449.00586 857.8688 449.00586Q859.8063 449.00586 861.025 450.27148Q862.2438 451.5371 862.2438 453.75586Q862.2438 455.55273 861.6969 456.58398Q861.16565 457.61523 860.1344 458.19336Q859.10315 458.77148 857.8688 458.77148Q855.91565 458.77148 854.6969 457.52148Q853.4938 456.25586 853.4938 453.88086ZM855.1188 453.88086Q855.1188 455.67773 855.9 456.56836Q856.6813 457.45898 857.8688 457.45898Q859.0563 457.45898 859.8375 456.56836Q860.6188 455.6621 860.6188 453.83398Q860.6188 452.0996 859.8219 451.20898Q859.04065 450.31836 857.8688 450.31836Q856.6813 450.31836 855.9 451.20898Q855.1188 452.0996 855.1188 453.88086ZM865.8063 458.55273L862.9469 449.2246L864.5875 449.2246L866.0719 454.5996L866.6344 456.61523Q866.66565 456.45898 867.10315 454.67773L868.60315 449.2246L870.22815 449.2246L871.6188 454.63086L872.0875 456.4121L872.6188 454.61523L874.22815 449.2246L875.7594 449.2246L872.8375 458.55273L871.1969 458.55273L869.7125 452.95898L869.35315 451.36523L867.4625 458.55273L865.8063 458.55273ZM881.47815 454.67773L881.47815 453.0996L886.3375 453.0996L886.3375 454.67773L881.47815 454.67773ZM893.275 458.55273L893.275 445.6621L895.025 445.6621L901.79065 455.7871L901.79065 445.6621L903.41565 445.6621L903.41565 458.55273L901.6813 458.55273L894.9 448.42773L894.9 458.55273L893.275 458.55273ZM905.4938 453.88086Q905.4938 451.2871 906.9469 450.0371Q908.15 449.00586 909.8688 449.00586Q911.8063 449.00586 913.025 450.27148Q914.2438 451.5371 914.2438 453.75586Q914.2438 455.55273 913.6969 456.58398Q913.16565 457.61523 912.1344 458.19336Q911.10315 458.77148 909.8688 458.77148Q907.91565 458.77148 906.6969 457.52148Q905.4938 456.25586 905.4938 453.88086ZM907.1188 453.88086Q907.1188 455.67773 907.9 456.56836Q908.6813 457.45898 909.8688 457.45898Q911.0563 457.45898 911.8375 456.56836Q912.6188 455.6621 912.6188 453.83398Q912.6188 452.0996 911.8219 451.20898Q911.04065 450.31836 909.8688 450.31836Q908.6813 450.31836 907.9 451.20898Q907.1188 452.0996 907.1188 453.88086ZM921.3844 458.55273L921.3844 445.6621L930.0719 445.6621L930.0719 447.19336L923.0875 447.19336L923.0875 451.17773L929.1344 451.17773L929.1344 452.69336L923.0875 452.69336L923.0875 458.55273L921.3844 458.55273ZM932.10315 447.49023L932.10315 445.6621L933.6813 445.6621L933.6813 447.49023L932.10315 447.49023ZM932.10315 458.55273L932.10315 449.2246L933.6813 449.2246L933.6813 458.55273L932.10315 458.55273ZM935.025 458.55273L938.4469 453.69336L935.29065 449.2246L937.2594 449.2246L938.6969 451.4121Q939.10315 452.0371 939.35315 452.45898Q939.72815 451.86523 940.0563 451.42773L941.6344 449.2246L943.525 449.2246L940.29065 453.61523L943.775 458.55273L941.8219 458.55273L939.91565 455.64648L939.4 454.86523L936.9469 458.55273L935.025 458.55273Z" fill-rule="nonzero"/><path fill="#9e9e9e" d="M900.85315 473.81836L899.29065 473.94336Q899.0719 473.02148 898.6813 472.5996Q898.04065 471.9121 897.10315 471.9121Q896.35315 471.9121 895.775 472.33398Q895.025 472.88086 894.5875 473.92773Q894.16565 474.9746 894.15 476.9121Q894.72815 476.0371 895.54065 475.61523Q896.3688 475.19336 897.275 475.19336Q898.8688 475.19336 899.97815 476.36523Q901.0875 477.52148 901.0875 479.36523Q901.0875 480.58398 900.5563 481.63086Q900.04065 482.6621 899.1188 483.2246Q898.2125 483.77148 897.0563 483.77148Q895.0719 483.77148 893.8219 482.31836Q892.5719 480.86523 892.5719 477.52148Q892.5719 473.7871 893.9625 472.08398Q895.16565 470.61523 897.1969 470.61523Q898.72815 470.61523 899.6969 471.4746Q900.66565 472.31836 900.85315 473.81836ZM894.4 479.38086Q894.4 480.19336 894.7438 480.94336Q895.0875 481.69336 895.7125 482.08398Q896.3375 482.4746 897.025 482.4746Q898.025 482.4746 898.7438 481.6621Q899.4625 480.8496 899.4625 479.45898Q899.4625 478.13086 898.7438 477.36523Q898.04065 476.58398 896.9625 476.58398Q895.8844 476.58398 895.1344 477.36523Q894.4 478.13086 894.4 479.38086ZM902.65 480.14648L904.2438 479.94336Q904.5094 481.2871 905.16565 481.88086Q905.8219 482.4746 906.7594 482.4746Q907.8844 482.4746 908.65 481.70898Q909.41565 480.92773 909.41565 479.7871Q909.41565 478.69336 908.6969 477.99023Q907.9938 477.27148 906.9 477.27148Q906.4469 477.27148 905.775 477.45898L905.9469 476.06836Q906.10315 476.08398 906.2125 476.08398Q907.2125 476.08398 908.025 475.55273Q908.8375 475.02148 908.8375 473.92773Q908.8375 473.05273 908.2438 472.49023Q907.65 471.9121 906.72815 471.9121Q905.8063 471.9121 905.1813 472.49023Q904.5719 473.06836 904.4 474.24023L902.8219 473.95898Q903.10315 472.36523 904.1344 471.49023Q905.16565 470.61523 906.6969 470.61523Q907.7438 470.61523 908.6344 471.06836Q909.525 471.52148 909.9938 472.30273Q910.4625 473.08398 910.4625 473.95898Q910.4625 474.80273 910.0094 475.49023Q909.5719 476.1621 908.6813 476.56836Q909.8219 476.83398 910.4469 477.67773Q911.0875 478.50586 911.0875 479.74023Q911.0875 481.42773 909.85315 482.61523Q908.6344 483.7871 906.7594 483.7871Q905.0563 483.7871 903.9313 482.77148Q902.8219 481.75586 902.65 480.14648ZM913.54065 483.55273L913.54065 481.75586L915.3375 481.75586L915.3375 483.55273L913.54065 483.55273ZM922.7125 483.55273L922.7125 480.4746L917.1344 480.4746L917.1344 479.02148L923.0094 470.6621L924.3063 470.6621L924.3063 479.02148L926.04065 479.02148L926.04065 480.4746L924.3063 480.4746L924.3063 483.55273L922.7125 483.55273ZM922.7125 479.02148L922.7125 473.20898L918.6813 479.02148L922.7125 479.02148ZM927.9469 473.75586Q927.9469 472.38086 928.6344 471.4121Q929.3375 470.44336 930.65 470.44336Q931.8688 470.44336 932.66565 471.31836Q933.4625 472.17773 933.4625 473.86523Q933.4625 475.49023 932.65 476.38086Q931.85315 477.25586 930.66565 477.25586Q929.5094 477.25586 928.72815 476.39648Q927.9469 475.52148 927.9469 473.75586ZM930.6969 471.5371Q930.10315 471.5371 929.7125 472.05273Q929.3219 472.55273 929.3219 473.9121Q929.3219 475.1621 929.7125 475.6621Q930.1188 476.1621 930.6969 476.1621Q931.29065 476.1621 931.6813 475.6621Q932.0719 475.14648 932.0719 473.80273Q932.0719 472.55273 931.6813 472.05273Q931.29065 471.5371 930.6969 471.5371ZM930.7125 484.02148L937.7594 470.44336L939.04065 470.44336L932.0094 484.02148L930.7125 484.02148ZM936.275 480.52148Q936.275 479.14648 936.9625 478.17773Q937.66565 477.20898 938.9938 477.20898Q940.2125 477.20898 940.9938 478.08398Q941.79065 478.94336 941.79065 480.63086Q941.79065 482.25586 940.9938 483.14648Q940.1969 484.02148 939.0094 484.02148Q937.8375 484.02148 937.0563 483.14648Q936.275 482.27148 936.275 480.52148ZM939.04065 478.30273Q938.4469 478.30273 938.0563 478.81836Q937.66565 479.31836 937.66565 480.69336Q937.66565 481.9121 938.0563 482.42773Q938.4469 482.94336 939.025 482.94336Q939.6344 482.94336 940.025 482.42773Q940.41565 481.9121 940.41565 480.56836Q940.41565 479.31836 940.025 478.81836Q939.6344 478.30273 939.04065 478.30273Z" fill-rule="nonzero"/><path stroke="#757575" stroke-width="1.0" stroke-linecap="butt" d="M942.9 465.05273L729.61664 465.05273L670.27246 465.05273" fill-rule="nonzero"/><path fill="#9e9e9e" d="M672.27246 465.05273C672.27246 463.94815 671.3771 463.05273 670.27246 463.05273C669.1679 463.05273 668.27246 463.94815 668.27246 465.05273C668.27246 466.1573 669.1679 467.05273 670.27246 467.05273C671.3771 467.05273 672.27246 466.1573 672.27246 465.05273" fill-rule="nonzero"/><path fill="#999999" d="M31.13125 74.6L31.13125 64.58437L32.459373 64.58437L32.459373 73.4125L37.38125 73.4125L37.38125 74.6L31.13125 74.6ZM43.75625 73.70937Q43.084373 74.2875 42.44375 74.5375Q41.81875 74.77187 41.084373 74.77187Q39.896873 74.77187 39.240623 74.19375Q38.6 73.6 38.6 72.67812Q38.6 72.14687 38.834373 71.70937Q39.084373 71.27187 39.475 71.00625Q39.88125 70.74062 40.365623 70.6Q40.725 70.50625 41.459373 70.4125Q42.959373 70.24062 43.6625 69.99062Q43.6625 69.74062 43.6625 69.67812Q43.6625 68.9125 43.31875 68.61562Q42.85 68.19375 41.9125 68.19375Q41.053123 68.19375 40.63125 68.50625Q40.225 68.80312 40.021873 69.56875L38.81875 69.4125Q38.975 68.63125 39.35 68.1625Q39.740623 67.69375 40.44375 67.44375Q41.1625 67.17812 42.1 67.17812Q43.021873 67.17812 43.6 67.39687Q44.178123 67.61562 44.44375 67.94375Q44.725 68.27187 44.834373 68.7875Q44.896873 69.1 44.896873 69.9125L44.896873 71.55312Q44.896873 73.27187 44.975 73.725Q45.053123 74.17812 45.2875 74.6L44.00625 74.6Q43.81875 74.20937 43.75625 73.70937ZM43.6625 70.95937Q42.990623 71.225 41.646873 71.42812Q40.896873 71.5375 40.56875 71.67812Q40.25625 71.80312 40.084373 72.06875Q39.9125 72.33437 39.9125 72.64687Q39.9125 73.14687 40.2875 73.475Q40.6625 73.80312 41.38125 73.80312Q42.1 73.80312 42.646873 73.49062Q43.19375 73.17812 43.459373 72.63125Q43.6625 72.225 43.6625 71.4125L43.6625 70.95937ZM46.5375 72.42812L47.740623 72.24062Q47.85 72.975 48.31875 73.36562Q48.7875 73.75625 49.63125 73.75625Q50.475 73.75625 50.88125 73.4125Q51.303123 73.06875 51.303123 72.6Q51.303123 72.17812 50.928123 71.94375Q50.678123 71.77187 49.678123 71.52187Q48.31875 71.17812 47.7875 70.92812Q47.271873 70.67812 47.00625 70.24062Q46.740623 69.80312 46.740623 69.27187Q46.740623 68.7875 46.959373 68.38125Q47.178123 67.95937 47.56875 67.67812Q47.85 67.475 48.334373 67.33437Q48.834373 67.17812 49.4125 67.17812Q50.25625 67.17812 50.896873 67.42812Q51.553123 67.6625 51.865623 68.08437Q52.178123 68.50625 52.2875 69.20937L51.084373 69.38125Q51.00625 68.81875 50.6 68.50625Q50.209373 68.19375 49.490623 68.19375Q48.646873 68.19375 48.2875 68.475Q47.928123 68.74062 47.928123 69.13125Q47.928123 69.36562 48.06875 69.55312Q48.225 69.75625 48.553123 69.88125Q48.725 69.94375 49.63125 70.19375Q50.94375 70.55312 51.459373 70.77187Q51.975 70.99062 52.25625 71.4125Q52.553123 71.83437 52.553123 72.45937Q52.553123 73.08437 52.19375 73.63125Q51.85 74.1625 51.1625 74.475Q50.490623 74.77187 49.63125 74.77187Q48.225 74.77187 47.475 74.17812Q46.740623 73.58437 46.5375 72.42812ZM56.709373 73.50625L56.88125 74.58437Q56.365623 74.69375 55.959373 74.69375Q55.2875 74.69375 54.9125 74.49062Q54.553123 74.27187 54.396873 73.92812Q54.25625 73.58437 54.25625 72.475L54.25625 68.30312L53.35 68.30312L53.35 67.33437L54.25625 67.33437L54.25625 65.5375L55.475 64.80312L55.475 67.33437L56.709373 67.33437L56.709373 68.30312L55.475 68.30312L55.475 72.5375Q55.475 73.06875 55.5375 73.225Q55.6 73.36562 55.740623 73.45937Q55.896873 73.55312 56.1625 73.55312Q56.38125 73.55312 56.709373 73.50625ZM61.69375 71.95937L62.9125 71.7875Q63.13125 72.83437 63.63125 73.30312Q64.14687 73.75625 64.88125 73.75625Q65.75625 73.75625 66.35 73.1625Q66.94375 72.55312 66.94375 71.6625Q66.94375 70.81875 66.38125 70.27187Q65.83437 69.725 64.99062 69.725Q64.63125 69.725 64.11562 69.85L64.25625 68.77187Q64.38125 68.7875 64.44375 68.7875Q65.24062 68.7875 65.86562 68.38125Q66.49062 67.975 66.49062 67.11562Q66.49062 66.44375 66.0375 66.00625Q65.58437 65.55312 64.85 65.55312Q64.13125 65.55312 63.646873 66.00625Q63.178123 66.44375 63.0375 67.35L61.81875 67.13125Q62.0375 65.89687 62.834373 65.225Q63.63125 64.5375 64.81875 64.5375Q65.64687 64.5375 66.33437 64.89687Q67.02187 65.24062 67.38125 65.85Q67.75625 66.45937 67.75625 67.14687Q67.75625 67.7875 67.4125 68.31875Q67.06875 68.85 66.38125 69.17812Q67.27187 69.38125 67.75625 70.02187Q68.25625 70.6625 68.25625 71.64687Q68.25625 72.95937 67.2875 73.86562Q66.33437 74.77187 64.88125 74.77187Q63.553123 74.77187 62.678123 73.99062Q61.81875 73.20937 61.69375 71.95937ZM69.67812 69.6625Q69.67812 67.88125 70.0375 66.80312Q70.4125 65.70937 71.13125 65.13125Q71.85 64.5375 72.94375 64.5375Q73.75625 64.5375 74.36562 64.86562Q74.975 65.19375 75.36562 65.80312Q75.77187 66.4125 75.99062 67.2875Q76.20937 68.1625 76.20937 69.6625Q76.20937 71.42812 75.85 72.50625Q75.49062 73.58437 74.77187 74.17812Q74.05312 74.77187 72.94375 74.77187Q71.50625 74.77187 70.67812 73.725Q69.67812 72.475 69.67812 69.6625ZM70.94375 69.6625Q70.94375 72.13125 71.52187 72.94375Q72.1 73.75625 72.94375 73.75625Q73.80312 73.75625 74.38125 72.94375Q74.95937 72.11562 74.95937 69.6625Q74.95937 67.17812 74.38125 66.36562Q73.80312 65.55312 72.92812 65.55312Q72.08437 65.55312 71.58437 66.27187Q70.94375 67.19375 70.94375 69.6625ZM82.17812 74.6L82.17812 64.58437L85.63125 64.58437Q86.80312 64.58437 87.4125 64.725Q88.27187 64.9125 88.88125 65.44375Q89.67812 66.11562 90.06875 67.1625Q90.45937 68.19375 90.45937 69.5375Q90.45937 70.67812 90.19375 71.56875Q89.92812 72.44375 89.50625 73.02187Q89.1 73.6 88.6 73.92812Q88.1 74.25625 87.39687 74.42812Q86.70937 74.6 85.80312 74.6L82.17812 74.6ZM83.50625 73.4125L85.64687 73.4125Q86.63125 73.4125 87.19375 73.24062Q87.77187 73.05312 88.1 72.70937Q88.56875 72.24062 88.83437 71.44375Q89.1 70.64687 89.1 69.50625Q89.1 67.94375 88.58437 67.1Q88.06875 66.25625 87.33437 65.95937Q86.7875 65.75625 85.61562 65.75625L83.50625 65.75625L83.50625 73.4125ZM96.75625 73.70937Q96.08437 74.2875 95.44375 74.5375Q94.81875 74.77187 94.08437 74.77187Q92.89687 74.77187 92.24062 74.19375Q91.6 73.6 91.6 72.67812Q91.6 72.14687 91.83437 71.70937Q92.08437 71.27187 92.475 71.00625Q92.88125 70.74062 93.36562 70.6Q93.725 70.50625 94.45937 70.4125Q95.95937 70.24062 96.6625 69.99062Q96.6625 69.74062 96.6625 69.67812Q96.6625 68.9125 96.31875 68.61562Q95.85 68.19375 94.9125 68.19375Q94.05312 68.19375 93.63125 68.50625Q93.225 68.80312 93.02187 69.56875L91.81875 69.4125Q91.975 68.63125 92.35 68.1625Q92.74062 67.69375 93.44375 67.44375Q94.1625 67.17812 95.1 67.17812Q96.02187 67.17812 96.6 67.39687Q97.17812 67.61562 97.44375 67.94375Q97.725 68.27187 97.83437 68.7875Q97.89687 69.1 97.89687 69.9125L97.89687 71.55312Q97.89687 73.27187 97.975 73.725Q98.05312 74.17812 98.2875 74.6L97.00625 74.6Q96.81875 74.20937 96.75625 73.70937ZM96.6625 70.95937Q95.99062 71.225 94.64687 71.42812Q93.89687 71.5375 93.56875 71.67812Q93.25625 71.80312 93.08437 72.06875Q92.9125 72.33437 92.9125 72.64687Q92.9125 73.14687 93.2875 73.475Q93.6625 73.80312 94.38125 73.80312Q95.1 73.80312 95.64687 73.49062Q96.19375 73.17812 96.45937 72.63125Q96.6625 72.225 96.6625 71.4125L96.6625 70.95937ZM99.975 77.39687L99.83437 76.24062Q100.24062 76.35 100.5375 76.35Q100.94375 76.35 101.19375 76.20937Q101.44375 76.08437 101.6 75.83437Q101.70937 75.64687 101.975 74.9125Q102.00625 74.81875 102.08437 74.61562L99.31875 67.33437L100.64687 67.33437L102.1625 71.5375Q102.45937 72.35 102.69375 73.225Q102.89687 72.38125 103.19375 71.56875L104.74062 67.33437L105.975 67.33437L103.20937 74.725Q102.77187 75.9125 102.52187 76.36562Q102.19375 76.975 101.77187 77.25625Q101.35 77.55312 100.75625 77.55312Q100.4125 77.55312 99.975 77.39687ZM106.5375 72.42812L107.74062 72.24062Q107.85 72.975 108.31875 73.36562Q108.7875 73.75625 109.63125 73.75625Q110.475 73.75625 110.88125 73.4125Q111.30312 73.06875 111.30312 72.6Q111.30312 72.17812 110.92812 71.94375Q110.67812 71.77187 109.67812 71.52187Q108.31875 71.17812 107.7875 70.92812Q107.27187 70.67812 107.00625 70.24062Q106.74062 69.80312 106.74062 69.27187Q106.74062 68.7875 106.95937 68.38125Q107.17812 67.95937 107.56875 67.67812Q107.85 67.475 108.33437 67.33437Q108.83437 67.17812 109.4125 67.17812Q110.25625 67.17812 110.89687 67.42812Q111.55312 67.6625 111.86562 68.08437Q112.17812 68.50625 112.2875 69.20937L111.08437 69.38125Q111.00625 68.81875 110.6 68.50625Q110.20937 68.19375 109.49062 68.19375Q108.64687 68.19375 108.2875 68.475Q107.92812 68.74062 107.92812 69.13125Q107.92812 69.36562 108.06875 69.55312Q108.225 69.75625 108.55312 69.88125Q108.725 69.94375 109.63125 70.19375Q110.94375 70.55312 111.45937 70.77187Q111.975 70.99062 112.25625 71.4125Q112.55312 71.83437 112.55312 72.45937Q112.55312 73.08437 112.19375 73.63125Q111.85 74.1625 111.1625 74.475Q110.49062 74.77187 109.63125 74.77187Q108.225 74.77187 107.475 74.17812Q106.74062 73.58437 106.5375 72.42812Z" fill-rule="nonzero"/><path fill="#757575" d="M31.646875 49.1L31.646875 34.7875L36.56875 34.7875Q38.240623 34.7875 39.13125 34.990623Q40.35 35.271873 41.225 36.00625Q42.35 36.975 42.9125 38.459373Q43.475 39.94375 43.475 41.865623Q43.475 43.490623 43.1 44.75625Q42.725 46.00625 42.115623 46.834373Q41.521873 47.6625 40.81875 48.146873Q40.115623 48.615623 39.115623 48.865623Q38.115623 49.1 36.803123 49.1L31.646875 49.1ZM33.5375 47.4125L36.6 47.4125Q38.00625 47.4125 38.803123 47.146873Q39.615623 46.88125 40.1 46.396873Q40.771873 45.725 41.146873 44.6Q41.521873 43.459373 41.521873 41.834373Q41.521873 39.584373 40.7875 38.38125Q40.053123 37.178123 38.990623 36.771873Q38.240623 36.475 36.553123 36.475L33.5375 36.475L33.5375 47.4125ZM45.428123 36.803123L45.428123 34.7875L47.19375 34.7875L47.19375 36.803123L45.428123 36.803123ZM45.428123 49.1L45.428123 38.725L47.19375 38.725L47.19375 49.1L45.428123 49.1ZM48.709373 46.00625L50.459373 45.725Q50.6 46.771873 51.271873 47.334373Q51.94375 47.88125 53.146873 47.88125Q54.35 47.88125 54.928123 47.396873Q55.521873 46.896873 55.521873 46.240623Q55.521873 45.646873 55.00625 45.303123Q54.646873 45.06875 53.209373 44.709373Q51.271873 44.209373 50.521873 43.865623Q49.7875 43.50625 49.396873 42.88125Q49.00625 42.240623 49.00625 41.475Q49.00625 40.7875 49.31875 40.19375Q49.646873 39.6 50.19375 39.209373Q50.6 38.9125 51.303123 38.709373Q52.021873 38.490623 52.834373 38.490623Q54.053123 38.490623 54.975 38.85Q55.896873 39.19375 56.334373 39.803123Q56.771873 40.396873 56.94375 41.396873L55.225 41.63125Q55.1 40.834373 54.5375 40.396873Q53.975 39.94375 52.959373 39.94375Q51.740623 39.94375 51.225 40.35Q50.709373 40.740623 50.709373 41.271873Q50.709373 41.615623 50.928123 41.896873Q51.13125 42.178123 51.6 42.365623Q51.865623 42.459373 53.146873 42.803123Q55.021873 43.303123 55.75625 43.63125Q56.490623 43.94375 56.9125 44.553123Q57.334373 45.146873 57.334373 46.053123Q57.334373 46.928123 56.81875 47.709373Q56.303123 48.490623 55.334373 48.9125Q54.365623 49.334373 53.146873 49.334373Q51.13125 49.334373 50.06875 48.490623Q49.00625 47.646873 48.709373 46.00625ZM63.25625 47.521873L63.50625 49.084373Q62.771873 49.240623 62.178123 49.240623Q61.225 49.240623 60.69375 48.94375Q60.178123 48.63125 59.959373 48.146873Q59.740623 47.646873 59.740623 46.06875L59.740623 40.1L58.459373 40.1L58.459373 38.725L59.740623 38.725L59.740623 36.1625L61.490623 35.1L61.490623 38.725L63.25625 38.725L63.25625 40.1L61.490623 40.1L61.490623 46.1625Q61.490623 46.9125 61.584373 47.13125Q61.678123 47.334373 61.88125 47.475Q62.1 47.6 62.490623 47.6Q62.771873 47.6 63.25625 47.521873ZM65.39687 49.1L65.39687 38.725L66.975 38.725L66.975 40.303123Q67.58437 39.19375 68.1 38.85Q68.61562 38.490623 69.225 38.490623Q70.11562 38.490623 71.0375 39.053123L70.42812 40.69375Q69.7875 40.303123 69.14687 40.303123Q68.56875 40.303123 68.1 40.6625Q67.64687 41.00625 67.44375 41.615623Q67.1625 42.553123 67.1625 43.6625L67.1625 49.1L65.39687 49.1ZM72.42812 36.803123L72.42812 34.7875L74.19375 34.7875L74.19375 36.803123L72.42812 36.803123ZM72.42812 49.1L72.42812 38.725L74.19375 38.725L74.19375 49.1L72.42812 49.1ZM78.0375 49.1L76.4125 49.1L76.4125 34.7875L78.1625 34.7875L78.1625 39.896873Q79.2875 38.490623 81.00625 38.490623Q81.95937 38.490623 82.81875 38.88125Q83.67812 39.271873 84.225 39.975Q84.77187 40.6625 85.08437 41.646873Q85.39687 42.63125 85.39687 43.75625Q85.39687 46.428123 84.08437 47.88125Q82.77187 49.334373 80.92812 49.334373Q79.08437 49.334373 78.0375 47.803123L78.0375 49.1ZM78.02187 43.834373Q78.02187 45.69375 78.52187 46.5375Q79.36562 47.88125 80.77187 47.88125Q81.92812 47.88125 82.75625 46.88125Q83.6 45.88125 83.6 43.896873Q83.6 41.865623 82.7875 40.9125Q81.99062 39.94375 80.85 39.94375Q79.69375 39.94375 78.85 40.94375Q78.02187 41.94375 78.02187 43.834373ZM94.20937 49.1L94.20937 47.56875Q93.00625 49.334373 90.92812 49.334373Q90.00625 49.334373 89.20937 48.990623Q88.4125 48.63125 88.02187 48.1Q87.64687 47.56875 87.49062 46.7875Q87.38125 46.271873 87.38125 45.146873L87.38125 38.725L89.13125 38.725L89.13125 44.475Q89.13125 45.85 89.24062 46.334373Q89.4125 47.021873 89.94375 47.428123Q90.49062 47.81875 91.27187 47.81875Q92.06875 47.81875 92.75625 47.4125Q93.45937 47.00625 93.74062 46.31875Q94.0375 45.615623 94.0375 44.2875L94.0375 38.725L95.7875 38.725L95.7875 49.1L94.20937 49.1ZM101.25625 47.521873L101.50625 49.084373Q100.77187 49.240623 100.17812 49.240623Q99.225 49.240623 98.69375 48.94375Q98.17812 48.63125 97.95937 48.146873Q97.74062 47.646873 97.74062 46.06875L97.74062 40.1L96.45937 40.1L96.45937 38.725L97.74062 38.725L97.74062 36.1625L99.49062 35.1L99.49062 38.725L101.25625 38.725L101.25625 40.1L99.49062 40.1L99.49062 46.1625Q99.49062 46.9125 99.58437 47.13125Q99.67812 47.334373 99.88125 47.475Q100.1 47.6 100.49062 47.6Q100.77187 47.6 101.25625 47.521873ZM103.42812 36.803123L103.42812 34.7875L105.19375 34.7875L105.19375 36.803123L103.42812 36.803123ZM103.42812 49.1L103.42812 38.725L105.19375 38.725L105.19375 49.1L103.42812 49.1ZM106.77187 43.9125Q106.77187 41.0375 108.36562 39.646873Q109.70937 38.490623 111.63125 38.490623Q113.77187 38.490623 115.11562 39.896873Q116.475 41.303123 116.475 43.771873Q116.475 45.771873 115.88125 46.928123Q115.2875 48.06875 114.13125 48.709373Q112.99062 49.334373 111.63125 49.334373Q109.44375 49.334373 108.1 47.94375Q106.77187 46.5375 106.77187 43.9125ZM108.56875 43.9125Q108.56875 45.9125 109.42812 46.896873Q110.30312 47.88125 111.63125 47.88125Q112.94375 47.88125 113.80312 46.896873Q114.67812 45.896873 114.67812 43.85Q114.67812 41.928123 113.80312 40.94375Q112.92812 39.94375 111.63125 39.94375Q110.30312 39.94375 109.42812 40.94375Q108.56875 41.928123 108.56875 43.9125ZM118.4125 49.1L118.4125 38.725L120.00625 38.725L120.00625 40.209373Q121.14687 38.490623 123.30312 38.490623Q124.24062 38.490623 125.02187 38.834373Q125.81875 39.1625 126.20937 39.709373Q126.6 40.25625 126.75625 41.00625Q126.85 41.50625 126.85 42.725L126.85 49.1L125.08437 49.1L125.08437 42.7875Q125.08437 41.709373 124.88125 41.178123Q124.67812 40.646873 124.14687 40.334373Q123.63125 40.021873 122.92812 40.021873Q121.80312 40.021873 120.99062 40.740623Q120.17812 41.44375 120.17812 43.428123L120.17812 49.1L118.4125 49.1ZM133.77188 43.9125Q133.77188 41.0375 135.36563 39.646873Q136.70938 38.490623 138.63126 38.490623Q140.77188 38.490623 142.11563 39.896873Q143.475 41.303123 143.475 43.771873Q143.475 45.771873 142.88126 46.928123Q142.2875 48.06875 141.13126 48.709373Q139.99063 49.334373 138.63126 49.334373Q136.44376 49.334373 135.1 47.94375Q133.77188 46.5375 133.77188 43.9125ZM135.56876 43.9125Q135.56876 45.9125 136.42813 46.896873Q137.30313 47.88125 138.63126 47.88125Q139.94376 47.88125 140.80313 46.896873Q141.67813 45.896873 141.67813 43.85Q141.67813 41.928123 140.80313 40.94375Q139.92813 39.94375 138.63126 39.94375Q137.30313 39.94375 136.42813 40.94375Q135.56876 41.928123 135.56876 43.9125ZM145.83438 49.1L145.83438 40.1L144.2875 40.1L144.2875 38.725L145.83438 38.725L145.83438 37.63125Q145.83438 36.584373 146.02188 36.06875Q146.27188 35.38125 146.9125 34.959373Q147.55313 34.5375 148.70938 34.5375Q149.45938 34.5375 150.35 34.709373L150.08438 36.240623Q149.5375 36.146873 149.05313 36.146873Q148.25626 36.146873 147.9125 36.490623Q147.58438 36.834373 147.58438 37.771873L147.58438 38.725L149.61563 38.725L149.61563 40.1L147.58438 40.1L147.58438 49.1L145.83438 49.1ZM157.00626 44.50625L158.7875 44.35Q158.9125 45.4125 159.36563 46.1Q159.83438 46.7875 160.80313 47.225Q161.7875 47.646873 163.02188 47.646873Q164.1 47.646873 164.92813 47.334373Q165.75626 47.00625 166.1625 46.44375Q166.56876 45.88125 166.56876 45.209373Q166.56876 44.5375 166.17813 44.0375Q165.7875 43.5375 164.89688 43.19375Q164.31876 42.959373 162.33438 42.490623Q160.36563 42.021873 159.58438 41.6Q158.55313 41.06875 158.05313 40.271873Q157.55313 39.475 157.55313 38.490623Q157.55313 37.396873 158.1625 36.459373Q158.77188 35.521873 159.95938 35.0375Q161.14688 34.5375 162.58438 34.5375Q164.17813 34.5375 165.39688 35.053123Q166.61563 35.56875 167.25626 36.56875Q167.9125 37.553123 167.95938 38.81875L166.14688 38.959373Q166.00626 37.6 165.1625 36.9125Q164.31876 36.209373 162.6625 36.209373Q160.94376 36.209373 160.14688 36.85Q159.36563 37.475 159.36563 38.35Q159.36563 39.13125 159.92813 39.63125Q160.475 40.13125 162.7875 40.646873Q165.1 41.1625 165.95938 41.553123Q167.20938 42.13125 167.80313 43.021873Q168.39688 43.896873 168.39688 45.053123Q168.39688 46.19375 167.74063 47.209373Q167.08438 48.225 165.85 48.7875Q164.63126 49.35 163.1 49.35Q161.1625 49.35 159.85 48.7875Q158.5375 48.209373 157.7875 47.06875Q157.0375 45.928123 157.00626 44.50625ZM177.52188 45.75625L179.33438 45.990623Q178.9125 47.56875 177.74063 48.459373Q176.58438 49.334373 174.77188 49.334373Q172.50626 49.334373 171.1625 47.94375Q169.83438 46.5375 169.83438 44.00625Q169.83438 41.38125 171.17813 39.94375Q172.52188 38.490623 174.67813 38.490623Q176.75626 38.490623 178.06876 39.9125Q179.39688 41.31875 179.39688 43.896873Q179.39688 44.053123 179.38126 44.365623L171.64688 44.365623Q171.74063 46.06875 172.61563 46.975Q173.49063 47.88125 174.7875 47.88125Q175.75626 47.88125 176.42813 47.38125Q177.11563 46.865623 177.52188 45.75625ZM171.74063 42.9125L177.5375 42.9125Q177.42813 41.615623 176.88126 40.959373Q176.0375 39.94375 174.69376 39.94375Q173.49063 39.94375 172.6625 40.75625Q171.83438 41.553123 171.74063 42.9125ZM184.30313 49.1L180.35 38.725L182.20938 38.725L184.44376 44.94375Q184.80313 45.94375 185.1 47.021873Q185.33438 46.209373 185.75626 45.053123L188.05313 38.725L189.86563 38.725L185.94376 49.1L184.30313 49.1ZM197.52188 45.75625L199.33438 45.990623Q198.9125 47.56875 197.74063 48.459373Q196.58438 49.334373 194.77188 49.334373Q192.50626 49.334373 191.1625 47.94375Q189.83438 46.5375 189.83438 44.00625Q189.83438 41.38125 191.17813 39.94375Q192.52188 38.490623 194.67813 38.490623Q196.75626 38.490623 198.06876 39.9125Q199.39688 41.31875 199.39688 43.896873Q199.39688 44.053123 199.38126 44.365623L191.64688 44.365623Q191.74063 46.06875 192.61563 46.975Q193.49063 47.88125 194.7875 47.88125Q195.75626 47.88125 196.42813 47.38125Q197.11563 46.865623 197.52188 45.75625ZM191.74063 42.9125L197.5375 42.9125Q197.42813 41.615623 196.88126 40.959373Q196.0375 39.94375 194.69376 39.94375Q193.49063 39.94375 192.6625 40.75625Q191.83438 41.553123 191.74063 42.9125ZM201.39688 49.1L201.39688 38.725L202.975 38.725L202.975 40.303123Q203.58438 39.19375 204.1 38.85Q204.61563 38.490623 205.225 38.490623Q206.11563 38.490623 207.0375 39.053123L206.42813 40.69375Q205.7875 40.303123 205.14688 40.303123Q204.56876 40.303123 204.1 40.6625Q203.64688 41.00625 203.44376 41.615623Q203.1625 42.553123 203.1625 43.6625L203.1625 49.1L201.39688 49.1ZM208.42813 36.803123L208.42813 34.7875L210.19376 34.7875L210.19376 36.803123L208.42813 36.803123ZM208.42813 49.1L208.42813 38.725L210.19376 38.725L210.19376 49.1L208.42813 49.1ZM216.25626 47.521873L216.50626 49.084373Q215.77188 49.240623 215.17813 49.240623Q214.225 49.240623 213.69376 48.94375Q213.17813 48.63125 212.95938 48.146873Q212.74063 47.646873 212.74063 46.06875L212.74063 40.1L211.45938 40.1L211.45938 38.725L212.74063 38.725L212.74063 36.1625L214.49063 35.1L214.49063 38.725L216.25626 38.725L216.25626 40.1L214.49063 40.1L214.49063 46.1625Q214.49063 46.9125 214.58438 47.13125Q214.67813 47.334373 214.88126 47.475Q215.1 47.6 215.49063 47.6Q215.77188 47.6 216.25626 47.521873ZM218.33438 53.1L218.14688 51.44375Q218.725 51.6 219.14688 51.6Q219.74063 51.6 220.08438 51.396873Q220.44376 51.209373 220.6625 50.865623Q220.83438 50.6 221.20938 49.553123Q221.25626 49.396873 221.36563 49.115623L217.42813 38.725L219.31876 38.725L221.475 44.740623Q221.89688 45.88125 222.225 47.13125Q222.5375 45.928123 222.94376 44.771873L225.1625 38.725L226.92813 38.725L222.975 49.271873Q222.35 50.990623 221.99063 51.63125Q221.52188 52.50625 220.9125 52.896873Q220.31876 53.303123 219.475 53.303123Q218.95938 53.303123 218.33438 53.1Z" fill-rule="nonzero"/></svg>