<svg version="1.1" viewBox="0.0 0.0 950.0 588.0" fill="none" stroke="none" stroke-linecap="square" stroke-miterlimit="10" width="950" height="588" xmlns:xlink="http://www.w3.org/1999/xlink" xmlns="http://www.w3.org/2000/svg"><path fill="#ffffff" d="M0 0L950.0 0L950.0 588.0L0 588.0L0 0Z" fill-rule="nonzero"/><path fill="#4285f4" d="M475.0 96.5C494.46457 96.5 513.85114 98.95962 532.699 103.82041L475.0 327.55Z" fill-rule="nonzero"/><path fill="#71c287" d="M470.19785 96.54991C471.79834 96.51664 473.39914 96.5 475.0 96.5L475.0 327.55Z" fill-rule="nonzero"/><path fill="#fcd04f" d="M453.76178 97.47819C459.2277 96.97362 464.70987 96.663994 470.19785 96.54991L475.0 327.55Z" fill-rule="nonzero"/><path fill="#f07b72" d="M439.46582 99.24883C444.21158 98.51017 448.97922 97.91967 453.76178 97.47819L475.0 327.55Z" fill-rule="nonzero"/><path fill="#7baaf7" d="M426.64886 101.61578C430.89807 100.70643 435.1721 99.91713 439.46582 99.24883L475.0 327.55Z" fill-rule="nonzero"/><path fill="#46bdc6" d="M420.62894 102.98845C422.62936 102.504105 424.6362 102.0465 426.64886 101.61578L475.0 327.55Z" fill-rule="nonzero"/><path fill="#ff6d01" d="M270.80917 219.42876C301.77246 160.95346 356.31995 118.559006 420.62894 102.98845L475.0 327.55Z" fill-rule="nonzero"/><path fill="#34a853" d="M245.66016 355.60956C239.92232 308.7123 248.69968 261.18332 270.80917 219.42876L475.0 327.55Z" fill-rule="nonzero"/><path fill="#fbbc04" d="M354.36447 524.60626C294.2488 487.80417 254.22025 425.5739 245.66016 355.60956L475.0 327.55Z" fill-rule="nonzero"/><path fill="#ea4335" d="M532.699 103.82041C620.5958 126.488655 687.07587 198.52429 702.6319 287.9542C718.1879 377.3841 679.93744 467.63727 604.85803 518.65466C529.77856 569.6721 431.7821 572.0004 354.36447 524.60626L475.0 327.55Z" fill-rule="nonzero"/><path fill="#000000" d="M487.77542 141.45917L487.77542 139.05292L483.41605 139.05292L483.41605 137.92792L487.99417 131.44354L488.99417 131.44354L488.99417 137.92792L490.35355 137.92792L490.35355 139.05292L488.99417 139.05292L488.99417 141.45917L487.77542 141.45917ZM487.77542 137.92792L487.77542 133.4123L484.6348 137.92792L487.77542 137.92792ZM492.5098 141.45917L492.5098 140.05292L493.91605 140.05292L493.91605 141.45917L492.5098 141.45917ZM495.8223 136.52167Q495.8223 134.74042 496.18167 133.6623Q496.55667 132.56854 497.27542 131.99042Q497.99417 131.39667 499.08792 131.39667Q499.90042 131.39667 500.5098 131.7248Q501.11917 132.05292 501.5098 132.6623Q501.91605 133.27167 502.1348 134.14667Q502.35355 135.02167 502.35355 136.52167Q502.35355 138.2873 501.99417 139.36542Q501.6348 140.44354 500.91605 141.0373Q500.1973 141.63104 499.08792 141.63104Q497.65042 141.63104 496.8223 140.58417Q495.8223 139.33417 495.8223 136.52167ZM497.08792 136.52167Q497.08792 138.99042 497.66605 139.80292Q498.24417 140.61542 499.08792 140.61542Q499.9473 140.61542 500.52542 139.80292Q501.10355 138.9748 501.10355 136.52167Q501.10355 134.0373 500.52542 133.2248Q499.9473 132.4123 499.0723 132.4123Q498.22855 132.4123 497.72855 133.13104Q497.08792 134.05292 497.08792 136.52167ZM504.05667 133.8498Q504.05667 132.77167 504.58792 132.02167Q505.1348 131.27167 506.16605 131.27167Q507.10355 131.27167 507.71292 131.94354Q508.33792 132.61542 508.33792 133.9123Q508.33792 135.19354 507.71292 135.88104Q507.08792 136.56854 506.18167 136.56854Q505.27542 136.56854 504.66605 135.89667Q504.05667 135.20917 504.05667 133.8498ZM506.1973 132.11542Q505.74417 132.11542 505.43167 132.52167Q505.1348 132.9123 505.1348 133.95917Q505.1348 134.92792 505.43167 135.31854Q505.74417 135.70917 506.1973 135.70917Q506.66605 135.70917 506.96292 135.31854Q507.27542 134.92792 507.27542 133.86542Q507.27542 132.89667 506.96292 132.50604Q506.65042 132.11542 506.1973 132.11542ZM506.1973 141.83417L511.68167 131.27167L512.68164 131.27167L507.22855 141.83417L506.1973 141.83417ZM510.54105 139.0998Q510.54105 138.02167 511.0723 137.2873Q511.61917 136.5373 512.6504 136.5373Q513.5879 136.5373 514.2129 137.20917Q514.8379 137.88104 514.8379 139.17792Q514.8379 140.45917 514.2129 141.14667Q513.5879 141.83417 512.6504 141.83417Q511.74417 141.83417 511.1348 141.1623Q510.54105 140.4748 510.54105 139.0998ZM512.68164 137.38104Q512.2129 137.38104 511.91605 137.7873Q511.61917 138.17792 511.61917 139.2248Q511.61917 140.19354 511.91605 140.58417Q512.2285 140.9748 512.68164 140.9748Q513.1504 140.9748 513.44727 140.58417Q513.75977 140.19354 513.75977 139.13104Q513.75977 138.1623 513.44727 137.77167Q513.1504 137.38104 512.68164 137.38104Z" fill-rule="nonzero"/><path fill="#000000" d="M620.316 399.74304L621.61285 399.63367Q621.7535 400.57117 622.2691 401.05554Q622.80035 401.5243 623.5347 401.5243Q624.42535 401.5243 625.0347 400.85242Q625.6597 400.18054 625.6597 399.0868Q625.6597 398.0243 625.066 397.41492Q624.4722 396.80554 623.5191 396.80554Q622.92535 396.80554 622.441 397.0868Q621.9722 397.35242 621.691 397.7743L620.5347 397.63367L621.5035 392.47742L626.48785 392.47742L626.48785 393.66492L622.48785 393.66492L621.9566 396.35242Q622.86285 395.72742 623.8472 395.72742Q625.1597 395.72742 626.05035 396.63367Q626.9566 397.53992 626.9566 398.97742Q626.9566 400.3368 626.17535 401.32117Q625.2066 402.53992 623.5347 402.53992Q622.17535 402.53992 621.30035 401.7743Q620.441 401.00867 620.316 399.74304ZM632.2691 402.36804L632.2691 399.9618L627.9097 399.9618L627.9097 398.8368L632.48785 392.35242L633.48785 392.35242L633.48785 398.8368L634.8472 398.8368L634.8472 399.9618L633.48785 399.9618L633.48785 402.36804L632.2691 402.36804ZM632.2691 398.8368L632.2691 394.32117L629.1285 398.8368L632.2691 398.8368ZM637.0035 402.36804L637.0035 400.9618L638.4097 400.9618L638.4097 402.36804L637.0035 402.36804ZM640.3941 393.66492L640.3941 392.47742L646.8941 392.47742L646.8941 393.43054Q645.92535 394.44617 644.98785 396.13367Q644.05035 397.82117 643.5347 399.61804Q643.17535 400.86804 643.066 402.36804L641.80035 402.36804Q641.816 401.18054 642.2535 399.50867Q642.7066 397.8368 643.5347 396.28992Q644.3785 394.72742 645.316 393.66492L640.3941 393.66492ZM648.55035 394.75867Q648.55035 393.68054 649.0816 392.93054Q649.6285 392.18054 650.6597 392.18054Q651.5972 392.18054 652.2066 392.85242Q652.8316 393.5243 652.8316 394.82117Q652.8316 396.10242 652.2066 396.78992Q651.5816 397.47742 650.67535 397.47742Q649.7691 397.47742 649.1597 396.80554Q648.55035 396.11804 648.55035 394.75867ZM650.691 393.0243Q650.23785 393.0243 649.92535 393.43054Q649.6285 393.82117 649.6285 394.86804Q649.6285 395.8368 649.92535 396.22742Q650.23785 396.61804 650.691 396.61804Q651.1597 396.61804 651.4566 396.22742Q651.7691 395.8368 651.7691 394.7743Q651.7691 393.80554 651.4566 393.41492Q651.1441 393.0243 650.691 393.0243ZM650.691 402.74304L656.17535 392.18054L657.17535 392.18054L651.7222 402.74304L650.691 402.74304ZM655.0347 400.00867Q655.0347 398.93054 655.566 398.19617Q656.11285 397.44617 657.1441 397.44617Q658.0816 397.44617 658.7066 398.11804Q659.3316 398.78992 659.3316 400.0868Q659.3316 401.36804 658.7066 402.05554Q658.0816 402.74304 657.1441 402.74304Q656.23785 402.74304 655.6285 402.07117Q655.0347 401.38367 655.0347 400.00867ZM657.17535 398.28992Q656.7066 398.28992 656.4097 398.69617Q656.11285 399.0868 656.11285 400.13367Q656.11285 401.10242 656.4097 401.49304Q656.7222 401.88367 657.17535 401.88367Q657.6441 401.88367 657.941 401.49304Q658.2535 401.10242 658.2535 400.03992Q658.2535 399.07117 657.941 398.68054Q657.6441 398.28992 657.17535 398.28992Z" fill-rule="nonzero"/><path fill="#000000" d="M310.55453 428.819L309.32016 428.819L309.32016 420.97525Q308.88266 421.39713 308.1483 421.83463Q307.42953 422.2565 306.86703 422.45963L306.86703 421.27213Q307.8983 420.78775 308.6639 420.10025Q309.44516 419.41275 309.75766 418.7565L310.55453 418.7565L310.55453 428.819ZM317.86703 428.819L317.86703 426.41275L313.50766 426.41275L313.50766 425.28775L318.0858 418.80338L319.0858 418.80338L319.0858 425.28775L320.44516 425.28775L320.44516 426.41275L319.0858 426.41275L319.0858 428.819L317.86703 428.819ZM317.86703 425.28775L317.86703 420.77213L314.7264 425.28775L317.86703 425.28775ZM322.6014 428.819L322.6014 427.41275L324.00766 427.41275L324.00766 428.819L322.6014 428.819ZM325.92953 426.17838L327.1483 426.0065Q327.36703 427.05338 327.86703 427.52213Q328.38266 427.97525 329.11703 427.97525Q329.99203 427.97525 330.5858 427.3815Q331.17953 426.77213 331.17953 425.8815Q331.17953 425.03775 330.61703 424.49088Q330.07016 423.944 329.2264 423.944Q328.86703 423.944 328.3514 424.069L328.49203 422.99088Q328.61703 423.0065 328.67953 423.0065Q329.4764 423.0065 330.1014 422.60025Q330.7264 422.194 330.7264 421.33463Q330.7264 420.66275 330.2733 420.22525Q329.82016 419.77213 329.0858 419.77213Q328.36703 419.77213 327.88266 420.22525Q327.4139 420.66275 327.2733 421.569L326.05453 421.35025Q326.2733 420.11588 327.07016 419.444Q327.86703 418.7565 329.05453 418.7565Q329.88266 418.7565 330.57016 419.11588Q331.25766 419.45963 331.61703 420.069Q331.99203 420.67838 331.99203 421.36588Q331.99203 422.0065 331.6483 422.53775Q331.30453 423.069 330.61703 423.39713Q331.50766 423.60025 331.99203 424.24088Q332.49203 424.8815 332.49203 425.86588Q332.49203 427.17838 331.5233 428.08463Q330.57016 428.99088 329.11703 428.99088Q327.7889 428.99088 326.9139 428.20963Q326.05453 427.42838 325.92953 426.17838ZM334.1483 421.20963Q334.1483 420.1315 334.67953 419.3815Q335.2264 418.6315 336.25766 418.6315Q337.19516 418.6315 337.80453 419.30338Q338.42953 419.97525 338.42953 421.27213Q338.42953 422.55338 337.80453 423.24088Q337.17953 423.92838 336.2733 423.92838Q335.36703 423.92838 334.75766 423.2565Q334.1483 422.569 334.1483 421.20963ZM336.2889 419.47525Q335.8358 419.47525 335.5233 419.8815Q335.2264 420.27213 335.2264 421.319Q335.2264 422.28775 335.5233 422.67838Q335.8358 423.069 336.2889 423.069Q336.75766 423.069 337.05453 422.67838Q337.36703 422.28775 337.36703 421.22525Q337.36703 420.2565 337.05453 419.86588Q336.74203 419.47525 336.2889 419.47525ZM336.2889 429.194L341.7733 418.6315L342.7733 418.6315L337.32016 429.194L336.2889 429.194ZM340.63266 426.45963Q340.63266 425.3815 341.1639 424.64713Q341.7108 423.89713 342.74203 423.89713Q343.67953 423.89713 344.30453 424.569Q344.92953 425.24088 344.92953 426.53775Q344.92953 427.819 344.30453 428.5065Q343.67953 429.194 342.74203 429.194Q341.8358 429.194 341.2264 428.52213Q340.63266 427.83463 340.63266 426.45963ZM342.7733 424.74088Q342.30453 424.74088 342.00766 425.14713Q341.7108 425.53775 341.7108 426.58463Q341.7108 427.55338 342.00766 427.944Q342.32016 428.33463 342.7733 428.33463Q343.24203 428.33463 343.5389 427.944Q343.8514 427.55338 343.8514 426.49088Q343.8514 425.52213 343.5389 425.1315Q343.24203 424.74088 342.7733 424.74088Z" fill-rule="nonzero"/><path fill="#000000" d="M277.10458 296.50482L278.29208 296.39545Q278.4327 297.22357 278.85458 297.59857Q279.29208 297.97357 279.94833 297.97357Q280.51083 297.97357 280.9327 297.72357Q281.3702 297.45795 281.63583 297.02045Q281.91708 296.58295 282.10458 295.84857Q282.29208 295.1142 282.29208 294.34857Q282.29208 294.27045 282.27646 294.09857Q281.91708 294.69232 281.27646 295.06732Q280.63583 295.4267 279.88583 295.4267Q278.63583 295.4267 277.77646 294.52045Q276.91708 293.6142 276.91708 292.14545Q276.91708 290.6142 277.8077 289.69232Q278.71396 288.75482 280.07333 288.75482Q281.04208 288.75482 281.85458 289.28607Q282.66708 289.8017 283.08896 290.78607Q283.51083 291.75482 283.51083 293.59857Q283.51083 295.52045 283.08896 296.66107Q282.6827 297.8017 281.85458 298.39545Q281.02646 298.9892 279.91708 298.9892Q278.7452 298.9892 277.9952 298.33295Q277.26083 297.6767 277.10458 296.50482ZM282.13583 292.08295Q282.13583 291.02045 281.57333 290.39545Q281.01083 289.77045 280.22958 289.77045Q279.40146 289.77045 278.79208 290.44232Q278.1827 291.1142 278.1827 292.1767Q278.1827 293.12982 278.76083 293.7392Q279.33896 294.33295 280.1827 294.33295Q281.04208 294.33295 281.58896 293.7392Q282.13583 293.12982 282.13583 292.08295ZM285.60458 298.81732L285.60458 297.41107L287.01083 297.41107L287.01083 298.81732L285.60458 298.81732ZM288.9952 290.1142L288.9952 288.9267L295.4952 288.9267L295.4952 289.87982Q294.52646 290.89545 293.58896 292.58295Q292.65146 294.27045 292.13583 296.06732Q291.77646 297.31732 291.66708 298.81732L290.40146 298.81732Q290.41708 297.62982 290.85458 295.95795Q291.3077 294.28607 292.13583 292.7392Q292.97958 291.1767 293.91708 290.1142L288.9952 290.1142ZM297.15146 291.20795Q297.15146 290.12982 297.6827 289.37982Q298.22958 288.62982 299.26083 288.62982Q300.19833 288.62982 300.8077 289.3017Q301.4327 289.97357 301.4327 291.27045Q301.4327 292.5517 300.8077 293.2392Q300.1827 293.9267 299.27646 293.9267Q298.3702 293.9267 297.76083 293.25482Q297.15146 292.56732 297.15146 291.20795ZM299.29208 289.47357Q298.83896 289.47357 298.52646 289.87982Q298.22958 290.27045 298.22958 291.31732Q298.22958 292.28607 298.52646 292.6767Q298.83896 293.06732 299.29208 293.06732Q299.76083 293.06732 300.0577 292.6767Q300.3702 292.28607 300.3702 291.22357Q300.3702 290.25482 300.0577 289.8642Q299.7452 289.47357 299.29208 289.47357ZM299.29208 299.19232L304.77646 288.62982L305.77646 288.62982L300.32333 299.19232L299.29208 299.19232ZM303.63583 296.45795Q303.63583 295.37982 304.16708 294.64545Q304.71396 293.89545 305.7452 293.89545Q306.6827 293.89545 307.3077 294.56732Q307.9327 295.2392 307.9327 296.53607Q307.9327 297.81732 307.3077 298.50482Q306.6827 299.19232 305.7452 299.19232Q304.83896 299.19232 304.22958 298.52045Q303.63583 297.83295 303.63583 296.45795ZM305.77646 294.7392Q305.3077 294.7392 305.01083 295.14545Q304.71396 295.53607 304.71396 296.58295Q304.71396 297.5517 305.01083 297.94232Q305.32333 298.33295 305.77646 298.33295Q306.2452 298.33295 306.54208 297.94232Q306.85458 297.5517 306.85458 296.4892Q306.85458 295.52045 306.54208 295.12982Q306.2452 294.7392 305.77646 294.7392Z" fill-rule="nonzero"/><path fill="#000000" d="M350.03366 190.7786L348.7993 190.7786L348.7993 182.93484Q348.3618 183.35672 347.6274 183.79422Q346.90866 184.2161 346.34616 184.41922L346.34616 183.23172Q347.3774 182.74734 348.14304 182.05984Q348.9243 181.37234 349.2368 180.7161L350.03366 180.7161L350.03366 190.7786ZM353.40866 188.13797L354.6274 187.9661Q354.84616 189.01297 355.34616 189.48172Q355.8618 189.93484 356.59616 189.93484Q357.47116 189.93484 358.0649 189.3411Q358.65866 188.73172 358.65866 187.8411Q358.65866 186.99734 358.09616 186.45047Q357.5493 185.9036 356.70554 185.9036Q356.34616 185.9036 355.83054 186.0286L355.97116 184.95047Q356.09616 184.9661 356.15866 184.9661Q356.95554 184.9661 357.58054 184.55984Q358.20554 184.1536 358.20554 183.29422Q358.20554 182.62234 357.7524 182.18484Q357.2993 181.73172 356.5649 181.73172Q355.84616 181.73172 355.3618 182.18484Q354.89304 182.62234 354.7524 183.5286L353.53366 183.30984Q353.7524 182.07547 354.5493 181.4036Q355.34616 180.7161 356.53366 180.7161Q357.3618 180.7161 358.0493 181.07547Q358.7368 181.41922 359.09616 182.0286Q359.47116 182.63797 359.47116 183.32547Q359.47116 183.9661 359.1274 184.49734Q358.78366 185.0286 358.09616 185.35672Q358.9868 185.55984 359.47116 186.20047Q359.97116 186.8411 359.97116 187.82547Q359.97116 189.13797 359.0024 190.04422Q358.0493 190.95047 356.59616 190.95047Q355.26804 190.95047 354.39304 190.16922Q353.53366 189.38797 353.40866 188.13797ZM362.08054 190.7786L362.08054 189.37234L363.4868 189.37234L363.4868 190.7786L362.08054 190.7786ZM365.39304 188.1536L366.6899 188.04422Q366.83054 188.98172 367.34616 189.4661Q367.8774 189.93484 368.6118 189.93484Q369.5024 189.93484 370.1118 189.26297Q370.7368 188.5911 370.7368 187.49734Q370.7368 186.43484 370.14304 185.82547Q369.5493 185.2161 368.59616 185.2161Q368.0024 185.2161 367.51804 185.49734Q367.0493 185.76297 366.76804 186.18484L365.6118 186.04422L366.58054 180.88797L371.5649 180.88797L371.5649 182.07547L367.5649 182.07547L367.03366 184.76297Q367.9399 184.13797 368.9243 184.13797Q370.2368 184.13797 371.1274 185.04422Q372.03366 185.95047 372.03366 187.38797Q372.03366 188.74734 371.2524 189.73172Q370.28366 190.95047 368.6118 190.95047Q367.2524 190.95047 366.3774 190.18484Q365.51804 189.41922 365.39304 188.1536ZM373.6274 183.16922Q373.6274 182.0911 374.15866 181.3411Q374.70554 180.5911 375.7368 180.5911Q376.6743 180.5911 377.28366 181.26297Q377.90866 181.93484 377.90866 183.23172Q377.90866 184.51297 377.28366 185.20047Q376.65866 185.88797 375.7524 185.88797Q374.84616 185.88797 374.2368 185.2161Q373.6274 184.5286 373.6274 183.16922ZM375.76804 181.43484Q375.3149 181.43484 375.0024 181.8411Q374.70554 182.23172 374.70554 183.2786Q374.70554 184.24734 375.0024 184.63797Q375.3149 185.0286 375.76804 185.0286Q376.2368 185.0286 376.53366 184.63797Q376.84616 184.24734 376.84616 183.18484Q376.84616 182.2161 376.53366 181.82547Q376.22116 181.43484 375.76804 181.43484ZM375.76804 191.1536L381.2524 180.5911L382.2524 180.5911L376.7993 191.1536L375.76804 191.1536ZM380.1118 188.41922Q380.1118 187.3411 380.64304 186.60672Q381.1899 185.85672 382.22116 185.85672Q383.15866 185.85672 383.78366 186.5286Q384.40866 187.20047 384.40866 188.49734Q384.40866 189.7786 383.78366 190.4661Q383.15866 191.1536 382.22116 191.1536Q381.3149 191.1536 380.70554 190.48172Q380.1118 189.79422 380.1118 188.41922ZM382.2524 186.70047Q381.78366 186.70047 381.4868 187.10672Q381.1899 187.49734 381.1899 188.54422Q381.1899 189.51297 381.4868 189.9036Q381.7993 190.29422 382.2524 190.29422Q382.72116 190.29422 383.01804 189.9036Q383.33054 189.51297 383.33054 188.45047Q383.33054 187.48172 383.01804 187.0911Q382.72116 186.70047 382.2524 186.70047Z" fill-rule="nonzero"/><path fill="#1a1a1a" d="M39.24375 100.609375L40.946877 100.609375L40.946877 108.0625Q40.946877 110.0 40.509377 111.140625Q40.071877 112.28125 38.915627 113.0Q37.775 113.71875 35.915627 113.71875Q34.103127 113.71875 32.946877 113.09375Q31.80625 112.46875 31.30625 111.296875Q30.821875 110.109375 30.821875 108.0625L30.821875 100.609375L32.525 100.609375L32.525 108.046875Q32.525 109.734375 32.8375 110.53125Q33.15 111.3125 33.9 111.75Q34.665627 112.1875 35.759377 112.1875Q37.65 112.1875 38.446877 111.328125Q39.24375 110.46875 39.24375 108.046875L39.24375 100.609375ZM43.5875 113.5L43.5875 104.171875L45.009377 104.171875L45.009377 105.5Q46.040627 103.953125 47.978127 103.953125Q48.821877 103.953125 49.525 104.265625Q50.24375 104.5625 50.5875 105.0625Q50.946877 105.546875 51.0875 106.21875Q51.165627 106.65625 51.165627 107.765625L51.165627 113.5L49.5875 113.5L49.5875 107.828125Q49.5875 106.859375 49.4 106.375Q49.228127 105.890625 48.74375 105.609375Q48.275 105.328125 47.65 105.328125Q46.634377 105.328125 45.9 105.96875Q45.165627 106.609375 45.165627 108.40625L45.165627 113.5L43.5875 113.5ZM52.946877 110.71875L54.525 110.46875Q54.65 111.40625 55.24375 111.90625Q55.853127 112.40625 56.93125 112.40625Q58.025 112.40625 58.55625 111.96875Q59.0875 111.515625 59.0875 110.921875Q59.0875 110.390625 58.61875 110.078125Q58.290627 109.875 56.99375 109.546875Q55.259377 109.109375 54.5875 108.796875Q53.915627 108.46875 53.55625 107.90625Q53.2125 107.328125 53.2125 106.640625Q53.2125 106.015625 53.49375 105.484375Q53.790627 104.953125 54.275 104.609375Q54.65 104.328125 55.290627 104.140625Q55.93125 103.953125 56.65 103.953125Q57.759377 103.953125 58.5875 104.28125Q59.415627 104.59375 59.80625 105.140625Q60.2125 105.671875 60.353127 106.578125L58.80625 106.78125Q58.696877 106.0625 58.196877 105.65625Q57.696877 105.25 56.775 105.25Q55.68125 105.25 55.2125 105.609375Q54.74375 105.96875 54.74375 106.453125Q54.74375 106.765625 54.946877 107.015625Q55.134377 107.265625 55.540627 107.4375Q55.790627 107.515625 56.946877 107.84375Q58.61875 108.28125 59.275 108.578125Q59.946877 108.859375 60.321877 109.40625Q60.7125 109.953125 60.7125 110.75Q60.7125 111.546875 60.24375 112.25Q59.790627 112.953125 58.915627 113.34375Q58.040627 113.71875 56.946877 113.71875Q55.11875 113.71875 54.165627 112.96875Q53.2125 112.203125 52.946877 110.71875ZM62.5875 117.078125L62.5875 104.171875L64.025 104.171875L64.025 105.375Q64.54063 104.671875 65.18125 104.3125Q65.82188 103.953125 66.72813 103.953125Q67.93125 103.953125 68.8375 104.578125Q69.75938 105.1875 70.22813 106.3125Q70.69688 107.421875 70.69688 108.765625Q70.69688 110.1875 70.18125 111.34375Q69.66563 112.484375 68.68125 113.109375Q67.69688 113.71875 66.61875 113.71875Q65.8375 113.71875 65.19688 113.390625Q64.57188 113.046875 64.16563 112.53125L64.16563 117.078125L62.5875 117.078125ZM64.025 108.890625Q64.025 110.6875 64.74375 111.546875Q65.47813 112.40625 66.50938 112.40625Q67.57188 112.40625 68.32188 111.515625Q69.07188 110.625 69.07188 108.75Q69.07188 106.96875 68.3375 106.078125Q67.60313 105.1875 66.5875 105.1875Q65.57188 105.1875 64.79063 106.140625Q64.025 107.078125 64.025 108.890625ZM78.97813 110.5L80.61875 110.703125Q80.22813 112.125 79.18125 112.921875Q78.13438 113.71875 76.50938 113.71875Q74.4625 113.71875 73.25938 112.453125Q72.05625 111.1875 72.05625 108.90625Q72.05625 106.5625 73.25938 105.265625Q74.47813 103.953125 76.41563 103.953125Q78.29063 103.953125 79.47813 105.234375Q80.66563 106.5 80.66563 108.8125Q80.66563 108.953125 80.65 109.234375L73.69688 109.234375Q73.775 110.78125 74.55625 111.59375Q75.35313 112.40625 76.50938 112.40625Q77.38438 112.40625 77.99375 111.953125Q78.61875 111.5 78.97813 110.5ZM73.775 107.9375L78.99375 107.9375Q78.88438 106.765625 78.4 106.171875Q77.63438 105.25 76.43125 105.25Q75.35313 105.25 74.60313 105.984375Q73.86875 106.71875 73.775 107.9375ZM88.68125 110.078125L90.22813 110.28125Q89.97813 111.890625 88.93125 112.8125Q87.88438 113.71875 86.35313 113.71875Q84.43125 113.71875 83.25938 112.46875Q82.10313 111.203125 82.10313 108.875Q82.10313 107.359375 82.60313 106.234375Q83.10313 105.09375 84.11875 104.53125Q85.15 103.953125 86.35313 103.953125Q87.88438 103.953125 88.8375 104.734375Q89.80625 105.5 90.0875 106.90625L88.54063 107.140625Q88.32188 106.203125 87.75938 105.734375Q87.2125 105.25 86.41563 105.25Q85.22813 105.25 84.47813 106.109375Q83.72813 106.96875 83.72813 108.828125Q83.72813 110.703125 84.44688 111.5625Q85.16563 112.40625 86.3375 112.40625Q87.25938 112.40625 87.88438 111.84375Q88.50938 111.265625 88.68125 110.078125ZM91.60313 102.4375L91.60313 100.609375L93.18125 100.609375L93.18125 102.4375L91.60313 102.4375ZM91.60313 113.5L91.60313 104.171875L93.18125 104.171875L93.18125 113.5L91.60313 113.5ZM95.9625 113.5L95.9625 105.390625L94.57188 105.390625L94.57188 104.171875L95.9625 104.171875L95.9625 103.171875Q95.9625 102.234375 96.13438 101.78125Q96.35313 101.15625 96.93125 100.78125Q97.50938 100.390625 98.55625 100.390625Q99.2125 100.390625 100.025 100.546875L99.79063 101.9375Q99.29063 101.84375 98.85313 101.84375Q98.13438 101.84375 97.8375 102.15625Q97.54063 102.453125 97.54063 103.296875L97.54063 104.171875L99.35313 104.171875L99.35313 105.390625L97.54063 105.390625L97.54063 113.5L95.9625 113.5ZM100.60313 102.4375L100.60313 100.609375L102.18125 100.609375L102.18125 102.4375L100.60313 102.4375ZM100.60313 113.5L100.60313 104.171875L102.18125 104.171875L102.18125 113.5L100.60313 113.5ZM110.97813 110.5L112.61875 110.703125Q112.22813 112.125 111.18125 112.921875Q110.13438 113.71875 108.50938 113.71875Q106.4625 113.71875 105.25938 112.453125Q104.05625 111.1875 104.05625 108.90625Q104.05625 106.5625 105.25938 105.265625Q106.47813 103.953125 108.41563 103.953125Q110.29063 103.953125 111.47813 105.234375Q112.66563 106.5 112.66563 108.8125Q112.66563 108.953125 112.65 109.234375L105.69688 109.234375Q105.775 110.78125 106.55625 111.59375Q107.35313 112.40625 108.50938 112.40625Q109.38438 112.40625 109.99375 111.953125Q110.61875 111.5 110.97813 110.5ZM105.775 107.9375L110.99375 107.9375Q110.88438 106.765625 110.4 106.171875Q109.63438 105.25 108.43125 105.25Q107.35313 105.25 106.60313 105.984375Q105.86875 106.71875 105.775 107.9375ZM120.65 113.5L120.65 112.328125Q119.75938 113.71875 118.025 113.71875Q116.91563 113.71875 115.97813 113.109375Q115.04063 112.484375 114.525 111.390625Q114.00938 110.28125 114.00938 108.84375Q114.00938 107.4375 114.47813 106.3125Q114.94688 105.171875 115.86875 104.5625Q116.80625 103.953125 117.9625 103.953125Q118.80625 103.953125 119.4625 104.3125Q120.11875 104.671875 120.54063 105.234375L120.54063 100.609375L122.10313 100.609375L122.10313 113.5L120.65 113.5ZM115.63438 108.84375Q115.63438 110.640625 116.38438 111.53125Q117.15 112.40625 118.18125 112.40625Q119.2125 112.40625 119.93125 111.5625Q120.66563 110.71875 120.66563 108.96875Q120.66563 107.0625 119.93125 106.171875Q119.19688 105.265625 118.11875 105.265625Q117.05625 105.265625 116.3375 106.125Q115.63438 106.984375 115.63438 108.84375ZM128.97812 109.625L128.97812 108.046875L133.8375 108.046875L133.8375 109.625L128.97812 109.625ZM140.88437 113.5L140.88437 100.609375L149.57187 100.609375L149.57187 102.140625L142.5875 102.140625L142.5875 106.125L148.63437 106.125L148.63437 107.640625L142.5875 107.640625L142.5875 113.5L140.88437 113.5ZM151.60312 102.4375L151.60312 100.609375L153.18124 100.609375L153.18124 102.4375L151.60312 102.4375ZM151.60312 113.5L151.60312 104.171875L153.18124 104.171875L153.18124 113.5L151.60312 113.5ZM154.525 113.5L157.94687 108.640625L154.79062 104.171875L156.75937 104.171875L158.19687 106.359375Q158.60312 106.984375 158.85312 107.40625Q159.22812 106.8125 159.55624 106.375L161.13437 104.171875L163.025 104.171875L159.79062 108.5625L163.275 113.5L161.32187 113.5L159.41562 110.59375L158.9 109.8125L156.44687 113.5L154.525 113.5ZM169.68124 112.34375Q168.80624 113.09375 167.97812 113.40625Q167.16562 113.71875 166.24374 113.71875Q164.69687 113.71875 163.86874 112.96875Q163.05624 112.203125 163.05624 111.03125Q163.05624 110.359375 163.36874 109.796875Q163.68124 109.21875 164.18124 108.875Q164.68124 108.53125 165.32187 108.359375Q165.79062 108.234375 166.72812 108.125Q168.63437 107.890625 169.54062 107.578125Q169.55624 107.25 169.55624 107.15625Q169.55624 106.203125 169.10312 105.796875Q168.49374 105.265625 167.30624 105.265625Q166.18124 105.265625 165.65 105.65625Q165.11874 106.046875 164.86874 107.046875L163.32187 106.828125Q163.54062 105.828125 164.00937 105.21875Q164.49374 104.609375 165.4 104.28125Q166.32187 103.953125 167.54062 103.953125Q168.72812 103.953125 169.47812 104.234375Q170.22812 104.515625 170.57187 104.953125Q170.93124 105.375 171.07187 106.015625Q171.15 106.421875 171.15 107.484375L171.15 109.59375Q171.15 111.796875 171.24374 112.390625Q171.35312 112.96875 171.65 113.5L169.99374 113.5Q169.74374 113.0 169.68124 112.34375ZM169.54062 108.8125Q168.68124 109.171875 166.9625 109.40625Q165.99374 109.546875 165.5875 109.734375Q165.18124 109.90625 164.9625 110.25Q164.74374 110.578125 164.74374 111.0Q164.74374 111.625 165.2125 112.046875Q165.69687 112.46875 166.61874 112.46875Q167.54062 112.46875 168.24374 112.078125Q168.9625 111.671875 169.29062 110.984375Q169.54062 110.4375 169.54062 109.390625L169.54062 108.8125ZM175.04062 113.5L173.57187 113.5L173.57187 100.609375L175.16562 100.609375L175.16562 105.21875Q176.16562 103.953125 177.7125 103.953125Q178.57187 103.953125 179.3375 104.3125Q180.11874 104.65625 180.60312 105.28125Q181.10312 105.90625 181.38437 106.796875Q181.66562 107.6875 181.66562 108.6875Q181.66562 111.09375 180.47812 112.40625Q179.30624 113.71875 177.63437 113.71875Q175.99374 113.71875 175.04062 112.328125L175.04062 113.5ZM175.025 108.765625Q175.025 110.4375 175.47812 111.1875Q176.22812 112.40625 177.50937 112.40625Q178.54062 112.40625 179.29062 111.515625Q180.05624 110.609375 180.05624 108.828125Q180.05624 107.0 179.32187 106.125Q178.60312 105.25 177.57187 105.25Q176.54062 105.25 175.775 106.15625Q175.025 107.0625 175.025 108.765625ZM183.55624 113.5L183.55624 100.609375L185.13437 100.609375L185.13437 113.5L183.55624 113.5ZM193.97812 110.5L195.61874 110.703125Q195.22812 112.125 194.18124 112.921875Q193.13437 113.71875 191.50937 113.71875Q189.4625 113.71875 188.25937 112.453125Q187.05624 111.1875 187.05624 108.90625Q187.05624 106.5625 188.25937 105.265625Q189.47812 103.953125 191.41562 103.953125Q193.29062 103.953125 194.47812 105.234375Q195.66562 106.5 195.66562 108.8125Q195.66562 108.953125 195.65 109.234375L188.69687 109.234375Q188.775 110.78125 189.55624 111.59375Q190.35312 112.40625 191.50937 112.40625Q192.38437 112.40625 192.99374 111.953125Q193.61874 111.5 193.97812 110.5ZM188.775 107.9375L193.99374 107.9375Q193.88437 106.765625 193.4 106.171875Q192.63437 105.25 191.43124 105.25Q190.35312 105.25 189.60312 105.984375Q188.86874 106.71875 188.775 107.9375Z" fill-rule="nonzero"/><path fill="#9e9e9e" d="M36.103127 138.5L34.525 138.5L34.525 128.42188Q33.946877 128.96875 33.025 129.51562Q32.103127 130.04688 31.353125 130.32812L31.353125 128.79688Q32.68125 128.17188 33.68125 127.28125Q34.68125 126.390625 35.0875 125.5625L36.103127 125.5625L36.103127 138.5ZM41.040627 138.5L41.040627 136.70312L42.8375 136.70312L42.8375 138.5L41.040627 138.5ZM51.103127 138.5L49.525 138.5L49.525 128.42188Q48.946877 128.96875 48.025 129.51562Q47.103127 130.04688 46.353127 130.32812L46.353127 128.79688Q47.68125 128.17188 48.68125 127.28125Q49.68125 126.390625 50.0875 125.5625L51.103127 125.5625L51.103127 138.5ZM55.446877 128.70312Q55.446877 127.328125 56.134377 126.359375Q56.8375 125.390625 58.15 125.390625Q59.36875 125.390625 60.165627 126.265625Q60.9625 127.125 60.9625 128.8125Q60.9625 130.4375 60.15 131.32812Q59.353127 132.20312 58.165627 132.20312Q57.009377 132.20312 56.228127 131.34375Q55.446877 130.46875 55.446877 128.70312ZM58.196877 126.484375Q57.603127 126.484375 57.2125 127.0Q56.821877 127.5 56.821877 128.85938Q56.821877 130.10938 57.2125 130.60938Q57.61875 131.10938 58.196877 131.10938Q58.790627 131.10938 59.18125 130.60938Q59.571877 130.09375 59.571877 128.75Q59.571877 127.5 59.18125 127.0Q58.790627 126.484375 58.196877 126.484375ZM58.2125 138.96875L65.25938 125.390625L66.54063 125.390625L59.509377 138.96875L58.2125 138.96875ZM63.775 135.46875Q63.775 134.09375 64.4625 133.125Q65.16563 132.15625 66.49375 132.15625Q67.7125 132.15625 68.49375 133.03125Q69.29063 133.89062 69.29063 135.57812Q69.29063 137.20312 68.49375 138.09375Q67.69688 138.96875 66.50938 138.96875Q65.3375 138.96875 64.55625 138.09375Q63.775 137.21875 63.775 135.46875ZM66.54063 133.25Q65.94688 133.25 65.55625 133.76562Q65.16563 134.26562 65.16563 135.64062Q65.16563 136.85938 65.55625 137.375Q65.94688 137.89062 66.525 137.89062Q67.13438 137.89062 67.525 137.375Q67.91563 136.85938 67.91563 135.51562Q67.91563 134.26562 67.525 133.76562Q67.13438 133.25 66.54063 133.25Z" fill-rule="nonzero"/><path stroke="#757575" stroke-width="1.0" stroke-linecap="butt" d="M29.4 120.0L237.95 120.0L462.62296 108.40173" fill-rule="nonzero"/><path fill="#9e9e9e" d="M464.62296 108.40173C464.62296 107.297165 463.72754 106.40173 462.62296 106.40173C461.51837 106.40173 460.62296 107.297165 460.62296 108.40173C460.62296 109.50631 461.51837 110.40173 462.62296 110.40173C463.72754 110.40173 464.62296 109.50631 464.62296 108.40173" fill-rule="nonzero"/><path fill="#1a1a1a" d="M30.8375 160.5L30.8375 147.60938L32.540627 147.60938L32.540627 152.90625L39.24375 152.90625L39.24375 147.60938L40.946877 147.60938L40.946877 160.5L39.24375 160.5L39.24375 154.42188L32.540627 154.42188L32.540627 160.5L30.8375 160.5ZM43.603127 149.4375L43.603127 147.60938L45.18125 147.60938L45.18125 149.4375L43.603127 149.4375ZM43.603127 160.5L43.603127 151.17188L45.18125 151.17188L45.18125 160.5L43.603127 160.5ZM47.290627 161.28125L48.8375 161.5Q48.93125 162.21875 49.36875 162.54688Q49.9625 162.98438 50.978127 162.98438Q52.071877 162.98438 52.665627 162.53125Q53.275 162.09375 53.478127 161.3125Q53.603127 160.82812 53.603127 159.28125Q52.55625 160.5 51.009377 160.5Q49.0875 160.5 48.025 159.10938Q46.978127 157.71875 46.978127 155.78125Q46.978127 154.4375 47.4625 153.3125Q47.946877 152.1875 48.86875 151.57812Q49.790627 150.95312 51.025 150.95312Q52.68125 150.95312 53.74375 152.29688L53.74375 151.17188L55.2125 151.17188L55.2125 159.23438Q55.2125 161.42188 54.759377 162.32812Q54.321877 163.23438 53.353127 163.75Q52.4 164.28125 50.99375 164.28125Q49.321877 164.28125 48.290627 163.53125Q47.259377 162.78125 47.290627 161.28125ZM48.603127 155.67188Q48.603127 157.5 49.3375 158.34375Q50.071877 159.1875 51.165627 159.1875Q52.259377 159.1875 52.99375 158.35938Q53.728127 157.51562 53.728127 155.71875Q53.728127 154.0 52.9625 153.14062Q52.2125 152.26562 51.134377 152.26562Q50.0875 152.26562 49.3375 153.125Q48.603127 153.98438 48.603127 155.67188ZM57.5875 160.5L57.5875 147.60938L59.165627 147.60938L59.165627 152.23438Q60.275 150.95312 61.9625 150.95312Q62.99375 150.95312 63.759377 151.35938Q64.525 151.76562 64.85313 152.5Q65.19688 153.21875 65.19688 154.57812L65.19688 160.5L63.603127 160.5L63.603127 154.57812Q63.603127 153.39062 63.0875 152.85938Q62.571877 152.3125 61.634377 152.3125Q60.93125 152.3125 60.30625 152.6875Q59.696877 153.04688 59.43125 153.67188Q59.165627 154.29688 59.165627 155.39062L59.165627 160.5L57.5875 160.5ZM71.97813 156.625L71.97813 155.04688L76.8375 155.04688L76.8375 156.625L71.97813 156.625ZM83.88438 160.5L83.88438 147.60938L92.57188 147.60938L92.57188 149.14062L85.5875 149.14062L85.5875 153.125L91.63438 153.125L91.63438 154.64062L85.5875 154.64062L85.5875 160.5L83.88438 160.5ZM94.60313 149.4375L94.60313 147.60938L96.18125 147.60938L96.18125 149.4375L94.60313 149.4375ZM94.60313 160.5L94.60313 151.17188L96.18125 151.17188L96.18125 160.5L94.60313 160.5ZM97.525 160.5L100.94688 155.64062L97.79063 151.17188L99.75938 151.17188L101.19688 153.35938Q101.60313 153.98438 101.85313 154.40625Q102.22813 153.8125 102.55625 153.375L104.13438 151.17188L106.025 151.17188L102.79063 155.5625L106.275 160.5L104.32188 160.5L102.41563 157.59375L101.9 156.8125L99.44688 160.5L97.525 160.5ZM112.68125 159.34375Q111.80625 160.09375 110.97813 160.40625Q110.16563 160.71875 109.24375 160.71875Q107.69688 160.71875 106.86875 159.96875Q106.05625 159.20312 106.05625 158.03125Q106.05625 157.35938 106.36875 156.79688Q106.68125 156.21875 107.18125 155.875Q107.68125 155.53125 108.32188 155.35938Q108.79063 155.23438 109.72813 155.125Q111.63438 154.89062 112.54063 154.57812Q112.55625 154.25 112.55625 154.15625Q112.55625 153.20312 112.10313 152.79688Q111.49375 152.26562 110.30625 152.26562Q109.18125 152.26562 108.65 152.65625Q108.11875 153.04688 107.86875 154.04688L106.32188 153.82812Q106.54063 152.82812 107.00938 152.21875Q107.49375 151.60938 108.4 151.28125Q109.32188 150.95312 110.54063 150.95312Q111.72813 150.95312 112.47813 151.23438Q113.22813 151.51562 113.57188 151.95312Q113.93125 152.375 114.07188 153.01562Q114.15 153.42188 114.15 154.48438L114.15 156.59375Q114.15 158.79688 114.24375 159.39062Q114.35313 159.96875 114.65 160.5L112.99375 160.5Q112.74375 160.0 112.68125 159.34375ZM112.54063 155.8125Q111.68125 156.17188 109.9625 156.40625Q108.99375 156.54688 108.5875 156.73438Q108.18125 156.90625 107.9625 157.25Q107.74375 157.57812 107.74375 158.0Q107.74375 158.625 108.2125 159.04688Q108.69688 159.46875 109.61875 159.46875Q110.54063 159.46875 111.24375 159.07812Q111.9625 158.67188 112.29063 157.98438Q112.54063 157.4375 112.54063 156.39062L112.54063 155.8125ZM118.04063 160.5L116.57188 160.5L116.57188 147.60938L118.16563 147.60938L118.16563 152.21875Q119.16563 150.95312 120.7125 150.95312Q121.57188 150.95312 122.3375 151.3125Q123.11875 151.65625 123.60313 152.28125Q124.10313 152.90625 124.38438 153.79688Q124.66563 154.6875 124.66563 155.6875Q124.66563 158.09375 123.47813 159.40625Q122.30625 160.71875 120.63438 160.71875Q118.99375 160.71875 118.04063 159.32812L118.04063 160.5ZM118.025 155.76562Q118.025 157.4375 118.47813 158.1875Q119.22813 159.40625 120.50938 159.40625Q121.54063 159.40625 122.29063 158.51562Q123.05625 157.60938 123.05625 155.82812Q123.05625 154.0 122.32188 153.125Q121.60313 152.25 120.57188 152.25Q119.54063 152.25 118.775 153.15625Q118.025 154.0625 118.025 155.76562ZM126.55625 160.5L126.55625 147.60938L128.13437 147.60938L128.13437 160.5L126.55625 160.5ZM136.97812 157.5L138.61874 157.70312Q138.22812 159.125 137.18124 159.92188Q136.13437 160.71875 134.50937 160.71875Q132.4625 160.71875 131.25937 159.45312Q130.05624 158.1875 130.05624 155.90625Q130.05624 153.5625 131.25937 152.26562Q132.47812 150.95312 134.41562 150.95312Q136.29062 150.95312 137.47812 152.23438Q138.66562 153.5 138.66562 155.8125Q138.66562 155.95312 138.65 156.23438L131.69687 156.23438Q131.775 157.78125 132.55624 158.59375Q133.35312 159.40625 134.50937 159.40625Q135.38437 159.40625 135.99374 158.95312Q136.61874 158.5 136.97812 157.5ZM131.775 154.9375L136.99374 154.9375Q136.88437 153.76562 136.4 153.17188Q135.63437 152.25 134.43124 152.25Q133.35312 152.25 132.60312 152.98438Q131.86874 153.71875 131.775 154.9375Z" fill-rule="nonzero"/><path fill="#9e9e9e" d="M36.103127 185.5L34.525 185.5L34.525 175.42188Q33.946877 175.96875 33.025 176.51562Q32.103127 177.04688 31.353125 177.32812L31.353125 175.79688Q32.68125 175.17188 33.68125 174.28125Q34.68125 173.39062 35.0875 172.5625L36.103127 172.5625L36.103127 185.5ZM40.15 182.09375L41.74375 181.89062Q42.009377 183.23438 42.665627 183.82812Q43.321877 184.42188 44.259377 184.42188Q45.384377 184.42188 46.15 183.65625Q46.915627 182.875 46.915627 181.73438Q46.915627 180.64062 46.196877 179.9375Q45.49375 179.21875 44.4 179.21875Q43.946877 179.21875 43.275 179.40625L43.446877 178.01562Q43.603127 178.03125 43.7125 178.03125Q44.7125 178.03125 45.525 177.5Q46.3375 176.96875 46.3375 175.875Q46.3375 175.0 45.74375 174.4375Q45.15 173.85938 44.228127 173.85938Q43.30625 173.85938 42.68125 174.4375Q42.071877 175.01562 41.9 176.1875L40.321877 175.90625Q40.603127 174.3125 41.634377 173.4375Q42.665627 172.5625 44.196877 172.5625Q45.24375 172.5625 46.134377 173.01562Q47.025 173.46875 47.49375 174.25Q47.9625 175.03125 47.9625 175.90625Q47.9625 176.75 47.509377 177.4375Q47.071877 178.10938 46.18125 178.51562Q47.321877 178.78125 47.946877 179.625Q48.5875 180.45312 48.5875 181.6875Q48.5875 183.375 47.353127 184.5625Q46.134377 185.73438 44.259377 185.73438Q42.55625 185.73438 41.43125 184.71875Q40.321877 183.70312 40.15 182.09375ZM51.040627 185.5L51.040627 183.70312L52.8375 183.70312L52.8375 185.5L51.040627 185.5ZM55.15 182.125L56.80625 181.98438Q56.99375 183.20312 57.665627 183.8125Q58.3375 184.42188 59.290627 184.42188Q60.43125 184.42188 61.2125 183.5625Q62.009377 182.70312 62.009377 181.26562Q62.009377 179.92188 61.24375 179.14062Q60.49375 178.35938 59.259377 178.35938Q58.49375 178.35938 57.86875 178.70312Q57.259377 179.04688 56.915627 179.60938L55.43125 179.40625L56.68125 172.79688L63.0875 172.79688L63.0875 174.29688L57.946877 174.29688L57.24375 177.76562Q58.415627 176.95312 59.68125 176.95312Q61.36875 176.95312 62.525 178.125Q63.696877 179.29688 63.696877 181.125Q63.696877 182.875 62.665627 184.15625Q61.43125 185.71875 59.290627 185.71875Q57.525 185.71875 56.415627 184.73438Q55.30625 183.75 55.15 182.125ZM65.44688 175.70312Q65.44688 174.32812 66.13438 173.35938Q66.8375 172.39062 68.15 172.39062Q69.36875 172.39062 70.16563 173.26562Q70.9625 174.125 70.9625 175.8125Q70.9625 177.4375 70.15 178.32812Q69.35313 179.20312 68.16563 179.20312Q67.00938 179.20312 66.22813 178.34375Q65.44688 177.46875 65.44688 175.70312ZM68.19688 173.48438Q67.60313 173.48438 67.2125 174.0Q66.82188 174.5 66.82188 175.85938Q66.82188 177.10938 67.2125 177.60938Q67.61875 178.10938 68.19688 178.10938Q68.79063 178.10938 69.18125 177.60938Q69.57188 177.09375 69.57188 175.75Q69.57188 174.5 69.18125 174.0Q68.79063 173.48438 68.19688 173.48438ZM68.2125 185.96875L75.25938 172.39062L76.54063 172.39062L69.50938 185.96875L68.2125 185.96875ZM73.775 182.46875Q73.775 181.09375 74.4625 180.125Q75.16563 179.15625 76.49375 179.15625Q77.7125 179.15625 78.49375 180.03125Q79.29063 180.89062 79.29063 182.57812Q79.29063 184.20312 78.49375 185.09375Q77.69688 185.96875 76.50938 185.96875Q75.3375 185.96875 74.55625 185.09375Q73.775 184.21875 73.775 182.46875ZM76.54063 180.25Q75.94688 180.25 75.55625 180.76562Q75.16563 181.26562 75.16563 182.64062Q75.16563 183.85938 75.55625 184.375Q75.94688 184.89062 76.525 184.89062Q77.13438 184.89062 77.525 184.375Q77.91563 183.85938 77.91563 182.51562Q77.91563 181.26562 77.525 180.76562Q77.13438 180.25 76.54063 180.25Z" fill-rule="nonzero"/><path stroke="#757575" stroke-width="1.0" stroke-linecap="butt" d="M29.4 167.0L237.95 167.0L340.30368 154.24086" fill-rule="nonzero"/><path fill="#9e9e9e" d="M342.30368 154.24086C342.30368 153.13629 341.40826 152.24086 340.30368 152.24086C339.19913 152.24086 338.30368 153.13629 338.30368 154.24086C338.30368 155.34543 339.19913 156.24086 340.30368 156.24086C341.40826 156.24086 342.30368 155.34543 342.30368 154.24086" fill-rule="nonzero"/><path fill="#1a1a1a" d="M30.74375 281.18863L30.74375 268.298L33.30625 268.298L36.353127 277.423Q36.775 278.70425 36.9625 279.32925Q37.18125 278.62613 37.65 277.26675L40.74375 268.298L43.025 268.298L43.025 281.18863L41.384377 281.18863L41.384377 270.40738L37.65 281.18863L36.103127 281.18863L32.384377 270.21988L32.384377 281.18863L30.74375 281.18863ZM51.978127 278.18863L53.61875 278.39175Q53.228127 279.81363 52.18125 280.6105Q51.134377 281.40738 49.509377 281.40738Q47.4625 281.40738 46.259377 280.14175Q45.05625 278.87613 45.05625 276.59488Q45.05625 274.25113 46.259377 272.95425Q47.478127 271.64175 49.415627 271.64175Q51.290627 271.64175 52.478127 272.923Q53.665627 274.18863 53.665627 276.50113Q53.665627 276.64175 53.65 276.923L46.696877 276.923Q46.775 278.46988 47.55625 279.28238Q48.353127 280.09488 49.509377 280.09488Q50.384377 280.09488 50.99375 279.64175Q51.61875 279.18863 51.978127 278.18863ZM46.775 275.62613L51.99375 275.62613Q51.884377 274.45425 51.4 273.8605Q50.634377 272.93863 49.43125 272.93863Q48.353127 272.93863 47.603127 273.673Q46.86875 274.40738 46.775 275.62613ZM61.65 281.18863L61.65 280.01675Q60.759377 281.40738 59.025 281.40738Q57.915627 281.40738 56.978127 280.798Q56.040627 280.173 55.525 279.07925Q55.009377 277.96988 55.009377 276.53238Q55.009377 275.12613 55.478127 274.00113Q55.946877 272.8605 56.86875 272.25113Q57.80625 271.64175 58.9625 271.64175Q59.80625 271.64175 60.4625 272.00113Q61.11875 272.3605 61.540627 272.923L61.540627 268.298L63.103127 268.298L63.103127 281.18863L61.65 281.18863ZM56.634377 276.53238Q56.634377 278.32925 57.384377 279.21988Q58.15 280.09488 59.18125 280.09488Q60.2125 280.09488 60.93125 279.25113Q61.665627 278.40738 61.665627 276.65738Q61.665627 274.75113 60.93125 273.8605Q60.196877 272.95425 59.11875 272.95425Q58.05625 272.95425 57.3375 273.81363Q56.634377 274.673 56.634377 276.53238ZM65.60313 270.12613L65.60313 268.298L67.18125 268.298L67.18125 270.12613L65.60313 270.12613ZM65.60313 281.18863L65.60313 271.8605L67.18125 271.8605L67.18125 281.18863L65.60313 281.18863ZM75.69688 281.18863L75.69688 279.81363Q74.61875 281.40738 72.74375 281.40738Q71.91563 281.40738 71.19688 281.09488Q70.47813 280.76675 70.13438 280.298Q69.79063 279.81363 69.65 279.1105Q69.55625 278.64175 69.55625 277.64175L69.55625 271.8605L71.13438 271.8605L71.13438 277.03238Q71.13438 278.26675 71.22813 278.70425Q71.38438 279.32925 71.86875 279.68863Q72.35313 280.03238 73.05625 280.03238Q73.775 280.03238 74.4 279.673Q75.025 279.31363 75.275 278.68863Q75.54063 278.048 75.54063 276.8605L75.54063 271.8605L77.11875 271.8605L77.11875 281.18863L75.69688 281.18863ZM79.5875 281.18863L79.5875 271.8605L81.00938 271.8605L81.00938 273.15738Q81.44688 272.4855 82.16563 272.06363Q82.9 271.64175 83.8375 271.64175Q84.86875 271.64175 85.525 272.07925Q86.19688 272.50113 86.4625 273.28238Q87.57188 271.64175 89.35313 271.64175Q90.74375 271.64175 91.47813 272.423Q92.22813 273.18863 92.22813 274.78238L92.22813 281.18863L90.66563 281.18863L90.66563 275.31363Q90.66563 274.3605 90.50938 273.93863Q90.35313 273.51675 89.94688 273.26675Q89.54063 273.01675 88.99375 273.01675Q88.00938 273.01675 87.35313 273.673Q86.7125 274.32925 86.7125 275.76675L86.7125 281.18863L85.13438 281.18863L85.13438 275.12613Q85.13438 274.06363 84.74375 273.548Q84.35313 273.01675 83.47813 273.01675Q82.80625 273.01675 82.24375 273.37613Q81.68125 273.71988 81.41563 274.39175Q81.16563 275.06363 81.16563 276.34488L81.16563 281.18863L79.5875 281.18863ZM97.97813 277.31363L97.97813 275.7355L102.8375 275.7355L102.8375 277.31363L97.97813 277.31363ZM109.775 281.18863L109.775 268.298L111.525 268.298L118.29063 278.423L118.29063 268.298L119.91563 268.298L119.91563 281.18863L118.18125 281.18863L111.4 271.06363L111.4 281.18863L109.775 281.18863ZM121.99375 276.51675Q121.99375 273.923 123.44688 272.673Q124.65 271.64175 126.36875 271.64175Q128.30624 271.64175 129.525 272.90738Q130.74374 274.173 130.74374 276.39175Q130.74374 278.18863 130.19687 279.21988Q129.66562 280.25113 128.63437 280.82925Q127.60313 281.40738 126.36875 281.40738Q124.41563 281.40738 123.19688 280.15738Q121.99375 278.89175 121.99375 276.51675ZM123.61875 276.51675Q123.61875 278.31363 124.4 279.20425Q125.18125 280.09488 126.36875 280.09488Q127.55625 280.09488 128.3375 279.20425Q129.11874 278.298 129.11874 276.46988Q129.11874 274.7355 128.32187 273.84488Q127.54063 272.95425 126.36875 272.95425Q125.18125 272.95425 124.4 273.84488Q123.61875 274.7355 123.61875 276.51675ZM137.88437 281.18863L137.88437 268.298L146.57187 268.298L146.57187 269.82925L139.5875 269.82925L139.5875 273.81363L145.63437 273.81363L145.63437 275.32925L139.5875 275.32925L139.5875 281.18863L137.88437 281.18863ZM148.60312 270.12613L148.60312 268.298L150.18124 268.298L150.18124 270.12613L148.60312 270.12613ZM148.60312 281.18863L148.60312 271.8605L150.18124 271.8605L150.18124 281.18863L148.60312 281.18863ZM151.525 281.18863L154.94687 276.32925L151.79062 271.8605L153.75937 271.8605L155.19687 274.048Q155.60312 274.673 155.85312 275.09488Q156.22812 274.50113 156.55624 274.06363L158.13437 271.8605L160.025 271.8605L156.79062 276.25113L160.275 281.18863L158.32187 281.18863L156.41562 278.28238L155.9 277.50113L153.44687 281.18863L151.525 281.18863Z" fill-rule="nonzero"/><path fill="#9e9e9e" d="M30.384375 303.20425L31.9 303.06363Q32.103127 304.14175 32.634377 304.62613Q33.18125 305.1105 34.040627 305.1105Q34.775 305.1105 35.321877 304.78238Q35.86875 304.43863 36.2125 303.89175Q36.571877 303.32925 36.80625 302.37613Q37.040627 301.423 37.040627 300.43863Q37.040627 300.32925 37.040627 300.12613Q36.55625 300.87613 35.728127 301.34488Q34.915627 301.81363 33.9625 301.81363Q32.36875 301.81363 31.259375 300.65738Q30.15 299.50113 30.15 297.59488Q30.15 295.64175 31.30625 294.45425Q32.4625 293.25113 34.196877 293.25113Q35.4625 293.25113 36.49375 293.93863Q37.540627 294.6105 38.071877 295.8605Q38.61875 297.1105 38.61875 299.4855Q38.61875 301.95425 38.071877 303.423Q37.540627 304.87613 36.478127 305.64175Q35.43125 306.40738 34.009377 306.40738Q32.49375 306.40738 31.525 305.57925Q30.571875 304.7355 30.384375 303.20425ZM36.86875 297.51675Q36.86875 296.15738 36.134377 295.3605Q35.415627 294.56363 34.4 294.56363Q33.3375 294.56363 32.55625 295.423Q31.775 296.28238 31.775 297.65738Q31.775 298.89175 32.509377 299.65738Q33.259377 300.423 34.353127 300.423Q35.446877 300.423 36.15 299.65738Q36.86875 298.89175 36.86875 297.51675ZM41.040627 306.18863L41.040627 304.39175L42.8375 304.39175L42.8375 306.18863L41.040627 306.18863ZM45.259377 294.9855L45.259377 293.46988L53.5875 293.46988L53.5875 294.70425Q52.36875 296.01675 51.15 298.18863Q49.946877 300.34488 49.290627 302.64175Q48.80625 304.26675 48.68125 306.18863L47.05625 306.18863Q47.0875 304.673 47.65 302.51675Q48.228127 300.3605 49.290627 298.3605Q50.353127 296.3605 51.55625 294.9855L45.259377 294.9855ZM55.446877 296.39175Q55.446877 295.01675 56.134377 294.048Q56.8375 293.07925 58.15 293.07925Q59.36875 293.07925 60.165627 293.95425Q60.9625 294.81363 60.9625 296.50113Q60.9625 298.12613 60.15 299.01675Q59.353127 299.89175 58.165627 299.89175Q57.009377 299.89175 56.228127 299.03238Q55.446877 298.15738 55.446877 296.39175ZM58.196877 294.173Q57.603127 294.173 57.2125 294.68863Q56.821877 295.18863 56.821877 296.548Q56.821877 297.798 57.2125 298.298Q57.61875 298.798 58.196877 298.798Q58.790627 298.798 59.18125 298.298Q59.571877 297.78238 59.571877 296.43863Q59.571877 295.18863 59.18125 294.68863Q58.790627 294.173 58.196877 294.173ZM58.2125 306.65738L65.25938 293.07925L66.54063 293.07925L59.509377 306.65738L58.2125 306.65738ZM63.775 303.15738Q63.775 301.78238 64.4625 300.81363Q65.16563 299.84488 66.49375 299.84488Q67.7125 299.84488 68.49375 300.71988Q69.29063 301.57925 69.29063 303.26675Q69.29063 304.89175 68.49375 305.78238Q67.69688 306.65738 66.50938 306.65738Q65.3375 306.65738 64.55625 305.78238Q63.775 304.90738 63.775 303.15738ZM66.54063 300.93863Q65.94688 300.93863 65.55625 301.45425Q65.16563 301.95425 65.16563 303.32925Q65.16563 304.548 65.55625 305.06363Q65.94688 305.57925 66.525 305.57925Q67.13438 305.57925 67.525 305.06363Q67.91563 304.548 67.91563 303.20425Q67.91563 301.95425 67.525 301.45425Q67.13438 300.93863 66.54063 300.93863Z" fill-rule="nonzero"/><path stroke="#757575" stroke-width="1.0" stroke-linecap="butt" d="M29.4 287.68863L237.95 287.68863L259.1523 287.68863" fill-rule="nonzero"/><path fill="#9e9e9e" d="M261.1523 287.68863C261.1523 286.58405 260.2569 285.68863 259.1523 285.68863C258.04776 285.68863 257.1523 286.58405 257.1523 287.68863C257.1523 288.79318 258.04776 289.68863 259.1523 289.68863C260.2569 289.68863 261.1523 288.79318 261.1523 287.68863" fill-rule="nonzero"/><path fill="#1a1a1a" d="M30.74375 439.79407L30.74375 426.90344L33.30625 426.90344L36.353127 436.02844Q36.775 437.3097 36.9625 437.9347Q37.18125 437.23157 37.65 435.8722L40.74375 426.90344L43.025 426.90344L43.025 439.79407L41.384377 439.79407L41.384377 429.01282L37.65 439.79407L36.103127 439.79407L32.384377 428.82532L32.384377 439.79407L30.74375 439.79407ZM51.978127 436.79407L53.61875 436.9972Q53.228127 438.41907 52.18125 439.21594Q51.134377 440.01282 49.509377 440.01282Q47.4625 440.01282 46.259377 438.7472Q45.05625 437.48157 45.05625 435.20032Q45.05625 432.85657 46.259377 431.5597Q47.478127 430.2472 49.415627 430.2472Q51.290627 430.2472 52.478127 431.52844Q53.665627 432.79407 53.665627 435.10657Q53.665627 435.2472 53.65 435.52844L46.696877 435.52844Q46.775 437.07532 47.55625 437.88782Q48.353127 438.70032 49.509377 438.70032Q50.384377 438.70032 50.99375 438.2472Q51.61875 437.79407 51.978127 436.79407ZM46.775 434.23157L51.99375 434.23157Q51.884377 433.0597 51.4 432.46594Q50.634377 431.54407 49.43125 431.54407Q48.353127 431.54407 47.603127 432.27844Q46.86875 433.01282 46.775 434.23157ZM61.65 439.79407L61.65 438.6222Q60.759377 440.01282 59.025 440.01282Q57.915627 440.01282 56.978127 439.40344Q56.040627 438.77844 55.525 437.6847Q55.009377 436.57532 55.009377 435.13782Q55.009377 433.73157 55.478127 432.60657Q55.946877 431.46594 56.86875 430.85657Q57.80625 430.2472 58.9625 430.2472Q59.80625 430.2472 60.4625 430.60657Q61.11875 430.96594 61.540627 431.52844L61.540627 426.90344L63.103127 426.90344L63.103127 439.79407L61.65 439.79407ZM56.634377 435.13782Q56.634377 436.9347 57.384377 437.82532Q58.15 438.70032 59.18125 438.70032Q60.2125 438.70032 60.93125 437.85657Q61.665627 437.01282 61.665627 435.26282Q61.665627 433.35657 60.93125 432.46594Q60.196877 431.5597 59.11875 431.5597Q58.05625 431.5597 57.3375 432.41907Q56.634377 433.27844 56.634377 435.13782ZM65.60313 428.73157L65.60313 426.90344L67.18125 426.90344L67.18125 428.73157L65.60313 428.73157ZM65.60313 439.79407L65.60313 430.46594L67.18125 430.46594L67.18125 439.79407L65.60313 439.79407ZM75.69688 439.79407L75.69688 438.41907Q74.61875 440.01282 72.74375 440.01282Q71.91563 440.01282 71.19688 439.70032Q70.47813 439.3722 70.13438 438.90344Q69.79063 438.41907 69.65 437.71594Q69.55625 437.2472 69.55625 436.2472L69.55625 430.46594L71.13438 430.46594L71.13438 435.63782Q71.13438 436.8722 71.22813 437.3097Q71.38438 437.9347 71.86875 438.29407Q72.35313 438.63782 73.05625 438.63782Q73.775 438.63782 74.4 438.27844Q75.025 437.91907 75.275 437.29407Q75.54063 436.65344 75.54063 435.46594L75.54063 430.46594L77.11875 430.46594L77.11875 439.79407L75.69688 439.79407ZM79.5875 439.79407L79.5875 430.46594L81.00938 430.46594L81.00938 431.76282Q81.44688 431.09094 82.16563 430.66907Q82.9 430.2472 83.8375 430.2472Q84.86875 430.2472 85.525 430.6847Q86.19688 431.10657 86.4625 431.88782Q87.57188 430.2472 89.35313 430.2472Q90.74375 430.2472 91.47813 431.02844Q92.22813 431.79407 92.22813 433.38782L92.22813 439.79407L90.66563 439.79407L90.66563 433.91907Q90.66563 432.96594 90.50938 432.54407Q90.35313 432.1222 89.94688 431.8722Q89.54063 431.6222 88.99375 431.6222Q88.00938 431.6222 87.35313 432.27844Q86.7125 432.9347 86.7125 434.3722L86.7125 439.79407L85.13438 439.79407L85.13438 433.73157Q85.13438 432.66907 84.74375 432.15344Q84.35313 431.6222 83.47813 431.6222Q82.80625 431.6222 82.24375 431.98157Q81.68125 432.32532 81.41563 432.9972Q81.16563 433.66907 81.16563 434.95032L81.16563 439.79407L79.5875 439.79407ZM97.97813 435.91907L97.97813 434.34094L102.8375 434.34094L102.8375 435.91907L97.97813 435.91907ZM109.88438 439.79407L109.88438 426.90344L118.57188 426.90344L118.57188 428.4347L111.5875 428.4347L111.5875 432.41907L117.63438 432.41907L117.63438 433.9347L111.5875 433.9347L111.5875 439.79407L109.88438 439.79407ZM120.60313 428.73157L120.60313 426.90344L122.18125 426.90344L122.18125 428.73157L120.60313 428.73157ZM120.60313 439.79407L120.60313 430.46594L122.18125 430.46594L122.18125 439.79407L120.60313 439.79407ZM123.525 439.79407L126.94688 434.9347L123.79063 430.46594L125.75938 430.46594L127.19688 432.65344Q127.60313 433.27844 127.85313 433.70032Q128.22812 433.10657 128.55624 432.66907L130.13437 430.46594L132.025 430.46594L128.79062 434.85657L132.275 439.79407L130.32187 439.79407L128.41562 436.88782L127.9 436.10657L125.44688 439.79407L123.525 439.79407ZM138.68124 438.63782Q137.80624 439.38782 136.97812 439.70032Q136.16562 440.01282 135.24374 440.01282Q133.69687 440.01282 132.86874 439.26282Q132.05624 438.4972 132.05624 437.32532Q132.05624 436.65344 132.36874 436.09094Q132.68124 435.51282 133.18124 435.16907Q133.68124 434.82532 134.32187 434.65344Q134.79062 434.52844 135.72812 434.41907Q137.63437 434.1847 138.54062 433.8722Q138.55624 433.54407 138.55624 433.45032Q138.55624 432.4972 138.10312 432.09094Q137.49374 431.5597 136.30624 431.5597Q135.18124 431.5597 134.65 431.95032Q134.11874 432.34094 133.86874 433.34094L132.32187 433.1222Q132.54062 432.1222 133.00937 431.51282Q133.49374 430.90344 134.4 430.57532Q135.32187 430.2472 136.54062 430.2472Q137.72812 430.2472 138.47812 430.52844Q139.22812 430.8097 139.57187 431.2472Q139.93124 431.66907 140.07187 432.3097Q140.15 432.71594 140.15 433.77844L140.15 435.88782Q140.15 438.09094 140.24374 438.6847Q140.35312 439.26282 140.65 439.79407L138.99374 439.79407Q138.74374 439.29407 138.68124 438.63782ZM138.54062 435.10657Q137.68124 435.46594 135.9625 435.70032Q134.99374 435.84094 134.5875 436.02844Q134.18124 436.20032 133.9625 436.54407Q133.74374 436.8722 133.74374 437.29407Q133.74374 437.91907 134.2125 438.34094Q134.69687 438.76282 135.61874 438.76282Q136.54062 438.76282 137.24374 438.3722Q137.9625 437.96594 138.29062 437.27844Q138.54062 436.73157 138.54062 435.6847L138.54062 435.10657ZM144.04062 439.79407L142.57187 439.79407L142.57187 426.90344L144.16562 426.90344L144.16562 431.51282Q145.16562 430.2472 146.7125 430.2472Q147.57187 430.2472 148.3375 430.60657Q149.11874 430.95032 149.60312 431.57532Q150.10312 432.20032 150.38437 433.09094Q150.66562 433.98157 150.66562 434.98157Q150.66562 437.38782 149.47812 438.70032Q148.30624 440.01282 146.63437 440.01282Q144.99374 440.01282 144.04062 438.6222L144.04062 439.79407ZM144.025 435.0597Q144.025 436.73157 144.47812 437.48157Q145.22812 438.70032 146.50937 438.70032Q147.54062 438.70032 148.29062 437.8097Q149.05624 436.90344 149.05624 435.1222Q149.05624 433.29407 148.32187 432.41907Q147.60312 431.54407 146.57187 431.54407Q145.54062 431.54407 144.775 432.45032Q144.025 433.35657 144.025 435.0597ZM152.55624 439.79407L152.55624 426.90344L154.13437 426.90344L154.13437 439.79407L152.55624 439.79407ZM162.97812 436.79407L164.61874 436.9972Q164.22812 438.41907 163.18124 439.21594Q162.13437 440.01282 160.50937 440.01282Q158.4625 440.01282 157.25937 438.7472Q156.05624 437.48157 156.05624 435.20032Q156.05624 432.85657 157.25937 431.5597Q158.47812 430.2472 160.41562 430.2472Q162.29062 430.2472 163.47812 431.52844Q164.66562 432.79407 164.66562 435.10657Q164.66562 435.2472 164.65 435.52844L157.69687 435.52844Q157.775 437.07532 158.55624 437.88782Q159.35312 438.70032 160.50937 438.70032Q161.38437 438.70032 161.99374 438.2472Q162.61874 437.79407 162.97812 436.79407ZM157.775 434.23157L162.99374 434.23157Q162.88437 433.0597 162.4 432.46594Q161.63437 431.54407 160.43124 431.54407Q159.35312 431.54407 158.60312 432.27844Q157.86874 433.01282 157.775 434.23157Z" fill-rule="nonzero"/><path fill="#9e9e9e" d="M36.103127 464.79407L34.525 464.79407L34.525 454.71594Q33.946877 455.26282 33.025 455.8097Q32.103127 456.34094 31.353125 456.6222L31.353125 455.09094Q32.68125 454.46594 33.68125 453.57532Q34.68125 452.6847 35.0875 451.85657L36.103127 451.85657L36.103127 464.79407ZM45.2125 464.79407L45.2125 461.71594L39.634377 461.71594L39.634377 460.26282L45.509377 451.90344L46.80625 451.90344L46.80625 460.26282L48.540627 460.26282L48.540627 461.71594L46.80625 461.71594L46.80625 464.79407L45.2125 464.79407ZM45.2125 460.26282L45.2125 454.45032L41.18125 460.26282L45.2125 460.26282ZM51.040627 464.79407L51.040627 462.9972L52.8375 462.9972L52.8375 464.79407L51.040627 464.79407ZM55.15 461.38782L56.74375 461.1847Q57.009377 462.52844 57.665627 463.1222Q58.321877 463.71594 59.259377 463.71594Q60.384377 463.71594 61.15 462.95032Q61.915627 462.16907 61.915627 461.02844Q61.915627 459.9347 61.196877 459.23157Q60.49375 458.51282 59.4 458.51282Q58.946877 458.51282 58.275 458.70032L58.446877 457.3097Q58.603127 457.32532 58.7125 457.32532Q59.7125 457.32532 60.525 456.79407Q61.3375 456.26282 61.3375 455.16907Q61.3375 454.29407 60.74375 453.73157Q60.15 453.15344 59.228127 453.15344Q58.30625 453.15344 57.68125 453.73157Q57.071877 454.3097 56.9 455.48157L55.321877 455.20032Q55.603127 453.60657 56.634377 452.73157Q57.665627 451.85657 59.196877 451.85657Q60.24375 451.85657 61.134377 452.3097Q62.025 452.76282 62.49375 453.54407Q62.9625 454.32532 62.9625 455.20032Q62.9625 456.04407 62.509377 456.73157Q62.071877 457.40344 61.18125 457.8097Q62.321877 458.07532 62.946877 458.91907Q63.5875 459.7472 63.5875 460.98157Q63.5875 462.66907 62.353127 463.85657Q61.134377 465.02844 59.259377 465.02844Q57.55625 465.02844 56.43125 464.01282Q55.321877 462.9972 55.15 461.38782ZM65.44688 454.9972Q65.44688 453.6222 66.13438 452.65344Q66.8375 451.6847 68.15 451.6847Q69.36875 451.6847 70.16563 452.5597Q70.9625 453.41907 70.9625 455.10657Q70.9625 456.73157 70.15 457.6222Q69.35313 458.4972 68.16563 458.4972Q67.00938 458.4972 66.22813 457.63782Q65.44688 456.76282 65.44688 454.9972ZM68.19688 452.77844Q67.60313 452.77844 67.2125 453.29407Q66.82188 453.79407 66.82188 455.15344Q66.82188 456.40344 67.2125 456.90344Q67.61875 457.40344 68.19688 457.40344Q68.79063 457.40344 69.18125 456.90344Q69.57188 456.38782 69.57188 455.04407Q69.57188 453.79407 69.18125 453.29407Q68.79063 452.77844 68.19688 452.77844ZM68.2125 465.26282L75.25938 451.6847L76.54063 451.6847L69.50938 465.26282L68.2125 465.26282ZM73.775 461.76282Q73.775 460.38782 74.4625 459.41907Q75.16563 458.45032 76.49375 458.45032Q77.7125 458.45032 78.49375 459.32532Q79.29063 460.1847 79.29063 461.8722Q79.29063 463.4972 78.49375 464.38782Q77.69688 465.26282 76.50938 465.26282Q75.3375 465.26282 74.55625 464.38782Q73.775 463.51282 73.775 461.76282ZM76.54063 459.54407Q75.94688 459.54407 75.55625 460.0597Q75.16563 460.5597 75.16563 461.9347Q75.16563 463.15344 75.55625 463.66907Q75.94688 464.1847 76.525 464.1847Q77.13438 464.1847 77.525 463.66907Q77.91563 463.15344 77.91563 461.8097Q77.91563 460.5597 77.525 460.0597Q77.13438 459.54407 76.54063 459.54407Z" fill-rule="nonzero"/><path stroke="#757575" stroke-width="1.0" stroke-linecap="butt" d="M29.4 446.29407L237.95 446.29407L290.39502 446.29407" fill-rule="nonzero"/><path fill="#9e9e9e" d="M292.39502 446.29407C292.39502 445.18948 291.4996 444.29407 290.39502 444.29407C289.29044 444.29407 288.39502 445.18948 288.39502 446.29407C288.39502 447.39865 289.29044 448.29407 290.39502 448.29407C291.4996 448.29407 292.39502 447.39865 292.39502 446.29407" fill-rule="nonzero"/><path fill="#1a1a1a" d="M815.9125 113.5L815.9125 100.609375L817.6312 100.609375L817.6312 111.984375L823.975 111.984375L823.975 113.5L815.9125 113.5ZM825.1937 108.828125Q825.1937 106.234375 826.64685 104.984375Q827.85 103.953125 829.5687 103.953125Q831.5062 103.953125 832.725 105.21875Q833.9437 106.484375 833.9437 108.703125Q833.9437 110.5 833.39685 111.53125Q832.8656 112.5625 831.83435 113.140625Q830.8031 113.71875 829.5687 113.71875Q827.6156 113.71875 826.39685 112.46875Q825.1937 111.203125 825.1937 108.828125ZM826.8187 108.828125Q826.8187 110.625 827.6 111.515625Q828.3812 112.40625 829.5687 112.40625Q830.7562 112.40625 831.5375 111.515625Q832.3187 110.609375 832.3187 108.78125Q832.3187 107.046875 831.52185 106.15625Q830.7406 105.265625 829.5687 105.265625Q828.3812 105.265625 827.6 106.15625Q826.8187 107.046875 826.8187 108.828125ZM837.5062 113.5L834.64685 104.171875L836.2875 104.171875L837.77185 109.546875L838.33435 111.5625Q838.3656 111.40625 838.8031 109.625L840.3031 104.171875L841.9281 104.171875L843.3187 109.578125L843.7875 111.359375L844.3187 109.5625L845.9281 104.171875L847.45935 104.171875L844.5375 113.5L842.89685 113.5L841.4125 107.90625L841.0531 106.3125L839.1625 113.5L837.5062 113.5ZM853.1781 109.625L853.1781 108.046875L858.0375 108.046875L858.0375 109.625L853.1781 109.625ZM865.08435 113.5L865.08435 100.609375L873.77185 100.609375L873.77185 102.140625L866.7875 102.140625L866.7875 106.125L872.83435 106.125L872.83435 107.640625L866.7875 107.640625L866.7875 113.5L865.08435 113.5ZM875.8031 102.4375L875.8031 100.609375L877.3812 100.609375L877.3812 102.4375L875.8031 102.4375ZM875.8031 113.5L875.8031 104.171875L877.3812 104.171875L877.3812 113.5L875.8031 113.5ZM878.725 113.5L882.14685 108.640625L878.9906 104.171875L880.95935 104.171875L882.39685 106.359375Q882.8031 106.984375 883.0531 107.40625Q883.4281 106.8125 883.7562 106.375L885.33435 104.171875L887.225 104.171875L883.9906 108.5625L887.475 113.5L885.52185 113.5L883.6156 110.59375L883.1 109.8125L880.64685 113.5L878.725 113.5ZM893.8812 112.34375Q893.0062 113.09375 892.1781 113.40625Q891.3656 113.71875 890.4437 113.71875Q888.89685 113.71875 888.0687 112.96875Q887.2562 112.203125 887.2562 111.03125Q887.2562 110.359375 887.5687 109.796875Q887.8812 109.21875 888.3812 108.875Q888.8812 108.53125 889.52185 108.359375Q889.9906 108.234375 890.9281 108.125Q892.83435 107.890625 893.7406 107.578125Q893.7562 107.25 893.7562 107.15625Q893.7562 106.203125 893.3031 105.796875Q892.6937 105.265625 891.5062 105.265625Q890.3812 105.265625 889.85 105.65625Q889.3187 106.046875 889.0687 107.046875L887.52185 106.828125Q887.7406 105.828125 888.20935 105.21875Q888.6937 104.609375 889.6 104.28125Q890.52185 103.953125 891.7406 103.953125Q892.9281 103.953125 893.6781 104.234375Q894.4281 104.515625 894.77185 104.953125Q895.1312 105.375 895.27185 106.015625Q895.35 106.421875 895.35 107.484375L895.35 109.59375Q895.35 111.796875 895.4437 112.390625Q895.5531 112.96875 895.85 113.5L894.1937 113.5Q893.9437 113.0 893.8812 112.34375ZM893.7406 108.8125Q892.8812 109.171875 891.1625 109.40625Q890.1937 109.546875 889.7875 109.734375Q889.3812 109.90625 889.1625 110.25Q888.9437 110.578125 888.9437 111.0Q888.9437 111.625 889.4125 112.046875Q889.89685 112.46875 890.8187 112.46875Q891.7406 112.46875 892.4437 112.078125Q893.1625 111.671875 893.4906 110.984375Q893.7406 110.4375 893.7406 109.390625L893.7406 108.8125ZM899.2406 113.5L897.77185 113.5L897.77185 100.609375L899.3656 100.609375L899.3656 105.21875Q900.3656 103.953125 901.9125 103.953125Q902.77185 103.953125 903.5375 104.3125Q904.3187 104.65625 904.8031 105.28125Q905.3031 105.90625 905.58435 106.796875Q905.8656 107.6875 905.8656 108.6875Q905.8656 111.09375 904.6781 112.40625Q903.5062 113.71875 901.83435 113.71875Q900.1937 113.71875 899.2406 112.328125L899.2406 113.5ZM899.225 108.765625Q899.225 110.4375 899.6781 111.1875Q900.4281 112.40625 901.70935 112.40625Q902.7406 112.40625 903.4906 111.515625Q904.2562 110.609375 904.2562 108.828125Q904.2562 107.0 903.52185 106.125Q902.8031 105.25 901.77185 105.25Q900.7406 105.25 899.975 106.15625Q899.225 107.0625 899.225 108.765625ZM907.7562 113.5L907.7562 100.609375L909.33435 100.609375L909.33435 113.5L907.7562 113.5ZM918.1781 110.5L919.8187 110.703125Q919.4281 112.125 918.3812 112.921875Q917.33435 113.71875 915.70935 113.71875Q913.6625 113.71875 912.45935 112.453125Q911.2562 111.1875 911.2562 108.90625Q911.2562 106.5625 912.45935 105.265625Q913.6781 103.953125 915.6156 103.953125Q917.4906 103.953125 918.6781 105.234375Q919.8656 106.5 919.8656 108.8125Q919.8656 108.953125 919.85 109.234375L912.89685 109.234375Q912.975 110.78125 913.7562 111.59375Q914.5531 112.40625 915.70935 112.40625Q916.58435 112.40625 917.1937 111.953125Q917.8187 111.5 918.1781 110.5ZM912.975 107.9375L918.1937 107.9375Q918.08435 106.765625 917.6 106.171875Q916.83435 105.25 915.6312 105.25Q914.5531 105.25 913.8031 105.984375Q913.0687 106.71875 912.975 107.9375Z" fill-rule="nonzero"/><path fill="#9e9e9e" d="M885.4125 138.5L885.4125 135.42188L879.83435 135.42188L879.83435 133.96875L885.70935 125.609375L887.0062 125.609375L887.0062 133.96875L888.7406 133.96875L888.7406 135.42188L887.0062 135.42188L887.0062 138.5L885.4125 138.5ZM885.4125 133.96875L885.4125 128.15625L881.3812 133.96875L885.4125 133.96875ZM891.2406 138.5L891.2406 136.70312L893.0375 136.70312L893.0375 138.5L891.2406 138.5ZM895.35 132.14062Q895.35 129.85938 895.8187 128.46875Q896.2875 127.078125 897.20935 126.328125Q898.14685 125.5625 899.5531 125.5625Q900.58435 125.5625 901.3656 125.984375Q902.14685 126.390625 902.64685 127.1875Q903.1625 127.96875 903.45935 129.10938Q903.7562 130.23438 903.7562 132.14062Q903.7562 134.40625 903.2875 135.8125Q902.8187 137.20312 901.8812 137.96875Q900.95935 138.71875 899.5531 138.71875Q897.6781 138.71875 896.6156 137.39062Q895.35 135.78125 895.35 132.14062ZM896.975 132.14062Q896.975 135.3125 897.70935 136.375Q898.45935 137.42188 899.5531 137.42188Q900.6312 137.42188 901.3812 136.375Q902.1312 135.3125 902.1312 132.14062Q902.1312 128.96875 901.3812 127.921875Q900.6312 126.875 899.5375 126.875Q898.4437 126.875 897.7875 127.796875Q896.975 128.96875 896.975 132.14062ZM905.64685 128.70312Q905.64685 127.328125 906.33435 126.359375Q907.0375 125.390625 908.35 125.390625Q909.5687 125.390625 910.3656 126.265625Q911.1625 127.125 911.1625 128.8125Q911.1625 130.4375 910.35 131.32812Q909.5531 132.20312 908.3656 132.20312Q907.20935 132.20312 906.4281 131.34375Q905.64685 130.46875 905.64685 128.70312ZM908.39685 126.484375Q907.8031 126.484375 907.4125 127.0Q907.02185 127.5 907.02185 128.85938Q907.02185 130.10938 907.4125 130.60938Q907.8187 131.10938 908.39685 131.10938Q908.9906 131.10938 909.3812 130.60938Q909.77185 130.09375 909.77185 128.75Q909.77185 127.5 909.3812 127.0Q908.9906 126.484375 908.39685 126.484375ZM908.4125 138.96875L915.45935 125.390625L916.7406 125.390625L909.70935 138.96875L908.4125 138.96875ZM913.975 135.46875Q913.975 134.09375 914.6625 133.125Q915.3656 132.15625 916.6937 132.15625Q917.9125 132.15625 918.6937 133.03125Q919.4906 133.89062 919.4906 135.57812Q919.4906 137.20312 918.6937 138.09375Q917.89685 138.96875 916.70935 138.96875Q915.5375 138.96875 914.7562 138.09375Q913.975 137.21875 913.975 135.46875ZM916.7406 133.25Q916.14685 133.25 915.7562 133.76562Q915.3656 134.26562 915.3656 135.64062Q915.3656 136.85938 915.7562 137.375Q916.14685 137.89062 916.725 137.89062Q917.33435 137.89062 917.725 137.375Q918.1156 136.85938 918.1156 135.51562Q918.1156 134.26562 917.725 133.76562Q917.33435 133.25 916.7406 133.25Z" fill-rule="nonzero"/><path stroke="#757575" stroke-width="1.0" stroke-linecap="butt" d="M920.6 120.0L712.05 120.0L502.6267 109.798035" fill-rule="nonzero"/><path fill="#9e9e9e" d="M504.6267 109.798035C504.6267 108.69347 503.7313 107.798035 502.6267 107.798035C501.52216 107.798035 500.6267 108.69347 500.6267 109.798035C500.6267 110.90261 501.52216 111.798035 502.6267 111.798035C503.7313 111.798035 504.6267 110.90261 504.6267 109.798035" fill-rule="nonzero"/><path fill="#1a1a1a" d="M821.9125 406.70117L821.9125 393.81055L823.6312 393.81055L823.6312 405.18555L829.975 405.18555L829.975 406.70117L821.9125 406.70117ZM831.1937 402.0293Q831.1937 399.43555 832.64685 398.18555Q833.85 397.1543 835.5687 397.1543Q837.5062 397.1543 838.725 398.41992Q839.9437 399.68555 839.9437 401.9043Q839.9437 403.70117 839.39685 404.73242Q838.8656 405.76367 837.83435 406.3418Q836.8031 406.91992 835.5687 406.91992Q833.6156 406.91992 832.39685 405.66992Q831.1937 404.4043 831.1937 402.0293ZM832.8187 402.0293Q832.8187 403.82617 833.6 404.7168Q834.3812 405.60742 835.5687 405.60742Q836.7562 405.60742 837.5375 404.7168Q838.3187 403.81055 838.3187 401.98242Q838.3187 400.24805 837.52185 399.35742Q836.7406 398.4668 835.5687 398.4668Q834.3812 398.4668 833.6 399.35742Q832.8187 400.24805 832.8187 402.0293ZM843.5062 406.70117L840.64685 397.37305L842.2875 397.37305L843.77185 402.74805L844.33435 404.76367Q844.3656 404.60742 844.8031 402.82617L846.3031 397.37305L847.9281 397.37305L849.3187 402.7793L849.7875 404.56055L850.3187 402.76367L851.9281 397.37305L853.45935 397.37305L850.5375 406.70117L848.89685 406.70117L847.4125 401.10742L847.0531 399.51367L845.1625 406.70117L843.5062 406.70117ZM859.1781 402.82617L859.1781 401.24805L864.0375 401.24805L864.0375 402.82617L859.1781 402.82617ZM870.975 406.70117L870.975 393.81055L872.725 393.81055L879.4906 403.93555L879.4906 393.81055L881.1156 393.81055L881.1156 406.70117L879.3812 406.70117L872.6 396.57617L872.6 406.70117L870.975 406.70117ZM883.1937 402.0293Q883.1937 399.43555 884.64685 398.18555Q885.85 397.1543 887.5687 397.1543Q889.5062 397.1543 890.725 398.41992Q891.9437 399.68555 891.9437 401.9043Q891.9437 403.70117 891.39685 404.73242Q890.8656 405.76367 889.83435 406.3418Q888.8031 406.91992 887.5687 406.91992Q885.6156 406.91992 884.39685 405.66992Q883.1937 404.4043 883.1937 402.0293ZM884.8187 402.0293Q884.8187 403.82617 885.6 404.7168Q886.3812 405.60742 887.5687 405.60742Q888.7562 405.60742 889.5375 404.7168Q890.3187 403.81055 890.3187 401.98242Q890.3187 400.24805 889.52185 399.35742Q888.7406 398.4668 887.5687 398.4668Q886.3812 398.4668 885.6 399.35742Q884.8187 400.24805 884.8187 402.0293ZM899.08435 406.70117L899.08435 393.81055L907.77185 393.81055L907.77185 395.3418L900.7875 395.3418L900.7875 399.32617L906.83435 399.32617L906.83435 400.8418L900.7875 400.8418L900.7875 406.70117L899.08435 406.70117ZM909.8031 395.63867L909.8031 393.81055L911.3812 393.81055L911.3812 395.63867L909.8031 395.63867ZM909.8031 406.70117L909.8031 397.37305L911.3812 397.37305L911.3812 406.70117L909.8031 406.70117ZM912.725 406.70117L916.14685 401.8418L912.9906 397.37305L914.95935 397.37305L916.39685 399.56055Q916.8031 400.18555 917.0531 400.60742Q917.4281 400.01367 917.7562 399.57617L919.33435 397.37305L921.225 397.37305L917.9906 401.76367L921.475 406.70117L919.52185 406.70117L917.6156 403.79492L917.1 403.01367L914.64685 406.70117L912.725 406.70117Z" fill-rule="nonzero"/><path fill="#9e9e9e" d="M870.35 428.32617L872.0062 428.18555Q872.1937 429.4043 872.8656 430.01367Q873.5375 430.62305 874.4906 430.62305Q875.6312 430.62305 876.4125 429.76367Q877.20935 428.9043 877.20935 427.4668Q877.20935 426.12305 876.4437 425.3418Q875.6937 424.56055 874.45935 424.56055Q873.6937 424.56055 873.0687 424.9043Q872.45935 425.24805 872.1156 425.81055L870.6312 425.60742L871.8812 418.99805L878.2875 418.99805L878.2875 420.49805L873.14685 420.49805L872.4437 423.9668Q873.6156 423.1543 874.8812 423.1543Q876.5687 423.1543 877.725 424.32617Q878.89685 425.49805 878.89685 427.32617Q878.89685 429.07617 877.8656 430.35742Q876.6312 431.91992 874.4906 431.91992Q872.725 431.91992 871.6156 430.93555Q870.5062 429.95117 870.35 428.32617ZM885.4125 431.70117L885.4125 428.62305L879.83435 428.62305L879.83435 427.16992L885.70935 418.81055L887.0062 418.81055L887.0062 427.16992L888.7406 427.16992L888.7406 428.62305L887.0062 428.62305L887.0062 431.70117L885.4125 431.70117ZM885.4125 427.16992L885.4125 421.35742L881.3812 427.16992L885.4125 427.16992ZM891.2406 431.70117L891.2406 429.9043L893.0375 429.9043L893.0375 431.70117L891.2406 431.70117ZM895.45935 420.49805L895.45935 418.98242L903.7875 418.98242L903.7875 420.2168Q902.5687 421.5293 901.35 423.70117Q900.14685 425.85742 899.4906 428.1543Q899.0062 429.7793 898.8812 431.70117L897.2562 431.70117Q897.2875 430.18555 897.85 428.0293Q898.4281 425.87305 899.4906 423.87305Q900.5531 421.87305 901.7562 420.49805L895.45935 420.49805ZM905.64685 421.9043Q905.64685 420.5293 906.33435 419.56055Q907.0375 418.5918 908.35 418.5918Q909.5687 418.5918 910.3656 419.4668Q911.1625 420.32617 911.1625 422.01367Q911.1625 423.63867 910.35 424.5293Q909.5531 425.4043 908.3656 425.4043Q907.20935 425.4043 906.4281 424.54492Q905.64685 423.66992 905.64685 421.9043ZM908.39685 419.68555Q907.8031 419.68555 907.4125 420.20117Q907.02185 420.70117 907.02185 422.06055Q907.02185 423.31055 907.4125 423.81055Q907.8187 424.31055 908.39685 424.31055Q908.9906 424.31055 909.3812 423.81055Q909.77185 423.29492 909.77185 421.95117Q909.77185 420.70117 909.3812 420.20117Q908.9906 419.68555 908.39685 419.68555ZM908.4125 432.16992L915.45935 418.5918L916.7406 418.5918L909.70935 432.16992L908.4125 432.16992ZM913.975 428.66992Q913.975 427.29492 914.6625 426.32617Q915.3656 425.35742 916.6937 425.35742Q917.9125 425.35742 918.6937 426.23242Q919.4906 427.0918 919.4906 428.7793Q919.4906 430.4043 918.6937 431.29492Q917.89685 432.16992 916.70935 432.16992Q915.5375 432.16992 914.7562 431.29492Q913.975 430.41992 913.975 428.66992ZM916.7406 426.45117Q916.14685 426.45117 915.7562 426.9668Q915.3656 427.4668 915.3656 428.8418Q915.3656 430.06055 915.7562 430.57617Q916.14685 431.0918 916.725 431.0918Q917.33435 431.0918 917.725 430.57617Q918.1156 430.06055 918.1156 428.7168Q918.1156 427.4668 917.725 426.9668Q917.33435 426.45117 916.7406 426.45117Z" fill-rule="nonzero"/><path stroke="#757575" stroke-width="1.0" stroke-linecap="butt" d="M920.6 413.20117L712.05 413.20117L677.09656 413.20117" fill-rule="nonzero"/><path fill="#9e9e9e" d="M679.09656 413.20117C679.09656 412.0966 678.2012 411.20117 677.09656 411.20117C675.992 411.20117 675.09656 412.0966 675.09656 413.20117C675.09656 414.30573 675.992 415.20117 677.09656 415.20117C678.2012 415.20117 679.09656 414.30573 679.09656 413.20117" fill-rule="nonzero"/><path fill="#999999" d="M36.80625 69.525L30.165625 72.35313L30.165625 71.13438L35.415627 68.94688L30.165625 66.79063L30.165625 65.57188L36.80625 68.36875L36.80625 69.525ZM44.446877 72.7125L44.446877 73.9L37.821877 73.9Q37.80625 73.4625 37.9625 73.04063Q38.228127 72.36875 38.775 71.7125Q39.3375 71.05625 40.384377 70.19688Q42.025 68.85313 42.5875 68.07188Q43.165627 67.29063 43.165627 66.5875Q43.165627 65.85313 42.634377 65.35313Q42.11875 64.85313 41.290627 64.85313Q40.4 64.85313 39.853127 65.38438Q39.321877 65.91563 39.321877 66.86875L38.05625 66.72813Q38.18125 65.32188 39.025 64.5875Q39.884377 63.8375 41.30625 63.8375Q42.759377 63.8375 43.5875 64.63438Q44.43125 65.43125 44.43125 66.61875Q44.43125 67.22813 44.18125 67.80625Q43.946877 68.38438 43.36875 69.025Q42.80625 69.66563 41.478127 70.79063Q40.36875 71.7125 40.05625 72.05625Q39.74375 72.38438 39.540627 72.7125L44.446877 72.7125ZM45.978127 68.9625Q45.978127 67.18125 46.3375 66.10313Q46.7125 65.00938 47.43125 64.43125Q48.15 63.8375 49.24375 63.8375Q50.05625 63.8375 50.665627 64.16563Q51.275 64.49375 51.665627 65.10313Q52.071877 65.7125 52.290627 66.5875Q52.509377 67.4625 52.509377 68.9625Q52.509377 70.72813 52.15 71.80625Q51.790627 72.88438 51.071877 73.47813Q50.353127 74.07188 49.24375 74.07188Q47.80625 74.07188 46.978127 73.025Q45.978127 71.775 45.978127 68.9625ZM47.24375 68.9625Q47.24375 71.43125 47.821877 72.24375Q48.4 73.05625 49.24375 73.05625Q50.103127 73.05625 50.68125 72.24375Q51.259377 71.41563 51.259377 68.9625Q51.259377 66.47813 50.68125 65.66563Q50.103127 64.85313 49.228127 64.85313Q48.384377 64.85313 47.884377 65.57188Q47.24375 66.49375 47.24375 68.9625ZM53.978127 68.9625Q53.978127 67.18125 54.3375 66.10313Q54.7125 65.00938 55.43125 64.43125Q56.15 63.8375 57.24375 63.8375Q58.05625 63.8375 58.665627 64.16563Q59.275 64.49375 59.665627 65.10313Q60.071877 65.7125 60.290627 66.5875Q60.509377 67.4625 60.509377 68.9625Q60.509377 70.72813 60.15 71.80625Q59.790627 72.88438 59.071877 73.47813Q58.353127 74.07188 57.24375 74.07188Q55.80625 74.07188 54.978127 73.025Q53.978127 71.775 53.978127 68.9625ZM55.24375 68.9625Q55.24375 71.43125 55.821877 72.24375Q56.4 73.05625 57.24375 73.05625Q58.103127 73.05625 58.68125 72.24375Q59.259377 71.41563 59.259377 68.9625Q59.259377 66.47813 58.68125 65.66563Q58.103127 64.85313 57.228127 64.85313Q56.384377 64.85313 55.884377 65.57188Q55.24375 66.49375 55.24375 68.9625ZM62.65 73.9L62.65 72.49375L64.04063 72.49375L64.04063 73.9Q64.04063 74.66563 63.759377 75.13438Q63.49375 75.61875 62.9 75.88438L62.55625 75.35313Q62.946877 75.18125 63.134377 74.85313Q63.321877 74.525 63.3375 73.9L62.65 73.9ZM65.97813 68.9625Q65.97813 67.18125 66.3375 66.10313Q66.7125 65.00938 67.43125 64.43125Q68.15 63.8375 69.24375 63.8375Q70.05625 63.8375 70.66563 64.16563Q71.275 64.49375 71.66563 65.10313Q72.07188 65.7125 72.29063 66.5875Q72.50938 67.4625 72.50938 68.9625Q72.50938 70.72813 72.15 71.80625Q71.79063 72.88438 71.07188 73.47813Q70.35313 74.07188 69.24375 74.07188Q67.80625 74.07188 66.97813 73.025Q65.97813 71.775 65.97813 68.9625ZM67.24375 68.9625Q67.24375 71.43125 67.82188 72.24375Q68.4 73.05625 69.24375 73.05625Q70.10313 73.05625 70.68125 72.24375Q71.25938 71.41563 71.25938 68.9625Q71.25938 66.47813 70.68125 65.66563Q70.10313 64.85313 69.22813 64.85313Q68.38438 64.85313 67.88438 65.57188Q67.24375 66.49375 67.24375 68.9625ZM73.97813 68.9625Q73.97813 67.18125 74.3375 66.10313Q74.7125 65.00938 75.43125 64.43125Q76.15 63.8375 77.24375 63.8375Q78.05625 63.8375 78.66563 64.16563Q79.275 64.49375 79.66563 65.10313Q80.07188 65.7125 80.29063 66.5875Q80.50938 67.4625 80.50938 68.9625Q80.50938 70.72813 80.15 71.80625Q79.79063 72.88438 79.07188 73.47813Q78.35313 74.07188 77.24375 74.07188Q75.80625 74.07188 74.97813 73.025Q73.97813 71.775 73.97813 68.9625ZM75.24375 68.9625Q75.24375 71.43125 75.82188 72.24375Q76.4 73.05625 77.24375 73.05625Q78.10313 73.05625 78.68125 72.24375Q79.25938 71.41563 79.25938 68.9625Q79.25938 66.47813 78.68125 65.66563Q78.10313 64.85313 77.22813 64.85313Q76.38438 64.85313 75.88438 65.57188Q75.24375 66.49375 75.24375 68.9625ZM81.97813 68.9625Q81.97813 67.18125 82.3375 66.10313Q82.7125 65.00938 83.43125 64.43125Q84.15 63.8375 85.24375 63.8375Q86.05625 63.8375 86.66563 64.16563Q87.275 64.49375 87.66563 65.10313Q88.07188 65.7125 88.29063 66.5875Q88.50938 67.4625 88.50938 68.9625Q88.50938 70.72813 88.15 71.80625Q87.79063 72.88438 87.07188 73.47813Q86.35313 74.07188 85.24375 74.07188Q83.80625 74.07188 82.97813 73.025Q81.97813 71.775 81.97813 68.9625ZM83.24375 68.9625Q83.24375 71.43125 83.82188 72.24375Q84.4 73.05625 85.24375 73.05625Q86.10313 73.05625 86.68125 72.24375Q87.25938 71.41563 87.25938 68.9625Q87.25938 66.47813 86.68125 65.66563Q86.10313 64.85313 85.22813 64.85313Q84.38438 64.85313 83.88438 65.57188Q83.24375 66.49375 83.24375 68.9625ZM90.65 73.9L90.65 72.49375L92.04063 72.49375L92.04063 73.9Q92.04063 74.66563 91.75938 75.13438Q91.49375 75.61875 90.9 75.88438L90.55625 75.35313Q90.94688 75.18125 91.13438 74.85313Q91.32188 74.525 91.3375 73.9L90.65 73.9ZM93.97813 68.9625Q93.97813 67.18125 94.3375 66.10313Q94.7125 65.00938 95.43125 64.43125Q96.15 63.8375 97.24375 63.8375Q98.05625 63.8375 98.66563 64.16563Q99.275 64.49375 99.66563 65.10313Q100.07188 65.7125 100.29063 66.5875Q100.50938 67.4625 100.50938 68.9625Q100.50938 70.72813 100.15 71.80625Q99.79063 72.88438 99.07188 73.47813Q98.35313 74.07188 97.24375 74.07188Q95.80625 74.07188 94.97813 73.025Q93.97813 71.775 93.97813 68.9625ZM95.24375 68.9625Q95.24375 71.43125 95.82188 72.24375Q96.4 73.05625 97.24375 73.05625Q98.10313 73.05625 98.68125 72.24375Q99.25938 71.41563 99.25938 68.9625Q99.25938 66.47813 98.68125 65.66563Q98.10313 64.85313 97.22813 64.85313Q96.38438 64.85313 95.88438 65.57188Q95.24375 66.49375 95.24375 68.9625ZM101.97813 68.9625Q101.97813 67.18125 102.3375 66.10313Q102.7125 65.00938 103.43125 64.43125Q104.15 63.8375 105.24375 63.8375Q106.05625 63.8375 106.66563 64.16563Q107.275 64.49375 107.66563 65.10313Q108.07188 65.7125 108.29063 66.5875Q108.50938 67.4625 108.50938 68.9625Q108.50938 70.72813 108.15 71.80625Q107.79063 72.88438 107.07188 73.47813Q106.35313 74.07188 105.24375 74.07188Q103.80625 74.07188 102.97813 73.025Q101.97813 71.775 101.97813 68.9625ZM103.24375 68.9625Q103.24375 71.43125 103.82188 72.24375Q104.4 73.05625 105.24375 73.05625Q106.10313 73.05625 106.68125 72.24375Q107.25938 71.41563 107.25938 68.9625Q107.25938 66.47813 106.68125 65.66563Q106.10313 64.85313 105.22813 64.85313Q104.38438 64.85313 103.88438 65.57188Q103.24375 66.49375 103.24375 68.9625ZM109.97813 68.9625Q109.97813 67.18125 110.3375 66.10313Q110.7125 65.00938 111.43125 64.43125Q112.15 63.8375 113.24375 63.8375Q114.05625 63.8375 114.66563 64.16563Q115.275 64.49375 115.66563 65.10313Q116.07188 65.7125 116.29063 66.5875Q116.50938 67.4625 116.50938 68.9625Q116.50938 70.72813 116.15 71.80625Q115.79063 72.88438 115.07188 73.47813Q114.35313 74.07188 113.24375 74.07188Q111.80625 74.07188 110.97813 73.025Q109.97813 71.775 109.97813 68.9625ZM111.24375 68.9625Q111.24375 71.43125 111.82188 72.24375Q112.4 73.05625 113.24375 73.05625Q114.10313 73.05625 114.68125 72.24375Q115.25938 71.41563 115.25938 68.9625Q115.25938 66.47813 114.68125 65.66563Q114.10313 64.85313 113.22813 64.85313Q112.38438 64.85313 111.88438 65.57188Q111.24375 66.49375 111.24375 68.9625ZM122.32188 76.68125L122.32188 66.63438L123.44688 66.63438L123.44688 67.5875Q123.8375 67.025 124.3375 66.75938Q124.8375 66.47813 125.55625 66.47813Q126.47813 66.47813 127.18125 66.9625Q127.9 67.43125 128.25937 68.30625Q128.61874 69.18125 128.61874 70.2125Q128.61874 71.32188 128.2125 72.22813Q127.82188 73.11875 127.05625 73.60313Q126.30625 74.07188 125.4625 74.07188Q124.85313 74.07188 124.35313 73.80625Q123.86875 73.54063 123.55625 73.15L123.55625 76.68125L122.32188 76.68125ZM123.43125 70.30625Q123.43125 71.7125 123.99375 72.38438Q124.57188 73.05625 125.38438 73.05625Q126.19688 73.05625 126.775 72.36875Q127.36875 71.66563 127.36875 70.2125Q127.36875 68.82188 126.79063 68.13438Q126.22813 67.44688 125.43125 67.44688Q124.65 67.44688 124.04063 68.18125Q123.43125 68.91563 123.43125 70.30625ZM135.0875 73.9L135.0875 72.8375Q134.22812 74.07188 132.775 74.07188Q132.13437 74.07188 131.57187 73.82188Q131.025 73.57188 130.74374 73.19688Q130.47812 72.82188 130.36874 72.29063Q130.29062 71.93125 130.29062 71.13438L130.29062 66.63438L131.525 66.63438L131.525 70.66563Q131.525 71.63438 131.60312 71.9625Q131.7125 72.44688 132.0875 72.72813Q132.4625 73.00938 133.025 73.00938Q133.57187 73.00938 134.05624 72.72813Q134.54062 72.43125 134.74374 71.94688Q134.94687 71.4625 134.94687 70.525L134.94687 66.63438L136.18124 66.63438L136.18124 73.9L135.0875 73.9ZM138.29062 73.9L138.29062 63.884377L139.525 63.884377L139.525 73.9L138.29062 73.9ZM141.29062 73.9L141.29062 63.884377L142.525 63.884377L142.525 73.9L141.29062 73.9ZM143.8375 71.72813L145.04062 71.54063Q145.15 72.275 145.61874 72.66563Q146.0875 73.05625 146.93124 73.05625Q147.775 73.05625 148.18124 72.7125Q148.60312 72.36875 148.60312 71.9Q148.60312 71.47813 148.22812 71.24375Q147.97812 71.07188 146.97812 70.82188Q145.61874 70.47813 145.0875 70.22813Q144.57187 69.97813 144.30624 69.54063Q144.04062 69.10313 144.04062 68.57188Q144.04062 68.0875 144.25937 67.68125Q144.47812 67.25938 144.86874 66.97813Q145.15 66.775 145.63437 66.63438Q146.13437 66.47813 146.7125 66.47813Q147.55624 66.47813 148.19687 66.72813Q148.85312 66.9625 149.16562 67.38438Q149.47812 67.80625 149.5875 68.50938L148.38437 68.68125Q148.30624 68.11875 147.9 67.80625Q147.50937 67.49375 146.79062 67.49375Q145.94687 67.49375 145.5875 67.775Q145.22812 68.04063 145.22812 68.43125Q145.22812 68.66563 145.36874 68.85313Q145.525 69.05625 145.85312 69.18125Q146.025 69.24375 146.93124 69.49375Q148.24374 69.85313 148.75937 70.07188Q149.275 70.29063 149.55624 70.7125Q149.85312 71.13438 149.85312 71.75938Q149.85312 72.38438 149.49374 72.93125Q149.15 73.4625 148.4625 73.775Q147.79062 74.07188 146.93124 74.07188Q145.525 74.07188 144.775 73.47813Q144.04062 72.88438 143.8375 71.72813Z" fill-rule="nonzero"/><path fill="#757575" d="M30.946875 48.4L30.946875 34.0875L35.86875 34.0875Q37.540627 34.0875 38.43125 34.290627Q39.65 34.571877 40.525 35.30625Q41.65 36.275 42.2125 37.759377Q42.775 39.24375 42.775 41.165627Q42.775 42.790627 42.4 44.05625Q42.025 45.30625 41.415627 46.134377Q40.821877 46.9625 40.11875 47.446877Q39.415627 47.915627 38.415627 48.165627Q37.415627 48.4 36.103127 48.4L30.946875 48.4ZM32.8375 46.7125L35.9 46.7125Q37.30625 46.7125 38.103127 46.446877Q38.915627 46.18125 39.4 45.696877Q40.071877 45.025 40.446877 43.9Q40.821877 42.759377 40.821877 41.134377Q40.821877 38.884377 40.0875 37.68125Q39.353127 36.478127 38.290627 36.071877Q37.540627 35.775 35.853127 35.775L32.8375 35.775L32.8375 46.7125ZM44.728127 36.103127L44.728127 34.0875L46.49375 34.0875L46.49375 36.103127L44.728127 36.103127ZM44.728127 48.4L44.728127 38.025L46.49375 38.025L46.49375 48.4L44.728127 48.4ZM48.009377 45.30625L49.759377 45.025Q49.9 46.071877 50.571877 46.634377Q51.24375 47.18125 52.446877 47.18125Q53.65 47.18125 54.228127 46.696877Q54.821877 46.196877 54.821877 45.540627Q54.821877 44.946877 54.30625 44.603127Q53.946877 44.36875 52.509377 44.009377Q50.571877 43.509377 49.821877 43.165627Q49.0875 42.80625 48.696877 42.18125Q48.30625 41.540627 48.30625 40.775Q48.30625 40.0875 48.61875 39.49375Q48.946877 38.9 49.49375 38.509377Q49.9 38.2125 50.603127 38.009377Q51.321877 37.790627 52.134377 37.790627Q53.353127 37.790627 54.275 38.15Q55.196877 38.49375 55.634377 39.103127Q56.071877 39.696877 56.24375 40.696877L54.525 40.93125Q54.4 40.134377 53.8375 39.696877Q53.275 39.24375 52.259377 39.24375Q51.040627 39.24375 50.525 39.65Q50.009377 40.040627 50.009377 40.571877Q50.009377 40.915627 50.228127 41.196877Q50.43125 41.478127 50.9 41.665627Q51.165627 41.759377 52.446877 42.103127Q54.321877 42.603127 55.05625 42.93125Q55.790627 43.24375 56.2125 43.853127Q56.634377 44.446877 56.634377 45.353127Q56.634377 46.228127 56.11875 47.009377Q55.603127 47.790627 54.634377 48.2125Q53.665627 48.634377 52.446877 48.634377Q50.43125 48.634377 49.36875 47.790627Q48.30625 46.946877 48.009377 45.30625ZM62.55625 46.821877L62.80625 48.384377Q62.071877 48.540627 61.478127 48.540627Q60.525 48.540627 59.99375 48.24375Q59.478127 47.93125 59.259377 47.446877Q59.040627 46.946877 59.040627 45.36875L59.040627 39.4L57.759377 39.4L57.759377 38.025L59.040627 38.025L59.040627 35.4625L60.790627 34.4L60.790627 38.025L62.55625 38.025L62.55625 39.4L60.790627 39.4L60.790627 45.4625Q60.790627 46.2125 60.884377 46.43125Q60.978127 46.634377 61.18125 46.775Q61.4 46.9 61.790627 46.9Q62.071877 46.9 62.55625 46.821877ZM64.69688 48.4L64.69688 38.025L66.275 38.025L66.275 39.603127Q66.88438 38.49375 67.4 38.15Q67.91563 37.790627 68.525 37.790627Q69.41563 37.790627 70.3375 38.353127L69.72813 39.99375Q69.0875 39.603127 68.44688 39.603127Q67.86875 39.603127 67.4 39.9625Q66.94688 40.30625 66.74375 40.915627Q66.4625 41.853127 66.4625 42.9625L66.4625 48.4L64.69688 48.4ZM71.72813 36.103127L71.72813 34.0875L73.49375 34.0875L73.49375 36.103127L71.72813 36.103127ZM71.72813 48.4L71.72813 38.025L73.49375 38.025L73.49375 48.4L71.72813 48.4ZM77.3375 48.4L75.7125 48.4L75.7125 34.0875L77.4625 34.0875L77.4625 39.196877Q78.5875 37.790627 80.30625 37.790627Q81.25938 37.790627 82.11875 38.18125Q82.97813 38.571877 83.525 39.275Q84.07188 39.9625 84.38438 40.946877Q84.69688 41.93125 84.69688 43.05625Q84.69688 45.728127 83.38438 47.18125Q82.07188 48.634377 80.22813 48.634377Q78.38438 48.634377 77.3375 47.103127L77.3375 48.4ZM77.32188 43.134377Q77.32188 44.99375 77.82188 45.8375Q78.66563 47.18125 80.07188 47.18125Q81.22813 47.18125 82.05625 46.18125Q82.9 45.18125 82.9 43.196877Q82.9 41.165627 82.0875 40.2125Q81.29063 39.24375 80.15 39.24375Q78.99375 39.24375 78.15 40.24375Q77.32188 41.24375 77.32188 43.134377ZM93.50938 48.4L93.50938 46.86875Q92.30625 48.634377 90.22813 48.634377Q89.30625 48.634377 88.50938 48.290627Q87.7125 47.93125 87.32188 47.4Q86.94688 46.86875 86.79063 46.0875Q86.68125 45.571877 86.68125 44.446877L86.68125 38.025L88.43125 38.025L88.43125 43.775Q88.43125 45.15 88.54063 45.634377Q88.7125 46.321877 89.24375 46.728127Q89.79063 47.11875 90.57188 47.11875Q91.36875 47.11875 92.05625 46.7125Q92.75938 46.30625 93.04063 45.61875Q93.3375 44.915627 93.3375 43.5875L93.3375 38.025L95.0875 38.025L95.0875 48.4L93.50938 48.4ZM100.55625 46.821877L100.80625 48.384377Q100.07188 48.540627 99.47813 48.540627Q98.525 48.540627 97.99375 48.24375Q97.47813 47.93125 97.25938 47.446877Q97.04063 46.946877 97.04063 45.36875L97.04063 39.4L95.75938 39.4L95.75938 38.025L97.04063 38.025L97.04063 35.4625L98.79063 34.4L98.79063 38.025L100.55625 38.025L100.55625 39.4L98.79063 39.4L98.79063 45.4625Q98.79063 46.2125 98.88438 46.43125Q98.97813 46.634377 99.18125 46.775Q99.4 46.9 99.79063 46.9Q100.07188 46.9 100.55625 46.821877ZM102.72813 36.103127L102.72813 34.0875L104.49375 34.0875L104.49375 36.103127L102.72813 36.103127ZM102.72813 48.4L102.72813 38.025L104.49375 38.025L104.49375 48.4L102.72813 48.4ZM106.07188 43.2125Q106.07188 40.3375 107.66563 38.946877Q109.00938 37.790627 110.93125 37.790627Q113.07188 37.790627 114.41563 39.196877Q115.775 40.603127 115.775 43.071877Q115.775 45.071877 115.18125 46.228127Q114.5875 47.36875 113.43125 48.009377Q112.29063 48.634377 110.93125 48.634377Q108.74375 48.634377 107.4 47.24375Q106.07188 45.8375 106.07188 43.2125ZM107.86875 43.2125Q107.86875 45.2125 108.72813 46.196877Q109.60313 47.18125 110.93125 47.18125Q112.24375 47.18125 113.10313 46.196877Q113.97813 45.196877 113.97813 43.15Q113.97813 41.228127 113.10313 40.24375Q112.22813 39.24375 110.93125 39.24375Q109.60313 39.24375 108.72813 40.24375Q107.86875 41.228127 107.86875 43.2125ZM117.7125 48.4L117.7125 38.025L119.30625 38.025L119.30625 39.509377Q120.44688 37.790627 122.60313 37.790627Q123.54063 37.790627 124.32188 38.134377Q125.11875 38.4625 125.50938 39.009377Q125.9 39.55625 126.05625 40.30625Q126.15 40.80625 126.15 42.025L126.15 48.4L124.38438 48.4L124.38438 42.0875Q124.38438 41.009377 124.18125 40.478127Q123.97813 39.946877 123.44688 39.634377Q122.93125 39.321877 122.22813 39.321877Q121.10313 39.321877 120.29063 40.040627Q119.47813 40.74375 119.47813 42.728127L119.47813 48.4L117.7125 48.4ZM133.07187 43.2125Q133.07187 40.3375 134.66562 38.946877Q136.00937 37.790627 137.93124 37.790627Q140.07187 37.790627 141.41562 39.196877Q142.775 40.603127 142.775 43.071877Q142.775 45.071877 142.18124 46.228127Q141.5875 47.36875 140.43124 48.009377Q139.29062 48.634377 137.93124 48.634377Q135.74374 48.634377 134.4 47.24375Q133.07187 45.8375 133.07187 43.2125ZM134.86874 43.2125Q134.86874 45.2125 135.72812 46.196877Q136.60312 47.18125 137.93124 47.18125Q139.24374 47.18125 140.10312 46.196877Q140.97812 45.196877 140.97812 43.15Q140.97812 41.228127 140.10312 40.24375Q139.22812 39.24375 137.93124 39.24375Q136.60312 39.24375 135.72812 40.24375Q134.86874 41.228127 134.86874 43.2125ZM145.13437 48.4L145.13437 39.4L143.5875 39.4L143.5875 38.025L145.13437 38.025L145.13437 36.93125Q145.13437 35.884377 145.32187 35.36875Q145.57187 34.68125 146.2125 34.259377Q146.85312 33.8375 148.00937 33.8375Q148.75937 33.8375 149.65 34.009377L149.38437 35.540627Q148.8375 35.446877 148.35312 35.446877Q147.55624 35.446877 147.2125 35.790627Q146.88437 36.134377 146.88437 37.071877L146.88437 38.025L148.91562 38.025L148.91562 39.4L146.88437 39.4L146.88437 48.4L145.13437 48.4ZM156.30624 43.80625L158.0875 43.65Q158.2125 44.7125 158.66562 45.4Q159.13437 46.0875 160.10312 46.525Q161.0875 46.946877 162.32187 46.946877Q163.4 46.946877 164.22812 46.634377Q165.05624 46.30625 165.4625 45.74375Q165.86874 45.18125 165.86874 44.509377Q165.86874 43.8375 165.47812 43.3375Q165.0875 42.8375 164.19687 42.49375Q163.61874 42.259377 161.63437 41.790627Q159.66562 41.321877 158.88437 40.9Q157.85312 40.36875 157.35312 39.571877Q156.85312 38.775 156.85312 37.790627Q156.85312 36.696877 157.4625 35.759377Q158.07187 34.821877 159.25937 34.3375Q160.44687 33.8375 161.88437 33.8375Q163.47812 33.8375 164.69687 34.353127Q165.91562 34.86875 166.55624 35.86875Q167.2125 36.853127 167.25937 38.11875L165.44687 38.259377Q165.30624 36.9 164.4625 36.2125Q163.61874 35.509377 161.9625 35.509377Q160.24374 35.509377 159.44687 36.15Q158.66562 36.775 158.66562 37.65Q158.66562 38.43125 159.22812 38.93125Q159.775 39.43125 162.0875 39.946877Q164.4 40.4625 165.25937 40.853127Q166.50937 41.43125 167.10312 42.321877Q167.69687 43.196877 167.69687 44.353127Q167.69687 45.49375 167.04062 46.509377Q166.38437 47.525 165.15 48.0875Q163.93124 48.65 162.4 48.65Q160.4625 48.65 159.15 48.0875Q157.8375 47.509377 157.0875 46.36875Q156.3375 45.228127 156.30624 43.80625ZM176.82187 45.05625L178.63437 45.290627Q178.2125 46.86875 177.04062 47.759377Q175.88437 48.634377 174.07187 48.634377Q171.80624 48.634377 170.4625 47.24375Q169.13437 45.8375 169.13437 43.30625Q169.13437 40.68125 170.47812 39.24375Q171.82187 37.790627 173.97812 37.790627Q176.05624 37.790627 177.36874 39.2125Q178.69687 40.61875 178.69687 43.196877Q178.69687 43.353127 178.68124 43.665627L170.94687 43.665627Q171.04062 45.36875 171.91562 46.275Q172.79062 47.18125 174.0875 47.18125Q175.05624 47.18125 175.72812 46.68125Q176.41562 46.165627 176.82187 45.05625ZM171.04062 42.2125L176.8375 42.2125Q176.72812 40.915627 176.18124 40.259377Q175.3375 39.24375 173.99374 39.24375Q172.79062 39.24375 171.9625 40.05625Q171.13437 40.853127 171.04062 42.2125ZM183.60312 48.4L179.65 38.025L181.50937 38.025L183.74374 44.24375Q184.10312 45.24375 184.4 46.321877Q184.63437 45.509377 185.05624 44.353127L187.35312 38.025L189.16562 38.025L185.24374 48.4L183.60312 48.4ZM196.82187 45.05625L198.63437 45.290627Q198.2125 46.86875 197.04062 47.759377Q195.88437 48.634377 194.07187 48.634377Q191.80624 48.634377 190.4625 47.24375Q189.13437 45.8375 189.13437 43.30625Q189.13437 40.68125 190.47812 39.24375Q191.82187 37.790627 193.97812 37.790627Q196.05624 37.790627 197.36874 39.2125Q198.69687 40.61875 198.69687 43.196877Q198.69687 43.353127 198.68124 43.665627L190.94687 43.665627Q191.04062 45.36875 191.91562 46.275Q192.79062 47.18125 194.0875 47.18125Q195.05624 47.18125 195.72812 46.68125Q196.41562 46.165627 196.82187 45.05625ZM191.04062 42.2125L196.8375 42.2125Q196.72812 40.915627 196.18124 40.259377Q195.3375 39.24375 193.99374 39.24375Q192.79062 39.24375 191.9625 40.05625Q191.13437 40.853127 191.04062 42.2125ZM200.69687 48.4L200.69687 38.025L202.275 38.025L202.275 39.603127Q202.88437 38.49375 203.4 38.15Q203.91562 37.790627 204.525 37.790627Q205.41562 37.790627 206.3375 38.353127L205.72812 39.99375Q205.0875 39.603127 204.44687 39.603127Q203.86874 39.603127 203.4 39.9625Q202.94687 40.30625 202.74374 40.915627Q202.4625 41.853127 202.4625 42.9625L202.4625 48.4L200.69687 48.4ZM207.72812 36.103127L207.72812 34.0875L209.49374 34.0875L209.49374 36.103127L207.72812 36.103127ZM207.72812 48.4L207.72812 38.025L209.49374 38.025L209.49374 48.4L207.72812 48.4ZM215.55624 46.821877L215.80624 48.384377Q215.07187 48.540627 214.47812 48.540627Q213.525 48.540627 212.99374 48.24375Q212.47812 47.93125 212.25937 47.446877Q212.04062 46.946877 212.04062 45.36875L212.04062 39.4L210.75937 39.4L210.75937 38.025L212.04062 38.025L212.04062 35.4625L213.79062 34.4L213.79062 38.025L215.55624 38.025L215.55624 39.4L213.79062 39.4L213.79062 45.4625Q213.79062 46.2125 213.88437 46.43125Q213.97812 46.634377 214.18124 46.775Q214.4 46.9 214.79062 46.9Q215.07187 46.9 215.55624 46.821877ZM217.72812 36.103127L217.72812 34.0875L219.49374 34.0875L219.49374 36.103127L217.72812 36.103127ZM217.72812 48.4L217.72812 38.025L219.49374 38.025L219.49374 48.4L217.72812 48.4ZM228.82187 45.05625L230.63437 45.290627Q230.2125 46.86875 229.04062 47.759377Q227.88437 48.634377 226.07187 48.634377Q223.80624 48.634377 222.4625 47.24375Q221.13437 45.8375 221.13437 43.30625Q221.13437 40.68125 222.47812 39.24375Q223.82187 37.790627 225.97812 37.790627Q228.05624 37.790627 229.36874 39.2125Q230.69687 40.61875 230.69687 43.196877Q230.69687 43.353127 230.68124 43.665627L222.94687 43.665627Q223.04062 45.36875 223.91562 46.275Q224.79062 47.18125 226.0875 47.18125Q227.05624 47.18125 227.72812 46.68125Q228.41562 46.165627 228.82187 45.05625ZM223.04062 42.2125L228.8375 42.2125Q228.72812 40.915627 228.18124 40.259377Q227.3375 39.24375 225.99374 39.24375Q224.79062 39.24375 223.9625 40.05625Q223.13437 40.853127 223.04062 42.2125ZM232.00937 45.30625L233.75937 45.025Q233.9 46.071877 234.57187 46.634377Q235.24374 47.18125 236.44687 47.18125Q237.65 47.18125 238.22812 46.696877Q238.82187 46.196877 238.82187 45.540627Q238.82187 44.946877 238.30624 44.603127Q237.94687 44.36875 236.50937 44.009377Q234.57187 43.509377 233.82187 43.165627Q233.0875 42.80625 232.69687 42.18125Q232.30624 41.540627 232.30624 40.775Q232.30624 40.0875 232.61874 39.49375Q232.94687 38.9 233.49374 38.509377Q233.9 38.2125 234.60312 38.009377Q235.32187 37.790627 236.13437 37.790627Q237.35312 37.790627 238.275 38.15Q239.19687 38.49375 239.63437 39.103127Q240.07187 39.696877 240.24374 40.696877L238.525 40.93125Q238.4 40.134377 237.8375 39.696877Q237.275 39.24375 236.25937 39.24375Q235.04062 39.24375 234.525 39.65Q234.00937 40.040627 234.00937 40.571877Q234.00937 40.915627 234.22812 41.196877Q234.43124 41.478127 234.9 41.665627Q235.16562 41.759377 236.44687 42.103127Q238.32187 42.603127 239.05624 42.93125Q239.79062 43.24375 240.2125 43.853127Q240.63437 44.446877 240.63437 45.353127Q240.63437 46.228127 240.11874 47.009377Q239.60312 47.790627 238.63437 48.2125Q237.66562 48.634377 236.44687 48.634377Q234.43124 48.634377 233.36874 47.790627Q232.30624 46.946877 232.00937 45.30625Z" fill-rule="nonzero"/></svg>