<svg version="1.1" viewBox="0.0 0.0 722.0 446.0" fill="none" stroke="none" stroke-linecap="square" stroke-miterlimit="10" width="722" height="446" xmlns:xlink="http://www.w3.org/1999/xlink" xmlns="http://www.w3.org/2000/svg"><path fill="#ffffff" d="M0 0L722.0 0L722.0 446.0L0 446.0L0 0Z" fill-rule="nonzero"/><path fill="#4285f4" d="M361.0 84.666664C376.0897 84.666664 391.11185 86.681465 405.66824 90.657646L361.0 254.18333Z" fill-rule="nonzero"/><path fill="#71c287" d="M355.80518 84.746284C357.5363 84.69321 359.2681 84.666664 361.0 84.666664L361.0 254.18333Z" fill-rule="nonzero"/><path fill="#fcd04f" d="M341.81735 85.75553C346.46402 85.2263 351.13065 84.8896 355.80518 84.746284L361.0 254.18333Z" fill-rule="nonzero"/><path fill="#f07b72" d="M332.04712 87.15749C335.28955 86.595436 338.54767 86.127914 341.81735 85.75553L361.0 254.18333Z" fill-rule="nonzero"/><path fill="#7baaf7" d="M311.34152 92.1033C318.13293 90.02253 325.04843 88.370674 332.04712 87.15749L361.0 254.18333Z" fill-rule="nonzero"/><path fill="#46bdc6" d="M307.3827 93.369514C308.69708 92.93128 310.01678 92.50918 311.34152 92.1033L361.0 254.18333Z" fill-rule="nonzero"/><path fill="#ff6d01" d="M194.68378 221.39896C206.48032 161.55475 249.51836 112.6622 307.3827 93.369514L361.0 254.18333Z" fill-rule="nonzero"/><path fill="#34a853" d="M197.27069 298.0993C190.5563 273.06644 189.67133 246.82732 194.68378 221.39896L361.0 254.18333Z" fill-rule="nonzero"/><path fill="#fbbc04" d="M319.8502 418.62967C260.13776 403.68765 213.2171 357.5514 197.27069 298.0993L361.0 254.18333Z" fill-rule="nonzero"/><path fill="#ea4335" d="M405.66824 90.657646C495.29666 115.14031 548.51526 207.20891 524.9954 297.09482C501.47565 386.98074 409.98322 441.18387 319.8502 418.62967L361.0 254.18333Z" fill-rule="nonzero"/><path fill="#000000" d="M367.8555 122.55938L367.8555 120.15313L363.49612 120.15313L363.49612 119.02813L368.07425 112.543755L369.07425 112.543755L369.07425 119.02813L370.43362 119.02813L370.43362 120.15313L369.07425 120.15313L369.07425 122.55938L367.8555 122.55938ZM367.8555 119.02813L367.8555 114.512505L364.71487 119.02813L367.8555 119.02813ZM372.58987 122.55938L372.58987 121.15313L373.99612 121.15313L373.99612 122.55938L372.58987 122.55938ZM382.37112 121.37188L382.37112 122.55938L375.74612 122.55938Q375.7305 122.12188 375.88675 121.700005Q376.15237 121.02813 376.69925 120.37188Q377.26175 119.71563 378.30862 118.856255Q379.94925 117.512505 380.51175 116.731255Q381.08987 115.950005 381.08987 115.24688Q381.08987 114.512505 380.55862 114.012505Q380.043 113.512505 379.21487 113.512505Q378.32425 113.512505 377.77737 114.043755Q377.24612 114.575005 377.24612 115.52813L375.9805 115.387505Q376.1055 113.981255 376.94925 113.24688Q377.80862 112.49688 379.2305 112.49688Q380.68362 112.49688 381.51175 113.293755Q382.3555 114.09063 382.3555 115.27813Q382.3555 115.887505 382.1055 116.46563Q381.87112 117.043755 381.293 117.68438Q380.7305 118.325005 379.40237 119.450005Q378.293 120.37188 377.9805 120.71563Q377.668 121.043755 377.46487 121.37188L382.37112 121.37188ZM384.13675 114.950005Q384.13675 113.87188 384.668 113.12188Q385.21487 112.37188 386.24612 112.37188Q387.18362 112.37188 387.793 113.043755Q388.418 113.71563 388.418 115.012505Q388.418 116.293755 387.793 116.981255Q387.168 117.668755 386.26175 117.668755Q385.3555 117.668755 384.74612 116.99688Q384.13675 116.30938 384.13675 114.950005ZM386.27737 113.21563Q385.82425 113.21563 385.51175 113.62188Q385.21487 114.012505 385.21487 115.05938Q385.21487 116.02813 385.51175 116.418755Q385.82425 116.80938 386.27737 116.80938Q386.74612 116.80938 387.043 116.418755Q387.3555 116.02813 387.3555 114.96563Q387.3555 113.99688 387.043 113.606255Q386.7305 113.21563 386.27737 113.21563ZM386.27737 122.93438L391.76175 112.37188L392.76175 112.37188L387.30862 122.93438L386.27737 122.93438ZM390.62112 120.200005Q390.62112 119.12188 391.15237 118.387505Q391.69925 117.637505 392.7305 117.637505Q393.668 117.637505 394.293 118.30938Q394.918 118.981255 394.918 120.27813Q394.918 121.55938 394.293 122.24688Q393.668 122.93438 392.7305 122.93438Q391.82425 122.93438 391.21487 122.262505Q390.62112 121.575005 390.62112 120.200005ZM392.76175 118.481255Q392.293 118.481255 391.99612 118.887505Q391.69925 119.27813 391.69925 120.325005Q391.69925 121.293755 391.99612 121.68438Q392.30862 122.075005 392.76175 122.075005Q393.2305 122.075005 393.52737 121.68438Q393.83987 121.293755 393.83987 120.231255Q393.83987 119.262505 393.52737 118.87188Q393.2305 118.481255 392.76175 118.481255Z" fill-rule="nonzero"/><path fill="#000000" d="M468.20737 291.2831L468.20737 288.87686L463.848 288.87686L463.848 287.75186L468.42612 281.2675L469.42612 281.2675L469.42612 287.75186L470.7855 287.75186L470.7855 288.87686L469.42612 288.87686L469.42612 291.2831L468.20737 291.2831ZM468.20737 287.75186L468.20737 283.23624L465.06674 287.75186L468.20737 287.75186ZM472.44174 288.9706L473.62924 288.86124Q473.76987 289.68936 474.19174 290.06436Q474.62924 290.43936 475.2855 290.43936Q475.848 290.43936 476.26987 290.18936Q476.70737 289.92374 476.973 289.48624Q477.25424 289.04874 477.44174 288.31436Q477.62924 287.58 477.62924 286.81436Q477.62924 286.73624 477.61362 286.56436Q477.25424 287.1581 476.61362 287.5331Q475.973 287.8925 475.223 287.8925Q473.973 287.8925 473.11362 286.98624Q472.25424 286.08 472.25424 284.61124Q472.25424 283.08 473.14487 282.1581Q474.05112 281.2206 475.4105 281.2206Q476.37924 281.2206 477.19174 281.75186Q478.00424 282.2675 478.42612 283.25186Q478.848 284.2206 478.848 286.06436Q478.848 287.98624 478.42612 289.12686Q478.01987 290.2675 477.19174 290.86124Q476.36362 291.455 475.25424 291.455Q474.08237 291.455 473.33237 290.79874Q472.598 290.1425 472.44174 288.9706ZM477.473 284.54874Q477.473 283.48624 476.9105 282.86124Q476.348 282.23624 475.56674 282.23624Q474.73862 282.23624 474.12924 282.9081Q473.51987 283.58 473.51987 284.6425Q473.51987 285.5956 474.098 286.205Q474.67612 286.79874 475.51987 286.79874Q476.37924 286.79874 476.92612 286.205Q477.473 285.5956 477.473 284.54874ZM480.94174 291.2831L480.94174 289.87686L482.348 289.87686L482.348 291.2831L480.94174 291.2831ZM484.33237 282.58L484.33237 281.3925L490.83237 281.3925L490.83237 282.3456Q489.86362 283.36124 488.92612 285.04874Q487.98862 286.73624 487.473 288.5331Q487.11362 289.7831 487.00424 291.2831L485.73862 291.2831Q485.75424 290.0956 486.19174 288.42374Q486.64487 286.75186 487.473 285.205Q488.31674 283.6425 489.25424 282.58L484.33237 282.58ZM492.48862 283.67374Q492.48862 282.5956 493.01987 281.8456Q493.56674 281.0956 494.598 281.0956Q495.5355 281.0956 496.14487 281.7675Q496.76987 282.43936 496.76987 283.73624Q496.76987 285.0175 496.14487 285.705Q495.51987 286.3925 494.61362 286.3925Q493.70737 286.3925 493.098 285.7206Q492.48862 285.0331 492.48862 283.67374ZM494.62924 281.93936Q494.17612 281.93936 493.86362 282.3456Q493.56674 282.73624 493.56674 283.7831Q493.56674 284.75186 493.86362 285.1425Q494.17612 285.5331 494.62924 285.5331Q495.098 285.5331 495.39487 285.1425Q495.70737 284.75186 495.70737 283.68936Q495.70737 282.7206 495.39487 282.33Q495.08237 281.93936 494.62924 281.93936ZM494.62924 291.6581L500.11362 281.0956L501.11362 281.0956L495.6605 291.6581L494.62924 291.6581ZM498.973 288.92374Q498.973 287.8456 499.50424 287.11124Q500.05112 286.36124 501.08237 286.36124Q502.01987 286.36124 502.64487 287.0331Q503.26987 287.705 503.26987 289.00186Q503.26987 290.2831 502.64487 290.9706Q502.01987 291.6581 501.08237 291.6581Q500.17612 291.6581 499.56674 290.98624Q498.973 290.29874 498.973 288.92374ZM501.11362 287.205Q500.64487 287.205 500.348 287.61124Q500.05112 288.00186 500.05112 289.04874Q500.05112 290.0175 500.348 290.4081Q500.6605 290.79874 501.11362 290.79874Q501.58237 290.79874 501.87924 290.4081Q502.19174 290.0175 502.19174 288.955Q502.19174 287.98624 501.87924 287.5956Q501.58237 287.205 501.11362 287.205Z" fill-rule="nonzero"/><path fill="#000000" d="M258.1676 348.73145L256.93323 348.73145L256.93323 340.8877Q256.49573 341.30957 255.76135 341.74707Q255.0426 342.16895 254.4801 342.37207L254.4801 341.18457Q255.51135 340.7002 256.27698 340.0127Q257.05823 339.3252 257.37073 338.66895L258.1676 338.66895L258.1676 348.73145ZM267.9176 341.16895L266.69885 341.2627Q266.52698 340.52832 266.2301 340.2002Q265.7301 339.68457 264.99573 339.68457Q264.40198 339.68457 263.96448 340.0127Q263.38635 340.43457 263.0426 341.24707Q262.71448 342.05957 262.69885 343.55957Q263.13635 342.8877 263.77698 342.55957Q264.43323 342.23145 265.13635 342.23145Q266.37073 342.23145 267.2301 343.1377Q268.08948 344.04395 268.08948 345.48145Q268.08948 346.41895 267.68323 347.23145Q267.27698 348.04395 266.55823 348.48145Q265.8551 348.90332 264.94885 348.90332Q263.4176 348.90332 262.44885 347.77832Q261.4801 346.6377 261.4801 344.04395Q261.4801 341.1377 262.5426 339.80957Q263.4801 338.66895 265.07385 338.66895Q266.26135 338.66895 267.01135 339.34082Q267.76135 339.99707 267.9176 341.16895ZM262.88635 345.48145Q262.88635 346.12207 263.15198 346.7002Q263.43323 347.27832 263.9176 347.59082Q264.40198 347.8877 264.93323 347.8877Q265.71448 347.8877 266.27698 347.2627Q266.83948 346.6377 266.83948 345.55957Q266.83948 344.5127 266.27698 343.91895Q265.7301 343.30957 264.88635 343.30957Q264.05823 343.30957 263.46448 343.91895Q262.88635 344.5127 262.88635 345.48145ZM270.21448 348.73145L270.21448 347.3252L271.62073 347.3252L271.62073 348.73145L270.21448 348.73145ZM273.71448 346.41895L274.90198 346.30957Q275.0426 347.1377 275.46448 347.5127Q275.90198 347.8877 276.55823 347.8877Q277.12073 347.8877 277.5426 347.6377Q277.9801 347.37207 278.24573 346.93457Q278.52698 346.49707 278.71448 345.7627Q278.90198 345.02832 278.90198 344.2627Q278.90198 344.18457 278.88635 344.0127Q278.52698 344.60645 277.88635 344.98145Q277.24573 345.34082 276.49573 345.34082Q275.24573 345.34082 274.38635 344.43457Q273.52698 343.52832 273.52698 342.05957Q273.52698 340.52832 274.4176 339.60645Q275.32385 338.66895 276.68323 338.66895Q277.65198 338.66895 278.46448 339.2002Q279.27698 339.71582 279.69885 340.7002Q280.12073 341.66895 280.12073 343.5127Q280.12073 345.43457 279.69885 346.5752Q279.2926 347.71582 278.46448 348.30957Q277.63635 348.90332 276.52698 348.90332Q275.3551 348.90332 274.6051 348.24707Q273.87073 347.59082 273.71448 346.41895ZM278.74573 341.99707Q278.74573 340.93457 278.18323 340.30957Q277.62073 339.68457 276.83948 339.68457Q276.01135 339.68457 275.40198 340.35645Q274.7926 341.02832 274.7926 342.09082Q274.7926 343.04395 275.37073 343.65332Q275.94885 344.24707 276.7926 344.24707Q277.65198 344.24707 278.19885 343.65332Q278.74573 343.04395 278.74573 341.99707ZM281.76135 341.12207Q281.76135 340.04395 282.2926 339.29395Q282.83948 338.54395 283.87073 338.54395Q284.80823 338.54395 285.4176 339.21582Q286.0426 339.8877 286.0426 341.18457Q286.0426 342.46582 285.4176 343.15332Q284.7926 343.84082 283.88635 343.84082Q282.9801 343.84082 282.37073 343.16895Q281.76135 342.48145 281.76135 341.12207ZM283.90198 339.3877Q283.44885 339.3877 283.13635 339.79395Q282.83948 340.18457 282.83948 341.23145Q282.83948 342.2002 283.13635 342.59082Q283.44885 342.98145 283.90198 342.98145Q284.37073 342.98145 284.6676 342.59082Q284.9801 342.2002 284.9801 341.1377Q284.9801 340.16895 284.6676 339.77832Q284.3551 339.3877 283.90198 339.3877ZM283.90198 349.10645L289.38635 338.54395L290.38635 338.54395L284.93323 349.10645L283.90198 349.10645ZM288.24573 346.37207Q288.24573 345.29395 288.77698 344.55957Q289.32385 343.80957 290.3551 343.80957Q291.2926 343.80957 291.9176 344.48145Q292.5426 345.15332 292.5426 346.4502Q292.5426 347.73145 291.9176 348.41895Q291.2926 349.10645 290.3551 349.10645Q289.44885 349.10645 288.83948 348.43457Q288.24573 347.74707 288.24573 346.37207ZM290.38635 344.65332Q289.9176 344.65332 289.62073 345.05957Q289.32385 345.4502 289.32385 346.49707Q289.32385 347.46582 289.62073 347.85645Q289.93323 348.24707 290.38635 348.24707Q290.8551 348.24707 291.15198 347.85645Q291.46448 347.46582 291.46448 346.40332Q291.46448 345.43457 291.15198 345.04395Q290.8551 344.65332 290.38635 344.65332Z" fill-rule="nonzero"/><path fill="#000000" d="M211.67265 254.99915L211.67265 253.81165L218.17265 253.81165L218.17265 254.76477Q217.2039 255.7804 216.2664 257.4679Q215.3289 259.1554 214.81328 260.95227Q214.4539 262.20227 214.34453 263.70227L213.0789 263.70227Q213.09453 262.51477 213.53203 260.8429Q213.98515 259.17102 214.81328 257.62415Q215.65703 256.06165 216.59453 254.99915L211.67265 254.99915ZM220.28203 263.70227L220.28203 262.29602L221.68828 262.29602L221.68828 263.70227L220.28203 263.70227ZM223.61015 261.06165L224.8289 260.88977Q225.04765 261.93665 225.54765 262.4054Q226.06328 262.85852 226.79765 262.85852Q227.67265 262.85852 228.2664 262.26477Q228.86015 261.6554 228.86015 260.76477Q228.86015 259.92102 228.29765 259.37415Q227.75078 258.82727 226.90703 258.82727Q226.54765 258.82727 226.03203 258.95227L226.17265 257.87415Q226.29765 257.88977 226.36015 257.88977Q227.15703 257.88977 227.78203 257.48352Q228.40703 257.07727 228.40703 256.2179Q228.40703 255.54602 227.9539 255.10852Q227.50078 254.6554 226.7664 254.6554Q226.04765 254.6554 225.56328 255.10852Q225.09453 255.54602 224.9539 256.45227L223.73515 256.23352Q223.9539 254.99915 224.75078 254.32727Q225.54765 253.63977 226.73515 253.63977Q227.56328 253.63977 228.25078 253.99915Q228.93828 254.3429 229.29765 254.95227Q229.67265 255.56165 229.67265 256.24915Q229.67265 256.88977 229.3289 257.42102Q228.98515 257.95227 228.29765 258.2804Q229.18828 258.48352 229.67265 259.12415Q230.17265 259.76477 230.17265 260.74915Q230.17265 262.06165 229.2039 262.9679Q228.25078 263.87415 226.79765 263.87415Q225.46953 263.87415 224.59453 263.0929Q223.73515 262.31165 223.61015 261.06165ZM231.8289 256.0929Q231.8289 255.01477 232.36015 254.26477Q232.90703 253.51477 233.93828 253.51477Q234.87578 253.51477 235.48515 254.18665Q236.11015 254.85852 236.11015 256.1554Q236.11015 257.43665 235.48515 258.12415Q234.86015 258.81165 233.9539 258.81165Q233.04765 258.81165 232.43828 258.13977Q231.8289 257.45227 231.8289 256.0929ZM233.96953 254.35852Q233.5164 254.35852 233.2039 254.76477Q232.90703 255.1554 232.90703 256.20227Q232.90703 257.17102 233.2039 257.56165Q233.5164 257.95227 233.96953 257.95227Q234.43828 257.95227 234.73515 257.56165Q235.04765 257.17102 235.04765 256.10852Q235.04765 255.13977 234.73515 254.74915Q234.42265 254.35852 233.96953 254.35852ZM233.96953 264.07727L239.4539 253.51477L240.4539 253.51477L235.00078 264.07727L233.96953 264.07727ZM238.31328 261.3429Q238.31328 260.26477 238.84453 259.5304Q239.3914 258.7804 240.42265 258.7804Q241.36015 258.7804 241.98515 259.45227Q242.61015 260.12415 242.61015 261.42102Q242.61015 262.70227 241.98515 263.38977Q241.36015 264.07727 240.42265 264.07727Q239.5164 264.07727 238.90703 263.4054Q238.31328 262.7179 238.31328 261.3429ZM240.4539 259.62415Q239.98515 259.62415 239.68828 260.0304Q239.3914 260.42102 239.3914 261.4679Q239.3914 262.43665 239.68828 262.82727Q240.00078 263.2179 240.4539 263.2179Q240.92265 263.2179 241.21953 262.82727Q241.53203 262.43665 241.53203 261.37415Q241.53203 260.4054 241.21953 260.01477Q240.92265 259.62415 240.4539 259.62415Z" fill-rule="nonzero"/><path fill="#000000" d="M252.24277 176.46025L251.00839 176.46025L251.00839 168.6165Q250.57089 169.03838 249.83652 169.47588Q249.11777 169.89775 248.55527 170.10088L248.55527 168.91338Q249.58652 168.429 250.35214 167.7415Q251.13339 167.054 251.44589 166.39775L252.24277 166.39775L252.24277 176.46025ZM261.99277 168.89775L260.77402 168.9915Q260.60214 168.25713 260.30527 167.929Q259.80527 167.41338 259.0709 167.41338Q258.47714 167.41338 258.03964 167.7415Q257.46152 168.16338 257.11777 168.97588Q256.78964 169.78838 256.77402 171.28838Q257.21152 170.6165 257.85214 170.28838Q258.5084 169.96025 259.21152 169.96025Q260.4459 169.96025 261.30527 170.8665Q262.16464 171.77275 262.16464 173.21025Q262.16464 174.14775 261.7584 174.96025Q261.35214 175.77275 260.6334 176.21025Q259.93027 176.63213 259.02402 176.63213Q257.49277 176.63213 256.52402 175.50713Q255.55527 174.3665 255.55527 171.77275Q255.55527 168.8665 256.61777 167.53838Q257.55527 166.39775 259.14902 166.39775Q260.33652 166.39775 261.08652 167.06963Q261.83652 167.72588 261.99277 168.89775ZM256.96152 173.21025Q256.96152 173.85088 257.22714 174.429Q257.5084 175.00713 257.99277 175.31963Q258.47714 175.6165 259.0084 175.6165Q259.78964 175.6165 260.35214 174.9915Q260.91464 174.3665 260.91464 173.28838Q260.91464 172.2415 260.35214 171.64775Q259.80527 171.03838 258.96152 171.03838Q258.1334 171.03838 257.53964 171.64775Q256.96152 172.2415 256.96152 173.21025ZM264.28964 176.46025L264.28964 175.054L265.6959 175.054L265.6959 176.46025L264.28964 176.46025ZM269.49277 171.02275Q268.72714 170.7415 268.35214 170.22588Q267.99277 169.71025 267.99277 168.97588Q267.99277 167.88213 268.77402 167.14775Q269.5709 166.39775 270.86777 166.39775Q272.18027 166.39775 272.97714 167.16338Q273.78964 167.929 273.78964 169.02275Q273.78964 169.71025 273.41464 170.22588Q273.05527 170.7415 272.30527 171.02275Q273.22714 171.31963 273.71152 171.9915Q274.1959 172.66338 274.1959 173.60088Q274.1959 174.88213 273.28964 175.75713Q272.3834 176.63213 270.89902 176.63213Q269.41464 176.63213 268.49277 175.75713Q267.58652 174.8665 267.58652 173.554Q267.58652 172.58525 268.08652 171.929Q268.58652 171.25713 269.49277 171.02275ZM269.2584 168.94463Q269.2584 169.64775 269.71152 170.10088Q270.16464 170.554 270.89902 170.554Q271.61777 170.554 272.0709 170.1165Q272.52402 169.66338 272.52402 169.00713Q272.52402 168.33525 272.05527 167.88213Q271.58652 167.41338 270.8834 167.41338Q270.18027 167.41338 269.71152 167.8665Q269.2584 168.304 269.2584 168.94463ZM268.85214 173.56963Q268.85214 174.10088 269.10214 174.60088Q269.35214 175.08525 269.83652 175.35088Q270.33652 175.6165 270.91464 175.6165Q271.78964 175.6165 272.35214 175.054Q272.93027 174.4915 272.93027 173.6165Q272.93027 172.72588 272.33652 172.14775Q271.7584 171.554 270.86777 171.554Q269.99277 171.554 269.41464 172.13213Q268.85214 172.71025 268.85214 173.56963ZM275.83652 168.85088Q275.83652 167.77275 276.36777 167.02275Q276.91464 166.27275 277.9459 166.27275Q278.8834 166.27275 279.49277 166.94463Q280.11777 167.6165 280.11777 168.91338Q280.11777 170.19463 279.49277 170.88213Q278.86777 171.56963 277.96152 171.56963Q277.05527 171.56963 276.4459 170.89775Q275.83652 170.21025 275.83652 168.85088ZM277.97714 167.1165Q277.52402 167.1165 277.21152 167.52275Q276.91464 167.91338 276.91464 168.96025Q276.91464 169.929 277.21152 170.31963Q277.52402 170.71025 277.97714 170.71025Q278.4459 170.71025 278.74277 170.31963Q279.05527 169.929 279.05527 168.8665Q279.05527 167.89775 278.74277 167.50713Q278.43027 167.1165 277.97714 167.1165ZM277.97714 176.83525L283.46152 166.27275L284.46152 166.27275L279.0084 176.83525L277.97714 176.83525ZM282.3209 174.10088Q282.3209 173.02275 282.85214 172.28838Q283.39902 171.53838 284.43027 171.53838Q285.36777 171.53838 285.99277 172.21025Q286.61777 172.88213 286.61777 174.179Q286.61777 175.46025 285.99277 176.14775Q285.36777 176.83525 284.43027 176.83525Q283.52402 176.83525 282.91464 176.16338Q282.3209 175.47588 282.3209 174.10088ZM284.46152 172.38213Q283.99277 172.38213 283.6959 172.78838Q283.39902 173.179 283.39902 174.22588Q283.39902 175.19463 283.6959 175.58525Q284.0084 175.97588 284.46152 175.97588Q284.93027 175.97588 285.22714 175.58525Q285.53964 175.19463 285.53964 174.13213Q285.53964 173.16338 285.22714 172.77275Q284.93027 172.38213 284.46152 172.38213Z" fill-rule="nonzero"/><path fill="#1a1a1a" d="M32.878124 97.15104L34.58125 97.572914Q34.05 99.68229 32.659374 100.791664Q31.26875 101.885414 29.253124 101.885414Q27.175 101.885414 25.8625 101.041664Q24.565624 100.18229 23.878124 98.58854Q23.190624 96.979164 23.190624 95.11979Q23.190624 93.11979 23.95625 91.61979Q24.7375 90.11979 26.159374 89.33854Q27.58125 88.55729 29.284374 88.55729Q31.20625 88.55729 32.51875 89.541664Q33.846874 90.52604 34.3625 92.30729L32.690624 92.71354Q32.2375 91.30729 31.378124 90.666664Q30.534374 90.02604 29.2375 90.02604Q27.753124 90.02604 26.753124 90.74479Q25.76875 91.447914 25.3625 92.65104Q24.95625 93.83854 24.95625 95.11979Q24.95625 96.760414 25.425 97.99479Q25.909374 99.21354 26.925 99.822914Q27.940624 100.43229 29.1125 100.43229Q30.55 100.43229 31.534374 99.604164Q32.534374 98.77604 32.878124 97.15104ZM36.471874 101.666664L36.471874 92.33854L37.89375 92.33854L37.89375 93.74479Q38.440624 92.760414 38.89375 92.447914Q39.3625 92.11979 39.909374 92.11979Q40.721874 92.11979 41.534374 92.635414L41.003124 94.104164Q40.409374 93.760414 39.83125 93.760414Q39.315624 93.760414 38.89375 94.072914Q38.4875 94.385414 38.315624 94.93229Q38.05 95.77604 38.05 96.77604L38.05 101.666664L36.471874 101.666664ZM42.503124 90.604164L42.503124 88.77604L44.08125 88.77604L44.08125 90.604164L42.503124 90.604164ZM42.503124 101.666664L42.503124 92.33854L44.08125 92.33854L44.08125 101.666664L42.503124 101.666664ZM49.940624 100.24479L50.175 101.65104Q49.503124 101.791664 48.971874 101.791664Q48.1125 101.791664 47.628124 101.52604Q47.159374 101.24479 46.971874 100.80729Q46.784374 100.354164 46.784374 98.93229L46.784374 93.55729L45.6125 93.55729L45.6125 92.33854L46.784374 92.33854L46.784374 90.02604L48.346874 89.072914L48.346874 92.33854L49.940624 92.33854L49.940624 93.55729L48.346874 93.55729L48.346874 99.02604Q48.346874 99.697914 48.425 99.90104Q48.51875 100.08854 48.70625 100.197914Q48.89375 100.30729 49.253124 100.30729Q49.503124 100.30729 49.940624 100.24479ZM51.503124 90.604164L51.503124 88.77604L53.08125 88.77604L53.08125 90.604164L51.503124 90.604164ZM51.503124 101.666664L51.503124 92.33854L53.08125 92.33854L53.08125 101.666664L51.503124 101.666664ZM61.58125 98.24479L63.128124 98.447914Q62.878124 100.05729 61.83125 100.979164Q60.784374 101.885414 59.253124 101.885414Q57.33125 101.885414 56.159374 100.635414Q55.003124 99.36979 55.003124 97.041664Q55.003124 95.52604 55.503124 94.40104Q56.003124 93.260414 57.01875 92.697914Q58.05 92.11979 59.253124 92.11979Q60.784374 92.11979 61.7375 92.90104Q62.70625 93.666664 62.9875 95.072914L61.440624 95.30729Q61.221874 94.36979 60.659374 93.90104Q60.1125 93.416664 59.315624 93.416664Q58.128124 93.416664 57.378124 94.27604Q56.628124 95.135414 56.628124 96.99479Q56.628124 98.86979 57.346874 99.729164Q58.065624 100.572914 59.2375 100.572914Q60.159374 100.572914 60.784374 100.010414Q61.409374 99.43229 61.58125 98.24479ZM70.58125 100.510414Q69.70625 101.260414 68.87813 101.572914Q68.06563 101.885414 67.14375 101.885414Q65.59688 101.885414 64.76875 101.135414Q63.95625 100.36979 63.95625 99.197914Q63.95625 98.52604 64.26875 97.96354Q64.58125 97.385414 65.08125 97.041664Q65.58125 96.697914 66.22188 96.52604Q66.69063 96.40104 67.62813 96.291664Q69.53438 96.05729 70.44063 95.74479Q70.45625 95.416664 70.45625 95.322914Q70.45625 94.36979 70.00313 93.96354Q69.39375 93.43229 68.20625 93.43229Q67.08125 93.43229 66.55 93.822914Q66.01875 94.21354 65.76875 95.21354L64.22188 94.99479Q64.44063 93.99479 64.90938 93.385414Q65.39375 92.77604 66.3 92.447914Q67.22188 92.11979 68.44063 92.11979Q69.62813 92.11979 70.37813 92.40104Q71.12813 92.68229 71.47188 93.11979Q71.83125 93.541664 71.97188 94.18229Q72.05 94.58854 72.05 95.65104L72.05 97.760414Q72.05 99.96354 72.14375 100.55729Q72.25313 101.135414 72.55 101.666664L70.89375 101.666664Q70.64375 101.166664 70.58125 100.510414ZM70.44063 96.979164Q69.58125 97.33854 67.8625 97.572914Q66.89375 97.71354 66.4875 97.90104Q66.08125 98.072914 65.8625 98.416664Q65.64375 98.74479 65.64375 99.166664Q65.64375 99.791664 66.1125 100.21354Q66.59688 100.635414 67.51875 100.635414Q68.44063 100.635414 69.14375 100.24479Q69.8625 99.83854 70.19063 99.15104Q70.44063 98.604164 70.44063 97.55729L70.44063 96.979164ZM74.45625 101.666664L74.45625 88.77604L76.03438 88.77604L76.03438 101.666664L74.45625 101.666664ZM82.87813 97.791664L82.87813 96.21354L87.7375 96.21354L87.7375 97.791664L82.87813 97.791664ZM94.78438 101.666664L94.78438 88.77604L103.47188 88.77604L103.47188 90.30729L96.4875 90.30729L96.4875 94.291664L102.53438 94.291664L102.53438 95.80729L96.4875 95.80729L96.4875 101.666664L94.78438 101.666664ZM105.50313 90.604164L105.50313 88.77604L107.08125 88.77604L107.08125 90.604164L105.50313 90.604164ZM105.50313 101.666664L105.50313 92.33854L107.08125 92.33854L107.08125 101.666664L105.50313 101.666664ZM108.425 101.666664L111.84688 96.80729L108.69063 92.33854L110.65938 92.33854L112.09688 94.52604Q112.50313 95.15104 112.75313 95.572914Q113.12813 94.979164 113.45625 94.541664L115.03438 92.33854L116.925 92.33854L113.69063 96.729164L117.175 101.666664L115.22188 101.666664L113.31563 98.760414L112.8 97.979164L110.34688 101.666664L108.425 101.666664ZM123.58125 100.510414Q122.70625 101.260414 121.87813 101.572914Q121.06563 101.885414 120.14375 101.885414Q118.59688 101.885414 117.76875 101.135414Q116.95625 100.36979 116.95625 99.197914Q116.95625 98.52604 117.26875 97.96354Q117.58125 97.385414 118.08125 97.041664Q118.58125 96.697914 119.22188 96.52604Q119.69063 96.40104 120.62813 96.291664Q122.53438 96.05729 123.44063 95.74479Q123.45625 95.416664 123.45625 95.322914Q123.45625 94.36979 123.00313 93.96354Q122.39375 93.43229 121.20625 93.43229Q120.08125 93.43229 119.55 93.822914Q119.01875 94.21354 118.76875 95.21354L117.22188 94.99479Q117.44063 93.99479 117.90938 93.385414Q118.39375 92.77604 119.3 92.447914Q120.22188 92.11979 121.44063 92.11979Q122.62813 92.11979 123.37813 92.40104Q124.12813 92.68229 124.47188 93.11979Q124.83125 93.541664 124.97188 94.18229Q125.05 94.58854 125.05 95.65104L125.05 97.760414Q125.05 99.96354 125.14375 100.55729Q125.25313 101.135414 125.55 101.666664L123.89375 101.666664Q123.64375 101.166664 123.58125 100.510414ZM123.44063 96.979164Q122.58125 97.33854 120.8625 97.572914Q119.89375 97.71354 119.4875 97.90104Q119.08125 98.072914 118.8625 98.416664Q118.64375 98.74479 118.64375 99.166664Q118.64375 99.791664 119.1125 100.21354Q119.59688 100.635414 120.51875 100.635414Q121.44063 100.635414 122.14375 100.24479Q122.8625 99.83854 123.19063 99.15104Q123.44063 98.604164 123.44063 97.55729L123.44063 96.979164ZM128.94063 101.666664L127.47188 101.666664L127.47188 88.77604L129.06563 88.77604L129.06563 93.385414Q130.06563 92.11979 131.6125 92.11979Q132.47188 92.11979 133.2375 92.479164Q134.01875 92.822914 134.50313 93.447914Q135.00313 94.072914 135.28438 94.96354Q135.56563 95.854164 135.56563 96.854164Q135.56563 99.260414 134.37813 100.572914Q133.20625 101.885414 131.53438 101.885414Q129.89375 101.885414 128.94063 100.49479L128.94063 101.666664ZM128.925 96.93229Q128.925 98.604164 129.37813 99.354164Q130.12813 100.572914 131.40938 100.572914Q132.44063 100.572914 133.19063 99.68229Q133.95625 98.77604 133.95625 96.99479Q133.95625 95.166664 133.22188 94.291664Q132.50313 93.416664 131.47188 93.416664Q130.44063 93.416664 129.675 94.322914Q128.925 95.229164 128.925 96.93229ZM137.45625 101.666664L137.45625 88.77604L139.03438 88.77604L139.03438 101.666664L137.45625 101.666664ZM147.87813 98.666664L149.51875 98.86979Q149.12813 100.291664 148.08125 101.08854Q147.03438 101.885414 145.40938 101.885414Q143.3625 101.885414 142.15938 100.61979Q140.95625 99.354164 140.95625 97.072914Q140.95625 94.729164 142.15938 93.43229Q143.37813 92.11979 145.31563 92.11979Q147.19063 92.11979 148.37813 93.40104Q149.56563 94.666664 149.56563 96.979164Q149.56563 97.11979 149.55 97.40104L142.59688 97.40104Q142.675 98.947914 143.45625 99.760414Q144.25313 100.572914 145.40938 100.572914Q146.28438 100.572914 146.89375 100.11979Q147.51875 99.666664 147.87813 98.666664ZM142.675 96.104164L147.89375 96.104164Q147.78438 94.93229 147.3 94.33854Q146.53438 93.416664 145.33125 93.416664Q144.25313 93.416664 143.50313 94.15104Q142.76875 94.885414 142.675 96.104164Z" fill-rule="nonzero"/><path fill="#9e9e9e" d="M31.3625 125.15104L31.3625 126.666664L22.846874 126.666664Q22.83125 126.08854 23.034374 125.572914Q23.3625 124.697914 24.065624 123.854164Q24.784374 123.010414 26.14375 121.90104Q28.2375 120.18229 28.971874 119.18229Q29.721874 118.166664 29.721874 117.27604Q29.721874 116.322914 29.05 115.68229Q28.378124 115.041664 27.3 115.041664Q26.14375 115.041664 25.45625 115.729164Q24.784374 116.416664 24.76875 117.61979L23.14375 117.447914Q23.315624 115.635414 24.39375 114.68229Q25.4875 113.729164 27.33125 113.729164Q29.175 113.729164 30.253124 114.760414Q31.346874 115.791664 31.346874 117.30729Q31.346874 118.072914 31.01875 118.822914Q30.70625 119.572914 29.971874 120.40104Q29.2375 121.229164 27.534374 122.666664Q26.1125 123.86979 25.70625 124.291664Q25.3 124.71354 25.05 125.15104L31.3625 125.15104ZM33.940624 126.666664L33.940624 124.86979L35.7375 124.86979L35.7375 126.666664L33.940624 126.666664ZM38.05 120.30729Q38.05 118.02604 38.51875 116.635414Q38.9875 115.24479 39.909374 114.49479Q40.846874 113.729164 42.253124 113.729164Q43.284374 113.729164 44.065624 114.15104Q44.846874 114.55729 45.346874 115.354164Q45.8625 116.135414 46.159374 117.27604Q46.45625 118.40104 46.45625 120.30729Q46.45625 122.572914 45.9875 123.979164Q45.51875 125.36979 44.58125 126.135414Q43.659374 126.885414 42.253124 126.885414Q40.378124 126.885414 39.315624 125.55729Q38.05 123.947914 38.05 120.30729ZM39.675 120.30729Q39.675 123.479164 40.409374 124.541664Q41.159374 125.58854 42.253124 125.58854Q43.33125 125.58854 44.08125 124.541664Q44.83125 123.479164 44.83125 120.30729Q44.83125 117.135414 44.08125 116.08854Q43.33125 115.041664 42.2375 115.041664Q41.14375 115.041664 40.4875 115.96354Q39.675 117.135414 39.675 120.30729ZM48.346874 116.86979Q48.346874 115.49479 49.034374 114.52604Q49.7375 113.55729 51.05 113.55729Q52.26875 113.55729 53.065624 114.43229Q53.8625 115.291664 53.8625 116.979164Q53.8625 118.604164 53.05 119.49479Q52.253124 120.36979 51.065624 120.36979Q49.909374 120.36979 49.128124 119.510414Q48.346874 118.635414 48.346874 116.86979ZM51.096874 114.65104Q50.503124 114.65104 50.1125 115.166664Q49.721874 115.666664 49.721874 117.02604Q49.721874 118.27604 50.1125 118.77604Q50.51875 119.27604 51.096874 119.27604Q51.690624 119.27604 52.08125 118.77604Q52.471874 118.260414 52.471874 116.916664Q52.471874 115.666664 52.08125 115.166664Q51.690624 114.65104 51.096874 114.65104ZM51.1125 127.135414L58.159374 113.55729L59.440624 113.55729L52.409374 127.135414L51.1125 127.135414ZM56.675 123.635414Q56.675 122.260414 57.3625 121.291664Q58.065624 120.322914 59.39375 120.322914Q60.6125 120.322914 61.39375 121.197914Q62.190624 122.05729 62.190624 123.74479Q62.190624 125.36979 61.39375 126.260414Q60.596874 127.135414 59.409374 127.135414Q58.2375 127.135414 57.45625 126.260414Q56.675 125.385414 56.675 123.635414ZM59.440624 121.416664Q58.846874 121.416664 58.45625 121.93229Q58.065624 122.43229 58.065624 123.80729Q58.065624 125.02604 58.45625 125.541664Q58.846874 126.05729 59.425 126.05729Q60.034374 126.05729 60.425 125.541664Q60.815624 125.02604 60.815624 123.68229Q60.815624 122.43229 60.425 121.93229Q60.034374 121.416664 59.440624 121.416664Z" fill-rule="nonzero"/><path stroke="#757575" stroke-width="1.0" stroke-linecap="butt" d="M22.3 108.166664L185.48334 108.166664L323.58575 97.548965" fill-rule="nonzero"/><path fill="#9e9e9e" d="M325.58575 97.548965C325.58575 96.4444 324.69034 95.548965 323.58575 95.548965C322.4812 95.548965 321.58575 96.4444 321.58575 97.548965C321.58575 98.653534 322.4812 99.548965 323.58575 99.548965C324.69034 99.548965 325.58575 98.653534 325.58575 97.548965" fill-rule="nonzero"/><path fill="#1a1a1a" d="M23.7375 148.66667L23.7375 135.77605L25.440624 135.77605L25.440624 141.07292L32.14375 141.07292L32.14375 135.77605L33.846874 135.77605L33.846874 148.66667L32.14375 148.66667L32.14375 142.58855L25.440624 142.58855L25.440624 148.66667L23.7375 148.66667ZM36.503124 137.60417L36.503124 135.77605L38.08125 135.77605L38.08125 137.60417L36.503124 137.60417ZM36.503124 148.66667L36.503124 139.33855L38.08125 139.33855L38.08125 148.66667L36.503124 148.66667ZM40.190624 149.44792L41.7375 149.66667Q41.83125 150.38542 42.26875 150.71355Q42.8625 151.15105 43.878124 151.15105Q44.971874 151.15105 45.565624 150.69792Q46.175 150.26042 46.378124 149.47917Q46.503124 148.9948 46.503124 147.44792Q45.45625 148.66667 43.909374 148.66667Q41.9875 148.66667 40.925 147.27605Q39.878124 145.88542 39.878124 143.94792Q39.878124 142.60417 40.3625 141.47917Q40.846874 140.35417 41.76875 139.7448Q42.690624 139.1198 43.925 139.1198Q45.58125 139.1198 46.64375 140.46355L46.64375 139.33855L48.1125 139.33855L48.1125 147.40105Q48.1125 149.58855 47.659374 150.4948Q47.221874 151.40105 46.253124 151.91667Q45.3 152.44792 43.89375 152.44792Q42.221874 152.44792 41.190624 151.69792Q40.159374 150.94792 40.190624 149.44792ZM41.503124 143.83855Q41.503124 145.66667 42.2375 146.51042Q42.971874 147.35417 44.065624 147.35417Q45.159374 147.35417 45.89375 146.52605Q46.628124 145.6823 46.628124 143.88542Q46.628124 142.16667 45.8625 141.3073Q45.1125 140.4323 44.034374 140.4323Q42.9875 140.4323 42.2375 141.29167Q41.503124 142.15105 41.503124 143.83855ZM50.4875 148.66667L50.4875 135.77605L52.065624 135.77605L52.065624 140.40105Q53.175 139.1198 54.8625 139.1198Q55.89375 139.1198 56.659374 139.52605Q57.425 139.9323 57.753124 140.66667Q58.096874 141.38542 58.096874 142.7448L58.096874 148.66667L56.503124 148.66667L56.503124 142.7448Q56.503124 141.5573 55.9875 141.02605Q55.471874 140.47917 54.534374 140.47917Q53.83125 140.47917 53.20625 140.85417Q52.596874 141.21355 52.33125 141.83855Q52.065624 142.46355 52.065624 143.5573L52.065624 148.66667L50.4875 148.66667ZM64.87813 144.79167L64.87813 143.21355L69.7375 143.21355L69.7375 144.79167L64.87813 144.79167ZM76.78438 148.66667L76.78438 135.77605L85.47188 135.77605L85.47188 137.3073L78.4875 137.3073L78.4875 141.29167L84.53438 141.29167L84.53438 142.8073L78.4875 142.8073L78.4875 148.66667L76.78438 148.66667ZM87.50313 137.60417L87.50313 135.77605L89.08125 135.77605L89.08125 137.60417L87.50313 137.60417ZM87.50313 148.66667L87.50313 139.33855L89.08125 139.33855L89.08125 148.66667L87.50313 148.66667ZM90.425 148.66667L93.84688 143.8073L90.69063 139.33855L92.65938 139.33855L94.09688 141.52605Q94.50313 142.15105 94.75313 142.57292Q95.12813 141.97917 95.45625 141.54167L97.03438 139.33855L98.925 139.33855L95.69063 143.72917L99.175 148.66667L97.22188 148.66667L95.31563 145.76042L94.8 144.97917L92.34688 148.66667L90.425 148.66667ZM105.58125 147.51042Q104.70625 148.26042 103.87813 148.57292Q103.06563 148.88542 102.14375 148.88542Q100.59688 148.88542 99.76875 148.13542Q98.95625 147.3698 98.95625 146.19792Q98.95625 145.52605 99.26875 144.96355Q99.58125 144.38542 100.08125 144.04167Q100.58125 143.69792 101.22188 143.52605Q101.69063 143.40105 102.62813 143.29167Q104.53438 143.0573 105.44063 142.7448Q105.45625 142.41667 105.45625 142.32292Q105.45625 141.3698 105.00313 140.96355Q104.39375 140.4323 103.20625 140.4323Q102.08125 140.4323 101.55 140.82292Q101.01875 141.21355 100.76875 142.21355L99.22188 141.9948Q99.44063 140.9948 99.90938 140.38542Q100.39375 139.77605 101.3 139.44792Q102.22188 139.1198 103.44063 139.1198Q104.62813 139.1198 105.37813 139.40105Q106.12813 139.6823 106.47188 140.1198Q106.83125 140.54167 106.97188 141.1823Q107.05 141.58855 107.05 142.65105L107.05 144.76042Q107.05 146.96355 107.14375 147.5573Q107.25313 148.13542 107.55 148.66667L105.89375 148.66667Q105.64375 148.16667 105.58125 147.51042ZM105.44063 143.97917Q104.58125 144.33855 102.8625 144.57292Q101.89375 144.71355 101.4875 144.90105Q101.08125 145.07292 100.8625 145.41667Q100.64375 145.7448 100.64375 146.16667Q100.64375 146.79167 101.1125 147.21355Q101.59688 147.63542 102.51875 147.63542Q103.44063 147.63542 104.14375 147.2448Q104.8625 146.83855 105.19063 146.15105Q105.44063 145.60417 105.44063 144.5573L105.44063 143.97917ZM110.94063 148.66667L109.47188 148.66667L109.47188 135.77605L111.06563 135.77605L111.06563 140.38542Q112.06563 139.1198 113.6125 139.1198Q114.47188 139.1198 115.2375 139.47917Q116.01875 139.82292 116.50313 140.44792Q117.00313 141.07292 117.28438 141.96355Q117.56563 142.85417 117.56563 143.85417Q117.56563 146.26042 116.37813 147.57292Q115.20625 148.88542 113.53438 148.88542Q111.89375 148.88542 110.94063 147.4948L110.94063 148.66667ZM110.925 143.9323Q110.925 145.60417 111.37813 146.35417Q112.12813 147.57292 113.40938 147.57292Q114.44063 147.57292 115.19063 146.6823Q115.95625 145.77605 115.95625 143.9948Q115.95625 142.16667 115.22188 141.29167Q114.50313 140.41667 113.47188 140.41667Q112.44063 140.41667 111.675 141.32292Q110.925 142.22917 110.925 143.9323ZM119.45625 148.66667L119.45625 135.77605L121.03438 135.77605L121.03438 148.66667L119.45625 148.66667ZM129.87813 145.66667L131.51875 145.8698Q131.12813 147.29167 130.08125 148.08855Q129.03438 148.88542 127.40938 148.88542Q125.3625 148.88542 124.15938 147.6198Q122.95625 146.35417 122.95625 144.07292Q122.95625 141.72917 124.15938 140.4323Q125.37813 139.1198 127.31563 139.1198Q129.19063 139.1198 130.37813 140.40105Q131.56563 141.66667 131.56563 143.97917Q131.56563 144.1198 131.55 144.40105L124.59688 144.40105Q124.675 145.94792 125.45625 146.76042Q126.25313 147.57292 127.40938 147.57292Q128.28438 147.57292 128.89375 147.1198Q129.51875 146.66667 129.87813 145.66667ZM124.675 143.10417L129.89375 143.10417Q129.78438 141.9323 129.3 141.33855Q128.53438 140.41667 127.33125 140.41667Q126.25313 140.41667 125.50313 141.15105Q124.76875 141.88542 124.675 143.10417Z" fill-rule="nonzero"/><path fill="#9e9e9e" d="M29.003124 173.66667L27.425 173.66667L27.425 163.58855Q26.846874 164.13542 25.925 164.6823Q25.003124 165.21355 24.253124 165.4948L24.253124 163.96355Q25.58125 163.33855 26.58125 162.44792Q27.58125 161.5573 27.9875 160.72917L29.003124 160.72917L29.003124 173.66667ZM41.253124 163.9323L39.690624 164.0573Q39.471874 163.13542 39.08125 162.71355Q38.440624 162.02605 37.503124 162.02605Q36.753124 162.02605 36.175 162.44792Q35.425 162.9948 34.9875 164.04167Q34.565624 165.08855 34.55 167.02605Q35.128124 166.15105 35.940624 165.72917Q36.76875 165.3073 37.675 165.3073Q39.26875 165.3073 40.378124 166.47917Q41.4875 167.63542 41.4875 169.47917Q41.4875 170.69792 40.95625 171.7448Q40.440624 172.77605 39.51875 173.33855Q38.6125 173.88542 37.45625 173.88542Q35.471874 173.88542 34.221874 172.4323Q32.971874 170.97917 32.971874 167.63542Q32.971874 163.90105 34.3625 162.19792Q35.565624 160.72917 37.596874 160.72917Q39.128124 160.72917 40.096874 161.58855Q41.065624 162.4323 41.253124 163.9323ZM34.8 169.4948Q34.8 170.3073 35.14375 171.0573Q35.4875 171.8073 36.1125 172.19792Q36.7375 172.58855 37.425 172.58855Q38.425 172.58855 39.14375 171.77605Q39.8625 170.96355 39.8625 169.57292Q39.8625 168.2448 39.14375 167.47917Q38.440624 166.69792 37.3625 166.69792Q36.284374 166.69792 35.534374 167.47917Q34.8 168.2448 34.8 169.4948ZM43.940624 173.66667L43.940624 171.8698L45.7375 171.8698L45.7375 173.66667L43.940624 173.66667ZM50.4875 166.6823Q49.503124 166.32292 49.01875 165.65105Q48.55 164.97917 48.55 164.0573Q48.55 162.65105 49.55 161.69792Q50.565624 160.72917 52.253124 160.72917Q53.940624 160.72917 54.95625 161.71355Q55.9875 162.6823 55.9875 164.08855Q55.9875 164.9948 55.51875 165.66667Q55.05 166.32292 54.096874 166.6823Q55.284374 167.07292 55.89375 167.9323Q56.51875 168.79167 56.51875 169.97917Q56.51875 171.63542 55.346874 172.76042Q54.175 173.88542 52.26875 173.88542Q50.3625 173.88542 49.190624 172.76042Q48.034374 171.6198 48.034374 169.9323Q48.034374 168.6823 48.659374 167.83855Q49.3 166.97917 50.4875 166.6823ZM50.159374 163.9948Q50.159374 164.91667 50.753124 165.4948Q51.346874 166.07292 52.284374 166.07292Q53.190624 166.07292 53.76875 165.4948Q54.3625 164.91667 54.3625 164.08855Q54.3625 163.21355 53.753124 162.6198Q53.159374 162.02605 52.26875 162.02605Q51.3625 162.02605 50.753124 162.60417Q50.159374 163.1823 50.159374 163.9948ZM49.659374 169.94792Q49.659374 170.6198 49.971874 171.26042Q50.3 171.88542 50.925 172.2448Q51.565624 172.58855 52.3 172.58855Q53.425 172.58855 54.159374 171.85417Q54.909374 171.1198 54.909374 169.9948Q54.909374 168.85417 54.14375 168.1198Q53.378124 167.3698 52.2375 167.3698Q51.128124 167.3698 50.39375 168.10417Q49.659374 168.83855 49.659374 169.94792ZM58.346874 163.8698Q58.346874 162.4948 59.034374 161.52605Q59.7375 160.5573 61.05 160.5573Q62.26875 160.5573 63.065624 161.4323Q63.8625 162.29167 63.8625 163.97917Q63.8625 165.60417 63.05 166.4948Q62.253124 167.3698 61.065624 167.3698Q59.909374 167.3698 59.128124 166.51042Q58.346874 165.63542 58.346874 163.8698ZM61.096874 161.65105Q60.503124 161.65105 60.1125 162.16667Q59.721874 162.66667 59.721874 164.02605Q59.721874 165.27605 60.1125 165.77605Q60.51875 166.27605 61.096874 166.27605Q61.690624 166.27605 62.08125 165.77605Q62.471874 165.26042 62.471874 163.91667Q62.471874 162.66667 62.08125 162.16667Q61.690624 161.65105 61.096874 161.65105ZM61.1125 174.13542L68.15938 160.5573L69.44063 160.5573L62.409374 174.13542L61.1125 174.13542ZM66.675 170.63542Q66.675 169.26042 67.3625 168.29167Q68.06563 167.32292 69.39375 167.32292Q70.6125 167.32292 71.39375 168.19792Q72.19063 169.0573 72.19063 170.7448Q72.19063 172.3698 71.39375 173.26042Q70.59688 174.13542 69.40938 174.13542Q68.2375 174.13542 67.45625 173.26042Q66.675 172.38542 66.675 170.63542ZM69.44063 168.41667Q68.84688 168.41667 68.45625 168.9323Q68.06563 169.4323 68.06563 170.8073Q68.06563 172.02605 68.45625 172.54167Q68.84688 173.0573 69.425 173.0573Q70.03438 173.0573 70.425 172.54167Q70.81563 172.02605 70.81563 170.6823Q70.81563 169.4323 70.425 168.9323Q70.03438 168.41667 69.44063 168.41667Z" fill-rule="nonzero"/><path stroke="#757575" stroke-width="1.0" stroke-linecap="butt" d="M22.3 155.16667L185.48334 155.16667L240.11992 147.77771" fill-rule="nonzero"/><path fill="#9e9e9e" d="M242.11992 147.77771C242.11992 146.67314 241.22449 145.77771 240.11992 145.77771C239.01535 145.77771 238.11992 146.67314 238.11992 147.77771C238.11992 148.88228 239.01535 149.77771 240.11992 149.77771C241.22449 149.77771 242.11992 148.88228 242.11992 147.77771" fill-rule="nonzero"/><path fill="#1a1a1a" d="M23.64375 253.11174L23.64375 240.22112L26.20625 240.22112L29.253124 249.34612Q29.675 250.62737 29.8625 251.25237Q30.08125 250.54924 30.55 249.18987L33.64375 240.22112L35.925 240.22112L35.925 253.11174L34.284374 253.11174L34.284374 242.33049L30.55 253.11174L29.003124 253.11174L25.284374 242.14299L25.284374 253.11174L23.64375 253.11174ZM44.878124 250.11174L46.51875 250.31487Q46.128124 251.73674 45.08125 252.53362Q44.034374 253.33049 42.409374 253.33049Q40.3625 253.33049 39.159374 252.06487Q37.95625 250.79924 37.95625 248.51799Q37.95625 246.17424 39.159374 244.87737Q40.378124 243.56487 42.315624 243.56487Q44.190624 243.56487 45.378124 244.84612Q46.565624 246.11174 46.565624 248.42424Q46.565624 248.56487 46.55 248.84612L39.596874 248.84612Q39.675 250.39299 40.45625 251.20549Q41.253124 252.01799 42.409374 252.01799Q43.284374 252.01799 43.89375 251.56487Q44.51875 251.11174 44.878124 250.11174ZM39.675 247.54924L44.89375 247.54924Q44.784374 246.37737 44.3 245.78362Q43.534374 244.86174 42.33125 244.86174Q41.253124 244.86174 40.503124 245.59612Q39.76875 246.33049 39.675 247.54924ZM54.55 253.11174L54.55 251.93987Q53.659374 253.33049 51.925 253.33049Q50.815624 253.33049 49.878124 252.72112Q48.940624 252.09612 48.425 251.00237Q47.909374 249.89299 47.909374 248.45549Q47.909374 247.04924 48.378124 245.92424Q48.846874 244.78362 49.76875 244.17424Q50.70625 243.56487 51.8625 243.56487Q52.70625 243.56487 53.3625 243.92424Q54.01875 244.28362 54.440624 244.84612L54.440624 240.22112L56.003124 240.22112L56.003124 253.11174L54.55 253.11174ZM49.534374 248.45549Q49.534374 250.25237 50.284374 251.14299Q51.05 252.01799 52.08125 252.01799Q53.1125 252.01799 53.83125 251.17424Q54.565624 250.33049 54.565624 248.58049Q54.565624 246.67424 53.83125 245.78362Q53.096874 244.87737 52.01875 244.87737Q50.95625 244.87737 50.2375 245.73674Q49.534374 246.59612 49.534374 248.45549ZM58.503124 242.04924L58.503124 240.22112L60.08125 240.22112L60.08125 242.04924L58.503124 242.04924ZM58.503124 253.11174L58.503124 243.78362L60.08125 243.78362L60.08125 253.11174L58.503124 253.11174ZM68.59688 253.11174L68.59688 251.73674Q67.51875 253.33049 65.64375 253.33049Q64.81563 253.33049 64.09688 253.01799Q63.378124 252.68987 63.034374 252.22112Q62.690624 251.73674 62.55 251.03362Q62.45625 250.56487 62.45625 249.56487L62.45625 243.78362L64.03438 243.78362L64.03438 248.95549Q64.03438 250.18987 64.12813 250.62737Q64.28438 251.25237 64.76875 251.61174Q65.25313 251.95549 65.95625 251.95549Q66.675 251.95549 67.3 251.59612Q67.925 251.23674 68.175 250.61174Q68.44063 249.97112 68.44063 248.78362L68.44063 243.78362L70.01875 243.78362L70.01875 253.11174L68.59688 253.11174ZM72.4875 253.11174L72.4875 243.78362L73.90938 243.78362L73.90938 245.08049Q74.34688 244.40862 75.06563 243.98674Q75.8 243.56487 76.7375 243.56487Q77.76875 243.56487 78.425 244.00237Q79.09688 244.42424 79.3625 245.20549Q80.47188 243.56487 82.25313 243.56487Q83.64375 243.56487 84.37813 244.34612Q85.12813 245.11174 85.12813 246.70549L85.12813 253.11174L83.56563 253.11174L83.56563 247.23674Q83.56563 246.28362 83.40938 245.86174Q83.25313 245.43987 82.84688 245.18987Q82.44063 244.93987 81.89375 244.93987Q80.90938 244.93987 80.25313 245.59612Q79.6125 246.25237 79.6125 247.68987L79.6125 253.11174L78.03438 253.11174L78.03438 247.04924Q78.03438 245.98674 77.64375 245.47112Q77.25313 244.93987 76.37813 244.93987Q75.70625 244.93987 75.14375 245.29924Q74.58125 245.64299 74.31563 246.31487Q74.06563 246.98674 74.06563 248.26799L74.06563 253.11174L72.4875 253.11174ZM90.87813 249.23674L90.87813 247.65862L95.7375 247.65862L95.7375 249.23674L90.87813 249.23674ZM102.675 253.11174L102.675 240.22112L104.425 240.22112L111.19063 250.34612L111.19063 240.22112L112.81563 240.22112L112.81563 253.11174L111.08125 253.11174L104.3 242.98674L104.3 253.11174L102.675 253.11174ZM114.89375 248.43987Q114.89375 245.84612 116.34688 244.59612Q117.55 243.56487 119.26875 243.56487Q121.20625 243.56487 122.425 244.83049Q123.64375 246.09612 123.64375 248.31487Q123.64375 250.11174 123.09688 251.14299Q122.56563 252.17424 121.53438 252.75237Q120.50313 253.33049 119.26875 253.33049Q117.31563 253.33049 116.09688 252.08049Q114.89375 250.81487 114.89375 248.43987ZM116.51875 248.43987Q116.51875 250.23674 117.3 251.12737Q118.08125 252.01799 119.26875 252.01799Q120.45625 252.01799 121.2375 251.12737Q122.01875 250.22112 122.01875 248.39299Q122.01875 246.65862 121.22188 245.76799Q120.44063 244.87737 119.26875 244.87737Q118.08125 244.87737 117.3 245.76799Q116.51875 246.65862 116.51875 248.43987ZM130.78438 253.11174L130.78438 240.22112L139.47188 240.22112L139.47188 241.75237L132.4875 241.75237L132.4875 245.73674L138.53438 245.73674L138.53438 247.25237L132.4875 247.25237L132.4875 253.11174L130.78438 253.11174ZM141.50313 242.04924L141.50313 240.22112L143.08125 240.22112L143.08125 242.04924L141.50313 242.04924ZM141.50313 253.11174L141.50313 243.78362L143.08125 243.78362L143.08125 253.11174L141.50313 253.11174ZM144.425 253.11174L147.84688 248.25237L144.69063 243.78362L146.65938 243.78362L148.09688 245.97112Q148.50313 246.59612 148.75313 247.01799Q149.12813 246.42424 149.45625 245.98674L151.03438 243.78362L152.925 243.78362L149.69063 248.17424L153.175 253.11174L151.22188 253.11174L149.31563 250.20549L148.8 249.42424L146.34688 253.11174L144.425 253.11174Z" fill-rule="nonzero"/><path fill="#9e9e9e" d="M23.159374 266.90863L23.159374 265.393L31.4875 265.393L31.4875 266.62738Q30.26875 267.93988 29.05 270.11176Q27.846874 272.268 27.190624 274.56488Q26.70625 276.18988 26.58125 278.11176L24.95625 278.11176Q24.9875 276.59613 25.55 274.43988Q26.128124 272.28363 27.190624 270.28363Q28.253124 268.28363 29.45625 266.90863L23.159374 266.90863ZM33.940624 278.11176L33.940624 276.31488L35.7375 276.31488L35.7375 278.11176L33.940624 278.11176ZM38.05 274.7055L39.64375 274.50238Q39.909374 275.84613 40.565624 276.43988Q41.221874 277.03363 42.159374 277.03363Q43.284374 277.03363 44.05 276.268Q44.815624 275.48676 44.815624 274.34613Q44.815624 273.25238 44.096874 272.54926Q43.39375 271.8305 42.3 271.8305Q41.846874 271.8305 41.175 272.018L41.346874 270.62738Q41.503124 270.643 41.6125 270.643Q42.6125 270.643 43.425 270.11176Q44.2375 269.5805 44.2375 268.48676Q44.2375 267.61176 43.64375 267.04926Q43.05 266.47113 42.128124 266.47113Q41.20625 266.47113 40.58125 267.04926Q39.971874 267.62738 39.8 268.79926L38.221874 268.518Q38.503124 266.92426 39.534374 266.04926Q40.565624 265.17426 42.096874 265.17426Q43.14375 265.17426 44.034374 265.62738Q44.925 266.0805 45.39375 266.86176Q45.8625 267.643 45.8625 268.518Q45.8625 269.36176 45.409374 270.04926Q44.971874 270.72113 44.08125 271.12738Q45.221874 271.393 45.846874 272.23676Q46.4875 273.06488 46.4875 274.29926Q46.4875 275.98676 45.253124 277.17426Q44.034374 278.34613 42.159374 278.34613Q40.45625 278.34613 39.33125 277.3305Q38.221874 276.31488 38.05 274.7055ZM48.346874 268.31488Q48.346874 266.93988 49.034374 265.97113Q49.7375 265.00238 51.05 265.00238Q52.26875 265.00238 53.065624 265.87738Q53.8625 266.73676 53.8625 268.42426Q53.8625 270.04926 53.05 270.93988Q52.253124 271.81488 51.065624 271.81488Q49.909374 271.81488 49.128124 270.9555Q48.346874 270.0805 48.346874 268.31488ZM51.096874 266.09613Q50.503124 266.09613 50.1125 266.61176Q49.721874 267.11176 49.721874 268.47113Q49.721874 269.72113 50.1125 270.22113Q50.51875 270.72113 51.096874 270.72113Q51.690624 270.72113 52.08125 270.22113Q52.471874 269.7055 52.471874 268.36176Q52.471874 267.11176 52.08125 266.61176Q51.690624 266.09613 51.096874 266.09613ZM51.1125 278.5805L58.159374 265.00238L59.440624 265.00238L52.409374 278.5805L51.1125 278.5805ZM56.675 275.0805Q56.675 273.7055 57.3625 272.73676Q58.065624 271.768 59.39375 271.768Q60.6125 271.768 61.39375 272.643Q62.190624 273.50238 62.190624 275.18988Q62.190624 276.81488 61.39375 277.7055Q60.596874 278.5805 59.409374 278.5805Q58.2375 278.5805 57.45625 277.7055Q56.675 276.8305 56.675 275.0805ZM59.440624 272.86176Q58.846874 272.86176 58.45625 273.37738Q58.065624 273.87738 58.065624 275.25238Q58.065624 276.47113 58.45625 276.98676Q58.846874 277.50238 59.425 277.50238Q60.034374 277.50238 60.425 276.98676Q60.815624 276.47113 60.815624 275.12738Q60.815624 273.87738 60.425 273.37738Q60.034374 272.86176 59.440624 272.86176Z" fill-rule="nonzero"/><path stroke="#757575" stroke-width="1.0" stroke-linecap="butt" d="M22.3 259.61176L185.48334 259.61176L200.05069 259.61176" fill-rule="nonzero"/><path fill="#9e9e9e" d="M202.05069 259.61176C202.05069 258.50717 201.15526 257.61176 200.05069 257.61176C198.94612 257.61176 198.05069 258.50717 198.05069 259.61176C198.05069 260.7163 198.94612 261.61176 200.05069 261.61176C201.15526 261.61176 202.05069 260.7163 202.05069 259.61176" fill-rule="nonzero"/><path fill="#1a1a1a" d="M23.64375 362.51215L23.64375 349.62152L26.20625 349.62152L29.253124 358.74652Q29.675 360.02777 29.8625 360.65277Q30.08125 359.94965 30.55 358.59027L33.64375 349.62152L35.925 349.62152L35.925 362.51215L34.284374 362.51215L34.284374 351.7309L30.55 362.51215L29.003124 362.51215L25.284374 351.5434L25.284374 362.51215L23.64375 362.51215ZM44.878124 359.51215L46.51875 359.71527Q46.128124 361.13715 45.08125 361.93402Q44.034374 362.7309 42.409374 362.7309Q40.3625 362.7309 39.159374 361.46527Q37.95625 360.19965 37.95625 357.9184Q37.95625 355.57465 39.159374 354.27777Q40.378124 352.96527 42.315624 352.96527Q44.190624 352.96527 45.378124 354.24652Q46.565624 355.51215 46.565624 357.82465Q46.565624 357.96527 46.55 358.24652L39.596874 358.24652Q39.675 359.7934 40.45625 360.6059Q41.253124 361.4184 42.409374 361.4184Q43.284374 361.4184 43.89375 360.96527Q44.51875 360.51215 44.878124 359.51215ZM39.675 356.94965L44.89375 356.94965Q44.784374 355.77777 44.3 355.18402Q43.534374 354.26215 42.33125 354.26215Q41.253124 354.26215 40.503124 354.99652Q39.76875 355.7309 39.675 356.94965ZM54.55 362.51215L54.55 361.34027Q53.659374 362.7309 51.925 362.7309Q50.815624 362.7309 49.878124 362.12152Q48.940624 361.49652 48.425 360.40277Q47.909374 359.2934 47.909374 357.8559Q47.909374 356.44965 48.378124 355.32465Q48.846874 354.18402 49.76875 353.57465Q50.70625 352.96527 51.8625 352.96527Q52.70625 352.96527 53.3625 353.32465Q54.01875 353.68402 54.440624 354.24652L54.440624 349.62152L56.003124 349.62152L56.003124 362.51215L54.55 362.51215ZM49.534374 357.8559Q49.534374 359.65277 50.284374 360.5434Q51.05 361.4184 52.08125 361.4184Q53.1125 361.4184 53.83125 360.57465Q54.565624 359.7309 54.565624 357.9809Q54.565624 356.07465 53.83125 355.18402Q53.096874 354.27777 52.01875 354.27777Q50.95625 354.27777 50.2375 355.13715Q49.534374 355.99652 49.534374 357.8559ZM58.503124 351.44965L58.503124 349.62152L60.08125 349.62152L60.08125 351.44965L58.503124 351.44965ZM58.503124 362.51215L58.503124 353.18402L60.08125 353.18402L60.08125 362.51215L58.503124 362.51215ZM68.59688 362.51215L68.59688 361.13715Q67.51875 362.7309 65.64375 362.7309Q64.81563 362.7309 64.09688 362.4184Q63.378124 362.09027 63.034374 361.62152Q62.690624 361.13715 62.55 360.43402Q62.45625 359.96527 62.45625 358.96527L62.45625 353.18402L64.03438 353.18402L64.03438 358.3559Q64.03438 359.59027 64.12813 360.02777Q64.28438 360.65277 64.76875 361.01215Q65.25313 361.3559 65.95625 361.3559Q66.675 361.3559 67.3 360.99652Q67.925 360.63715 68.175 360.01215Q68.44063 359.37152 68.44063 358.18402L68.44063 353.18402L70.01875 353.18402L70.01875 362.51215L68.59688 362.51215ZM72.4875 362.51215L72.4875 353.18402L73.90938 353.18402L73.90938 354.4809Q74.34688 353.80902 75.06563 353.38715Q75.8 352.96527 76.7375 352.96527Q77.76875 352.96527 78.425 353.40277Q79.09688 353.82465 79.3625 354.6059Q80.47188 352.96527 82.25313 352.96527Q83.64375 352.96527 84.37813 353.74652Q85.12813 354.51215 85.12813 356.1059L85.12813 362.51215L83.56563 362.51215L83.56563 356.63715Q83.56563 355.68402 83.40938 355.26215Q83.25313 354.84027 82.84688 354.59027Q82.44063 354.34027 81.89375 354.34027Q80.90938 354.34027 80.25313 354.99652Q79.6125 355.65277 79.6125 357.09027L79.6125 362.51215L78.03438 362.51215L78.03438 356.44965Q78.03438 355.38715 77.64375 354.87152Q77.25313 354.34027 76.37813 354.34027Q75.70625 354.34027 75.14375 354.69965Q74.58125 355.0434 74.31563 355.71527Q74.06563 356.38715 74.06563 357.6684L74.06563 362.51215L72.4875 362.51215ZM90.87813 358.63715L90.87813 357.05902L95.7375 357.05902L95.7375 358.63715L90.87813 358.63715ZM102.78438 362.51215L102.78438 349.62152L111.47188 349.62152L111.47188 351.15277L104.4875 351.15277L104.4875 355.13715L110.53438 355.13715L110.53438 356.65277L104.4875 356.65277L104.4875 362.51215L102.78438 362.51215ZM113.50313 351.44965L113.50313 349.62152L115.08125 349.62152L115.08125 351.44965L113.50313 351.44965ZM113.50313 362.51215L113.50313 353.18402L115.08125 353.18402L115.08125 362.51215L113.50313 362.51215ZM116.425 362.51215L119.84688 357.65277L116.69063 353.18402L118.65938 353.18402L120.09688 355.37152Q120.50313 355.99652 120.75313 356.4184Q121.12813 355.82465 121.45625 355.38715L123.03438 353.18402L124.925 353.18402L121.69063 357.57465L125.175 362.51215L123.22188 362.51215L121.31563 359.6059L120.8 358.82465L118.34688 362.51215L116.425 362.51215ZM131.58125 361.3559Q130.70625 362.1059 129.87813 362.4184Q129.06563 362.7309 128.14375 362.7309Q126.59688 362.7309 125.76875 361.9809Q124.95625 361.21527 124.95625 360.0434Q124.95625 359.37152 125.26875 358.80902Q125.58125 358.2309 126.08125 357.88715Q126.58125 357.5434 127.22188 357.37152Q127.69063 357.24652 128.62813 357.13715Q130.53438 356.90277 131.44063 356.59027Q131.45625 356.26215 131.45625 356.1684Q131.45625 355.21527 131.00313 354.80902Q130.39375 354.27777 129.20625 354.27777Q128.08125 354.27777 127.55 354.6684Q127.01875 355.05902 126.76875 356.05902L125.22188 355.84027Q125.44063 354.84027 125.90938 354.2309Q126.39375 353.62152 127.3 353.2934Q128.22188 352.96527 129.44063 352.96527Q130.62813 352.96527 131.37813 353.24652Q132.12813 353.52777 132.47188 353.96527Q132.83125 354.38715 132.97188 355.02777Q133.05 355.43402 133.05 356.49652L133.05 358.6059Q133.05 360.80902 133.14375 361.40277Q133.25313 361.9809 133.55 362.51215L131.89375 362.51215Q131.64375 362.01215 131.58125 361.3559ZM131.44063 357.82465Q130.58125 358.18402 128.8625 358.4184Q127.89375 358.55902 127.4875 358.74652Q127.08125 358.9184 126.8625 359.26215Q126.64375 359.59027 126.64375 360.01215Q126.64375 360.63715 127.1125 361.05902Q127.59688 361.4809 128.51875 361.4809Q129.44063 361.4809 130.14375 361.09027Q130.8625 360.68402 131.19063 359.99652Q131.44063 359.44965 131.44063 358.40277L131.44063 357.82465ZM136.94063 362.51215L135.47188 362.51215L135.47188 349.62152L137.06563 349.62152L137.06563 354.2309Q138.06563 352.96527 139.6125 352.96527Q140.47188 352.96527 141.2375 353.32465Q142.01875 353.6684 142.50313 354.2934Q143.00313 354.9184 143.28438 355.80902Q143.56563 356.69965 143.56563 357.69965Q143.56563 360.1059 142.37813 361.4184Q141.20625 362.7309 139.53438 362.7309Q137.89375 362.7309 136.94063 361.34027L136.94063 362.51215ZM136.925 357.77777Q136.925 359.44965 137.37813 360.19965Q138.12813 361.4184 139.40938 361.4184Q140.44063 361.4184 141.19063 360.52777Q141.95625 359.62152 141.95625 357.84027Q141.95625 356.01215 141.22188 355.13715Q140.50313 354.26215 139.47188 354.26215Q138.44063 354.26215 137.675 355.1684Q136.925 356.07465 136.925 357.77777ZM145.45625 362.51215L145.45625 349.62152L147.03438 349.62152L147.03438 362.51215L145.45625 362.51215ZM155.87813 359.51215L157.51875 359.71527Q157.12813 361.13715 156.08125 361.93402Q155.03438 362.7309 153.40938 362.7309Q151.3625 362.7309 150.15938 361.46527Q148.95625 360.19965 148.95625 357.9184Q148.95625 355.57465 150.15938 354.27777Q151.37813 352.96527 153.31563 352.96527Q155.19063 352.96527 156.37813 354.24652Q157.56563 355.51215 157.56563 357.82465Q157.56563 357.96527 157.55 358.24652L150.59688 358.24652Q150.675 359.7934 151.45625 360.6059Q152.25313 361.4184 153.40938 361.4184Q154.28438 361.4184 154.89375 360.96527Q155.51875 360.51215 155.87813 359.51215ZM150.675 356.94965L155.89375 356.94965Q155.78438 355.77777 155.3 355.18402Q154.53438 354.26215 153.33125 354.26215Q152.25313 354.26215 151.50313 354.99652Q150.76875 355.7309 150.675 356.94965Z" fill-rule="nonzero"/><path fill="#9e9e9e" d="M29.003124 387.51215L27.425 387.51215L27.425 377.43402Q26.846874 377.9809 25.925 378.52777Q25.003124 379.05902 24.253124 379.34027L24.253124 377.80902Q25.58125 377.18402 26.58125 376.2934Q27.58125 375.40277 27.9875 374.57465L29.003124 374.57465L29.003124 387.51215ZM41.253124 377.77777L39.690624 377.90277Q39.471874 376.9809 39.08125 376.55902Q38.440624 375.87152 37.503124 375.87152Q36.753124 375.87152 36.175 376.2934Q35.425 376.84027 34.9875 377.88715Q34.565624 378.93402 34.55 380.87152Q35.128124 379.99652 35.940624 379.57465Q36.76875 379.15277 37.675 379.15277Q39.26875 379.15277 40.378124 380.32465Q41.4875 381.4809 41.4875 383.32465Q41.4875 384.5434 40.95625 385.59027Q40.440624 386.62152 39.51875 387.18402Q38.6125 387.7309 37.45625 387.7309Q35.471874 387.7309 34.221874 386.27777Q32.971874 384.82465 32.971874 381.4809Q32.971874 377.74652 34.3625 376.0434Q35.565624 374.57465 37.596874 374.57465Q39.128124 374.57465 40.096874 375.43402Q41.065624 376.27777 41.253124 377.77777ZM34.8 383.34027Q34.8 384.15277 35.14375 384.90277Q35.4875 385.65277 36.1125 386.0434Q36.7375 386.43402 37.425 386.43402Q38.425 386.43402 39.14375 385.62152Q39.8625 384.80902 39.8625 383.4184Q39.8625 382.09027 39.14375 381.32465Q38.440624 380.5434 37.3625 380.5434Q36.284374 380.5434 35.534374 381.32465Q34.8 382.09027 34.8 383.34027ZM43.940624 387.51215L43.940624 385.71527L45.7375 385.71527L45.7375 387.51215L43.940624 387.51215ZM48.284374 384.52777L49.8 384.38715Q50.003124 385.46527 50.534374 385.94965Q51.08125 386.43402 51.940624 386.43402Q52.675 386.43402 53.221874 386.1059Q53.76875 385.76215 54.1125 385.21527Q54.471874 384.65277 54.70625 383.69965Q54.940624 382.74652 54.940624 381.76215Q54.940624 381.65277 54.940624 381.44965Q54.45625 382.19965 53.628124 382.6684Q52.815624 383.13715 51.8625 383.13715Q50.26875 383.13715 49.159374 381.9809Q48.05 380.82465 48.05 378.9184Q48.05 376.96527 49.20625 375.77777Q50.3625 374.57465 52.096874 374.57465Q53.3625 374.57465 54.39375 375.26215Q55.440624 375.93402 55.971874 377.18402Q56.51875 378.43402 56.51875 380.80902Q56.51875 383.27777 55.971874 384.74652Q55.440624 386.19965 54.378124 386.96527Q53.33125 387.7309 51.909374 387.7309Q50.39375 387.7309 49.425 386.90277Q48.471874 386.05902 48.284374 384.52777ZM54.76875 378.84027Q54.76875 377.4809 54.034374 376.68402Q53.315624 375.88715 52.3 375.88715Q51.2375 375.88715 50.45625 376.74652Q49.675 377.6059 49.675 378.9809Q49.675 380.21527 50.409374 380.9809Q51.159374 381.74652 52.253124 381.74652Q53.346874 381.74652 54.05 380.9809Q54.76875 380.21527 54.76875 378.84027ZM58.346874 377.71527Q58.346874 376.34027 59.034374 375.37152Q59.7375 374.40277 61.05 374.40277Q62.26875 374.40277 63.065624 375.27777Q63.8625 376.13715 63.8625 377.82465Q63.8625 379.44965 63.05 380.34027Q62.253124 381.21527 61.065624 381.21527Q59.909374 381.21527 59.128124 380.3559Q58.346874 379.4809 58.346874 377.71527ZM61.096874 375.49652Q60.503124 375.49652 60.1125 376.01215Q59.721874 376.51215 59.721874 377.87152Q59.721874 379.12152 60.1125 379.62152Q60.51875 380.12152 61.096874 380.12152Q61.690624 380.12152 62.08125 379.62152Q62.471874 379.1059 62.471874 377.76215Q62.471874 376.51215 62.08125 376.01215Q61.690624 375.49652 61.096874 375.49652ZM61.1125 387.9809L68.15938 374.40277L69.44063 374.40277L62.409374 387.9809L61.1125 387.9809ZM66.675 384.4809Q66.675 383.1059 67.3625 382.13715Q68.06563 381.1684 69.39375 381.1684Q70.6125 381.1684 71.39375 382.0434Q72.19063 382.90277 72.19063 384.59027Q72.19063 386.21527 71.39375 387.1059Q70.59688 387.9809 69.40938 387.9809Q68.2375 387.9809 67.45625 387.1059Q66.675 386.2309 66.675 384.4809ZM69.44063 382.26215Q68.84688 382.26215 68.45625 382.77777Q68.06563 383.27777 68.06563 384.65277Q68.06563 385.87152 68.45625 386.38715Q68.84688 386.90277 69.425 386.90277Q70.03438 386.90277 70.425 386.38715Q70.81563 385.87152 70.81563 384.52777Q70.81563 383.27777 70.425 382.77777Q70.03438 382.26215 69.44063 382.26215Z" fill-rule="nonzero"/><path stroke="#757575" stroke-width="1.0" stroke-linecap="butt" d="M22.3 369.01215L185.48334 369.01215L248.09076 369.01215" fill-rule="nonzero"/><path fill="#9e9e9e" d="M250.09076 369.01215C250.09076 367.90756 249.19534 367.01215 248.09076 367.01215C246.98619 367.01215 246.09076 367.90756 246.09076 369.01215C246.09076 370.1167 246.98619 371.01215 248.09076 371.01215C249.19534 371.01215 250.09076 370.1167 250.09076 369.01215" fill-rule="nonzero"/><path fill="#1a1a1a" d="M595.0125 101.666664L595.0125 88.77604L596.73126 88.77604L596.73126 100.15104L603.075 100.15104L603.075 101.666664L595.0125 101.666664ZM604.29376 96.99479Q604.29376 94.40104 605.7469 93.15104Q606.95 92.11979 608.66876 92.11979Q610.60626 92.11979 611.825 93.385414Q613.04376 94.65104 613.04376 96.86979Q613.04376 98.666664 612.4969 99.697914Q611.96564 100.729164 610.9344 101.30729Q609.90314 101.885414 608.66876 101.885414Q606.71564 101.885414 605.4969 100.635414Q604.29376 99.36979 604.29376 96.99479ZM605.91876 96.99479Q605.91876 98.791664 606.7 99.68229Q607.48126 100.572914 608.66876 100.572914Q609.85626 100.572914 610.6375 99.68229Q611.41876 98.77604 611.41876 96.947914Q611.41876 95.21354 610.6219 94.322914Q609.84064 93.43229 608.66876 93.43229Q607.48126 93.43229 606.7 94.322914Q605.91876 95.21354 605.91876 96.99479ZM616.60626 101.666664L613.7469 92.33854L615.3875 92.33854L616.8719 97.71354L617.4344 99.729164Q617.46564 99.572914 617.90314 97.791664L619.40314 92.33854L621.02814 92.33854L622.41876 97.74479L622.8875 99.52604L623.41876 97.729164L625.02814 92.33854L626.5594 92.33854L623.6375 101.666664L621.9969 101.666664L620.5125 96.072914L620.15314 94.479164L618.2625 101.666664L616.60626 101.666664ZM632.27814 97.791664L632.27814 96.21354L637.1375 96.21354L637.1375 97.791664L632.27814 97.791664ZM644.1844 101.666664L644.1844 88.77604L652.8719 88.77604L652.8719 90.30729L645.8875 90.30729L645.8875 94.291664L651.9344 94.291664L651.9344 95.80729L645.8875 95.80729L645.8875 101.666664L644.1844 101.666664ZM654.90314 90.604164L654.90314 88.77604L656.48126 88.77604L656.48126 90.604164L654.90314 90.604164ZM654.90314 101.666664L654.90314 92.33854L656.48126 92.33854L656.48126 101.666664L654.90314 101.666664ZM657.825 101.666664L661.2469 96.80729L658.09064 92.33854L660.0594 92.33854L661.4969 94.52604Q661.90314 95.15104 662.15314 95.572914Q662.52814 94.979164 662.85626 94.541664L664.4344 92.33854L666.325 92.33854L663.09064 96.729164L666.575 101.666664L664.6219 101.666664L662.71564 98.760414L662.2 97.979164L659.7469 101.666664L657.825 101.666664ZM672.98126 100.510414Q672.10626 101.260414 671.27814 101.572914Q670.46564 101.885414 669.54376 101.885414Q667.9969 101.885414 667.16876 101.135414Q666.35626 100.36979 666.35626 99.197914Q666.35626 98.52604 666.66876 97.96354Q666.98126 97.385414 667.48126 97.041664Q667.98126 96.697914 668.6219 96.52604Q669.09064 96.40104 670.02814 96.291664Q671.9344 96.05729 672.84064 95.74479Q672.85626 95.416664 672.85626 95.322914Q672.85626 94.36979 672.40314 93.96354Q671.79376 93.43229 670.60626 93.43229Q669.48126 93.43229 668.95 93.822914Q668.41876 94.21354 668.16876 95.21354L666.6219 94.99479Q666.84064 93.99479 667.3094 93.385414Q667.79376 92.77604 668.7 92.447914Q669.6219 92.11979 670.84064 92.11979Q672.02814 92.11979 672.77814 92.40104Q673.52814 92.68229 673.8719 93.11979Q674.23126 93.541664 674.3719 94.18229Q674.45 94.58854 674.45 95.65104L674.45 97.760414Q674.45 99.96354 674.54376 100.55729Q674.65314 101.135414 674.95 101.666664L673.29376 101.666664Q673.04376 101.166664 672.98126 100.510414ZM672.84064 96.979164Q671.98126 97.33854 670.2625 97.572914Q669.29376 97.71354 668.8875 97.90104Q668.48126 98.072914 668.2625 98.416664Q668.04376 98.74479 668.04376 99.166664Q668.04376 99.791664 668.5125 100.21354Q668.9969 100.635414 669.91876 100.635414Q670.84064 100.635414 671.54376 100.24479Q672.2625 99.83854 672.59064 99.15104Q672.84064 98.604164 672.84064 97.55729L672.84064 96.979164ZM678.34064 101.666664L676.8719 101.666664L676.8719 88.77604L678.46564 88.77604L678.46564 93.385414Q679.46564 92.11979 681.0125 92.11979Q681.8719 92.11979 682.6375 92.479164Q683.41876 92.822914 683.90314 93.447914Q684.40314 94.072914 684.6844 94.96354Q684.96564 95.854164 684.96564 96.854164Q684.96564 99.260414 683.77814 100.572914Q682.60626 101.885414 680.9344 101.885414Q679.29376 101.885414 678.34064 100.49479L678.34064 101.666664ZM678.325 96.93229Q678.325 98.604164 678.77814 99.354164Q679.52814 100.572914 680.8094 100.572914Q681.84064 100.572914 682.59064 99.68229Q683.35626 98.77604 683.35626 96.99479Q683.35626 95.166664 682.6219 94.291664Q681.90314 93.416664 680.8719 93.416664Q679.84064 93.416664 679.075 94.322914Q678.325 95.229164 678.325 96.93229ZM686.85626 101.666664L686.85626 88.77604L688.4344 88.77604L688.4344 101.666664L686.85626 101.666664ZM697.27814 98.666664L698.91876 98.86979Q698.52814 100.291664 697.48126 101.08854Q696.4344 101.885414 694.8094 101.885414Q692.7625 101.885414 691.5594 100.61979Q690.35626 99.354164 690.35626 97.072914Q690.35626 94.729164 691.5594 93.43229Q692.77814 92.11979 694.71564 92.11979Q696.59064 92.11979 697.77814 93.40104Q698.96564 94.666664 698.96564 96.979164Q698.96564 97.11979 698.95 97.40104L691.9969 97.40104Q692.075 98.947914 692.85626 99.760414Q693.65314 100.572914 694.8094 100.572914Q695.6844 100.572914 696.29376 100.11979Q696.91876 99.666664 697.27814 98.666664ZM692.075 96.104164L697.29376 96.104164Q697.1844 94.93229 696.7 94.33854Q695.9344 93.416664 694.73126 93.416664Q693.65314 93.416664 692.90314 94.15104Q692.16876 94.885414 692.075 96.104164Z" fill-rule="nonzero"/><path fill="#9e9e9e" d="M664.5125 126.666664L664.5125 123.58854L658.9344 123.58854L658.9344 122.135414L664.8094 113.77604L666.10626 113.77604L666.10626 122.135414L667.84064 122.135414L667.84064 123.58854L666.10626 123.58854L666.10626 126.666664L664.5125 126.666664ZM664.5125 122.135414L664.5125 116.322914L660.48126 122.135414L664.5125 122.135414ZM670.34064 126.666664L670.34064 124.86979L672.1375 124.86979L672.1375 126.666664L670.34064 126.666664ZM682.7625 125.15104L682.7625 126.666664L674.2469 126.666664Q674.23126 126.08854 674.4344 125.572914Q674.7625 124.697914 675.46564 123.854164Q676.1844 123.010414 677.54376 121.90104Q679.6375 120.18229 680.3719 119.18229Q681.1219 118.166664 681.1219 117.27604Q681.1219 116.322914 680.45 115.68229Q679.77814 115.041664 678.7 115.041664Q677.54376 115.041664 676.85626 115.729164Q676.1844 116.416664 676.16876 117.61979L674.54376 117.447914Q674.71564 115.635414 675.79376 114.68229Q676.8875 113.729164 678.73126 113.729164Q680.575 113.729164 681.65314 114.760414Q682.7469 115.791664 682.7469 117.30729Q682.7469 118.072914 682.41876 118.822914Q682.10626 119.572914 681.3719 120.40104Q680.6375 121.229164 678.9344 122.666664Q677.5125 123.86979 677.10626 124.291664Q676.7 124.71354 676.45 125.15104L682.7625 125.15104ZM684.7469 116.86979Q684.7469 115.49479 685.4344 114.52604Q686.1375 113.55729 687.45 113.55729Q688.66876 113.55729 689.46564 114.43229Q690.2625 115.291664 690.2625 116.979164Q690.2625 118.604164 689.45 119.49479Q688.65314 120.36979 687.46564 120.36979Q686.3094 120.36979 685.52814 119.510414Q684.7469 118.635414 684.7469 116.86979ZM687.4969 114.65104Q686.90314 114.65104 686.5125 115.166664Q686.1219 115.666664 686.1219 117.02604Q686.1219 118.27604 686.5125 118.77604Q686.91876 119.27604 687.4969 119.27604Q688.09064 119.27604 688.48126 118.77604Q688.8719 118.260414 688.8719 116.916664Q688.8719 115.666664 688.48126 115.166664Q688.09064 114.65104 687.4969 114.65104ZM687.5125 127.135414L694.5594 113.55729L695.84064 113.55729L688.8094 127.135414L687.5125 127.135414ZM693.075 123.635414Q693.075 122.260414 693.7625 121.291664Q694.46564 120.322914 695.79376 120.322914Q697.0125 120.322914 697.79376 121.197914Q698.59064 122.05729 698.59064 123.74479Q698.59064 125.36979 697.79376 126.260414Q696.9969 127.135414 695.8094 127.135414Q694.6375 127.135414 693.85626 126.260414Q693.075 125.385414 693.075 123.635414ZM695.84064 121.416664Q695.2469 121.416664 694.85626 121.93229Q694.46564 122.43229 694.46564 123.80729Q694.46564 125.02604 694.85626 125.541664Q695.2469 126.05729 695.825 126.05729Q696.4344 126.05729 696.825 125.541664Q697.21564 125.02604 697.21564 123.68229Q697.21564 122.43229 696.825 121.93229Q696.4344 121.416664 695.84064 121.416664Z" fill-rule="nonzero"/><path stroke="#757575" stroke-width="1.0" stroke-linecap="butt" d="M699.7 108.166664L536.51666 108.166664L382.4074 94.5717" fill-rule="nonzero"/><path fill="#9e9e9e" d="M384.4074 94.5717C384.4074 93.46713 383.51196 92.5717 382.4074 92.5717C381.30283 92.5717 380.4074 93.46713 380.4074 94.5717C380.4074 95.67627 381.30283 96.5717 382.4074 96.5717C383.51196 96.5717 384.4074 95.67627 384.4074 94.5717" fill-rule="nonzero"/><path fill="#1a1a1a" d="M601.0125 288.44925L601.0125 275.55862L602.73126 275.55862L602.73126 286.93362L609.075 286.93362L609.075 288.44925L601.0125 288.44925ZM610.29376 283.77737Q610.29376 281.18362 611.7469 279.93362Q612.95 278.90237 614.66876 278.90237Q616.60626 278.90237 617.825 280.168Q619.04376 281.43362 619.04376 283.65237Q619.04376 285.44925 618.4969 286.4805Q617.96564 287.51175 616.9344 288.08987Q615.90314 288.668 614.66876 288.668Q612.71564 288.668 611.4969 287.418Q610.29376 286.15237 610.29376 283.77737ZM611.91876 283.77737Q611.91876 285.57425 612.7 286.46487Q613.48126 287.3555 614.66876 287.3555Q615.85626 287.3555 616.6375 286.46487Q617.41876 285.55862 617.41876 283.7305Q617.41876 281.99612 616.6219 281.1055Q615.84064 280.21487 614.66876 280.21487Q613.48126 280.21487 612.7 281.1055Q611.91876 281.99612 611.91876 283.77737ZM622.60626 288.44925L619.7469 279.12112L621.3875 279.12112L622.8719 284.49612L623.4344 286.51175Q623.46564 286.3555 623.90314 284.57425L625.40314 279.12112L627.02814 279.12112L628.41876 284.52737L628.8875 286.30862L629.41876 284.51175L631.02814 279.12112L632.5594 279.12112L629.6375 288.44925L627.9969 288.44925L626.5125 282.8555L626.15314 281.26175L624.2625 288.44925L622.60626 288.44925ZM638.27814 284.57425L638.27814 282.99612L643.1375 282.99612L643.1375 284.57425L638.27814 284.57425ZM650.075 288.44925L650.075 275.55862L651.825 275.55862L658.59064 285.68362L658.59064 275.55862L660.21564 275.55862L660.21564 288.44925L658.48126 288.44925L651.7 278.32425L651.7 288.44925L650.075 288.44925ZM662.29376 283.77737Q662.29376 281.18362 663.7469 279.93362Q664.95 278.90237 666.66876 278.90237Q668.60626 278.90237 669.825 280.168Q671.04376 281.43362 671.04376 283.65237Q671.04376 285.44925 670.4969 286.4805Q669.96564 287.51175 668.9344 288.08987Q667.90314 288.668 666.66876 288.668Q664.71564 288.668 663.4969 287.418Q662.29376 286.15237 662.29376 283.77737ZM663.91876 283.77737Q663.91876 285.57425 664.7 286.46487Q665.48126 287.3555 666.66876 287.3555Q667.85626 287.3555 668.6375 286.46487Q669.41876 285.55862 669.41876 283.7305Q669.41876 281.99612 668.6219 281.1055Q667.84064 280.21487 666.66876 280.21487Q665.48126 280.21487 664.7 281.1055Q663.91876 281.99612 663.91876 283.77737ZM678.1844 288.44925L678.1844 275.55862L686.8719 275.55862L686.8719 277.08987L679.8875 277.08987L679.8875 281.07425L685.9344 281.07425L685.9344 282.58987L679.8875 282.58987L679.8875 288.44925L678.1844 288.44925ZM688.90314 277.38675L688.90314 275.55862L690.48126 275.55862L690.48126 277.38675L688.90314 277.38675ZM688.90314 288.44925L688.90314 279.12112L690.48126 279.12112L690.48126 288.44925L688.90314 288.44925ZM691.825 288.44925L695.2469 283.58987L692.09064 279.12112L694.0594 279.12112L695.4969 281.30862Q695.90314 281.93362 696.15314 282.3555Q696.52814 281.76175 696.85626 281.32425L698.4344 279.12112L700.325 279.12112L697.09064 283.51175L700.575 288.44925L698.6219 288.44925L696.71564 285.543L696.2 284.76175L693.7469 288.44925L691.825 288.44925Z" fill-rule="nonzero"/><path fill="#9e9e9e" d="M654.5125 313.44925L654.5125 310.37112L648.9344 310.37112L648.9344 308.918L654.8094 300.55862L656.10626 300.55862L656.10626 308.918L657.84064 308.918L657.84064 310.37112L656.10626 310.37112L656.10626 313.44925L654.5125 313.44925ZM654.5125 308.918L654.5125 303.1055L650.48126 308.918L654.5125 308.918ZM659.6844 310.46487L661.2 310.32425Q661.40314 311.40237 661.9344 311.88675Q662.48126 312.37112 663.34064 312.37112Q664.075 312.37112 664.6219 312.043Q665.16876 311.69925 665.5125 311.15237Q665.8719 310.58987 666.10626 309.63675Q666.34064 308.68362 666.34064 307.69925Q666.34064 307.58987 666.34064 307.38675Q665.85626 308.13675 665.02814 308.6055Q664.21564 309.07425 663.2625 309.07425Q661.66876 309.07425 660.5594 307.918Q659.45 306.76175 659.45 304.8555Q659.45 302.90237 660.60626 301.71487Q661.7625 300.51175 663.4969 300.51175Q664.7625 300.51175 665.79376 301.19925Q666.84064 301.87112 667.3719 303.12112Q667.91876 304.37112 667.91876 306.74612Q667.91876 309.21487 667.3719 310.68362Q666.84064 312.13675 665.77814 312.90237Q664.73126 313.668 663.3094 313.668Q661.79376 313.668 660.825 312.83987Q659.8719 311.99612 659.6844 310.46487ZM666.16876 304.77737Q666.16876 303.418 665.4344 302.62112Q664.71564 301.82425 663.7 301.82425Q662.6375 301.82425 661.85626 302.68362Q661.075 303.543 661.075 304.918Q661.075 306.15237 661.8094 306.918Q662.5594 307.68362 663.65314 307.68362Q664.7469 307.68362 665.45 306.918Q666.16876 306.15237 666.16876 304.77737ZM670.34064 313.44925L670.34064 311.65237L672.1375 311.65237L672.1375 313.44925L670.34064 313.44925ZM674.5594 302.24612L674.5594 300.7305L682.8875 300.7305L682.8875 301.96487Q681.66876 303.27737 680.45 305.44925Q679.2469 307.6055 678.59064 309.90237Q678.10626 311.52737 677.98126 313.44925L676.35626 313.44925Q676.3875 311.93362 676.95 309.77737Q677.52814 307.62112 678.59064 305.62112Q679.65314 303.62112 680.85626 302.24612L674.5594 302.24612ZM684.7469 303.65237Q684.7469 302.27737 685.4344 301.30862Q686.1375 300.33987 687.45 300.33987Q688.66876 300.33987 689.46564 301.21487Q690.2625 302.07425 690.2625 303.76175Q690.2625 305.38675 689.45 306.27737Q688.65314 307.15237 687.46564 307.15237Q686.3094 307.15237 685.52814 306.293Q684.7469 305.418 684.7469 303.65237ZM687.4969 301.43362Q686.90314 301.43362 686.5125 301.94925Q686.1219 302.44925 686.1219 303.80862Q686.1219 305.05862 686.5125 305.55862Q686.91876 306.05862 687.4969 306.05862Q688.09064 306.05862 688.48126 305.55862Q688.8719 305.043 688.8719 303.69925Q688.8719 302.44925 688.48126 301.94925Q688.09064 301.43362 687.4969 301.43362ZM687.5125 313.918L694.5594 300.33987L695.84064 300.33987L688.8094 313.918L687.5125 313.918ZM693.075 310.418Q693.075 309.043 693.7625 308.07425Q694.46564 307.1055 695.79376 307.1055Q697.0125 307.1055 697.79376 307.9805Q698.59064 308.83987 698.59064 310.52737Q698.59064 312.15237 697.79376 313.043Q696.9969 313.918 695.8094 313.918Q694.6375 313.918 693.85626 313.043Q693.075 312.168 693.075 310.418ZM695.84064 308.19925Q695.2469 308.19925 694.85626 308.71487Q694.46564 309.21487 694.46564 310.58987Q694.46564 311.80862 694.85626 312.32425Q695.2469 312.83987 695.825 312.83987Q696.4344 312.83987 696.825 312.32425Q697.21564 311.80862 697.21564 310.46487Q697.21564 309.21487 696.825 308.71487Q696.4344 308.19925 695.84064 308.19925Z" fill-rule="nonzero"/><path stroke="#757575" stroke-width="1.0" stroke-linecap="butt" d="M699.7 294.94925L536.51666 294.94925L516.79565 294.94925" fill-rule="nonzero"/><path fill="#9e9e9e" d="M518.79565 294.94925C518.79565 293.8447 517.9002 292.94925 516.79565 292.94925C515.6911 292.94925 514.79565 293.8447 514.79565 294.94925C514.79565 296.05383 515.6911 296.94925 516.79565 296.94925C517.9002 296.94925 518.79565 296.05383 518.79565 294.94925" fill-rule="nonzero"/><path fill="#999999" d="M29.70625 62.425003L23.065624 65.25313L23.065624 64.03438L28.315624 61.846878L23.065624 59.690628L23.065624 58.471878L29.70625 61.268753L29.70625 62.425003ZM35.51875 66.8L34.284374 66.8L34.284374 58.956253Q33.846874 59.378128 33.1125 59.815628Q32.39375 60.237503 31.83125 60.440628L31.83125 59.253128Q32.8625 58.768753 33.628124 58.081253Q34.409374 57.393753 34.721874 56.737503L35.51875 56.737503L35.51875 66.8ZM38.878124 61.862503Q38.878124 60.081253 39.2375 59.003128Q39.6125 57.909378 40.33125 57.331253Q41.05 56.737503 42.14375 56.737503Q42.95625 56.737503 43.565624 57.065628Q44.175 57.393753 44.565624 58.003128Q44.971874 58.612503 45.190624 59.487503Q45.409374 60.362503 45.409374 61.862503Q45.409374 63.628128 45.05 64.70625Q44.690624 65.78438 43.971874 66.37813Q43.253124 66.97188 42.14375 66.97188Q40.70625 66.97188 39.878124 65.925Q38.878124 64.675 38.878124 61.862503ZM40.14375 61.862503Q40.14375 64.33125 40.721874 65.14375Q41.3 65.95625 42.14375 65.95625Q43.003124 65.95625 43.58125 65.14375Q44.159374 64.31563 44.159374 61.862503Q44.159374 59.378128 43.58125 58.565628Q43.003124 57.753128 42.128124 57.753128Q41.284374 57.753128 40.784374 58.471878Q40.14375 59.393753 40.14375 61.862503ZM46.878124 61.862503Q46.878124 60.081253 47.2375 59.003128Q47.6125 57.909378 48.33125 57.331253Q49.05 56.737503 50.14375 56.737503Q50.95625 56.737503 51.565624 57.065628Q52.175 57.393753 52.565624 58.003128Q52.971874 58.612503 53.190624 59.487503Q53.409374 60.362503 53.409374 61.862503Q53.409374 63.628128 53.05 64.70625Q52.690624 65.78438 51.971874 66.37813Q51.253124 66.97188 50.14375 66.97188Q48.70625 66.97188 47.878124 65.925Q46.878124 64.675 46.878124 61.862503ZM48.14375 61.862503Q48.14375 64.33125 48.721874 65.14375Q49.3 65.95625 50.14375 65.95625Q51.003124 65.95625 51.58125 65.14375Q52.159374 64.31563 52.159374 61.862503Q52.159374 59.378128 51.58125 58.565628Q51.003124 57.753128 50.128124 57.753128Q49.284374 57.753128 48.784374 58.471878Q48.14375 59.393753 48.14375 61.862503ZM54.878124 61.862503Q54.878124 60.081253 55.2375 59.003128Q55.6125 57.909378 56.33125 57.331253Q57.05 56.737503 58.14375 56.737503Q58.95625 56.737503 59.565624 57.065628Q60.175 57.393753 60.565624 58.003128Q60.971874 58.612503 61.190624 59.487503Q61.409374 60.362503 61.409374 61.862503Q61.409374 63.628128 61.05 64.70625Q60.690624 65.78438 59.971874 66.37813Q59.253124 66.97188 58.14375 66.97188Q56.70625 66.97188 55.878124 65.925Q54.878124 64.675 54.878124 61.862503ZM56.14375 61.862503Q56.14375 64.33125 56.721874 65.14375Q57.3 65.95625 58.14375 65.95625Q59.003124 65.95625 59.58125 65.14375Q60.159374 64.31563 60.159374 61.862503Q60.159374 59.378128 59.58125 58.565628Q59.003124 57.753128 58.128124 57.753128Q57.284374 57.753128 56.784374 58.471878Q56.14375 59.393753 56.14375 61.862503ZM66.7375 64.62813L67.94063 64.44063Q68.05 65.175 68.51875 65.56563Q68.9875 65.95625 69.83125 65.95625Q70.675 65.95625 71.08125 65.6125Q71.50313 65.26875 71.50313 64.8Q71.50313 64.37813 71.12813 64.14375Q70.87813 63.971878 69.87813 63.721878Q68.51875 63.378128 67.9875 63.128128Q67.47188 62.878128 67.20625 62.440628Q66.94063 62.003128 66.94063 61.471878Q66.94063 60.987503 67.15938 60.581253Q67.37813 60.159378 67.76875 59.878128Q68.05 59.675003 68.53438 59.534378Q69.03438 59.378128 69.6125 59.378128Q70.45625 59.378128 71.09688 59.628128Q71.75313 59.862503 72.06563 60.284378Q72.37813 60.706253 72.4875 61.409378L71.28438 61.581253Q71.20625 61.018753 70.8 60.706253Q70.40938 60.393753 69.69063 60.393753Q68.84688 60.393753 68.4875 60.675003Q68.12813 60.940628 68.12813 61.331253Q68.12813 61.565628 68.26875 61.753128Q68.425 61.956253 68.75313 62.081253Q68.925 62.143753 69.83125 62.393753Q71.14375 62.753128 71.65938 62.971878Q72.175 63.190628 72.45625 63.612503Q72.75313 64.03438 72.75313 64.65938Q72.75313 65.28438 72.39375 65.83125Q72.05 66.3625 71.3625 66.675Q70.69063 66.97188 69.83125 66.97188Q68.425 66.97188 67.675 66.37813Q66.94063 65.78438 66.7375 64.62813ZM76.90938 65.70625L77.08125 66.78438Q76.56563 66.89375 76.15938 66.89375Q75.4875 66.89375 75.1125 66.69063Q74.75313 66.47188 74.59688 66.12813Q74.45625 65.78438 74.45625 64.675L74.45625 60.503128L73.55 60.503128L73.55 59.534378L74.45625 59.534378L74.45625 57.737503L75.675 57.003128L75.675 59.534378L76.90938 59.534378L76.90938 60.503128L75.675 60.503128L75.675 64.7375Q75.675 65.26875 75.7375 65.425Q75.8 65.56563 75.94063 65.65938Q76.09688 65.75313 76.3625 65.75313Q76.58125 65.75313 76.90938 65.70625ZM82.95625 65.90938Q82.28438 66.4875 81.64375 66.7375Q81.01875 66.97188 80.28438 66.97188Q79.09688 66.97188 78.44063 66.39375Q77.8 65.8 77.8 64.87813Q77.8 64.34688 78.03438 63.909378Q78.28438 63.471878 78.675 63.206253Q79.08125 62.940628 79.56563 62.800003Q79.925 62.706253 80.65938 62.612503Q82.15938 62.440628 82.8625 62.190628Q82.8625 61.940628 82.8625 61.878128Q82.8625 61.112503 82.51875 60.815628Q82.05 60.393753 81.1125 60.393753Q80.25313 60.393753 79.83125 60.706253Q79.425 61.003128 79.22188 61.768753L78.01875 61.612503Q78.175 60.831253 78.55 60.362503Q78.94063 59.893753 79.64375 59.643753Q80.3625 59.378128 81.3 59.378128Q82.22188 59.378128 82.8 59.596878Q83.37813 59.815628 83.64375 60.143753Q83.925 60.471878 84.03438 60.987503Q84.09688 61.300003 84.09688 62.112503L84.09688 63.753128Q84.09688 65.47188 84.175 65.925Q84.25313 66.37813 84.4875 66.8L83.20625 66.8Q83.01875 66.40938 82.95625 65.90938ZM82.8625 63.159378Q82.19063 63.425003 80.84688 63.628128Q80.09688 63.737503 79.76875 63.878128Q79.45625 64.00313 79.28438 64.26875Q79.1125 64.53438 79.1125 64.84688Q79.1125 65.34688 79.4875 65.675Q79.8625 66.00313 80.58125 66.00313Q81.3 66.00313 81.84688 65.69063Q82.39375 65.37813 82.65938 64.83125Q82.8625 64.425 82.8625 63.612503L82.8625 63.159378ZM86.20625 66.8L86.20625 59.534378L87.31563 59.534378L87.31563 60.643753Q87.7375 59.862503 88.09688 59.628128Q88.45625 59.378128 88.89375 59.378128Q89.51875 59.378128 90.15938 59.768753L89.7375 60.909378Q89.28438 60.643753 88.83125 60.643753Q88.425 60.643753 88.09688 60.893753Q87.78438 61.128128 87.64375 61.565628Q87.44063 62.221878 87.44063 63.003128L87.44063 66.8L86.20625 66.8ZM90.7375 64.62813L91.94063 64.44063Q92.05 65.175 92.51875 65.56563Q92.9875 65.95625 93.83125 65.95625Q94.675 65.95625 95.08125 65.6125Q95.50313 65.26875 95.50313 64.8Q95.50313 64.37813 95.12813 64.14375Q94.87813 63.971878 93.87813 63.721878Q92.51875 63.378128 91.9875 63.128128Q91.47188 62.878128 91.20625 62.440628Q90.94063 62.003128 90.94063 61.471878Q90.94063 60.987503 91.15938 60.581253Q91.37813 60.159378 91.76875 59.878128Q92.05 59.675003 92.53438 59.534378Q93.03438 59.378128 93.6125 59.378128Q94.45625 59.378128 95.09688 59.628128Q95.75313 59.862503 96.06563 60.284378Q96.37813 60.706253 96.4875 61.409378L95.28438 61.581253Q95.20625 61.018753 94.8 60.706253Q94.40938 60.393753 93.69063 60.393753Q92.84688 60.393753 92.4875 60.675003Q92.12813 60.940628 92.12813 61.331253Q92.12813 61.565628 92.26875 61.753128Q92.425 61.956253 92.75313 62.081253Q92.925 62.143753 93.83125 62.393753Q95.14375 62.753128 95.65938 62.971878Q96.175 63.190628 96.45625 63.612503Q96.75313 64.03438 96.75313 64.65938Q96.75313 65.28438 96.39375 65.83125Q96.05 66.3625 95.3625 66.675Q94.69063 66.97188 93.83125 66.97188Q92.425 66.97188 91.675 66.37813Q90.94063 65.78438 90.7375 64.62813Z" fill-rule="nonzero"/><path fill="#757575" d="M23.846874 41.3L23.846874 26.9875L28.76875 26.9875Q30.440624 26.9875 31.33125 27.190624Q32.55 27.471874 33.425 28.20625Q34.55 29.175 35.1125 30.659374Q35.675 32.14375 35.675 34.065624Q35.675 35.690624 35.3 36.95625Q34.925 38.20625 34.315624 39.034374Q33.721874 39.8625 33.01875 40.346874Q32.315624 40.815624 31.315624 41.065624Q30.315624 41.3 29.003124 41.3L23.846874 41.3ZM25.7375 39.6125L28.8 39.6125Q30.20625 39.6125 31.003124 39.346874Q31.815624 39.08125 32.3 38.596874Q32.971874 37.925 33.346874 36.8Q33.721874 35.659374 33.721874 34.034374Q33.721874 31.784374 32.9875 30.58125Q32.253124 29.378124 31.190624 28.971874Q30.440624 28.675 28.753124 28.675L25.7375 28.675L25.7375 39.6125ZM37.628124 29.003124L37.628124 26.9875L39.39375 26.9875L39.39375 29.003124L37.628124 29.003124ZM37.628124 41.3L37.628124 30.925L39.39375 30.925L39.39375 41.3L37.628124 41.3ZM40.909374 38.20625L42.659374 37.925Q42.8 38.971874 43.471874 39.534374Q44.14375 40.08125 45.346874 40.08125Q46.55 40.08125 47.128124 39.596874Q47.721874 39.096874 47.721874 38.440624Q47.721874 37.846874 47.20625 37.503124Q46.846874 37.26875 45.409374 36.909374Q43.471874 36.409374 42.721874 36.065624Q41.9875 35.70625 41.596874 35.08125Q41.20625 34.440624 41.20625 33.675Q41.20625 32.9875 41.51875 32.39375Q41.846874 31.8 42.39375 31.409374Q42.8 31.1125 43.503124 30.909374Q44.221874 30.690624 45.034374 30.690624Q46.253124 30.690624 47.175 31.05Q48.096874 31.39375 48.534374 32.003124Q48.971874 32.596874 49.14375 33.596874L47.425 33.83125Q47.3 33.034374 46.7375 32.596874Q46.175 32.14375 45.159374 32.14375Q43.940624 32.14375 43.425 32.55Q42.909374 32.940624 42.909374 33.471874Q42.909374 33.815624 43.128124 34.096874Q43.33125 34.378124 43.8 34.565624Q44.065624 34.659374 45.346874 35.003124Q47.221874 35.503124 47.95625 35.83125Q48.690624 36.14375 49.1125 36.753124Q49.534374 37.346874 49.534374 38.253124Q49.534374 39.128124 49.01875 39.909374Q48.503124 40.690624 47.534374 41.1125Q46.565624 41.534374 45.346874 41.534374Q43.33125 41.534374 42.26875 40.690624Q41.20625 39.846874 40.909374 38.20625ZM55.45625 39.721874L55.70625 41.284374Q54.971874 41.440624 54.378124 41.440624Q53.425 41.440624 52.89375 41.14375Q52.378124 40.83125 52.159374 40.346874Q51.940624 39.846874 51.940624 38.26875L51.940624 32.3L50.659374 32.3L50.659374 30.925L51.940624 30.925L51.940624 28.3625L53.690624 27.3L53.690624 30.925L55.45625 30.925L55.45625 32.3L53.690624 32.3L53.690624 38.3625Q53.690624 39.1125 53.784374 39.33125Q53.878124 39.534374 54.08125 39.675Q54.3 39.8 54.690624 39.8Q54.971874 39.8 55.45625 39.721874ZM57.596874 41.3L57.596874 30.925L59.175 30.925L59.175 32.503124Q59.784374 31.39375 60.3 31.05Q60.815624 30.690624 61.425 30.690624Q62.315624 30.690624 63.2375 31.253124L62.628124 32.89375Q61.9875 32.503124 61.346874 32.503124Q60.76875 32.503124 60.3 32.8625Q59.846874 33.20625 59.64375 33.815624Q59.3625 34.753124 59.3625 35.8625L59.3625 41.3L57.596874 41.3ZM64.62813 29.003124L64.62813 26.9875L66.39375 26.9875L66.39375 29.003124L64.62813 29.003124ZM64.62813 41.3L64.62813 30.925L66.39375 30.925L66.39375 41.3L64.62813 41.3ZM70.2375 41.3L68.6125 41.3L68.6125 26.9875L70.3625 26.9875L70.3625 32.096874Q71.4875 30.690624 73.20625 30.690624Q74.15938 30.690624 75.01875 31.08125Q75.87813 31.471874 76.425 32.175Q76.97188 32.8625 77.28438 33.846874Q77.59688 34.83125 77.59688 35.95625Q77.59688 38.628124 76.28438 40.08125Q74.97188 41.534374 73.12813 41.534374Q71.28438 41.534374 70.2375 40.003124L70.2375 41.3ZM70.22188 36.034374Q70.22188 37.89375 70.72188 38.7375Q71.56563 40.08125 72.97188 40.08125Q74.12813 40.08125 74.95625 39.08125Q75.8 38.08125 75.8 36.096874Q75.8 34.065624 74.9875 33.1125Q74.19063 32.14375 73.05 32.14375Q71.89375 32.14375 71.05 33.14375Q70.22188 34.14375 70.22188 36.034374ZM86.40938 41.3L86.40938 39.76875Q85.20625 41.534374 83.12813 41.534374Q82.20625 41.534374 81.40938 41.190624Q80.6125 40.83125 80.22188 40.3Q79.84688 39.76875 79.69063 38.9875Q79.58125 38.471874 79.58125 37.346874L79.58125 30.925L81.33125 30.925L81.33125 36.675Q81.33125 38.05 81.44063 38.534374Q81.6125 39.221874 82.14375 39.628124Q82.69063 40.01875 83.47188 40.01875Q84.26875 40.01875 84.95625 39.6125Q85.65938 39.20625 85.94063 38.51875Q86.2375 37.815624 86.2375 36.4875L86.2375 30.925L87.9875 30.925L87.9875 41.3L86.40938 41.3ZM93.45625 39.721874L93.70625 41.284374Q92.97188 41.440624 92.37813 41.440624Q91.425 41.440624 90.89375 41.14375Q90.37813 40.83125 90.15938 40.346874Q89.94063 39.846874 89.94063 38.26875L89.94063 32.3L88.65938 32.3L88.65938 30.925L89.94063 30.925L89.94063 28.3625L91.69063 27.3L91.69063 30.925L93.45625 30.925L93.45625 32.3L91.69063 32.3L91.69063 38.3625Q91.69063 39.1125 91.78438 39.33125Q91.87813 39.534374 92.08125 39.675Q92.3 39.8 92.69063 39.8Q92.97188 39.8 93.45625 39.721874ZM95.62813 29.003124L95.62813 26.9875L97.39375 26.9875L97.39375 29.003124L95.62813 29.003124ZM95.62813 41.3L95.62813 30.925L97.39375 30.925L97.39375 41.3L95.62813 41.3ZM98.97188 36.1125Q98.97188 33.2375 100.56563 31.846874Q101.90938 30.690624 103.83125 30.690624Q105.97188 30.690624 107.31563 32.096874Q108.675 33.503124 108.675 35.971874Q108.675 37.971874 108.08125 39.128124Q107.4875 40.26875 106.33125 40.909374Q105.19063 41.534374 103.83125 41.534374Q101.64375 41.534374 100.3 40.14375Q98.97188 38.7375 98.97188 36.1125ZM100.76875 36.1125Q100.76875 38.1125 101.62813 39.096874Q102.50313 40.08125 103.83125 40.08125Q105.14375 40.08125 106.00313 39.096874Q106.87813 38.096874 106.87813 36.05Q106.87813 34.128124 106.00313 33.14375Q105.12813 32.14375 103.83125 32.14375Q102.50313 32.14375 101.62813 33.14375Q100.76875 34.128124 100.76875 36.1125ZM110.6125 41.3L110.6125 30.925L112.20625 30.925L112.20625 32.409374Q113.34688 30.690624 115.50313 30.690624Q116.44063 30.690624 117.22188 31.034374Q118.01875 31.3625 118.40938 31.909374Q118.8 32.45625 118.95625 33.20625Q119.05 33.70625 119.05 34.925L119.05 41.3L117.28438 41.3L117.28438 34.9875Q117.28438 33.909374 117.08125 33.378124Q116.87813 32.846874 116.34688 32.534374Q115.83125 32.221874 115.12813 32.221874Q114.00313 32.221874 113.19063 32.940624Q112.37813 33.64375 112.37813 35.628124L112.37813 41.3L110.6125 41.3ZM125.97188 36.1125Q125.97188 33.2375 127.56563 31.846874Q128.90938 30.690624 130.83125 30.690624Q132.97188 30.690624 134.31563 32.096874Q135.675 33.503124 135.675 35.971874Q135.675 37.971874 135.08125 39.128124Q134.4875 40.26875 133.33125 40.909374Q132.19063 41.534374 130.83125 41.534374Q128.64375 41.534374 127.3 40.14375Q125.97188 38.7375 125.97188 36.1125ZM127.76875 36.1125Q127.76875 38.1125 128.62813 39.096874Q129.50313 40.08125 130.83125 40.08125Q132.14375 40.08125 133.00313 39.096874Q133.87813 38.096874 133.87813 36.05Q133.87813 34.128124 133.00313 33.14375Q132.12813 32.14375 130.83125 32.14375Q129.50313 32.14375 128.62813 33.14375Q127.76875 34.128124 127.76875 36.1125ZM138.03438 41.3L138.03438 32.3L136.4875 32.3L136.4875 30.925L138.03438 30.925L138.03438 29.83125Q138.03438 28.784374 138.22188 28.26875Q138.47188 27.58125 139.1125 27.159374Q139.75313 26.7375 140.90938 26.7375Q141.65938 26.7375 142.55 26.909374L142.28438 28.440624Q141.7375 28.346874 141.25313 28.346874Q140.45625 28.346874 140.1125 28.690624Q139.78438 29.034374 139.78438 29.971874L139.78438 30.925L141.81563 30.925L141.81563 32.3L139.78438 32.3L139.78438 41.3L138.03438 41.3ZM149.20625 36.70625L150.9875 36.55Q151.1125 37.6125 151.56563 38.3Q152.03438 38.9875 153.00313 39.425Q153.9875 39.846874 155.22188 39.846874Q156.3 39.846874 157.12813 39.534374Q157.95625 39.20625 158.3625 38.64375Q158.76875 38.08125 158.76875 37.409374Q158.76875 36.7375 158.37813 36.2375Q157.9875 35.7375 157.09688 35.39375Q156.51875 35.159374 154.53438 34.690624Q152.56563 34.221874 151.78438 33.8Q150.75313 33.26875 150.25313 32.471874Q149.75313 31.675 149.75313 30.690624Q149.75313 29.596874 150.3625 28.659374Q150.97188 27.721874 152.15938 27.2375Q153.34688 26.7375 154.78438 26.7375Q156.37813 26.7375 157.59688 27.253124Q158.81563 27.76875 159.45625 28.76875Q160.1125 29.753124 160.15938 31.01875L158.34688 31.159374Q158.20625 29.8 157.3625 29.1125Q156.51875 28.409374 154.8625 28.409374Q153.14375 28.409374 152.34688 29.05Q151.56563 29.675 151.56563 30.55Q151.56563 31.33125 152.12813 31.83125Q152.675 32.33125 154.9875 32.846874Q157.3 33.3625 158.15938 33.753124Q159.40938 34.33125 160.00313 35.221874Q160.59688 36.096874 160.59688 37.253124Q160.59688 38.39375 159.94063 39.409374Q159.28438 40.425 158.05 40.9875Q156.83125 41.55 155.3 41.55Q153.3625 41.55 152.05 40.9875Q150.7375 40.409374 149.9875 39.26875Q149.2375 38.128124 149.20625 36.70625ZM169.72188 37.95625L171.53438 38.190624Q171.1125 39.76875 169.94063 40.659374Q168.78438 41.534374 166.97188 41.534374Q164.70625 41.534374 163.3625 40.14375Q162.03438 38.7375 162.03438 36.20625Q162.03438 33.58125 163.37813 32.14375Q164.72188 30.690624 166.87813 30.690624Q168.95625 30.690624 170.26875 32.1125Q171.59688 33.51875 171.59688 36.096874Q171.59688 36.253124 171.58125 36.565624L163.84688 36.565624Q163.94063 38.26875 164.81563 39.175Q165.69063 40.08125 166.9875 40.08125Q167.95625 40.08125 168.62813 39.58125Q169.31563 39.065624 169.72188 37.95625ZM163.94063 35.1125L169.7375 35.1125Q169.62813 33.815624 169.08125 33.159374Q168.2375 32.14375 166.89375 32.14375Q165.69063 32.14375 164.8625 32.95625Q164.03438 33.753124 163.94063 35.1125ZM176.50313 41.3L172.55 30.925L174.40938 30.925L176.64375 37.14375Q177.00313 38.14375 177.3 39.221874Q177.53438 38.409374 177.95625 37.253124L180.25313 30.925L182.06563 30.925L178.14375 41.3L176.50313 41.3ZM189.72188 37.95625L191.53438 38.190624Q191.1125 39.76875 189.94063 40.659374Q188.78438 41.534374 186.97188 41.534374Q184.70625 41.534374 183.3625 40.14375Q182.03438 38.7375 182.03438 36.20625Q182.03438 33.58125 183.37813 32.14375Q184.72188 30.690624 186.87813 30.690624Q188.95625 30.690624 190.26875 32.1125Q191.59688 33.51875 191.59688 36.096874Q191.59688 36.253124 191.58125 36.565624L183.84688 36.565624Q183.94063 38.26875 184.81563 39.175Q185.69063 40.08125 186.9875 40.08125Q187.95625 40.08125 188.62813 39.58125Q189.31563 39.065624 189.72188 37.95625ZM183.94063 35.1125L189.7375 35.1125Q189.62813 33.815624 189.08125 33.159374Q188.2375 32.14375 186.89375 32.14375Q185.69063 32.14375 184.8625 32.95625Q184.03438 33.753124 183.94063 35.1125ZM193.59688 41.3L193.59688 30.925L195.175 30.925L195.175 32.503124Q195.78438 31.39375 196.3 31.05Q196.81563 30.690624 197.425 30.690624Q198.31563 30.690624 199.2375 31.253124L198.62813 32.89375Q197.9875 32.503124 197.34688 32.503124Q196.76875 32.503124 196.3 32.8625Q195.84688 33.20625 195.64375 33.815624Q195.3625 34.753124 195.3625 35.8625L195.3625 41.3L193.59688 41.3ZM200.62813 29.003124L200.62813 26.9875L202.39375 26.9875L202.39375 29.003124L200.62813 29.003124ZM200.62813 41.3L200.62813 30.925L202.39375 30.925L202.39375 41.3L200.62813 41.3ZM208.45625 39.721874L208.70625 41.284374Q207.97188 41.440624 207.37813 41.440624Q206.425 41.440624 205.89375 41.14375Q205.37813 40.83125 205.15938 40.346874Q204.94063 39.846874 204.94063 38.26875L204.94063 32.3L203.65938 32.3L203.65938 30.925L204.94063 30.925L204.94063 28.3625L206.69063 27.3L206.69063 30.925L208.45625 30.925L208.45625 32.3L206.69063 32.3L206.69063 38.3625Q206.69063 39.1125 206.78438 39.33125Q206.87813 39.534374 207.08125 39.675Q207.3 39.8 207.69063 39.8Q207.97188 39.8 208.45625 39.721874ZM210.62813 29.003124L210.62813 26.9875L212.39375 26.9875L212.39375 29.003124L210.62813 29.003124ZM210.62813 41.3L210.62813 30.925L212.39375 30.925L212.39375 41.3L210.62813 41.3ZM221.72188 37.95625L223.53438 38.190624Q223.1125 39.76875 221.94063 40.659374Q220.78438 41.534374 218.97188 41.534374Q216.70625 41.534374 215.3625 40.14375Q214.03438 38.7375 214.03438 36.20625Q214.03438 33.58125 215.37813 32.14375Q216.72188 30.690624 218.87813 30.690624Q220.95625 30.690624 222.26875 32.1125Q223.59688 33.51875 223.59688 36.096874Q223.59688 36.253124 223.58125 36.565624L215.84688 36.565624Q215.94063 38.26875 216.81563 39.175Q217.69063 40.08125 218.9875 40.08125Q219.95625 40.08125 220.62813 39.58125Q221.31563 39.065624 221.72188 37.95625ZM215.94063 35.1125L221.7375 35.1125Q221.62813 33.815624 221.08125 33.159374Q220.2375 32.14375 218.89375 32.14375Q217.69063 32.14375 216.8625 32.95625Q216.03438 33.753124 215.94063 35.1125ZM224.90938 38.20625L226.65938 37.925Q226.8 38.971874 227.47188 39.534374Q228.14375 40.08125 229.34688 40.08125Q230.55 40.08125 231.12813 39.596874Q231.72188 39.096874 231.72188 38.440624Q231.72188 37.846874 231.20625 37.503124Q230.84688 37.26875 229.40938 36.909374Q227.47188 36.409374 226.72188 36.065624Q225.9875 35.70625 225.59688 35.08125Q225.20625 34.440624 225.20625 33.675Q225.20625 32.9875 225.51875 32.39375Q225.84688 31.8 226.39375 31.409374Q226.8 31.1125 227.50313 30.909374Q228.22188 30.690624 229.03438 30.690624Q230.25313 30.690624 231.175 31.05Q232.09688 31.39375 232.53438 32.003124Q232.97188 32.596874 233.14375 33.596874L231.425 33.83125Q231.3 33.034374 230.7375 32.596874Q230.175 32.14375 229.15938 32.14375Q227.94063 32.14375 227.425 32.55Q226.90938 32.940624 226.90938 33.471874Q226.90938 33.815624 227.12813 34.096874Q227.33125 34.378124 227.8 34.565624Q228.06563 34.659374 229.34688 35.003124Q231.22188 35.503124 231.95625 35.83125Q232.69063 36.14375 233.1125 36.753124Q233.53438 37.346874 233.53438 38.253124Q233.53438 39.128124 233.01875 39.909374Q232.50313 40.690624 231.53438 41.1125Q230.56563 41.534374 229.34688 41.534374Q227.33125 41.534374 226.26875 40.690624Q225.20625 39.846874 224.90938 38.20625Z" fill-rule="nonzero"/></svg>